<svg width="189" height="21" viewBox="0 0 189 21" fill="none" xmlns="http://www.w3.org/2000/svg">
<path fill-rule="evenodd" clip-rule="evenodd" d="M149.756 20.6844H153.606L149.756 10.5791V20.6844Z" fill="white"/>
<path fill-rule="evenodd" clip-rule="evenodd" d="M143.287 20.6842H148.901V5.73682L143.287 20.6842Z" fill="white"/>
<path fill-rule="evenodd" clip-rule="evenodd" d="M150.024 0L134.732 20.6842H142.218L150.024 0Z" fill="white"/>
<mask id="mask0" mask-type="alpha" maskUnits="userSpaceOnUse" x="0" y="3" width="189" height="18">
<path fill-rule="evenodd" clip-rule="evenodd" d="M0 3.34912H189V20.9807H0V3.34912Z" fill="white"/>
</mask>
<g mask="url(#mask0)">
<path fill-rule="evenodd" clip-rule="evenodd" d="M14.9703 20.5595L10.7465 14.4543C11.8693 14.0332 12.7248 13.4016 13.4198 12.5595C14.1149 11.6648 14.4356 10.5595 14.4356 9.19112V9.13849C14.4356 7.34902 13.8475 5.9806 12.7248 4.9806C11.602 3.9806 9.99802 3.50691 7.91287 3.50691H0V20.5595H3.79604V15.0859H6.7901L10.4792 20.5595H14.9703ZM111.154 7.87533C111.154 7.50691 111.261 7.13849 111.422 6.77007C111.582 6.45428 111.85 6.13849 112.17 5.87533C112.491 5.61218 112.865 5.45428 113.347 5.29639C113.774 5.13849 114.309 5.08586 114.844 5.08586C115.752 5.08586 116.608 5.24375 117.41 5.50691C118.212 5.8227 119.014 6.29639 119.869 6.92797L120.992 5.45428C120.083 4.77007 119.174 4.24376 118.212 3.87533C117.25 3.50691 116.127 3.34902 114.897 3.34902C114.095 3.34902 113.293 3.45428 112.598 3.71744C111.903 3.92797 111.315 4.29639 110.78 4.71744C110.246 5.13849 109.871 5.61218 109.604 6.19112C109.337 6.77007 109.176 7.40165 109.176 8.08586C109.176 8.8227 109.283 9.40165 109.497 9.92797C109.711 10.4543 110.085 10.928 110.566 11.2964C111.048 11.6648 111.636 12.0332 112.384 12.2964C113.133 12.5595 113.988 12.8227 114.951 13.0332C115.859 13.2438 116.608 13.4543 117.196 13.6648C117.784 13.8753 118.265 14.0859 118.586 14.349C118.907 14.6122 119.174 14.8753 119.281 15.1911C119.388 15.5069 119.495 15.8753 119.495 16.2964C119.495 17.1911 119.121 17.8753 118.426 18.4016C117.731 18.928 116.768 19.1911 115.592 19.1911C114.362 19.1911 113.347 18.9806 112.384 18.6122C111.475 18.1911 110.566 17.6122 109.657 16.8227L108.428 18.2438C109.444 19.1911 110.566 19.8227 111.689 20.2964C112.812 20.7174 114.095 20.9806 115.485 20.9806C116.341 20.9806 117.143 20.8753 117.838 20.6648C118.586 20.4543 119.174 20.1385 119.709 19.6648C120.244 19.2438 120.618 18.7174 120.939 18.1385C121.206 17.5595 121.366 16.8753 121.366 16.1385C121.366 14.8227 120.885 13.7701 119.976 13.0332C119.067 12.2964 117.624 11.7174 115.699 11.2964C114.737 11.0859 113.935 10.8753 113.347 10.6648C112.758 10.4543 112.277 10.1911 111.903 9.92797C111.582 9.66481 111.315 9.34902 111.208 9.03323C111.208 8.66481 111.154 8.29639 111.154 7.87533ZM131.632 5.40165H137.459V3.61218H123.879V5.40165H129.707V20.6648H131.685V5.40165H131.632ZM170.875 17.9806L169.592 16.7174C168.79 17.5069 167.935 18.0859 167.079 18.5069C166.224 18.928 165.208 19.1385 164.032 19.1385C163.069 19.1385 162.214 18.9806 161.358 18.6122C160.556 18.2438 159.808 17.7701 159.22 17.1385C158.632 16.5069 158.151 15.7701 157.83 14.8753C157.509 14.0332 157.349 13.0859 157.349 12.0859C157.349 11.0859 157.509 10.1911 157.83 9.29639C158.151 8.45428 158.632 7.71744 159.22 7.08586C159.808 6.45428 160.556 5.9806 161.358 5.61218C162.16 5.24376 163.069 5.08586 164.032 5.08586C165.208 5.08586 166.224 5.29639 167.079 5.71744C167.935 6.13849 168.737 6.71744 169.485 7.40165L170.822 5.9806C170.394 5.55954 169.966 5.19112 169.485 4.87533C169.004 4.55954 168.523 4.24376 167.988 4.03323C167.453 3.8227 166.865 3.61218 166.224 3.50691C165.582 3.40165 164.887 3.29639 164.085 3.29639C162.802 3.29639 161.626 3.50691 160.556 3.9806C159.487 4.45428 158.578 5.08586 157.776 5.87533C156.974 6.66481 156.386 7.61218 155.958 8.66481C155.531 9.71744 155.317 10.8753 155.317 12.0859C155.317 13.2964 155.531 14.4543 155.958 15.5595C156.386 16.6122 157.028 17.5595 157.776 18.349C158.525 19.1385 159.487 19.7701 160.503 20.1911C161.572 20.6648 162.695 20.8753 163.978 20.8753C164.78 20.8753 165.475 20.8227 166.117 20.6648C166.758 20.5069 167.347 20.2964 167.935 20.0332C168.469 19.7701 169.004 19.4543 169.485 19.0859C169.966 18.8227 170.394 18.4543 170.875 17.9806ZM181.301 11.0859L188.733 3.61218H186.22L176.275 13.8227V3.61218H174.297V20.6648H176.275V16.0859L179.964 12.4016L186.594 20.6648H189.053L181.301 11.0859ZM106.877 20.5595L102.653 14.4543C103.776 14.0332 104.632 13.4016 105.327 12.5595C106.022 11.6648 106.343 10.5595 106.343 9.19112V9.13849C106.343 7.34902 105.754 5.9806 104.632 4.9806C103.509 3.9806 101.905 3.50691 99.8198 3.50691H91.9069V20.5595H95.703V15.0859H98.697L102.386 20.5595H106.877ZM102.493 9.40165C102.493 10.1385 102.226 10.7174 101.745 11.1385C101.263 11.5595 100.515 11.7701 99.5525 11.7701H95.703V6.87533H99.499C100.461 6.87533 101.156 7.08586 101.691 7.50691C102.226 7.92797 102.493 8.50691 102.493 9.40165ZM88.4852 20.5595V17.2438H79.0752V13.6648H87.2554V10.349H79.0752V6.87533H88.3782V3.50691H75.3327V20.5595H88.4852ZM71.9109 12.0332C71.9109 10.7701 71.697 9.66481 71.2158 8.61218C70.7881 7.55954 70.1465 6.66481 69.3446 5.92797C68.5426 5.13849 67.5802 4.55954 66.404 4.13849C65.2812 3.71744 64.0515 3.50691 62.6614 3.50691H55.9248V20.5595H62.6614C63.998 20.5595 65.2812 20.349 66.404 19.928C67.5267 19.5069 68.4891 18.8753 69.3446 18.1385C70.1465 17.349 70.7881 16.4543 71.2158 15.4543C71.697 14.349 71.9109 13.2438 71.9109 12.0332ZM67.9545 12.0859C67.9545 12.8227 67.8475 13.5595 67.5802 14.1385C67.3129 14.7701 66.9921 15.2964 66.5109 15.7701C66.0832 16.2438 65.4951 16.5595 64.8535 16.8227C64.2119 17.0859 63.5168 17.1911 62.7149 17.1911H59.7743V6.87533H62.7149C63.4634 6.87533 64.2119 6.9806 64.8535 7.24375C65.4951 7.50691 66.0297 7.87533 66.5109 8.29639C66.9386 8.77007 67.3129 9.29639 67.5802 9.92797C67.7941 10.6122 67.9545 11.2964 67.9545 12.0859ZM52.5564 12.0332C52.5564 10.7701 52.3426 9.66481 51.8614 8.61218C51.4337 7.55954 50.7921 6.66481 49.9901 5.92797C49.1881 5.13849 48.2257 4.55954 47.0495 4.13849C45.9267 3.71744 44.697 3.50691 43.3069 3.50691H36.6238V20.5595H43.3604C44.697 20.5595 45.9802 20.349 47.103 19.928C48.2257 19.5069 49.1881 18.8753 50.0436 18.1385C50.8455 17.349 51.4871 16.4543 51.9149 15.4543C52.3426 14.349 52.5564 13.2438 52.5564 12.0332ZM48.6 12.0859C48.6 12.8227 48.4931 13.5595 48.2257 14.1385C47.9584 14.7701 47.6376 15.2964 47.1564 15.7701C46.7287 16.2438 46.1406 16.5595 45.499 16.8227C44.8574 17.0859 44.1624 17.1911 43.3604 17.1911H40.4198V6.87533H43.3604C44.1089 6.87533 44.8574 6.9806 45.499 7.24375C46.1406 7.50691 46.6752 7.87533 47.1564 8.29639C47.5842 8.77007 47.9584 9.29639 48.2257 9.92797C48.4396 10.6122 48.6 11.2964 48.6 12.0859ZM32.7208 13.1385V3.50691H28.9248V13.2964C28.9248 14.6648 28.604 15.6648 27.9089 16.349C27.2673 17.0332 26.3584 17.349 25.1822 17.349C24.0059 17.349 23.097 16.9806 22.4554 16.2964C21.8139 15.6122 21.4396 14.5595 21.4396 13.1385V3.50691H17.6436V13.2438C17.6436 15.7701 18.2851 17.6648 19.6752 18.928C21.0119 20.1911 22.8297 20.8227 25.1822 20.8227C26.3584 20.8227 27.3743 20.6648 28.3366 20.349C29.299 20.0332 30.101 19.5595 30.7426 18.928C31.3842 18.2964 31.9188 17.5069 32.2396 16.5069C32.5604 15.5595 32.7208 14.4543 32.7208 13.1385ZM10.5861 9.40165C10.5861 10.1385 10.3188 10.7174 9.83762 11.1385C9.35644 11.5595 8.60792 11.7701 7.64555 11.7701H3.79604V6.87533H7.59208C8.55446 6.87533 9.24951 7.08586 9.78416 7.50691C10.3188 7.92797 10.5861 8.50691 10.5861 9.40165Z" fill="white"/>
</g>
</svg>
