<svg width="40" height="40" viewBox="0 0 40 40" fill="none" xmlns="http://www.w3.org/2000/svg">
<path d="M20.0472 22.5713L21.3329 23.857L25.1898 20L21.3329 16.1431L20.0472 17.4287L21.7094 19.0909H14.8575V20.9091H21.7094L20.0472 22.5713Z" fill="black"/>
<path fill-rule="evenodd" clip-rule="evenodd" d="M27.0711 27.0711C30.9763 23.1658 30.9763 16.8342 27.0711 12.9289C23.1658 9.02369 16.8342 9.02369 12.9289 12.9289C9.02369 16.8342 9.02369 23.1658 12.9289 27.0711C16.8342 30.9763 23.1658 30.9763 27.0711 27.0711ZM25.7854 25.7854C28.9806 22.5902 28.9806 17.4098 25.7854 14.2146C22.5902 11.0194 17.4098 11.0194 14.2146 14.2146C11.0194 17.4098 11.0194 22.5902 14.2146 25.7854C17.4098 28.9806 22.5902 28.9806 25.7854 25.7854Z" fill="black"/>
</svg>
