<svg width="16" height="16" viewBox="0 0 16 16" fill="none" xmlns="http://www.w3.org/2000/svg">
<path d="M12.6667 0H3.33333C1.49267 0 0 1.40122 0 3.12912V11.8907C0 13.6186 1.49267 15.0198 3.33333 15.0198H12.6667C14.508 15.0198 16 13.6186 16 11.8907V3.12912C16 1.40122 14.508 0 12.6667 0ZM5.33333 11.8907H3.33333V5.00659H5.33333V11.8907ZM4.33333 4.21305C3.68933 4.21305 3.16667 3.71865 3.16667 3.10909C3.16667 2.49954 3.68933 2.00514 4.33333 2.00514C4.97733 2.00514 5.5 2.49954 5.5 3.10909C5.5 3.71865 4.978 4.21305 4.33333 4.21305ZM13.3333 11.8907H11.3333V8.38354C11.3333 6.27576 8.66667 6.43535 8.66667 8.38354V11.8907H6.66667V5.00659H8.66667V6.11117C9.59733 4.49279 13.3333 4.37326 13.3333 7.66071V11.8907Z" fill="#3F3C7F"/>
</svg>
