<svg width="15" height="12" viewBox="0 0 15 12" fill="none" xmlns="http://www.w3.org/2000/svg">
<path d="M12.6618 1.83827C13.2769 1.47057 13.7371 0.89158 13.9565 0.209406C13.3786 0.552334 12.7462 0.793902 12.0868 0.923665C11.1726 -0.0434134 9.72416 -0.278756 8.5508 0.34914C7.37744 0.977036 6.76968 2.31272 7.06712 3.60986C4.69971 3.491 2.49405 2.37271 0.999002 0.533258C0.218765 1.87904 0.617483 3.59941 1.91018 4.46477C1.44273 4.44974 0.985641 4.32318 0.577034 4.09563C0.577034 4.10798 0.577034 4.12034 0.577034 4.13269C0.577304 5.53455 1.56531 6.74208 2.93937 7.01991C2.50578 7.13788 2.05098 7.15524 1.60966 7.07068C1.99608 8.26954 3.10099 9.09084 4.36034 9.11535C3.31731 9.93399 2.02921 10.3779 0.703281 10.3758C0.468262 10.3761 0.233428 10.3626 0 10.3353C1.34645 11.2005 2.91355 11.6598 4.51404 11.6581C6.74069 11.6734 8.88057 10.7956 10.455 9.22102C12.0295 7.64644 12.9071 5.50648 12.8917 3.27983C12.8917 3.15221 12.8887 3.02527 12.8827 2.89903C13.4594 2.48227 13.9571 1.966 14.3524 1.37445C13.8152 1.61258 13.2453 1.76892 12.6618 1.83827Z" fill="#3F3C7F"/>
</svg>
