<svg width="71" height="46" viewBox="0 0 71 46" fill="none" xmlns="http://www.w3.org/2000/svg">
<path d="M70.5247 44.3625C70.4137 43.739 70.2584 43.2839 70.0586 42.9974L62.647 32.9407C62.27 32.4292 61.6724 32.1273 61.037 32.1273H9.643C9.00758 32.1273 8.40998 32.4292 8.033 32.9407L0.621363 42.9974C0.421639 43.2839 0.244107 43.739 0.155341 44.3625C0.00600984 45.2017 0.690998 45.8961 1.54339 45.8961H69.1366C69.989 45.8961 70.674 45.2017 70.5247 44.3625Z" fill="#C6C6C6"/>
<rect x="8.26123" width="54.1574" height="29.3735" rx="4.39169" fill="black"/>
<rect x="12.8508" y="3.67176" width="44.9782" height="22.0301" rx="2.19584" fill="white"/>
<line x1="35.234" y1="9.90813" x2="35.234" y2="20.3284" stroke="#0066FF" stroke-width="3.29377" stroke-linecap="round" stroke-linejoin="round"/>
<line x1="40.1688" y1="15.3936" x2="29.7485" y2="15.3936" stroke="#0066FF" stroke-width="3.29377" stroke-linecap="round" stroke-linejoin="round"/>
</svg>
