<svg width="55" height="57" viewBox="0 0 55 57" fill="none" xmlns="http://www.w3.org/2000/svg">
<path d="M24.9359 10.9095C24.0752 10.9095 23.3774 10.2117 23.3774 9.35096V0H4.67548C2.09328 0 0 2.09328 0 4.67548V38.9624C0 41.5446 2.09328 43.6379 4.67548 43.6379H29.6114C32.1936 43.6379 34.2869 41.5446 34.2869 38.9624V10.9095H24.9359Z" fill="#C6C6C6"/>
<path d="M26.4949 0.9133V7.79247H33.3741L26.4949 0.9133Z" fill="#020202"/>
<rect x="4.5813" y="17.1909" width="13.2236" height="3.96708" rx="1.98354" fill="white"/>
<rect x="4.5813" y="23.8028" width="9.25652" height="3.96708" rx="1.98354" fill="white"/>
<circle cx="37.5016" cy="38.2156" r="13.9291" fill="white"/>
<path d="M52.475 56.4303C51.778 56.3018 51.2736 55.87 50.7901 55.3814C48.3622 52.9401 45.9239 50.5115 43.496 48.0703C43.3222 47.8955 43.2029 47.8702 42.9832 47.9923C40.999 49.1003 38.8641 49.5426 36.6183 49.2646C33.4746 48.8749 30.9441 47.3815 29.1044 44.7739C27.5158 42.5243 26.8983 39.9988 27.2311 37.2711C27.5618 34.5624 28.7695 32.2896 30.8185 30.4845C32.3527 29.1322 34.1297 28.2665 36.1453 27.9864C40.2895 27.4093 43.7115 28.7805 46.3132 32.0706C47.862 34.0295 48.5569 36.3296 48.5087 38.8298C48.469 40.934 47.8411 42.8697 46.6711 44.6201C46.6355 44.6728 46.6041 44.7296 46.5057 44.8623C46.5999 44.9213 46.7108 44.9655 46.7883 45.0435C49.279 47.5268 51.7676 50.0102 54.2541 52.4978C55.0746 53.3172 55.2294 54.3851 54.6622 55.3477C54.3734 55.8384 53.9464 56.167 53.398 56.3271C53.2934 56.3587 53.1887 56.3966 53.0841 56.4303C52.8832 56.4303 52.678 56.4303 52.475 56.4303ZM37.826 31.6746C34.0334 31.6619 30.9567 34.7435 30.9316 38.5791C30.9044 42.3916 34.002 45.5258 37.8092 45.5364C41.5934 45.549 44.6827 42.4527 44.7057 38.6234C44.7288 34.8046 41.6436 31.6851 37.826 31.6746Z" fill="#0066FF"/>
</svg>
