<svg width="24" height="24" xmlns="http://www.w3.org/2000/svg">

 <g>
  <title>background</title>
  <rect fill="none" id="canvas_background" height="26" width="26" y="-1" x="-1"/>
 </g>
 <g>
  <title>Layer 1</title>
  <path stroke="null" fill="#02999a" id="svg_1" fill-rule="evenodd" d="m21.09767,2.708661c-0.262475,-0.273366 -0.689781,-0.273366 -0.950464,0l-10.016156,10.312855c-0.262475,0.27522 -0.690677,0.27522 -0.95136,0l-4.388619,-4.623132c-0.129894,-0.137146 -0.300099,-0.204793 -0.471201,-0.20572c-0.172893,-0.000927 -0.348474,0.06672 -0.480159,0.20572l-1.939449,1.80329c-0.128998,0.137146 -0.198872,0.308579 -0.198872,0.487426c0,0.179773 0.069874,0.367886 0.199768,0.504106l4.425347,4.803831c0.261579,0.274293 0.690677,0.719092 0.95136,0.991532l1.90272,1.98399c0.261579,0.271513 0.688885,0.271513 0.95136,0l12.86934,-13.288376c0.262475,-0.27244 0.262475,-0.720019 0,-0.992458l-1.903616,-1.983063z" clip-rule="evenodd"/>
 </g>
</svg>