<svg width="67" height="68" viewBox="0 0 67 68" fill="none" xmlns="http://www.w3.org/2000/svg">
<path d="M30.0483 13.1462C29.0111 13.1462 28.1703 12.3053 28.1703 11.2681V0H5.63406C2.52245 0 0 2.52245 0 5.63405V46.9505C0 50.0621 2.52245 52.5845 5.63406 52.5845H35.6824C38.794 52.5845 41.3164 50.0621 41.3164 46.9505V13.1462H30.0483Z" fill="#C6C6C6"/>
<path d="M31.9263 1.10059V9.39013H40.216L31.9263 1.10059Z" fill="#020202"/>
<rect x="5.52036" y="20.7155" width="15.9347" height="4.78041" rx="2.39021" fill="white"/>
<rect x="5.52036" y="28.6829" width="11.1543" height="4.78041" rx="2.39021" fill="white"/>
<circle cx="45.1899" cy="46.0506" r="16.7848" fill="white"/>
<path d="M63.2335 67.9997C62.3936 67.8449 61.7858 67.3246 61.2032 66.7357C58.2775 63.794 55.3392 60.8675 52.4135 57.9257C52.2042 57.715 52.0604 57.6846 51.7956 57.8318C49.4046 59.1669 46.8321 59.6999 44.1258 59.3649C40.3376 58.8953 37.2883 57.0957 35.0713 53.9535C33.157 51.2427 32.413 48.1994 32.814 44.9125C33.2125 41.6484 34.6678 38.9097 37.137 36.7345C38.9857 35.105 41.127 34.0618 43.5558 33.7242C48.5496 33.0287 52.6733 34.6811 55.8083 38.6457C57.6747 41.0062 58.5121 43.7779 58.454 46.7907C58.4061 49.3264 57.6495 51.659 56.2396 53.7682C56.1967 53.8316 56.1589 53.9002 56.0404 54.0601C56.1539 54.1311 56.2875 54.1844 56.3809 54.2784C59.3822 57.2709 62.381 60.2634 65.3773 63.261C66.366 64.2483 66.5526 65.5352 65.8691 66.6951C65.5211 67.2865 65.0065 67.6825 64.3458 67.8754C64.2196 67.9134 64.0935 67.9591 63.9674 67.9997C63.7253 67.9997 63.4781 67.9997 63.2335 67.9997ZM45.5811 38.1685C41.011 38.1533 37.3034 41.8667 37.2732 46.4887C37.2404 51.0828 40.9731 54.8596 45.5609 54.8723C50.1209 54.8875 53.8436 51.1564 53.8713 46.542C53.8991 41.9403 50.1814 38.1812 45.5811 38.1685Z" fill="#0066FF"/>
</svg>
