<svg width="82" height="61" viewBox="0 0 82 61" fill="none" xmlns="http://www.w3.org/2000/svg">
<path d="M66.94 25.6132L60.6676 24.0739C60.3221 22.9744 59.8823 21.9063 59.3482 20.8697L62.5525 15.5293C62.9294 14.901 62.8352 14.1156 62.3326 13.613L57.8718 9.15221C57.3691 8.64958 56.5838 8.55534 55.9555 8.93231L50.6151 12.1365C49.5784 11.6025 48.5104 11.1627 47.4109 10.8172L45.903 4.54481C45.7145 3.8537 45.0862 3.35107 44.3637 3.35107H38.0809C37.3584 3.35107 36.7301 3.8537 36.5416 4.54481L35.0337 10.8172C33.9342 11.1627 32.8662 11.6025 31.8295 12.1365L26.4891 8.93231C25.8608 8.55534 25.0755 8.64958 24.5728 9.15221L20.112 13.613C19.6094 14.1156 19.5152 14.901 19.8921 15.5293L23.0964 20.8697C22.5623 21.9063 22.1225 22.9744 21.777 24.0739L15.7141 25.6132C15.023 25.7703 14.5203 26.3985 14.5203 27.1211V33.4039C14.5203 34.1264 15.023 34.7547 15.7141 34.9118L21.777 36.4511C22.1225 37.5505 22.5623 38.6186 23.0964 39.6553L19.8921 44.9957C19.5152 45.624 19.6094 46.4093 20.112 46.9119L24.5728 51.3727C25.0755 51.8754 25.8608 51.9696 26.4891 51.5926L31.8295 48.3884C32.8662 48.9224 33.9342 49.3622 35.0337 49.7078L36.5416 55.7707C36.7301 56.4618 37.3584 56.9645 38.0809 56.9645H44.3637C45.0862 56.9645 45.7145 56.4618 45.903 55.7707L47.4109 49.7078C48.5104 49.3622 49.5784 48.9224 50.6151 48.3884L55.9555 51.5926C56.5838 51.9696 57.3691 51.8754 57.8718 51.3727L62.3326 46.9119C62.8352 46.4093 62.9294 45.624 62.5525 44.9957L59.3482 39.6553C59.8823 38.6186 60.3221 37.5505 60.6676 36.4511L66.94 34.9118C67.6311 34.7547 68.1337 34.1264 68.1337 33.4039V27.1211C68.1337 26.3985 67.6311 25.7703 66.94 25.6132ZM41.2223 38.116C36.8872 38.116 33.3688 34.5976 33.3688 30.2625C33.3688 25.9273 36.8872 22.409 41.2223 22.409C45.5574 22.409 49.0758 25.9273 49.0758 30.2625C49.0758 34.5976 45.5574 38.116 41.2223 38.116Z" fill="#0066FF"/>
<circle cx="67.5752" cy="5.02625" r="5.02625" fill="#C6C6C6"/>
<circle cx="15.0788" cy="55.2888" r="5.02625" transform="rotate(-180 15.0788 55.2888)" fill="#C6C6C6"/>
<circle cx="76.5108" cy="29.5991" r="5.02625" fill="#020202"/>
<circle cx="5.02627" cy="29.5991" r="5.02625" transform="rotate(-180 5.02627 29.5991)" fill="#020202"/>
<circle cx="66.4583" cy="55.2888" r="5.02625" fill="#C6C6C6"/>
<circle cx="15.0788" cy="5.02625" r="5.02625" transform="rotate(-180 15.0788 5.02625)" fill="#C6C6C6"/>
</svg>
