<svg width="74" height="71" viewBox="0 0 74 71" fill="none" xmlns="http://www.w3.org/2000/svg">
<path d="M39.4649 16.7604L34.7427 15.6015C34.4825 14.7737 34.1514 13.9696 33.7494 13.1891L36.1617 9.16854C36.4455 8.69553 36.3746 8.10426 35.9962 7.72585L32.6378 4.36747C32.2594 3.98906 31.6681 3.91811 31.1951 4.20192L27.1745 6.61427C26.394 6.21222 25.5899 5.88111 24.7621 5.62095L23.6269 0.898721C23.485 0.378409 23.012 0 22.468 0H17.7379C17.194 0 16.721 0.378409 16.579 0.898721L15.4438 5.62095C14.616 5.88111 13.8119 6.21222 13.0315 6.61427L9.01087 4.20192C8.53785 3.91811 7.94659 3.98906 7.56818 4.36747L4.2098 7.72585C3.83139 8.10426 3.76044 8.69553 4.04425 9.16854L6.4566 13.1891C6.05454 13.9696 5.72344 14.7737 5.46328 15.6015L0.898721 16.7604C0.378409 16.8786 0 17.3516 0 17.8956V22.6257C0 23.1697 0.378409 23.6427 0.898721 23.7609L5.46328 24.9198C5.72344 25.7476 6.05454 26.5517 6.4566 27.3322L4.04425 31.3528C3.76044 31.8258 3.83139 32.417 4.2098 32.7955L7.56818 36.1538C7.94659 36.5322 8.53785 36.6032 9.01087 36.3194L13.0315 33.907C13.8119 34.3091 14.616 34.6402 15.4438 34.9004L16.579 39.4649C16.721 39.9852 17.194 40.3636 17.7379 40.3636H22.468C23.012 40.3636 23.485 39.9852 23.6269 39.4649L24.7621 34.9004C25.5899 34.6402 26.394 34.3091 27.1745 33.907L31.1951 36.3194C31.6681 36.6032 32.2594 36.5322 32.6378 36.1538L35.9962 32.7955C36.3746 32.417 36.4455 31.8258 36.1617 31.3528L33.7494 27.3322C34.1514 26.5517 34.4825 25.7476 34.7427 24.9198L39.4649 23.7609C39.9852 23.6427 40.3636 23.1697 40.3636 22.6257V17.8956C40.3636 17.3516 39.9852 16.8786 39.4649 16.7604ZM20.103 26.1733C16.8392 26.1733 14.1903 23.5244 14.1903 20.2607C14.1903 16.9969 16.8392 14.348 20.103 14.348C23.3668 14.348 26.0156 16.9969 26.0156 20.2607C26.0156 23.5244 23.3668 26.1733 20.103 26.1733Z" fill="#020202"/>
<path d="M42.6061 20.1819H52.9008C54.6459 20.1819 56.0606 21.5966 56.0606 23.3417V32.5153" stroke="#C6C6C6" stroke-width="2.29804" stroke-linejoin="round"/>
<path d="M34.7576 57.1819L24.4628 57.1819C22.7177 57.1819 21.303 55.7672 21.303 54.0221L21.303 44.8486" stroke="#C6C6C6" stroke-width="2.29804" stroke-linejoin="round"/>
<circle cx="56.0606" cy="52.6971" r="17.9394" fill="#0066FF"/>
<path d="M55.699 56.5398H57.5374L57.8316 51.9621V47.4947H55.4049V51.9621L55.699 56.5398ZM55.4049 60.3637H57.8316V57.8267H55.4049V60.3637Z" fill="white"/>
</svg>
