<svg width="88" height="31" viewBox="0 0 88 31" fill="none" xmlns="http://www.w3.org/2000/svg">
<path d="M70.7045 29.1912C71.677 30.1842 73.2753 30.1856 74.2495 29.1942L84.2644 19.0028C85.8566 17.3824 85.8566 14.785 84.2644 13.1647L74.2495 2.97325C73.2753 1.98186 71.677 1.98319 70.7045 2.9762C69.7579 3.9427 69.7592 5.48908 70.7074 6.45399L80.1703 16.0837L70.7074 25.7134C69.7592 26.6784 69.7579 28.2247 70.7045 29.1912Z" fill="#D692F6"/>
<path d="M16.4284 29.1912C17.375 28.2247 17.3737 26.6784 16.4255 25.7134L6.96256 16.0837L16.4255 6.45399C17.3737 5.48908 17.375 3.9427 16.4284 2.9762C15.4558 1.98319 13.8576 1.98186 12.8834 2.97324L2.8685 13.1647C1.27623 14.785 1.27623 17.3824 2.8685 19.0028L12.8834 29.1942C13.8576 30.1856 15.4558 30.1842 16.4284 29.1912Z" fill="#D692F6"/>
<g clip-path="url(#clip0_1669_2281)">
<path d="M43.8678 16.5812C48.1024 16.5812 51.5235 13.1667 51.5235 8.96698C51.5235 5.88558 49.6814 3.24439 47.0258 2.04276C46.0689 1.60256 45.0042 1.34082 43.8678 1.34082C42.7315 1.34082 41.6668 1.60256 40.6979 2.04276C38.0543 3.24439 36.2002 5.87369 36.2002 8.95508C36.2002 13.1667 39.6333 16.5812 43.8678 16.5812Z" fill="#D692F6"/>
<path d="M43.5065 18.5615C36.596 18.5615 31 24.1273 31 31.0004H56C56 24.1273 50.404 18.5615 43.5065 18.5615Z" fill="#D692F6"/>
</g>
<defs>
<clipPath id="clip0_1669_2281">
<rect width="25" height="31" fill="white" transform="translate(31)"/>
</clipPath>
</defs>
</svg>
