<svg width="61" height="45" viewBox="0 0 61 45" fill="none" xmlns="http://www.w3.org/2000/svg">
<path d="M49.3277 18.8741L44.7057 17.7398C44.451 16.9296 44.1269 16.1425 43.7334 15.3786L46.0946 11.4433C46.3724 10.9803 46.3029 10.4016 45.9326 10.0312L42.6454 6.74405C42.275 6.37367 41.6963 6.30422 41.2333 6.58201L37.298 8.94319C36.5341 8.54966 35.747 8.22558 34.9368 7.97094L33.8257 3.34888C33.6868 2.83961 33.2238 2.46922 32.6914 2.46922H28.0616C27.5292 2.46922 27.0662 2.83961 26.9273 3.34888L25.8162 7.97094C25.006 8.22558 24.2189 8.54966 23.455 8.94319L19.5197 6.58201C19.0567 6.30422 18.478 6.37367 18.1076 6.74405L14.8205 10.0312C14.4501 10.4016 14.3806 10.9803 14.6584 11.4433L17.0196 15.3786C16.6261 16.1425 16.302 16.9296 16.0473 17.7398L11.5796 18.8741C11.0703 18.9898 10.7 19.4528 10.7 19.9852V24.615C10.7 25.1474 11.0703 25.6104 11.5796 25.7261L16.0473 26.8604C16.302 27.6706 16.6261 28.4577 17.0196 29.2216L14.6584 33.1569C14.3806 33.6199 14.4501 34.1986 14.8205 34.569L18.1076 37.8562C18.478 38.2265 19.0567 38.296 19.5197 38.0182L23.455 35.657C24.2189 36.0505 25.006 36.3746 25.8162 36.6293L26.9273 41.097C27.0662 41.6063 27.5292 41.9767 28.0616 41.9767H32.6914C33.2238 41.9767 33.6868 41.6063 33.8257 41.097L34.9368 36.6293C35.747 36.3746 36.5341 36.0505 37.298 35.657L41.2333 38.0182C41.6963 38.296 42.275 38.2265 42.6454 37.8562L45.9326 34.569C46.3029 34.1986 46.3724 33.6199 46.0946 33.1569L43.7334 29.2216C44.1269 28.4577 44.451 27.6706 44.7057 26.8604L49.3277 25.7261C49.837 25.6104 50.2074 25.1474 50.2074 24.615V19.9852C50.2074 19.4528 49.837 18.9898 49.3277 18.8741ZM30.3765 28.0873C27.182 28.0873 24.5893 25.4946 24.5893 22.3001C24.5893 19.1056 27.182 16.5129 30.3765 16.5129C33.5711 16.5129 36.1637 19.1056 36.1637 22.3001C36.1637 25.4946 33.5711 28.0873 30.3765 28.0873Z" fill="#0066FF"/>
<circle cx="49.7959" cy="3.70383" r="3.70382" fill="#C6C6C6"/>
<circle cx="11.1116" cy="40.742" r="3.70382" transform="rotate(-180 11.1116 40.742)" fill="#C6C6C6"/>
<circle cx="56.3808" cy="21.8114" r="3.70382" fill="#020202"/>
<circle cx="3.70365" cy="21.8114" r="3.70382" transform="rotate(-180 3.70365 21.8114)" fill="#020202"/>
<circle cx="48.9729" cy="40.7421" r="3.70382" fill="#C6C6C6"/>
<circle cx="11.1116" cy="3.70382" r="3.70382" transform="rotate(-180 11.1116 3.70382)" fill="#C6C6C6"/>
</svg>
