<svg width="398" height="320" viewBox="0 0 398 320" fill="none" xmlns="http://www.w3.org/2000/svg">
<g filter="url(#filter0_d)">
<rect x="47" y="81.1609" width="117.894" height="187.971" rx="9.8932" fill="white"/>
<rect x="47.4122" y="81.5731" width="117.07" height="187.146" rx="9.48098" stroke="#E1E1E1" stroke-width="0.824433"/>
</g>
<g filter="url(#filter1_d)">
<rect x="178.909" y="33" width="98.5105" height="101.299" rx="11.1521" fill="white"/>
<rect x="179.374" y="33.4647" width="97.5812" height="100.369" rx="10.6875" stroke="#E1E1E1" stroke-width="0.929345"/>
</g>
<path d="M145.534 194.376H67.3671C62.9555 194.376 59.3665 197.965 59.3665 202.376V214.055C59.3665 218.467 62.9555 222.056 67.3671 222.056H145.534C149.946 222.056 153.535 218.467 153.535 214.055V202.376C153.535 197.965 149.946 194.376 145.534 194.376ZM142.453 208.216C142.453 209.739 141.218 210.975 139.694 210.975H117.532C116.008 210.975 114.773 209.739 114.773 208.216C114.773 206.692 116.008 205.457 117.532 205.457H139.694C141.218 205.457 142.453 206.692 142.453 208.216ZM109.209 208.216C109.276 209.706 107.894 210.975 106.451 210.975C104.904 210.975 103.759 209.711 103.692 208.216C103.625 206.726 105.007 205.457 106.451 205.457C107.997 205.457 109.142 206.721 109.209 208.216Z" fill="#010101"/>
<g filter="url(#filter2_d)">
<path d="M145.534 128.421H67.3671C62.9555 128.421 59.3665 132.01 59.3665 136.422V148.101C59.3665 152.512 62.9555 156.101 67.3671 156.101H145.534C149.946 156.101 153.535 152.512 153.535 148.101V136.422C153.535 132.01 149.946 128.421 145.534 128.421ZM142.453 142.261C142.453 143.785 141.218 145.02 139.694 145.02H117.532C116.008 145.02 114.773 143.785 114.773 142.261C114.773 140.737 116.008 139.502 117.532 139.502H139.694C141.218 139.502 142.453 140.737 142.453 142.261ZM109.209 142.261C109.276 143.751 107.894 145.02 106.451 145.02C104.904 145.02 103.759 143.756 103.692 142.261C103.625 140.771 105.007 139.502 106.451 139.502C107.997 139.502 109.142 140.766 109.209 142.261Z" fill="#C6C6C6"/>
</g>
<g filter="url(#filter3_d)">
<path d="M145.534 227.359H67.3671C62.9555 227.359 59.3665 230.948 59.3665 235.359V247.038C59.3665 251.45 62.9555 255.039 67.3671 255.039H145.534C149.946 255.039 153.535 251.45 153.535 247.038V235.359C153.535 230.948 149.946 227.359 145.534 227.359ZM142.453 241.199C142.453 242.722 141.218 243.958 139.694 243.958H117.532C116.008 243.958 114.773 242.722 114.773 241.199C114.773 239.675 116.008 238.44 117.532 238.44H139.694C141.218 238.44 142.453 239.675 142.453 241.199ZM109.209 241.199C109.276 242.689 107.894 243.958 106.451 243.958C104.904 243.958 103.759 242.694 103.692 241.199C103.625 239.709 105.007 238.44 106.451 238.44C107.997 238.44 109.142 239.704 109.209 241.199Z" fill="#C6C6C6"/>
</g>
<g filter="url(#filter4_d)">
<path d="M145.534 161.131H67.3671C62.9555 161.131 59.3665 164.72 59.3665 169.132V180.811C59.3665 185.222 62.9555 188.811 67.3671 188.811H145.534C149.946 188.811 153.535 185.222 153.535 180.811V169.132C153.535 164.72 149.946 161.131 145.534 161.131ZM142.453 174.971C142.453 176.495 141.218 177.73 139.694 177.73H117.532C116.008 177.73 114.773 176.495 114.773 174.971C114.773 173.448 116.008 172.212 117.532 172.212H139.694C141.218 172.212 142.453 173.448 142.453 174.971ZM109.209 174.971C109.276 176.461 107.894 177.73 106.451 177.73C104.904 177.73 103.759 176.466 103.692 174.971C103.625 173.481 105.007 172.212 106.451 172.212C107.997 172.212 109.142 173.477 109.209 174.971Z" fill="#0066FF"/>
</g>
<g filter="url(#filter5_d)">
<path d="M145.534 95.1763H67.3671C62.9555 95.1763 59.3665 98.7653 59.3665 103.177V114.856C59.3665 119.268 62.9555 122.857 67.3671 122.857H145.534C149.946 122.857 153.535 119.268 153.535 114.856V103.177C153.535 98.7653 149.946 95.1763 145.534 95.1763ZM142.453 109.016C142.453 110.54 141.218 111.775 139.694 111.775H117.532C116.008 111.775 114.773 110.54 114.773 109.016C114.773 107.493 116.008 106.258 117.532 106.258H139.694C141.218 106.258 142.453 107.493 142.453 109.016ZM109.209 109.016C109.276 110.506 107.894 111.775 106.451 111.775C104.904 111.775 103.759 110.511 103.692 109.016C103.625 107.526 105.007 106.258 106.451 106.258C107.997 106.258 109.142 107.522 109.209 109.016Z" fill="#C6C6C6"/>
</g>
<g filter="url(#filter6_d)">
<rect x="179" y="152" width="143" height="147" rx="9.8932" fill="white"/>
<rect x="179.412" y="152.412" width="142.176" height="146.176" rx="9.48098" stroke="#E1E1E1" stroke-width="0.824433"/>
</g>
<path d="M298.743 208.084H203.679C198.314 208.084 193.949 212.449 193.949 217.814V232.018C193.949 237.383 198.314 241.748 203.679 241.748H298.743C304.108 241.748 308.473 237.383 308.473 232.018V217.814C308.473 212.449 304.108 208.084 298.743 208.084ZM294.996 224.916C294.996 226.769 293.494 228.271 291.641 228.271H264.688C262.835 228.271 261.333 226.769 261.333 224.916C261.333 223.063 262.835 221.561 264.688 221.561H291.641C293.494 221.561 294.996 223.063 294.996 224.916ZM254.566 224.916C254.648 226.728 252.966 228.271 251.211 228.271C249.33 228.271 247.937 226.734 247.856 224.916C247.775 223.104 249.456 221.561 251.211 221.561C253.092 221.561 254.485 223.098 254.566 224.916Z" fill="#020202"/>
<g filter="url(#filter7_d)">
<path d="M298.743 248.198H203.679C198.314 248.198 193.949 252.562 193.949 257.928V272.131C193.949 277.496 198.314 281.861 203.679 281.861H298.743C304.108 281.861 308.473 277.496 308.473 272.131V257.928C308.473 252.562 304.108 248.198 298.743 248.198ZM294.996 265.029C294.996 266.882 293.494 268.385 291.641 268.385H264.688C262.835 268.385 261.333 266.882 261.333 265.029C261.333 263.176 262.835 261.674 264.688 261.674H291.641C293.494 261.674 294.996 263.176 294.996 265.029ZM254.566 265.029C254.648 266.841 252.966 268.385 251.211 268.385C249.33 268.385 247.937 266.847 247.856 265.029C247.775 263.217 249.456 261.674 251.211 261.674C253.092 261.674 254.485 263.211 254.566 265.029Z" fill="#C6C6C6"/>
</g>
<g filter="url(#filter8_d)">
<path d="M298.743 167.654H203.679C198.314 167.654 193.949 172.019 193.949 177.384V191.587C193.949 196.953 198.314 201.317 203.679 201.317H298.743C304.108 201.317 308.473 196.953 308.473 191.587V177.384C308.473 172.019 304.108 167.654 298.743 167.654ZM294.996 184.486C294.996 186.339 293.494 187.841 291.641 187.841H264.688C262.835 187.841 261.333 186.339 261.333 184.486C261.333 182.633 262.835 181.13 264.688 181.13H291.641C293.494 181.13 294.996 182.633 294.996 184.486ZM254.566 184.486C254.648 186.298 252.966 187.841 251.211 187.841C249.33 187.841 247.937 186.303 247.856 184.486C247.775 182.674 249.456 181.13 251.211 181.13C253.092 181.13 254.485 182.668 254.566 184.486Z" fill="#0066FF"/>
</g>
<path d="M261.269 71.8134H195.933C192.246 71.8134 189.246 74.8133 189.246 78.5008V88.2627C189.246 91.9502 192.246 94.9501 195.933 94.9501H261.269C264.956 94.9501 267.956 91.9502 267.956 88.2627V78.5008C267.956 74.8133 264.956 71.8134 261.269 71.8134ZM258.694 83.3818C258.694 84.6553 257.662 85.6877 256.388 85.6877H237.863C236.59 85.6877 235.557 84.6553 235.557 83.3818C235.557 82.1082 236.59 81.0758 237.863 81.0758H256.388C257.662 81.0758 258.694 82.1082 258.694 83.3818ZM230.907 83.3818C230.963 84.6271 229.807 85.6877 228.601 85.6877C227.308 85.6877 226.351 84.6311 226.295 83.3818C226.239 82.1364 227.395 81.0758 228.601 81.0758C229.894 81.0758 230.851 82.1324 230.907 83.3818Z" fill="#020202"/>
<g filter="url(#filter9_d)">
<path d="M261.269 99.3828H195.933C192.246 99.3828 189.246 102.383 189.246 106.07V115.832C189.246 119.52 192.246 122.519 195.933 122.519H261.269C264.956 122.519 267.956 119.52 267.956 115.832V106.07C267.956 102.383 264.956 99.3828 261.269 99.3828ZM258.694 110.951C258.694 112.225 257.662 113.257 256.388 113.257H237.863C236.59 113.257 235.557 112.225 235.557 110.951C235.557 109.678 236.59 108.645 237.863 108.645H256.388C257.662 108.645 258.694 109.678 258.694 110.951ZM230.907 110.951C230.963 112.197 229.807 113.257 228.601 113.257C227.308 113.257 226.351 112.201 226.295 110.951C226.239 109.706 227.395 108.645 228.601 108.645C229.894 108.645 230.851 109.702 230.907 110.951Z" fill="#C6C6C6"/>
</g>
<g filter="url(#filter10_d)">
<path d="M261.269 44.0259H195.933C192.246 44.0259 189.246 47.0258 189.246 50.7132V60.4752C189.246 64.1626 192.246 67.1626 195.933 67.1626H261.269C264.956 67.1626 267.956 64.1626 267.956 60.4752V50.7132C267.956 47.0258 264.956 44.0259 261.269 44.0259ZM258.694 55.5942C258.694 56.8677 257.662 57.9002 256.388 57.9002H237.863C236.59 57.9002 235.557 56.8677 235.557 55.5942C235.557 54.3207 236.59 53.2882 237.863 53.2882H256.388C257.662 53.2882 258.694 54.3207 258.694 55.5942ZM230.907 55.5942C230.963 56.8396 229.807 57.9002 228.601 57.9002C227.308 57.9002 226.351 56.8436 226.295 55.5942C226.239 54.3488 227.395 53.2882 228.601 53.2882C229.894 53.2882 230.851 54.3448 230.907 55.5942Z" fill="#0066FF"/>
</g>
<circle cx="154.5" cy="52.5" r="8.5" fill="#0066FF"/>
<circle cx="154.5" cy="52.5" r="11.5909" stroke="#0066FF" stroke-opacity="0.15" stroke-width="6.18182"/>
<circle cx="282.5" cy="9.5" r="5.5" fill="#0066FF"/>
<circle cx="282.5" cy="9.5" r="7.5" stroke="#0066FF" stroke-opacity="0.15" stroke-width="4"/>
<circle cx="311.5" cy="67.5" r="3.5" fill="#0066FF"/>
<circle cx="311.5" cy="67.5" r="5.5" stroke="#0066FF" stroke-opacity="0.15" stroke-width="4"/>
<g filter="url(#filter11_d)">
<circle cx="327.5" cy="147.5" r="50.5" fill="white"/>
<circle cx="327.5" cy="147.5" r="50.0277" stroke="#E1E1E1" stroke-width="0.944594"/>
</g>
<g clip-path="url(#clip0)">
<path d="M311.075 138.519V130.02C311.075 127.672 311.498 125.467 312.347 123.404C313.196 121.341 314.368 119.537 315.866 117.991C317.364 116.45 319.132 115.232 321.163 114.34C323.199 113.448 325.399 113 327.768 113C330.137 113 332.337 113.448 334.368 114.335C336.4 115.226 338.167 116.445 339.665 117.986C341.164 119.531 342.34 121.336 343.184 123.399C344.034 125.461 344.456 127.667 344.456 130.015V138.514L311.075 138.519ZM315.249 138.519H340.288V130.02C340.288 128.258 339.971 126.601 339.343 125.05C338.71 123.499 337.835 122.132 336.716 120.956C335.598 119.785 334.268 118.856 332.738 118.186C331.203 117.511 329.546 117.173 327.763 117.173C325.98 117.173 324.323 117.511 322.788 118.186C321.258 118.861 319.928 119.785 318.81 120.956C317.691 122.127 316.816 123.494 316.182 125.05C315.555 126.606 315.238 128.263 315.238 130.02V138.519H315.249Z" fill="#2F2F2F"/>
</g>
<path d="M346.884 172.019H309.116C306.845 172.019 305 170.438 305 168.483V144.309C305 142.359 306.84 140.773 309.116 140.773H346.884C349.155 140.773 351 142.354 351 144.309V168.483C351 170.438 349.16 172.019 346.884 172.019Z" fill="#C6C6C6"/>
<circle cx="328" cy="156.83" r="7.37736" fill="white"/>
<circle cx="328" cy="156.83" r="4.77358" fill="#0066FF"/>
<defs>
<filter id="filter0_d" x="29.6869" y="67.1455" width="152.52" height="222.597" filterUnits="userSpaceOnUse" color-interpolation-filters="sRGB">
<feFlood flood-opacity="0" result="BackgroundImageFix"/>
<feColorMatrix in="SourceAlpha" type="matrix" values="0 0 0 0 0 0 0 0 0 0 0 0 0 0 0 0 0 0 127 0"/>
<feMorphology radius="4.9466" operator="dilate" in="SourceAlpha" result="effect1_dropShadow"/>
<feOffset dy="3.29773"/>
<feGaussianBlur stdDeviation="6.18325"/>
<feColorMatrix type="matrix" values="0 0 0 0 0 0 0 0 0 0 0 0 0 0 0 0 0 0 0.05 0"/>
<feBlend mode="normal" in2="BackgroundImageFix" result="effect1_dropShadow"/>
<feBlend mode="normal" in="SourceGraphic" in2="effect1_dropShadow" result="shape"/>
</filter>
<filter id="filter1_d" x="159.393" y="17.2011" width="137.543" height="140.331" filterUnits="userSpaceOnUse" color-interpolation-filters="sRGB">
<feFlood flood-opacity="0" result="BackgroundImageFix"/>
<feColorMatrix in="SourceAlpha" type="matrix" values="0 0 0 0 0 0 0 0 0 0 0 0 0 0 0 0 0 0 127 0"/>
<feMorphology radius="5.57607" operator="dilate" in="SourceAlpha" result="effect1_dropShadow"/>
<feOffset dy="3.71738"/>
<feGaussianBlur stdDeviation="6.97008"/>
<feColorMatrix type="matrix" values="0 0 0 0 0 0 0 0 0 0 0 0 0 0 0 0 0 0 0.05 0"/>
<feBlend mode="normal" in2="BackgroundImageFix" result="effect1_dropShadow"/>
<feBlend mode="normal" in="SourceGraphic" in2="effect1_dropShadow" result="shape"/>
</filter>
<filter id="filter2_d" x="0.500486" y="90.9388" width="169.132" height="102.644" filterUnits="userSpaceOnUse" color-interpolation-filters="sRGB">
<feFlood flood-opacity="0" result="BackgroundImageFix"/>
<feColorMatrix in="SourceAlpha" type="matrix" values="0 0 0 0 0 0 0 0 0 0 0 0 0 0 0 0 0 0 127 0"/>
<feMorphology radius="3.03909" operator="erode" in="SourceAlpha" result="effect1_dropShadow"/>
<feOffset dx="-21.3839"/>
<feGaussianBlur stdDeviation="20.2606"/>
<feColorMatrix type="matrix" values="0 0 0 0 0 0 0 0 0 0 0 0 0 0 0 0 0 0 0.12 0"/>
<feBlend mode="normal" in2="BackgroundImageFix" result="effect1_dropShadow"/>
<feBlend mode="normal" in="SourceGraphic" in2="effect1_dropShadow" result="shape"/>
</filter>
<filter id="filter3_d" x="0.500486" y="189.877" width="169.132" height="102.644" filterUnits="userSpaceOnUse" color-interpolation-filters="sRGB">
<feFlood flood-opacity="0" result="BackgroundImageFix"/>
<feColorMatrix in="SourceAlpha" type="matrix" values="0 0 0 0 0 0 0 0 0 0 0 0 0 0 0 0 0 0 127 0"/>
<feMorphology radius="3.03909" operator="erode" in="SourceAlpha" result="effect1_dropShadow"/>
<feOffset dx="-21.3839"/>
<feGaussianBlur stdDeviation="20.2606"/>
<feColorMatrix type="matrix" values="0 0 0 0 0 0 0 0 0 0 0 0 0 0 0 0 0 0 0.12 0"/>
<feBlend mode="normal" in2="BackgroundImageFix" result="effect1_dropShadow"/>
<feBlend mode="normal" in="SourceGraphic" in2="effect1_dropShadow" result="shape"/>
</filter>
<filter id="filter4_d" x="0.500486" y="123.649" width="169.132" height="102.644" filterUnits="userSpaceOnUse" color-interpolation-filters="sRGB">
<feFlood flood-opacity="0" result="BackgroundImageFix"/>
<feColorMatrix in="SourceAlpha" type="matrix" values="0 0 0 0 0 0 0 0 0 0 0 0 0 0 0 0 0 0 127 0"/>
<feMorphology radius="3.03909" operator="erode" in="SourceAlpha" result="effect1_dropShadow"/>
<feOffset dx="-21.3839"/>
<feGaussianBlur stdDeviation="20.2606"/>
<feColorMatrix type="matrix" values="0 0 0 0 0 0 0 0 0 0 0 0 0 0 0 0 0 0 0.12 0"/>
<feBlend mode="normal" in2="BackgroundImageFix" result="effect1_dropShadow"/>
<feBlend mode="normal" in="SourceGraphic" in2="effect1_dropShadow" result="shape"/>
</filter>
<filter id="filter5_d" x="0.500486" y="57.6942" width="169.132" height="102.644" filterUnits="userSpaceOnUse" color-interpolation-filters="sRGB">
<feFlood flood-opacity="0" result="BackgroundImageFix"/>
<feColorMatrix in="SourceAlpha" type="matrix" values="0 0 0 0 0 0 0 0 0 0 0 0 0 0 0 0 0 0 127 0"/>
<feMorphology radius="3.03909" operator="erode" in="SourceAlpha" result="effect1_dropShadow"/>
<feOffset dx="-21.3839"/>
<feGaussianBlur stdDeviation="20.2606"/>
<feColorMatrix type="matrix" values="0 0 0 0 0 0 0 0 0 0 0 0 0 0 0 0 0 0 0.12 0"/>
<feBlend mode="normal" in2="BackgroundImageFix" result="effect1_dropShadow"/>
<feBlend mode="normal" in="SourceGraphic" in2="effect1_dropShadow" result="shape"/>
</filter>
<filter id="filter6_d" x="161.687" y="137.985" width="177.626" height="181.626" filterUnits="userSpaceOnUse" color-interpolation-filters="sRGB">
<feFlood flood-opacity="0" result="BackgroundImageFix"/>
<feColorMatrix in="SourceAlpha" type="matrix" values="0 0 0 0 0 0 0 0 0 0 0 0 0 0 0 0 0 0 127 0"/>
<feMorphology radius="4.9466" operator="dilate" in="SourceAlpha" result="effect1_dropShadow"/>
<feOffset dy="3.29773"/>
<feGaussianBlur stdDeviation="6.18325"/>
<feColorMatrix type="matrix" values="0 0 0 0 0 0 0 0 0 0 0 0 0 0 0 0 0 0 0.05 0"/>
<feBlend mode="normal" in2="BackgroundImageFix" result="effect1_dropShadow"/>
<feBlend mode="normal" in="SourceGraphic" in2="effect1_dropShadow" result="shape"/>
</filter>
<filter id="filter7_d" x="140.289" y="214.03" width="182.858" height="101.998" filterUnits="userSpaceOnUse" color-interpolation-filters="sRGB">
<feFlood flood-opacity="0" result="BackgroundImageFix"/>
<feColorMatrix in="SourceAlpha" type="matrix" values="0 0 0 0 0 0 0 0 0 0 0 0 0 0 0 0 0 0 127 0"/>
<feMorphology radius="2.77032" operator="erode" in="SourceAlpha" result="effect1_dropShadow"/>
<feOffset dx="-19.4928"/>
<feGaussianBlur stdDeviation="18.4688"/>
<feColorMatrix type="matrix" values="0 0 0 0 0 0 0 0 0 0 0 0 0 0 0 0 0 0 0.12 0"/>
<feBlend mode="normal" in2="BackgroundImageFix" result="effect1_dropShadow"/>
<feBlend mode="normal" in="SourceGraphic" in2="effect1_dropShadow" result="shape"/>
</filter>
<filter id="filter8_d" x="140.289" y="133.486" width="182.858" height="101.998" filterUnits="userSpaceOnUse" color-interpolation-filters="sRGB">
<feFlood flood-opacity="0" result="BackgroundImageFix"/>
<feColorMatrix in="SourceAlpha" type="matrix" values="0 0 0 0 0 0 0 0 0 0 0 0 0 0 0 0 0 0 127 0"/>
<feMorphology radius="2.77032" operator="erode" in="SourceAlpha" result="effect1_dropShadow"/>
<feOffset dx="-19.4928"/>
<feGaussianBlur stdDeviation="18.4688"/>
<feColorMatrix type="matrix" values="0 0 0 0 0 0 0 0 0 0 0 0 0 0 0 0 0 0 0.12 0"/>
<feBlend mode="normal" in2="BackgroundImageFix" result="effect1_dropShadow"/>
<feBlend mode="normal" in="SourceGraphic" in2="effect1_dropShadow" result="shape"/>
</filter>
<filter id="filter9_d" x="122.889" y="57.1311" width="163.214" height="107.64" filterUnits="userSpaceOnUse" color-interpolation-filters="sRGB">
<feFlood flood-opacity="0" result="BackgroundImageFix"/>
<feColorMatrix in="SourceAlpha" type="matrix" values="0 0 0 0 0 0 0 0 0 0 0 0 0 0 0 0 0 0 127 0"/>
<feMorphology radius="3.42582" operator="erode" in="SourceAlpha" result="effect1_dropShadow"/>
<feOffset dx="-24.1051"/>
<feGaussianBlur stdDeviation="22.8388"/>
<feColorMatrix type="matrix" values="0 0 0 0 0 0 0 0 0 0 0 0 0 0 0 0 0 0 0.12 0"/>
<feBlend mode="normal" in2="BackgroundImageFix" result="effect1_dropShadow"/>
<feBlend mode="normal" in="SourceGraphic" in2="effect1_dropShadow" result="shape"/>
</filter>
<filter id="filter10_d" x="122.889" y="1.77413" width="163.214" height="107.64" filterUnits="userSpaceOnUse" color-interpolation-filters="sRGB">
<feFlood flood-opacity="0" result="BackgroundImageFix"/>
<feColorMatrix in="SourceAlpha" type="matrix" values="0 0 0 0 0 0 0 0 0 0 0 0 0 0 0 0 0 0 127 0"/>
<feMorphology radius="3.42582" operator="erode" in="SourceAlpha" result="effect1_dropShadow"/>
<feOffset dx="-24.1051"/>
<feGaussianBlur stdDeviation="22.8388"/>
<feColorMatrix type="matrix" values="0 0 0 0 0 0 0 0 0 0 0 0 0 0 0 0 0 0 0.12 0"/>
<feBlend mode="normal" in2="BackgroundImageFix" result="effect1_dropShadow"/>
<feBlend mode="normal" in="SourceGraphic" in2="effect1_dropShadow" result="shape"/>
</filter>
<filter id="filter11_d" x="257.164" y="80.9419" width="140.673" height="140.673" filterUnits="userSpaceOnUse" color-interpolation-filters="sRGB">
<feFlood flood-opacity="0" result="BackgroundImageFix"/>
<feColorMatrix in="SourceAlpha" type="matrix" values="0 0 0 0 0 0 0 0 0 0 0 0 0 0 0 0 0 0 127 0"/>
<feMorphology radius="5.66756" operator="dilate" in="SourceAlpha" result="effect1_dropShadow"/>
<feOffset dy="3.77838"/>
<feGaussianBlur stdDeviation="7.08445"/>
<feColorMatrix type="matrix" values="0 0 0 0 0 0 0 0 0 0 0 0 0 0 0 0 0 0 0.05 0"/>
<feBlend mode="normal" in2="BackgroundImageFix" result="effect1_dropShadow"/>
<feBlend mode="normal" in="SourceGraphic" in2="effect1_dropShadow" result="shape"/>
</filter>
<clipPath id="clip0">
<rect width="33.3856" height="25.5193" fill="white" transform="translate(311.075 113)"/>
</clipPath>
</defs>
</svg>
