<svg width="41" height="41" viewBox="0 0 41 41" fill="none" xmlns="http://www.w3.org/2000/svg">
<circle cx="20.5" cy="20.5" r="20.5" fill="black"/>
<path d="M21.3523 14.3945L26.3511 19.7158C26.5986 19.9794 27.0167 19.981 27.2663 19.7194L27.5873 19.3829C27.8187 19.1404 27.8198 18.7593 27.5898 18.5155L20.9558 11.4831C20.708 11.2205 20.2907 11.2193 20.0415 11.4806L13.415 18.426C13.1827 18.6695 13.1827 19.0525 13.415 19.296L13.7373 19.6338C13.9855 19.894 14.4008 19.894 14.6491 19.6338L19.6477 14.3945L19.6477 29.3699C19.6477 29.7179 19.9298 30 20.2779 30L20.7221 30C21.0702 30 21.3523 29.7179 21.3523 29.3699L21.3523 14.3945Z" fill="white"/>
</svg>
