<svg width="103" height="39" viewBox="0 0 103 39" fill="none" xmlns="http://www.w3.org/2000/svg">
<g clip-path="url(#clip0_1937_1282)">
<path d="M27.0777 14.885C26.5604 15.1657 26.024 15.4095 25.4724 15.6148C24.2817 16.0432 23.0507 16.2652 21.7912 16.3482C21.5186 16.3655 21.2456 16.3842 20.9721 16.3891C20.8353 16.3891 20.7843 16.4432 20.7945 16.5747C20.8003 16.6408 20.7945 16.7078 20.7945 16.774V28.306C20.7945 28.6327 20.7945 28.6332 20.4691 28.6332C19.0787 28.6332 17.6882 28.6283 16.296 28.6385C16.0691 28.6385 16.0123 28.5728 16.0127 28.3508C16.019 24.4775 16.0205 20.6041 16.0172 16.7305C16.0172 16.4157 16.0172 16.4135 15.6998 16.4148C13.6066 16.4255 11.5134 16.3829 9.42101 16.4401C8.71028 16.4565 8.00716 16.5904 7.34023 16.8366C6.02438 17.3307 5.3105 18.3216 4.99708 19.653C4.83238 20.3558 4.78976 21.071 4.78663 21.7875C4.77778 23.9682 4.78354 26.1488 4.7831 28.3295C4.7831 28.6323 4.7831 28.6332 4.47989 28.6332C3.08188 28.6332 1.68301 28.6287 0.286346 28.6385C0.0594889 28.6385 0 28.571 0 28.349C0.00532737 19.1383 0.00695522 9.92757 0.00488345 0.716834C0.00488345 0.422941 0.00488335 0.419391 0.300109 0.419391C1.69825 0.419391 3.0961 0.419391 4.49364 0.419391C4.78264 0.419391 4.7831 0.422053 4.7831 0.719499C4.7831 4.83727 4.7831 8.95474 4.7831 13.0719V13.3294C4.86878 13.3773 4.90518 13.313 4.9487 13.2819C6.1975 12.394 7.59729 11.8959 9.10226 11.6637C9.94577 11.5341 10.7919 11.4941 11.6425 11.495C12.9963 11.4971 14.3499 11.4971 15.7033 11.495C16.0199 11.495 16.0203 11.495 16.0203 11.1842V0.763006C16.0203 0.419834 16.0203 0.418945 16.3528 0.418945C17.7356 0.418945 19.1186 0.418945 20.502 0.418945C20.795 0.418945 20.7958 0.418945 20.7958 0.714615V11.182C20.7958 11.495 20.7959 11.4977 21.1093 11.4928C22.0034 11.4844 22.8966 11.5052 23.7894 11.4075C25.6482 11.2047 26.9942 10.2821 27.812 8.60402C27.9199 8.38203 28.0153 8.36383 28.2306 8.44864C29.3649 8.89478 30.505 9.32719 31.6463 9.7556C31.8218 9.82131 31.8974 9.90123 31.8967 10.1023C31.8909 16.1862 31.8909 22.2699 31.8967 28.3535C31.8967 28.5825 31.828 28.6376 31.6086 28.6363C30.2107 28.627 28.8118 28.6318 27.4151 28.6314C27.1172 28.6314 27.1163 28.6314 27.1163 28.3206C27.1163 23.9445 27.1163 19.5683 27.1163 15.1922C27.1159 15.1016 27.1385 15.0044 27.0777 14.885V14.885Z" fill="white"/>
<path d="M74.0061 27.0331C73.9426 27.0166 73.9095 27.0642 73.8727 27.0948C72.4411 28.23 70.8096 28.8555 68.9893 28.9944C67.0656 29.1414 65.2128 28.8591 63.4693 28.0142C60.9894 26.812 59.4275 24.8276 58.6351 22.214C58.1835 20.7206 58.0619 19.1899 58.1758 17.6343C58.3018 15.9064 58.7345 14.2723 59.6315 12.7801C61.0157 10.4783 63.0657 9.10559 65.6641 8.51824C66.5589 8.31565 67.4758 8.22719 68.3926 8.25499C70.7084 8.32423 72.7349 9.11181 74.4304 10.7109C74.4725 10.7513 74.5171 10.789 74.5781 10.8441C74.6833 10.5893 74.6849 10.3304 74.7301 10.0827C74.8047 9.67651 74.8632 9.26763 74.922 8.85831C74.947 8.68074 75.0105 8.59639 75.2157 8.59816C76.3544 8.6097 77.4932 8.60791 78.6341 8.59816C78.8347 8.59816 78.9006 8.65365 78.9006 8.85921C78.9062 15.7186 78.9449 22.5772 78.9161 29.4371C78.9046 32.349 77.8061 34.8196 75.5317 36.704C74.2887 37.7344 72.8407 38.3538 71.2677 38.6744C69.1088 39.1143 66.9477 39.1489 64.8207 38.5135C61.93 37.6502 59.8157 35.8575 58.5305 33.1138C58.4256 32.8851 58.3417 32.6474 58.2795 32.4035C58.2476 32.2831 58.2795 32.2162 58.4129 32.1815C59.7445 31.816 61.0751 31.4461 62.4042 31.0716C62.5113 31.0416 62.5667 31.0583 62.5995 31.1728C63.0121 32.6143 64.0007 33.541 65.3205 34.1442C66.3355 34.6082 67.416 34.7286 68.526 34.6556C69.4852 34.5927 70.4181 34.424 71.2913 34.0093C72.997 33.1996 73.947 31.8618 74.0318 29.9636C74.0726 29.0411 74.0454 28.1159 74.0476 27.192C74.0423 27.1418 74.0593 27.0779 74.0061 27.0331V27.0331ZM74.1661 18.4649C74.1773 18.1364 74.1268 17.6449 74.0234 17.1597C73.6486 15.407 72.7144 14.0729 71.0631 13.3071C69.8644 12.7513 68.5965 12.6585 67.312 12.8925C65.5549 13.213 64.2304 14.1573 63.473 15.7897C62.6911 17.474 62.6555 19.2231 63.2566 20.9674C63.794 22.5261 64.8655 23.5947 66.4243 24.1536C67.3733 24.4942 68.3557 24.5616 69.3543 24.4409C70.957 24.2469 72.2601 23.5312 73.1772 22.183C73.9002 21.1162 74.1667 19.9108 74.1667 18.4667L74.1661 18.4649Z" fill="white"/>
<path d="M87.0315 20.3419C87.1361 20.8361 87.3228 21.3092 87.5837 21.7417C88.4299 23.1717 89.6977 24.012 91.3128 24.3091C92.8666 24.5949 94.3917 24.4817 95.8412 23.8074C96.6914 23.4123 97.3909 22.8085 98.0397 22.1421C98.1004 22.08 98.148 22.0005 98.2545 21.9672L101.358 25.1508C101.412 25.1734 101.358 25.2094 101.319 25.2507C99.7535 26.9053 97.9131 28.0977 95.6641 28.5998C94.2477 28.9132 92.7933 29.0159 91.3472 28.9043C89.7219 28.7849 88.1925 28.3481 86.7938 27.5037C84.581 26.167 83.2107 24.2012 82.5443 21.7257C82.236 20.5672 82.1045 19.3688 82.1543 18.171C82.2363 15.9673 82.7963 13.9091 84.1266 12.1143C85.5031 10.2541 87.3565 9.10027 89.5934 8.57464C91.8687 8.04192 94.1341 8.13069 96.3413 8.90849C99.5542 10.0388 101.553 12.3051 102.396 15.5881C102.774 17.0607 102.871 18.5581 102.632 20.0698C102.598 20.2829 102.525 20.3464 102.31 20.3459C97.3244 20.34 92.3395 20.3387 87.3546 20.3419H87.0315ZM87.1392 16.4419H97.7323C97.7698 16.3757 97.7407 16.3353 97.7265 16.2953C97.2328 14.9045 96.3373 13.8705 94.9884 13.2516C93.8877 12.7464 92.7267 12.6452 91.5397 12.7975C90.1982 12.9689 89.0536 13.5358 88.1656 14.5684C87.6948 15.1138 87.345 15.7527 87.1392 16.4432V16.4419Z" fill="white"/>
<path d="M41.2786 10.6587C41.4269 10.5256 41.5767 10.3866 41.7321 10.2539C42.951 9.20969 44.3395 8.4927 45.9394 8.31823C48.3159 8.05897 50.4207 8.71779 52.1401 10.4226C53.4599 11.7309 54.1737 13.3566 54.5231 15.1595C54.6903 16.019 54.7296 16.8882 54.7296 17.761C54.7296 21.2641 54.7296 24.7674 54.7296 28.271C54.7296 28.6337 54.7296 28.6342 54.3684 28.6342H50.2396C49.8985 28.6342 49.8976 28.6342 49.8976 28.2972C49.8976 24.8306 49.8976 21.3641 49.8976 17.8977C49.8976 17.0822 49.8453 16.2751 49.6104 15.4875C49.1371 13.9009 47.9163 12.926 46.2666 12.7915C45.5754 12.7355 44.8904 12.7391 44.2188 12.9033C42.8389 13.2394 42.0097 14.1437 41.6051 15.4751C41.3637 16.2693 41.3179 17.0853 41.3179 17.9075C41.3179 21.3522 41.3179 24.7966 41.3179 28.2404C41.3179 28.7287 41.2981 28.632 40.9183 28.6329C39.5505 28.6369 38.1824 28.6329 36.814 28.6329C36.5234 28.6329 36.5225 28.6329 36.5225 28.3372C36.5225 21.8623 36.5225 15.3877 36.5225 8.91313C36.5225 8.6068 36.5225 8.60593 36.8252 8.60593H40.6633C40.9935 8.60593 40.9889 8.60593 41.0236 8.92824C41.0824 9.47117 41.1467 10.0132 41.2086 10.5557C41.2096 10.5777 41.2167 10.599 41.2288 10.6172C41.2411 10.6354 41.2585 10.6498 41.2786 10.6587V10.6587Z" fill="white"/>
<path d="M26.8482 2.86571C26.8531 1.26173 28.1388 -0.00707348 29.753 2.96786e-05C31.3356 0.0066889 32.6071 1.30435 32.6009 2.90256C32.5957 3.66541 32.2877 4.39499 31.7448 4.93078C31.2019 5.46659 30.4681 5.76469 29.7052 5.75959C28.9424 5.75445 28.2128 5.4465 27.677 4.90348C27.1412 4.36045 26.8431 3.62678 26.8482 2.86394V2.86571Z" fill="white"/>
</g>
<defs>
<clipPath id="clip0_1937_1282">
<rect width="102.762" height="38.9988" fill="white"/>
</clipPath>
</defs>
</svg>
