<svg width="53" height="68" viewBox="0 0 53 68" fill="none" xmlns="http://www.w3.org/2000/svg">
<g clip-path="url(#clip0)">
<path d="M7 29.4027V19.6099C7 16.9049 7.4863 14.364 8.46497 11.9872C9.44364 9.61042 10.7931 7.53151 12.5195 5.75045C14.2458 3.97547 16.2822 2.57129 18.6225 1.54399C20.9688 0.516689 23.5037 0 26.233 0C28.9623 0 31.4971 0.516689 33.8374 1.53791C36.1777 2.56521 38.2141 3.96939 39.9405 5.74437C41.6668 7.52543 43.0224 9.60434 43.9949 11.9811C44.9736 14.3579 45.4599 16.8988 45.4599 19.6038V29.3966L7 29.4027ZM11.8082 29.4027H40.6577V19.6099C40.6577 17.5796 40.293 15.6709 39.5697 13.8837C38.8402 12.0966 37.8312 10.5222 36.5425 9.16667C35.2538 7.8172 33.722 6.74735 31.9591 5.97536C30.1902 5.19729 28.2815 4.80825 26.2269 4.80825C24.1723 4.80825 22.2636 5.19729 20.4947 5.97536C18.7319 6.75343 17.2001 7.8172 15.9114 9.16667C14.6227 10.5161 13.6136 12.0905 12.8842 13.8837C12.1608 15.677 11.7961 17.5857 11.7961 19.6099V29.4027H11.8082Z" fill="#2F2F2F"/>
</g>
<path d="M48.2581 68H4.74195C2.12591 68 0 66.1787 0 63.9262V36.0738C0 33.8264 2.12 32 4.74195 32H48.2581C50.8741 32 53 33.8213 53 36.0738V63.9262C53 66.1787 50.88 68 48.2581 68Z" fill="#C6C6C6"/>
<circle cx="26.5" cy="50.5" r="8.5" fill="white"/>
<circle cx="26.5" cy="50.5" r="5.5" fill="#0066FF"/>
<defs>
<clipPath id="clip0">
<rect width="38.466" height="29.4027" fill="white" transform="translate(7)"/>
</clipPath>
</defs>
</svg>
