<svg width="83" height="54" viewBox="0 0 83 54" fill="none" xmlns="http://www.w3.org/2000/svg">
<path d="M82.8176 52.1991C82.6873 51.4668 82.5049 50.9325 82.2703 50.596L73.509 38.708C73.1027 38.1566 72.4585 37.8312 71.7736 37.8312H11.2264C10.5415 37.8312 9.89734 38.1566 9.49099 38.708L0.72967 50.596C0.495133 50.9325 0.286656 51.4668 0.182418 52.1991C0.00705738 53.1846 0.811444 54 1.81241 54H81.1876C82.1886 54 82.9929 53.1846 82.8176 52.1991Z" fill="#C6C6C6"/>
<rect x="9.70129" y="0.103882" width="63.5974" height="34.4935" rx="4.31169" fill="black"/>
<rect x="15.0909" y="4.41553" width="52.8182" height="25.8701" rx="2.15584" fill="white"/>
<line x1="41.0586" y1="11.4221" x2="41.0586" y2="24.2928" stroke="#0066FF" stroke-width="3.23377" stroke-linecap="round" stroke-linejoin="round"/>
<line x1="47.4876" y1="17.8637" x2="34.6169" y2="17.8637" stroke="#0066FF" stroke-width="3.23377" stroke-linecap="round" stroke-linejoin="round"/>
</svg>
