<svg width="107" height="80" viewBox="0 0 107 80" fill="none" xmlns="http://www.w3.org/2000/svg">
<path d="M87.8445 33.6115L79.6133 31.5915C79.1599 30.1487 78.5827 28.747 77.8819 27.3866L82.0868 20.3785C82.5815 19.554 82.4578 18.5234 81.7982 17.8638L75.9444 12.01C75.2848 11.3504 74.2542 11.2267 73.4297 11.7214L66.4215 15.9263C65.0611 15.2255 63.6595 14.6483 62.2167 14.1949L60.2379 5.96374C59.9906 5.05681 59.1661 4.39722 58.2179 4.39722H49.973C49.0249 4.39722 48.2004 5.05681 47.9531 5.96374L45.9743 14.1949C44.5314 14.6483 43.1298 15.2255 41.7694 15.9263L34.7613 11.7214C33.9368 11.2267 32.9062 11.3504 32.2466 12.01L26.3927 17.8638C25.7331 18.5234 25.6095 19.554 26.1042 20.3785L30.309 27.3866C29.6082 28.747 29.0311 30.1487 28.5776 31.5915L20.6213 33.6115C19.7144 33.8176 19.0548 34.6421 19.0548 35.5903V43.8351C19.0548 44.7833 19.7144 45.6078 20.6213 45.8139L28.5776 47.8339C29.0311 49.2768 29.6082 50.6784 30.309 52.0388L26.1042 59.0469C25.6095 59.8714 25.7331 60.902 26.3927 61.5616L32.2466 67.4155C32.9062 68.075 33.9368 68.1987 34.7613 67.704L41.7694 63.4991C43.1298 64.2 44.5314 64.7771 45.9743 65.2306L47.9531 73.1869C48.2004 74.0938 49.0249 74.7534 49.973 74.7534H58.2179C59.1661 74.7534 59.9906 74.0938 60.2379 73.1869L62.2167 65.2306C63.6595 64.7771 65.0611 64.2 66.4215 63.4991L73.4297 67.704C74.2542 68.1987 75.2848 68.075 75.9444 67.4155L81.7982 61.5616C82.4578 60.902 82.5815 59.8714 82.0868 59.0469L77.8819 52.0388C78.5827 50.6784 79.1599 49.2768 79.6133 47.8339L87.8445 45.8139C88.7514 45.6078 89.411 44.7833 89.411 43.8351V35.5903C89.411 34.6421 88.7514 33.8176 87.8445 33.6115ZM54.0955 50.0188C48.4065 50.0188 43.7894 45.4017 43.7894 39.7127C43.7894 34.0238 48.4065 29.4066 54.0955 29.4066C59.7844 29.4066 64.4016 34.0238 64.4016 39.7127C64.4016 45.4017 59.7844 50.0188 54.0955 50.0188Z" fill="#0066FF"/>
<circle cx="88.6781" cy="6.59583" r="6.59589" fill="#C6C6C6"/>
<circle cx="19.7877" cy="72.5547" r="6.59589" transform="rotate(-180 19.7877 72.5547)" fill="#C6C6C6"/>
<circle cx="100.404" cy="38.8424" r="6.59589" fill="#020202"/>
<circle cx="6.59588" cy="38.8424" r="6.59589" transform="rotate(-180 6.59588 38.8424)" fill="#020202"/>
<circle cx="87.2123" cy="72.5548" r="6.59589" fill="#C6C6C6"/>
<circle cx="19.7877" cy="6.59582" r="6.59589" transform="rotate(-180 19.7877 6.59582)" fill="#C6C6C6"/>
</svg>
