<svg width="48" height="48" viewBox="0 0 48 48" fill="none" xmlns="http://www.w3.org/2000/svg">
<rect width="48" height="48" rx="24" fill="#95F1F5"/>
<path d="M33.669 19.2691C34.5916 18.7176 35.2819 17.8491 35.6111 16.8258C34.7441 17.3402 33.7956 17.7026 32.8065 17.8972C31.4352 16.4466 29.2625 16.0936 27.5025 17.0354C25.7424 17.9773 24.8308 19.9808 25.2769 21.9265C21.7258 21.7482 18.4173 20.0708 16.1748 17.3116C15.0044 19.3303 15.6025 21.9108 17.5415 23.2089C16.8404 23.1863 16.1547 22.9965 15.5418 22.6552C15.5418 22.6737 15.5418 22.6922 15.5418 22.7107C15.5422 24.8135 17.0242 26.6248 19.0853 27.0416C18.4349 27.2185 17.7527 27.2446 17.0908 27.1177C17.6704 28.916 19.3278 30.148 21.2168 30.1847C19.6522 31.4127 17.7201 32.0786 15.7312 32.0754C15.3787 32.0759 15.0264 32.0556 14.6763 32.0146C16.6959 33.3125 19.0466 34.0014 21.4473 33.9989C24.7873 34.0219 27.9971 32.7051 30.3588 30.3433C32.7205 27.9814 34.037 24.7714 34.0138 21.4315C34.0138 21.24 34.0093 21.0496 34.0004 20.8603C34.8654 20.2351 35.6119 19.4607 36.2049 18.5734C35.3991 18.9306 34.5443 19.1651 33.669 19.2691Z" fill="#10174C"/>
</svg>
