<svg width="96" height="92" viewBox="0 0 96 92" fill="none" xmlns="http://www.w3.org/2000/svg">
<path d="M51.1977 22.1067L45.0716 20.6033C44.7341 19.5294 44.3045 18.4863 43.783 17.4738L46.9125 12.2578C47.2807 11.6442 47.1886 10.8772 46.6977 10.3863L42.3409 6.02943C41.85 5.53853 41.083 5.44648 40.4693 5.81466L35.2534 8.94421C34.2409 8.42262 33.1977 7.99307 32.1239 7.65557L30.6511 1.52943C30.467 0.854434 29.8534 0.363525 29.1477 0.363525H23.0114C22.3057 0.363525 21.692 0.854434 21.508 1.52943L20.0352 7.65557C18.9614 7.99307 17.9182 8.42262 16.9057 8.94421L11.6898 5.81466C11.0761 5.44648 10.3091 5.53853 9.81818 6.02943L5.46136 10.3863C4.97045 10.8772 4.87841 11.6442 5.24659 12.2578L8.37614 17.4738C7.85455 18.4863 7.425 19.5294 7.0875 20.6033L1.16591 22.1067C0.490909 22.2601 0 22.8738 0 23.5794V29.7158C0 30.4215 0.490909 31.0351 1.16591 31.1885L7.0875 32.6919C7.425 33.7658 7.85455 34.809 8.37614 35.8215L5.24659 41.0374C4.87841 41.651 4.97045 42.4181 5.46136 42.909L9.81818 47.2658C10.3091 47.7567 11.0761 47.8488 11.6898 47.4806L16.9057 44.351C17.9182 44.8726 18.9614 45.3022 20.0352 45.6397L21.508 51.5613C21.692 52.2363 22.3057 52.7272 23.0114 52.7272H29.1477C29.8534 52.7272 30.467 52.2363 30.6511 51.5613L32.1239 45.6397C33.1977 45.3022 34.2409 44.8726 35.2534 44.351L40.4693 47.4806C41.083 47.8488 41.85 47.7567 42.3409 47.2658L46.6977 42.909C47.1886 42.4181 47.2807 41.651 46.9125 41.0374L43.783 35.8215C44.3045 34.809 44.7341 33.7658 45.0716 32.6919L51.1977 31.1885C51.8727 31.0351 52.3636 30.4215 52.3636 29.7158V23.5794C52.3636 22.8738 51.8727 22.2601 51.1977 22.1067ZM26.0795 34.3181C21.8455 34.3181 18.4091 30.8817 18.4091 26.6476C18.4091 22.4135 21.8455 18.9772 26.0795 18.9772C30.3136 18.9772 33.75 22.4135 33.75 26.6476C33.75 30.8817 30.3136 34.3181 26.0795 34.3181Z" fill="#020202"/>
<path d="M55.2727 26.5455H68.7273C70.9364 26.5455 72.7273 28.3363 72.7273 30.5455V42.5455" stroke="#C6C6C6" stroke-width="2.90909" stroke-linejoin="round"/>
<path d="M45.0909 74.5455L31.6364 74.5455C29.4272 74.5455 27.6364 72.7546 27.6364 70.5455L27.6364 58.5455" stroke="#C6C6C6" stroke-width="2.90909" stroke-linejoin="round"/>
<circle cx="72.7273" cy="68.7273" r="23.2727" fill="#0066FF"/>
<path d="M72.2872 73.8866H74.6145L74.9868 68.0917V62.4364H71.9148V68.0917L72.2872 73.8866ZM71.9148 78.7273H74.9868V75.5157H71.9148V78.7273Z" fill="white"/>
</svg>
