<svg width="640" height="323" viewBox="0 0 640 323" fill="none" xmlns="http://www.w3.org/2000/svg">
<path d="M34.3039 204H36.0039C38.1339 204 39.3039 202.67 39.3039 200.5C39.3039 198.33 38.1339 197 36.0039 197H34.3039V204ZM35.6239 202.78V198.22H35.9239C37.3439 198.22 37.9639 199.05 37.9639 200.5C37.9639 201.95 37.3439 202.78 35.9239 202.78H35.6239ZM42.0895 204.14C42.7995 204.14 43.3895 203.87 43.7795 203.21C43.7795 203.64 43.9395 203.9 44.0195 204H45.2995C45.0595 203.65 44.9695 203.34 44.9695 202.77V200.7C44.9695 199.49 44.1495 198.9 42.7595 198.9C41.3995 198.9 40.6395 199.65 40.6395 200.42C40.6395 200.56 40.6695 200.71 40.7295 200.84L41.8595 200.46C41.8395 200.4 41.8395 200.38 41.8395 200.34C41.8395 200.03 42.1795 199.78 42.7595 199.78C43.3695 199.78 43.7095 200.05 43.7095 200.53V200.72L42.1495 200.95C41.1595 201.1 40.3795 201.58 40.3795 202.59C40.3795 203.53 41.1095 204.14 42.0895 204.14ZM42.3795 203.12C41.9395 203.12 41.6095 202.92 41.6095 202.52C41.6095 202.12 41.9295 201.88 42.4695 201.79L43.7095 201.59V201.68C43.7095 202.64 43.0695 203.12 42.3795 203.12ZM49.4152 204.14C49.9452 204.14 50.4352 203.99 50.8452 203.62L50.3652 202.69C50.1452 202.9 49.9052 203.02 49.6252 203.02C49.2352 203.02 48.8852 202.87 48.8852 202.13V200.06H50.4952V199.04H48.8852V197.7H47.6252V199.04H46.4452V200.06H47.6252V202.21C47.6252 203.5 48.3752 204.14 49.4152 204.14ZM54.1208 204.14C54.8308 204.14 55.4208 203.87 55.8108 203.21C55.8108 203.64 55.9708 203.9 56.0508 204H57.3308C57.0908 203.65 57.0008 203.34 57.0008 202.77V200.7C57.0008 199.49 56.1808 198.9 54.7908 198.9C53.4308 198.9 52.6708 199.65 52.6708 200.42C52.6708 200.56 52.7008 200.71 52.7608 200.84L53.8908 200.46C53.8708 200.4 53.8708 200.38 53.8708 200.34C53.8708 200.03 54.2108 199.78 54.7908 199.78C55.4008 199.78 55.7408 200.05 55.7408 200.53V200.72L54.1808 200.95C53.1908 201.1 52.4108 201.58 52.4108 202.59C52.4108 203.53 53.1408 204.14 54.1208 204.14ZM54.4108 203.12C53.9708 203.12 53.6408 202.92 53.6408 202.52C53.6408 202.12 53.9608 201.88 54.5008 201.79L55.7408 201.59V201.68C55.7408 202.64 55.1008 203.12 54.4108 203.12ZM61.1064 204.14C62.4064 204.14 63.4364 203.17 63.4364 201.52C63.4364 199.87 62.4564 198.9 61.1264 198.9C60.4664 198.9 59.9564 199.17 59.5564 199.65V197H58.2964V204H59.5564V203.39C59.8164 203.81 60.3264 204.14 61.1064 204.14ZM60.8164 202.96C60.0064 202.96 59.4764 202.36 59.4764 201.52C59.4764 200.68 60.0064 200.08 60.8164 200.08C61.6264 200.08 62.1564 200.68 62.1564 201.52C62.1564 202.36 61.6264 202.96 60.8164 202.96ZM66.152 204.14C66.862 204.14 67.452 203.87 67.842 203.21C67.842 203.64 68.002 203.9 68.082 204H69.362C69.122 203.65 69.032 203.34 69.032 202.77V200.7C69.032 199.49 68.212 198.9 66.822 198.9C65.462 198.9 64.702 199.65 64.702 200.42C64.702 200.56 64.732 200.71 64.792 200.84L65.922 200.46C65.902 200.4 65.902 200.38 65.902 200.34C65.902 200.03 66.242 199.78 66.822 199.78C67.432 199.78 67.772 200.05 67.772 200.53V200.72L66.212 200.95C65.222 201.1 64.442 201.58 64.442 202.59C64.442 203.53 65.172 204.14 66.152 204.14ZM66.442 203.12C66.002 203.12 65.672 202.92 65.672 202.52C65.672 202.12 65.992 201.88 66.532 201.79L67.772 201.59V201.68C67.772 202.64 67.132 203.12 66.442 203.12ZM72.8877 204.14C74.1577 204.14 75.0077 203.53 75.0077 202.49C75.0077 201.64 74.3877 201.12 73.1577 200.98C72.2877 200.88 71.9277 200.64 71.9277 200.33C71.9277 199.98 72.3177 199.82 72.7377 199.82C73.3477 199.82 73.7877 200.17 74.0077 200.69L74.9077 200.19C74.5277 199.33 73.8777 198.9 72.7477 198.9C71.6477 198.9 70.8077 199.41 70.8077 200.39C70.8077 201.19 71.5077 201.75 72.6077 201.89C73.4277 201.99 73.8477 202.14 73.8477 202.53C73.8477 202.89 73.3977 203.08 72.9077 203.08C72.0877 203.08 71.7077 202.61 71.4977 201.99L70.4877 202.63C70.8177 203.4 71.5677 204.14 72.8877 204.14ZM78.8933 204.14C80.0133 204.14 80.7033 203.69 81.2233 202.69L80.2833 202.15C80.0333 202.68 79.6033 203.06 78.9133 203.06C78.1633 203.06 77.6333 202.58 77.5533 201.82H81.3733V201.38C81.3733 199.93 80.3733 198.9 78.9533 198.9C77.5133 198.9 76.3433 199.95 76.3433 201.52C76.3433 203.09 77.5133 204.14 78.8933 204.14ZM77.5533 200.9C77.7333 200.32 78.2433 199.86 78.9133 199.86C79.6233 199.86 80.0933 200.26 80.2133 200.9H77.5533ZM84.9189 204.14C86.1889 204.14 87.0389 203.53 87.0389 202.49C87.0389 201.64 86.4189 201.12 85.1889 200.98C84.3189 200.88 83.9589 200.64 83.9589 200.33C83.9589 199.98 84.3489 199.82 84.7689 199.82C85.3789 199.82 85.8189 200.17 86.0389 200.69L86.9389 200.19C86.5589 199.33 85.9089 198.9 84.7789 198.9C83.6789 198.9 82.8389 199.41 82.8389 200.39C82.8389 201.19 83.5389 201.75 84.6389 201.89C85.4589 201.99 85.8789 202.14 85.8789 202.53C85.8789 202.89 85.4289 203.08 84.9389 203.08C84.1189 203.08 83.7389 202.61 83.5289 201.99L82.5189 202.63C82.8489 203.4 83.5989 204.14 84.9189 204.14Z" fill="#493D8D"/>
<g filter="url(#filter0_d)">
<circle cx="59.6877" cy="152.688" r="32.6877" fill="#493D8D"/>
</g>
<path d="M73.8652 148.003H45.6426C44.0498 148.003 42.7539 149.299 42.7539 150.892V155.108C42.7539 156.701 44.0498 157.997 45.6426 157.997H73.8652C75.4581 157.997 76.7539 156.701 76.7539 155.108V150.892C76.7539 149.299 75.4581 148.003 73.8652 148.003ZM72.7529 153C72.7529 153.55 72.3069 153.996 71.7568 153.996H63.7549C63.2048 153.996 62.7588 153.55 62.7588 153C62.7588 152.45 63.2048 152.004 63.7549 152.004H71.7568C72.3069 152.004 72.7529 152.45 72.7529 153ZM60.75 153C60.7741 153.538 60.2749 153.996 59.7539 153.996C59.1955 153.996 58.782 153.54 58.7578 153C58.7337 152.462 59.2329 152.004 59.7539 152.004C60.3123 152.004 60.7258 152.46 60.75 153Z" fill="#9AFAFC"/>
<path d="M73.8652 159.912H45.6426C44.0498 159.912 42.7539 161.208 42.7539 162.801V167.018C42.7539 168.61 44.0498 169.906 45.6426 169.906H73.8652C75.4581 169.906 76.7539 168.61 76.7539 167.018V162.801C76.7539 161.208 75.4581 159.912 73.8652 159.912ZM72.7529 164.909C72.7529 165.459 72.3069 165.905 71.7568 165.905H63.7549C63.2048 165.905 62.7588 165.459 62.7588 164.909C62.7588 164.359 63.2048 163.913 63.7549 163.913H71.7568C72.3069 163.913 72.7529 164.359 72.7529 164.909ZM60.75 164.909C60.7741 165.447 60.2749 165.905 59.7539 165.905C59.1955 165.905 58.782 165.449 58.7578 164.909C58.7337 164.371 59.2329 163.913 59.7539 163.913C60.3123 163.913 60.7258 164.369 60.75 164.909Z" fill="#FAFAFA"/>
<path d="M73.8652 136H45.6426C44.0498 136 42.7539 137.296 42.7539 138.889V143.105C42.7539 144.698 44.0498 145.994 45.6426 145.994H73.8652C75.4581 145.994 76.7539 144.698 76.7539 143.105V138.889C76.7539 137.296 75.4581 136 73.8652 136ZM72.7529 140.997C72.7529 141.547 72.3069 141.993 71.7568 141.993H63.7549C63.2048 141.993 62.7588 141.547 62.7588 140.997C62.7588 140.447 63.2048 140.001 63.7549 140.001H71.7568C72.3069 140.001 72.7529 140.447 72.7529 140.997ZM60.75 140.997C60.7741 141.535 60.2749 141.993 59.7539 141.993C59.1955 141.993 58.782 141.537 58.7578 140.997C58.7337 140.459 59.2329 140.001 59.7539 140.001C60.3123 140.001 60.7258 140.457 60.75 140.997Z" fill="#F2F2F2"/>
<path d="M431.55 243H433.25C435.38 243 436.55 241.67 436.55 239.5C436.55 237.33 435.38 236 433.25 236H431.55V243ZM432.87 241.78V237.22H433.17C434.59 237.22 435.21 238.05 435.21 239.5C435.21 240.95 434.59 241.78 433.17 241.78H432.87ZM439.336 243.14C440.046 243.14 440.636 242.87 441.026 242.21C441.026 242.64 441.186 242.9 441.266 243H442.546C442.306 242.65 442.216 242.34 442.216 241.77V239.7C442.216 238.49 441.396 237.9 440.006 237.9C438.646 237.9 437.886 238.65 437.886 239.42C437.886 239.56 437.916 239.71 437.976 239.84L439.106 239.46C439.086 239.4 439.086 239.38 439.086 239.34C439.086 239.03 439.426 238.78 440.006 238.78C440.616 238.78 440.956 239.05 440.956 239.53V239.72L439.396 239.95C438.406 240.1 437.626 240.58 437.626 241.59C437.626 242.53 438.356 243.14 439.336 243.14ZM439.626 242.12C439.186 242.12 438.856 241.92 438.856 241.52C438.856 241.12 439.176 240.88 439.716 240.79L440.956 240.59V240.68C440.956 241.64 440.316 242.12 439.626 242.12ZM446.661 243.14C447.191 243.14 447.681 242.99 448.091 242.62L447.611 241.69C447.391 241.9 447.151 242.02 446.871 242.02C446.481 242.02 446.131 241.87 446.131 241.13V239.06H447.741V238.04H446.131V236.7H444.871V238.04H443.691V239.06H444.871V241.21C444.871 242.5 445.621 243.14 446.661 243.14ZM451.367 243.14C452.077 243.14 452.667 242.87 453.057 242.21C453.057 242.64 453.217 242.9 453.297 243H454.577C454.337 242.65 454.247 242.34 454.247 241.77V239.7C454.247 238.49 453.427 237.9 452.037 237.9C450.677 237.9 449.917 238.65 449.917 239.42C449.917 239.56 449.947 239.71 450.007 239.84L451.137 239.46C451.117 239.4 451.117 239.38 451.117 239.34C451.117 239.03 451.457 238.78 452.037 238.78C452.647 238.78 452.987 239.05 452.987 239.53V239.72L451.427 239.95C450.437 240.1 449.657 240.58 449.657 241.59C449.657 242.53 450.387 243.14 451.367 243.14ZM451.657 242.12C451.217 242.12 450.887 241.92 450.887 241.52C450.887 241.12 451.207 240.88 451.747 240.79L452.987 240.59V240.68C452.987 241.64 452.347 242.12 451.657 242.12ZM462.168 243H463.428L464.088 239.63L464.748 243H466.008L466.998 238.04H465.798L465.338 241.26L464.678 238.04H463.498L462.838 241.26L462.378 238.04H461.178L462.168 243ZM469.414 243.14C470.124 243.14 470.714 242.87 471.104 242.21C471.104 242.64 471.264 242.9 471.344 243H472.624C472.384 242.65 472.294 242.34 472.294 241.77V239.7C472.294 238.49 471.474 237.9 470.084 237.9C468.724 237.9 467.964 238.65 467.964 239.42C467.964 239.56 467.994 239.71 468.054 239.84L469.184 239.46C469.164 239.4 469.164 239.38 469.164 239.34C469.164 239.03 469.504 238.78 470.084 238.78C470.694 238.78 471.034 239.05 471.034 239.53V239.72L469.474 239.95C468.484 240.1 467.704 240.58 467.704 241.59C467.704 242.53 468.434 243.14 469.414 243.14ZM469.704 242.12C469.264 242.12 468.934 241.92 468.934 241.52C468.934 241.12 469.254 240.88 469.794 240.79L471.034 240.59V240.68C471.034 241.64 470.394 242.12 469.704 242.12ZM474.039 243H475.299V240.44C475.299 239.57 475.689 239 476.419 239C476.839 239 477.149 239.25 477.149 239.63C477.149 239.67 477.149 239.7 477.139 239.77L478.259 240.18C478.359 239.97 478.429 239.7 478.429 239.38C478.429 238.63 477.999 237.9 476.819 237.9C476.149 237.9 475.609 238.23 475.299 238.72V238.04H474.039V243ZM482.155 243.14C483.275 243.14 483.965 242.69 484.485 241.69L483.545 241.15C483.295 241.68 482.865 242.06 482.175 242.06C481.425 242.06 480.895 241.58 480.815 240.82H484.635V240.38C484.635 238.93 483.635 237.9 482.215 237.9C480.775 237.9 479.605 238.95 479.605 240.52C479.605 242.09 480.775 243.14 482.155 243.14ZM480.815 239.9C480.995 239.32 481.505 238.86 482.175 238.86C482.885 238.86 483.355 239.26 483.475 239.9H480.815ZM485.781 243H487.041V240.48C487.041 239.65 487.521 239.08 488.221 239.08C488.881 239.08 489.201 239.49 489.201 240.14V243H490.461V239.58C490.461 238.59 489.771 237.9 488.691 237.9C487.961 237.9 487.431 238.22 487.041 238.82V236H485.781V243ZM494.166 243.14C495.526 243.14 496.816 242.26 496.816 240.52C496.816 238.78 495.526 237.9 494.166 237.9C492.806 237.9 491.516 238.78 491.516 240.52C491.516 242.26 492.806 243.14 494.166 243.14ZM494.166 241.96C493.396 241.96 492.796 241.49 492.796 240.52C492.796 239.55 493.396 239.08 494.166 239.08C494.936 239.08 495.536 239.55 495.536 240.52C495.536 241.49 494.936 241.96 494.166 241.96ZM499.642 243.14C500.412 243.14 500.852 242.82 501.212 242.26V243H502.472V238.04H501.212V240.56C501.212 241.39 500.762 241.96 500.102 241.96C499.432 241.96 499.152 241.58 499.152 240.9V238.04H497.892V241.42C497.892 242.45 498.582 243.14 499.642 243.14ZM506.228 243.14C507.498 243.14 508.348 242.53 508.348 241.49C508.348 240.64 507.728 240.12 506.498 239.98C505.628 239.88 505.268 239.64 505.268 239.33C505.268 238.98 505.658 238.82 506.078 238.82C506.688 238.82 507.128 239.17 507.348 239.69L508.248 239.19C507.868 238.33 507.218 237.9 506.088 237.9C504.988 237.9 504.148 238.41 504.148 239.39C504.148 240.19 504.848 240.75 505.948 240.89C506.768 240.99 507.188 241.14 507.188 241.53C507.188 241.89 506.738 242.08 506.248 242.08C505.428 242.08 505.048 241.61 504.838 240.99L503.828 241.63C504.158 242.4 504.908 243.14 506.228 243.14ZM512.233 243.14C513.353 243.14 514.043 242.69 514.563 241.69L513.623 241.15C513.373 241.68 512.943 242.06 512.253 242.06C511.503 242.06 510.973 241.58 510.893 240.82H514.713V240.38C514.713 238.93 513.713 237.9 512.293 237.9C510.853 237.9 509.683 238.95 509.683 240.52C509.683 242.09 510.853 243.14 512.233 243.14ZM510.893 239.9C511.073 239.32 511.583 238.86 512.253 238.86C512.963 238.86 513.433 239.26 513.553 239.9H510.893Z" fill="#493D8D"/>
<rect x="387.437" y="75.5" width="172.304" height="119.713" rx="10.5" stroke="#493D8D" stroke-width="3"/>
<path d="M466.327 143.09H378.944C374.012 143.09 370 147.103 370 152.034V165.09C370 170.022 374.012 174.034 378.944 174.034H466.327C471.258 174.034 475.271 170.022 475.271 165.09V152.034C475.271 147.103 471.258 143.09 466.327 143.09ZM462.883 158.562C462.883 160.265 461.502 161.646 459.799 161.646H435.023C433.32 161.646 431.939 160.265 431.939 158.562C431.939 156.859 433.32 155.478 435.023 155.478H459.799C461.502 155.478 462.883 156.859 462.883 158.562ZM425.719 158.562C425.794 160.228 424.248 161.646 422.635 161.646C420.906 161.646 419.626 160.233 419.551 158.562C419.477 156.897 421.022 155.478 422.635 155.478C424.364 155.478 425.645 156.891 425.719 158.562Z" fill="#5F559B"/>
<g filter="url(#filter1_d)">
<path d="M466.327 105.926H378.944C374.012 105.926 370 109.938 370 114.87V127.926C370 132.858 374.012 136.87 378.944 136.87H466.327C471.258 136.87 475.271 132.858 475.271 127.926V114.87C475.271 109.938 471.258 105.926 466.327 105.926ZM462.883 121.398C462.883 123.101 461.502 124.482 459.799 124.482H435.023C433.32 124.482 431.939 123.101 431.939 121.398C431.939 119.695 433.32 118.314 435.023 118.314H459.799C461.502 118.314 462.883 119.695 462.883 121.398ZM425.719 121.398C425.794 123.064 424.248 124.482 422.635 124.482C420.906 124.482 419.626 123.069 419.551 121.398C419.477 119.733 421.022 118.314 422.635 118.314C424.364 118.314 425.645 119.727 425.719 121.398Z" fill="#C6C6C6"/>
</g>
<path d="M140 150L312 150" stroke="#9AFAFC" stroke-width="10"/>
<path d="M26 100H27.42L27.99 98.17H30.03L30.6 100H32.02L29.65 93H28.37L26 100ZM28.36 96.99L28.82 95.52C28.89 95.29 28.95 95.03 29.01 94.75C29.07 95.03 29.13 95.29 29.2 95.52L29.66 96.99H28.36ZM32.4956 102.04H33.7556V99.45C34.0956 99.89 34.6256 100.14 35.3256 100.14C36.5856 100.14 37.6356 99.17 37.6356 97.52C37.6356 95.87 36.6856 94.9 35.3856 94.9C34.5956 94.9 34.0556 95.28 33.7556 95.65V95.04H32.4956V102.04ZM35.0156 98.96C34.2056 98.96 33.6756 98.36 33.6756 97.52C33.6756 96.68 34.2056 96.08 35.0156 96.08C35.8256 96.08 36.3556 96.68 36.3556 97.52C36.3556 98.36 35.8256 98.96 35.0156 98.96ZM38.5113 102.04H39.7713V99.45C40.1113 99.89 40.6413 100.14 41.3413 100.14C42.6013 100.14 43.6513 99.17 43.6513 97.52C43.6513 95.87 42.7013 94.9 41.4013 94.9C40.6113 94.9 40.0713 95.28 39.7713 95.65V95.04H38.5113V102.04ZM41.0313 98.96C40.2213 98.96 39.6913 98.36 39.6913 97.52C39.6913 96.68 40.2213 96.08 41.0313 96.08C41.8413 96.08 42.3713 96.68 42.3713 97.52C42.3713 98.36 41.8413 98.96 41.0313 98.96ZM44.7269 100H49.3869V98.96H47.6869V93H44.9269V94.04H46.4269V98.96H44.7269V100ZM52.3825 94.32H53.7625V93H52.3825V94.32ZM50.8525 100H55.2925V98.96H53.7025V95.04H51.1025V96.06H52.4425V98.96H50.8525V100ZM59.2681 100.14C60.3581 100.14 61.1381 99.59 61.6281 98.67L60.5881 98.05C60.2881 98.65 59.9181 98.96 59.2581 98.96C58.4981 98.96 57.9081 98.41 57.9081 97.52C57.9081 96.64 58.5181 96.08 59.2581 96.08C59.7781 96.08 60.2381 96.3 60.5281 96.93L61.5981 96.3C61.1281 95.35 60.3681 94.9 59.2681 94.9C57.8581 94.9 56.6281 95.94 56.6281 97.52C56.6281 99.1 57.7981 100.14 59.2681 100.14ZM64.4138 100.14C65.1238 100.14 65.7138 99.87 66.1038 99.21C66.1038 99.64 66.2638 99.9 66.3438 100H67.6238C67.3838 99.65 67.2938 99.34 67.2938 98.77V96.7C67.2938 95.49 66.4738 94.9 65.0838 94.9C63.7238 94.9 62.9638 95.65 62.9638 96.42C62.9638 96.56 62.9938 96.71 63.0538 96.84L64.1838 96.46C64.1638 96.4 64.1638 96.38 64.1638 96.34C64.1638 96.03 64.5038 95.78 65.0838 95.78C65.6938 95.78 66.0338 96.05 66.0338 96.53V96.72L64.4738 96.95C63.4838 97.1 62.7038 97.58 62.7038 98.59C62.7038 99.53 63.4338 100.14 64.4138 100.14ZM64.7038 99.12C64.2638 99.12 63.9338 98.92 63.9338 98.52C63.9338 98.12 64.2538 97.88 64.7938 97.79L66.0338 97.59V97.68C66.0338 98.64 65.3938 99.12 64.7038 99.12ZM71.7394 100.14C72.2694 100.14 72.7594 99.99 73.1694 99.62L72.6894 98.69C72.4694 98.9 72.2294 99.02 71.9494 99.02C71.5594 99.02 71.2094 98.87 71.2094 98.13V96.06H72.8194V95.04H71.2094V93.7H69.9494V95.04H68.7694V96.06H69.9494V98.21C69.9494 99.5 70.6994 100.14 71.7394 100.14ZM76.445 94.32H77.825V93H76.445V94.32ZM74.915 100H79.355V98.96H77.765V95.04H75.165V96.06H76.505V98.96H74.915V100ZM83.1506 100.14C84.5106 100.14 85.8006 99.26 85.8006 97.52C85.8006 95.78 84.5106 94.9 83.1506 94.9C81.7906 94.9 80.5006 95.78 80.5006 97.52C80.5006 99.26 81.7906 100.14 83.1506 100.14ZM83.1506 98.96C82.3806 98.96 81.7806 98.49 81.7806 97.52C81.7806 96.55 82.3806 96.08 83.1506 96.08C83.9206 96.08 84.5206 96.55 84.5206 97.52C84.5206 98.49 83.9206 98.96 83.1506 98.96ZM86.9363 100H88.1963V97.48C88.1963 96.65 88.6463 96.08 89.3063 96.08C89.9763 96.08 90.2563 96.46 90.2563 97.14V100H91.5163V96.62C91.5163 95.59 90.8663 94.9 89.8063 94.9C89.0863 94.9 88.5663 95.27 88.1963 95.84V95.04H86.9363V100ZM95.2119 100.14C96.4819 100.14 97.3319 99.53 97.3319 98.49C97.3319 97.64 96.7119 97.12 95.4819 96.98C94.6119 96.88 94.2519 96.64 94.2519 96.33C94.2519 95.98 94.6419 95.82 95.0619 95.82C95.6719 95.82 96.1119 96.17 96.3319 96.69L97.2319 96.19C96.8519 95.33 96.2019 94.9 95.0719 94.9C93.9719 94.9 93.1319 95.41 93.1319 96.39C93.1319 97.19 93.8319 97.75 94.9319 97.89C95.7519 97.99 96.1719 98.14 96.1719 98.53C96.1719 98.89 95.7219 99.08 95.2319 99.08C94.4119 99.08 94.0319 98.61 93.8219 97.99L92.8119 98.63C93.1419 99.4 93.8919 100.14 95.2119 100.14Z" fill="#493D8D"/>
<path d="M89.4679 48H124C132.837 48 140 55.1634 140 64V236C140 244.837 132.837 252 124 252H86" stroke="#9AFAFC" stroke-width="10"/>
<path d="M46.71 302H48.03V299.17H51.14V297.99H48.03V296.18H51.44V295H46.71V302ZM54.3356 296.32H55.7156V295H54.3356V296.32ZM52.8056 302H57.2456V300.96H55.6556V297.04H53.0556V298.06H54.3956V300.96H52.8056V302ZM58.7113 302H63.3713V300.96H61.6713V295H58.9113V296.04H60.4113V300.96H58.7113V302ZM67.0769 302.14C68.1969 302.14 68.8869 301.69 69.4069 300.69L68.4669 300.15C68.2169 300.68 67.7869 301.06 67.0969 301.06C66.3469 301.06 65.8169 300.58 65.7369 299.82H69.5569V299.38C69.5569 297.93 68.5569 296.9 67.1369 296.9C65.6969 296.9 64.5269 297.95 64.5269 299.52C64.5269 301.09 65.6969 302.14 67.0769 302.14ZM65.7369 298.9C65.9169 298.32 66.4269 297.86 67.0969 297.86C67.8069 297.86 68.2769 298.26 68.3969 298.9H65.7369ZM73.1025 302.14C74.3725 302.14 75.2225 301.53 75.2225 300.49C75.2225 299.64 74.6025 299.12 73.3725 298.98C72.5025 298.88 72.1425 298.64 72.1425 298.33C72.1425 297.98 72.5325 297.82 72.9525 297.82C73.5625 297.82 74.0025 298.17 74.2225 298.69L75.1225 298.19C74.7425 297.33 74.0925 296.9 72.9625 296.9C71.8625 296.9 71.0225 297.41 71.0225 298.39C71.0225 299.19 71.7225 299.75 72.8225 299.89C73.6425 299.99 74.0625 300.14 74.0625 300.53C74.0625 300.89 73.6125 301.08 73.1225 301.08C72.3025 301.08 71.9225 300.61 71.7125 299.99L70.7025 300.63C71.0325 301.4 71.7825 302.14 73.1025 302.14Z" fill="#493D8D"/>
<g filter="url(#filter2_d)">
<circle cx="227.5" cy="149.5" r="41.5" fill="white"/>
<circle cx="227.5" cy="149.5" r="41" stroke="#E1E1E1"/>
</g>
<g filter="url(#filter3_d)">
<circle cx="60.6877" cy="251.688" r="32.6877" fill="#493D8D"/>
</g>
<g filter="url(#filter4_d)">
<circle cx="59.6877" cy="47.6877" r="32.6877" fill="#493D8D"/>
</g>
<path d="M336 147.768C337.333 148.538 337.333 150.462 336 151.232L314.25 163.789C312.917 164.559 311.25 163.597 311.25 162.057L311.25 136.943C311.25 135.403 312.917 134.441 314.25 135.211L336 147.768Z" fill="#9AFAFC"/>
<rect x="45" y="32" width="12.943" height="12.943" rx="2.12635" fill="#9AFAFC"/>
<rect x="45" y="48.8262" width="12.943" height="12.943" rx="2.12635" fill="#FAFAFA"/>
<rect x="61.7617" y="32" width="14.2373" height="14.2373" rx="7.11864" fill="white"/>
<rect x="62.0566" y="48.8262" width="12.943" height="12.943" rx="2.12635" fill="#FAFAFA"/>
<path d="M66.3923 242.25C65.7414 242.25 65.2137 241.722 65.2137 241.071V234H51.0709C49.1181 234 47.5352 235.583 47.5352 237.536V263.464C47.5352 265.417 49.1181 267 51.0709 267H69.928C71.8807 267 73.4637 265.417 73.4637 263.464V242.25H66.3923Z" fill="#FAFAFA"/>
<path d="M67.5713 234.69V239.893H72.7735L67.5713 234.69Z" fill="white"/>
<rect x="51" y="247" width="10" height="3" rx="1.5" fill="#9AFAFC"/>
<rect x="51" y="252" width="7" height="3" rx="1.5" fill="#9AFAFC"/>
<rect x="417" y="191" width="47" height="10" rx="5" fill="white"/>
<g filter="url(#filter5_d)">
<path d="M466.327 179.962H378.944C374.012 179.962 370 183.975 370 188.906V201.962C370 206.894 374.012 210.906 378.944 210.906H466.327C471.258 210.906 475.271 206.894 475.271 201.962V188.906C475.271 183.975 471.258 179.962 466.327 179.962ZM462.883 195.434C462.883 197.138 461.502 198.518 459.799 198.518H435.023C433.32 198.518 431.939 197.138 431.939 195.434C431.939 193.731 433.32 192.35 435.023 192.35H459.799C461.502 192.35 462.883 193.731 462.883 195.434ZM425.719 195.434C425.794 197.1 424.248 198.518 422.635 198.518C420.906 198.518 419.626 197.105 419.551 195.434C419.477 193.769 421.022 192.35 422.635 192.35C424.364 192.35 425.645 193.763 425.719 195.434Z" fill="#9AFAFC"/>
</g>
<rect x="528" y="102" width="40" height="10" rx="5" fill="white"/>
<rect x="528" y="128" width="40" height="10" rx="5" fill="white"/>
<rect x="528" y="153" width="40" height="10" rx="5" fill="white"/>
<path d="M567.937 121.645H508.371C505.009 121.645 502.274 124.38 502.274 127.741V136.641C502.274 140.003 505.009 142.738 508.371 142.738H567.937C571.299 142.738 574.034 140.003 574.034 136.641V127.741C574.034 124.38 571.299 121.645 567.937 121.645ZM565.589 132.191C565.589 133.352 564.648 134.294 563.487 134.294H546.598C545.437 134.294 544.496 133.352 544.496 132.191C544.496 131.03 545.437 130.089 546.598 130.089H563.487C564.648 130.089 565.589 131.03 565.589 132.191ZM540.256 132.191C540.307 133.327 539.254 134.294 538.154 134.294C536.975 134.294 536.103 133.33 536.052 132.191C536.001 131.056 537.054 130.089 538.154 130.089C539.333 130.089 540.205 131.052 540.256 132.191Z" fill="#5F559B"/>
<g filter="url(#filter6_d)">
<path d="M567.937 146.779H508.371C505.009 146.779 502.274 149.514 502.274 152.876V161.776C502.274 165.138 505.009 167.873 508.371 167.873H567.937C571.299 167.873 574.034 165.138 574.034 161.776V152.876C574.034 149.514 571.299 146.779 567.937 146.779ZM565.589 157.326C565.589 158.487 564.648 159.428 563.487 159.428H546.598C545.437 159.428 544.496 158.487 544.496 157.326C544.496 156.165 545.437 155.224 546.598 155.224H563.487C564.648 155.224 565.589 156.165 565.589 157.326ZM540.256 157.326C540.307 158.461 539.254 159.428 538.154 159.428C536.975 159.428 536.103 158.465 536.052 157.326C536.001 156.191 537.054 155.224 538.154 155.224C539.333 155.224 540.205 156.187 540.256 157.326Z" fill="#9AFAFC"/>
</g>
<g filter="url(#filter7_d)">
<path d="M567.937 96.3115H508.371C505.009 96.3115 502.274 99.0465 502.274 102.408V111.308C502.274 114.67 505.009 117.405 508.371 117.405H567.937C571.299 117.405 574.034 114.67 574.034 111.308V102.408C574.034 99.0465 571.299 96.3115 567.937 96.3115ZM565.589 106.858C565.589 108.019 564.648 108.96 563.487 108.96H546.598C545.437 108.96 544.496 108.019 544.496 106.858C544.496 105.697 545.437 104.756 546.598 104.756H563.487C564.648 104.756 565.589 105.697 565.589 106.858ZM540.256 106.858C540.307 107.994 539.254 108.96 538.154 108.96C536.975 108.96 536.103 107.997 536.052 106.858C536.001 105.723 537.054 104.756 538.154 104.756C539.333 104.756 540.205 105.719 540.256 106.858Z" fill="#C6C6C6"/>
</g>
<g filter="url(#filter8_d)">
<circle cx="227.661" cy="148.661" r="42.6613" fill="white"/>
</g>
<path d="M240.683 148.604V139.802H232.122C232.122 144.662 235.954 148.604 240.683 148.604Z" fill="black"/>
<path d="M215 165H227.667C234.855 165 240.683 159.008 240.683 151.617H215V165Z" fill="black"/>
<path d="M232.122 131C232.122 135.86 235.954 139.802 240.683 139.802V131H232.122Z" fill="black"/>
<path d="M223.561 131C223.561 135.86 227.393 139.802 232.121 139.802H223.561C223.561 144.662 227.393 148.604 232.121 148.604V139.802V131H223.561Z" fill="black"/>
<path d="M223.561 148.604V139.802H215C215 144.662 218.832 148.604 223.561 148.604Z" fill="black"/>
<defs>
<filter id="filter0_d" x="0.70774" y="105.077" width="117.96" height="117.96" filterUnits="userSpaceOnUse" color-interpolation-filters="sRGB">
<feFlood flood-opacity="0" result="BackgroundImageFix"/>
<feColorMatrix in="SourceAlpha" type="matrix" values="0 0 0 0 0 0 0 0 0 0 0 0 0 0 0 0 0 0 127 0"/>
<feMorphology radius="2.1318" operator="erode" in="SourceAlpha" result="effect1_dropShadow"/>
<feOffset dy="11.3696"/>
<feGaussianBlur stdDeviation="14.212"/>
<feColorMatrix type="matrix" values="0 0 0 0 0 0 0 0 0 0 0 0 0 0 0 0 0 0 0.05 0"/>
<feBlend mode="normal" in2="BackgroundImageFix" result="effect1_dropShadow"/>
<feBlend mode="normal" in="SourceGraphic" in2="effect1_dropShadow" result="shape"/>
</filter>
<filter id="filter1_d" x="304.194" y="64.0251" width="189.073" height="114.746" filterUnits="userSpaceOnUse" color-interpolation-filters="sRGB">
<feFlood flood-opacity="0" result="BackgroundImageFix"/>
<feColorMatrix in="SourceAlpha" type="matrix" values="0 0 0 0 0 0 0 0 0 0 0 0 0 0 0 0 0 0 127 0"/>
<feMorphology radius="3.39739" operator="erode" in="SourceAlpha" result="effect1_dropShadow"/>
<feOffset dx="-23.9051"/>
<feGaussianBlur stdDeviation="22.6493"/>
<feColorMatrix type="matrix" values="0 0 0 0 0 0 0 0 0 0 0 0 0 0 0 0 0 0 0.12 0"/>
<feBlend mode="normal" in2="BackgroundImageFix" result="effect1_dropShadow"/>
<feBlend mode="normal" in="SourceGraphic" in2="effect1_dropShadow" result="shape"/>
</filter>
<filter id="filter2_d" x="165" y="91" width="125" height="125" filterUnits="userSpaceOnUse" color-interpolation-filters="sRGB">
<feFlood flood-opacity="0" result="BackgroundImageFix"/>
<feColorMatrix in="SourceAlpha" type="matrix" values="0 0 0 0 0 0 0 0 0 0 0 0 0 0 0 0 0 0 127 0"/>
<feMorphology radius="6" operator="dilate" in="SourceAlpha" result="effect1_dropShadow"/>
<feOffset dy="4"/>
<feGaussianBlur stdDeviation="7.5"/>
<feColorMatrix type="matrix" values="0 0 0 0 0 0 0 0 0 0 0 0 0 0 0 0 0 0 0.05 0"/>
<feBlend mode="normal" in2="BackgroundImageFix" result="effect1_dropShadow"/>
<feBlend mode="normal" in="SourceGraphic" in2="effect1_dropShadow" result="shape"/>
</filter>
<filter id="filter3_d" x="1.70774" y="204.077" width="117.96" height="117.96" filterUnits="userSpaceOnUse" color-interpolation-filters="sRGB">
<feFlood flood-opacity="0" result="BackgroundImageFix"/>
<feColorMatrix in="SourceAlpha" type="matrix" values="0 0 0 0 0 0 0 0 0 0 0 0 0 0 0 0 0 0 127 0"/>
<feMorphology radius="2.1318" operator="erode" in="SourceAlpha" result="effect1_dropShadow"/>
<feOffset dy="11.3696"/>
<feGaussianBlur stdDeviation="14.212"/>
<feColorMatrix type="matrix" values="0 0 0 0 0 0 0 0 0 0 0 0 0 0 0 0 0 0 0.05 0"/>
<feBlend mode="normal" in2="BackgroundImageFix" result="effect1_dropShadow"/>
<feBlend mode="normal" in="SourceGraphic" in2="effect1_dropShadow" result="shape"/>
</filter>
<filter id="filter4_d" x="0.70774" y="0.0773664" width="117.96" height="117.96" filterUnits="userSpaceOnUse" color-interpolation-filters="sRGB">
<feFlood flood-opacity="0" result="BackgroundImageFix"/>
<feColorMatrix in="SourceAlpha" type="matrix" values="0 0 0 0 0 0 0 0 0 0 0 0 0 0 0 0 0 0 127 0"/>
<feMorphology radius="2.1318" operator="erode" in="SourceAlpha" result="effect1_dropShadow"/>
<feOffset dy="11.3696"/>
<feGaussianBlur stdDeviation="14.212"/>
<feColorMatrix type="matrix" values="0 0 0 0 0 0 0 0 0 0 0 0 0 0 0 0 0 0 0.05 0"/>
<feBlend mode="normal" in2="BackgroundImageFix" result="effect1_dropShadow"/>
<feBlend mode="normal" in="SourceGraphic" in2="effect1_dropShadow" result="shape"/>
</filter>
<filter id="filter5_d" x="304.194" y="138.061" width="189.073" height="114.746" filterUnits="userSpaceOnUse" color-interpolation-filters="sRGB">
<feFlood flood-opacity="0" result="BackgroundImageFix"/>
<feColorMatrix in="SourceAlpha" type="matrix" values="0 0 0 0 0 0 0 0 0 0 0 0 0 0 0 0 0 0 127 0"/>
<feMorphology radius="3.39739" operator="erode" in="SourceAlpha" result="effect1_dropShadow"/>
<feOffset dx="-23.9051"/>
<feGaussianBlur stdDeviation="22.6493"/>
<feColorMatrix type="matrix" values="0 0 0 0 0 0 0 0 0 0 0 0 0 0 0 0 0 0 0.12 0"/>
<feBlend mode="normal" in2="BackgroundImageFix" result="effect1_dropShadow"/>
<feBlend mode="normal" in="SourceGraphic" in2="effect1_dropShadow" result="shape"/>
</filter>
<filter id="filter6_d" x="484.278" y="104.878" width="155.562" height="104.896" filterUnits="userSpaceOnUse" color-interpolation-filters="sRGB">
<feFlood flood-opacity="0" result="BackgroundImageFix"/>
<feColorMatrix in="SourceAlpha" type="matrix" values="0 0 0 0 0 0 0 0 0 0 0 0 0 0 0 0 0 0 127 0"/>
<feMorphology radius="3.39739" operator="erode" in="SourceAlpha" result="effect1_dropShadow"/>
<feOffset dx="23.9051"/>
<feGaussianBlur stdDeviation="22.6493"/>
<feColorMatrix type="matrix" values="0 0 0 0 0 0 0 0 0 0 0 0 0 0 0 0 0 0 0.04 0"/>
<feBlend mode="normal" in2="BackgroundImageFix" result="effect1_dropShadow"/>
<feBlend mode="normal" in="SourceGraphic" in2="effect1_dropShadow" result="shape"/>
</filter>
<filter id="filter7_d" x="484.278" y="54.4103" width="155.562" height="104.896" filterUnits="userSpaceOnUse" color-interpolation-filters="sRGB">
<feFlood flood-opacity="0" result="BackgroundImageFix"/>
<feColorMatrix in="SourceAlpha" type="matrix" values="0 0 0 0 0 0 0 0 0 0 0 0 0 0 0 0 0 0 127 0"/>
<feMorphology radius="3.39739" operator="erode" in="SourceAlpha" result="effect1_dropShadow"/>
<feOffset dx="23.9051"/>
<feGaussianBlur stdDeviation="22.6493"/>
<feColorMatrix type="matrix" values="0 0 0 0 0 0 0 0 0 0 0 0 0 0 0 0 0 0 0.15 0"/>
<feBlend mode="normal" in2="BackgroundImageFix" result="effect1_dropShadow"/>
<feBlend mode="normal" in="SourceGraphic" in2="effect1_dropShadow" result="shape"/>
</filter>
<filter id="filter8_d" x="158" y="95" width="139.323" height="139.323" filterUnits="userSpaceOnUse" color-interpolation-filters="sRGB">
<feFlood flood-opacity="0" result="BackgroundImageFix"/>
<feColorMatrix in="SourceAlpha" type="matrix" values="0 0 0 0 0 0 0 0 0 0 0 0 0 0 0 0 0 0 127 0"/>
<feMorphology radius="3" operator="erode" in="SourceAlpha" result="effect1_dropShadow"/>
<feOffset dy="16"/>
<feGaussianBlur stdDeviation="15"/>
<feColorMatrix type="matrix" values="0 0 0 0 0 0 0 0 0 0 0 0 0 0 0 0 0 0 0.07 0"/>
<feBlend mode="normal" in2="BackgroundImageFix" result="effect1_dropShadow"/>
<feBlend mode="normal" in="SourceGraphic" in2="effect1_dropShadow" result="shape"/>
</filter>
</defs>
</svg>
