<svg width="99" height="35" viewBox="0 0 99 35" fill="none" xmlns="http://www.w3.org/2000/svg">
<rect y="1.38521" width="9.32973" height="9.32973" transform="matrix(0.721319 0.692603 -0.721319 0.692603 28.2043 0.425808)" stroke="#D692F6" stroke-width="2"/>
<mask id="path-2-inside-1_1669_2204" fill="white">
<path d="M73.9993 15.3861L65.9873 2.56445L82.0112 2.56445L73.9993 15.3861Z"/>
</mask>
<path d="M73.9993 15.3861L72.3032 16.446C72.6686 17.0308 73.3096 17.3861 73.9993 17.3861C74.6889 17.3861 75.3299 17.0308 75.6953 16.446L73.9993 15.3861ZM65.9873 2.56445L65.9873 0.564453C65.2603 0.564453 64.5905 0.958973 64.2381 1.59484C63.8856 2.2307 63.9059 3.00776 64.2912 3.6243L65.9873 2.56445ZM82.0112 2.56445L83.7073 3.6243C84.0926 3.00776 84.1129 2.23071 83.7604 1.59484C83.408 0.958974 82.7382 0.564454 82.0112 0.564454V2.56445ZM75.6953 14.3263L67.6834 1.50461L64.2912 3.6243L72.3032 16.446L75.6953 14.3263ZM65.9873 4.56445L82.0112 4.56445V0.564454L65.9873 0.564453L65.9873 4.56445ZM80.3151 1.50461L72.3032 14.3263L75.6953 16.446L83.7073 3.6243L80.3151 1.50461Z" fill="#D692F6" mask="url(#path-2-inside-1_1669_2204)"/>
<path d="M78.2138 7.28516H92.4515C94.6107 7.28516 96.3802 8.9987 96.4495 11.1567L97.0506 29.871C97.1232 32.1293 95.3122 33.9994 93.0527 33.9994H82.1658M17.8051 33.9994H5.07129C2.86215 33.9994 1.07129 32.2086 1.07129 29.9994V11.2852C1.07129 9.07602 2.86215 7.28516 5.07129 7.28516H20.8838" stroke="#D692F6" stroke-width="2"/>
<path d="M82.9704 34H15.5234" stroke="#D692F6" stroke-width="2" stroke-linecap="round"/>
<path d="M51.1486 16.125C45.3225 16.125 40.6045 21.8781 40.6045 28.9826H61.6817C61.6817 21.8781 56.9637 16.125 51.1486 16.125Z" fill="#D692F6"/>
<path d="M57 7C57 10.3848 54.4691 13 51.5 13C48.5309 13 46 10.3848 46 7C46 3.61521 48.5309 1 51.5 1C54.4691 1 57 3.61521 57 7Z" stroke="#D692F6" stroke-width="2"/>
<path d="M27.5441 16.125C21.718 16.125 17 21.8781 17 28.9826H38.0772C38.0772 21.8781 33.3593 16.125 27.5441 16.125Z" fill="#D692F6"/>
<path d="M73.757 16.125C67.9309 16.125 63.2129 21.8781 63.2129 28.9826H84.2901C84.2901 21.8781 79.5721 16.125 73.757 16.125Z" fill="#D692F6"/>
</svg>
