<svg width="361" height="445" viewBox="0 0 361 445" fill="none" xmlns="http://www.w3.org/2000/svg">
<g filter="url(#filter0_d)">
<rect x="34" y="30" width="236.221" height="377.953" rx="14.778" fill="white"/>
<rect x="34.4618" y="30.4618" width="235.297" height="377.03" rx="14.3162" stroke="#E1E1E1" stroke-width="0.923628"/>
</g>
<rect x="55.1091" y="100.364" width="197.018" height="158.821" fill="#EEF5F5" fill-opacity="0.6"/>
<rect x="55.1091" y="309.444" width="197.018" height="32.1662" rx="7.38902" fill="#EEF5F5"/>
<rect x="55.5709" y="348.103" width="196.095" height="31.2426" rx="6.92721" stroke="#EBEBEB" stroke-width="0.923628"/>
<rect x="55.1091" y="56.1351" width="51.2649" height="15.0779" rx="7.38902" fill="#493D8D"/>
<rect x="55.1091" y="269.236" width="32.1662" height="7.03636" rx="3.51818" fill="#493D8D"/>
<ellipse cx="153.116" cy="324.02" rx="17.5909" ry="3.51818" fill="white"/>
<rect x="55.1091" y="286.325" width="63.3273" height="7.03636" rx="3.51818" fill="#00FFFF"/>
<circle cx="246.096" cy="290.345" r="6.03117" fill="#00FFFF"/>
<line x1="153.387" y1="323.286" x2="153.387" y2="242.327" stroke="white" stroke-width="0.461814" stroke-miterlimit="16" stroke-linecap="round" stroke-dasharray="2.77 2.77"/>
<path d="M72.728 150.392H72.952C73.144 150.392 73.2907 150.349 73.392 150.264C73.4987 150.179 73.552 150.011 73.552 149.76V148.896C73.552 148.624 73.584 148.392 73.648 148.2C73.712 148.008 73.8053 147.853 73.928 147.736C74.0507 147.619 74.2 147.533 74.376 147.48C74.552 147.427 74.7547 147.4 74.984 147.4H75.648V148.344H75.168C74.9653 148.344 74.8133 148.397 74.712 148.504C74.6107 148.611 74.56 148.789 74.56 149.04V149.896C74.56 150.173 74.512 150.376 74.416 150.504C74.3253 150.632 74.192 150.731 74.016 150.8C74.192 150.869 74.3253 150.968 74.416 151.096C74.512 151.224 74.56 151.427 74.56 151.704V152.56C74.56 152.811 74.6107 152.989 74.712 153.096C74.8133 153.203 74.9653 153.256 75.168 153.256H75.648V154.2H74.984C74.7547 154.2 74.552 154.173 74.376 154.12C74.2 154.067 74.0507 153.981 73.928 153.864C73.8053 153.747 73.712 153.592 73.648 153.4C73.584 153.208 73.552 152.976 73.552 152.704V151.84C73.552 151.589 73.4987 151.421 73.392 151.336C73.2907 151.251 73.144 151.208 72.952 151.208H72.728V150.392ZM84.081 156.4H85.041V157.032L84.937 158.368H84.185L84.081 157.032V156.4ZM82.721 156.4H83.681V157.032L83.577 158.368H82.825L82.721 157.032V156.4ZM86.9655 158.032H87.9095V156.96H88.9175V158.032H90.2055V158.848H88.9175V160.504C88.9175 160.653 88.9335 160.776 88.9655 160.872C88.9975 160.963 89.0402 161.035 89.0935 161.088C89.1522 161.136 89.2162 161.171 89.2855 161.192C89.3548 161.208 89.4295 161.216 89.5095 161.216C89.6215 161.216 89.7255 161.195 89.8215 161.152C89.9175 161.104 90.0108 161.037 90.1015 160.952L90.4855 161.696C90.3202 161.845 90.1415 161.952 89.9495 162.016C89.7575 162.08 89.5548 162.112 89.3415 162.112C89.1335 162.112 88.9415 162.08 88.7655 162.016C88.5895 161.952 88.4375 161.856 88.3095 161.728C88.1868 161.6 88.0882 161.44 88.0135 161.248C87.9442 161.051 87.9095 160.824 87.9095 160.568V158.848H86.9655V158.032ZM94.474 159.416C94.4793 159.389 94.482 159.368 94.482 159.352C94.482 159.336 94.482 159.32 94.482 159.304C94.482 159.149 94.426 159.027 94.314 158.936C94.2073 158.845 94.0687 158.8 93.898 158.8C93.6047 158.8 93.3807 158.904 93.226 159.112C93.0767 159.32 93.002 159.6 93.002 159.952V162H91.994V158.032H93.002V158.576C93.1247 158.379 93.29 158.221 93.498 158.104C93.706 157.981 93.946 157.92 94.218 157.92C94.4527 157.92 94.6527 157.955 94.818 158.024C94.9833 158.088 95.1167 158.176 95.218 158.288C95.3193 158.4 95.3913 158.528 95.434 158.672C95.482 158.811 95.506 158.955 95.506 159.104C95.506 159.232 95.4927 159.349 95.466 159.456C95.4447 159.563 95.4127 159.659 95.37 159.744L94.474 159.416ZM99.4625 162C99.4305 161.957 99.3905 161.885 99.3425 161.784C99.2945 161.677 99.2705 161.539 99.2705 161.368C99.1158 161.635 98.9238 161.827 98.6945 161.944C98.4652 162.056 98.2065 162.112 97.9185 162.112C97.7212 162.112 97.5398 162.083 97.3745 162.024C97.2092 161.965 97.0652 161.883 96.9425 161.776C96.8198 161.669 96.7238 161.539 96.6545 161.384C96.5852 161.229 96.5505 161.059 96.5505 160.872C96.5505 160.669 96.5878 160.493 96.6625 160.344C96.7372 160.195 96.8385 160.067 96.9665 159.96C97.0945 159.853 97.2438 159.768 97.4145 159.704C97.5852 159.64 97.7692 159.592 97.9665 159.56L99.2145 159.376V159.224C99.2145 159.032 99.1478 158.885 99.0145 158.784C98.8865 158.677 98.6998 158.624 98.4545 158.624C98.2198 158.624 98.0385 158.669 97.9105 158.76C97.7825 158.845 97.7185 158.949 97.7185 159.072C97.7185 159.088 97.7185 159.101 97.7185 159.112C97.7185 159.123 97.7238 159.141 97.7345 159.168L96.8305 159.472C96.7825 159.371 96.7585 159.259 96.7585 159.136C96.7585 158.981 96.7958 158.832 96.8705 158.688C96.9452 158.539 97.0545 158.408 97.1985 158.296C97.3425 158.184 97.5185 158.093 97.7265 158.024C97.9398 157.955 98.1825 157.92 98.4545 157.92C99.0145 157.92 99.4492 158.04 99.7585 158.28C100.068 158.515 100.223 158.875 100.223 159.36V161.016C100.223 161.245 100.241 161.432 100.279 161.576C100.321 161.72 100.391 161.861 100.487 162H99.4625ZM98.1505 161.296C98.2892 161.296 98.4225 161.272 98.5505 161.224C98.6785 161.176 98.7905 161.104 98.8865 161.008C98.9878 160.912 99.0678 160.792 99.1265 160.648C99.1852 160.504 99.2145 160.336 99.2145 160.144V160.072L98.2225 160.232C98.0038 160.269 97.8332 160.336 97.7105 160.432C97.5932 160.528 97.5345 160.656 97.5345 160.816C97.5345 160.976 97.5932 161.096 97.7105 161.176C97.8278 161.256 97.9745 161.296 98.1505 161.296ZM101.707 158.032H103.787V161.168H105.059V162H101.507V161.168H102.779V158.848H101.707V158.032ZM102.731 156.4H103.835V157.456H102.731V156.4ZM106.215 158.032H107.16V156.96H108.168V158.032H109.456V158.848H108.168V160.504C108.168 160.653 108.184 160.776 108.216 160.872C108.248 160.963 108.29 161.035 108.344 161.088C108.402 161.136 108.466 161.171 108.536 161.192C108.605 161.208 108.68 161.216 108.76 161.216C108.872 161.216 108.976 161.195 109.072 161.152C109.168 161.104 109.261 161.037 109.352 160.952L109.736 161.696C109.57 161.845 109.392 161.952 109.2 162.016C109.008 162.08 108.805 162.112 108.592 162.112C108.384 162.112 108.192 162.08 108.016 162.016C107.84 161.952 107.688 161.856 107.56 161.728C107.437 161.6 107.338 161.44 107.264 161.248C107.194 161.051 107.16 160.824 107.16 160.568V158.848H106.215V158.032ZM112.164 159.064C112.164 159.187 112.239 159.293 112.388 159.384C112.543 159.475 112.796 159.541 113.148 159.584C114.135 159.696 114.628 160.099 114.628 160.792C114.628 161 114.585 161.187 114.5 161.352C114.42 161.512 114.305 161.651 114.156 161.768C114.012 161.88 113.836 161.965 113.628 162.024C113.42 162.083 113.188 162.112 112.932 162.112C112.665 162.112 112.428 162.077 112.22 162.008C112.012 161.939 111.828 161.848 111.668 161.736C111.513 161.624 111.38 161.496 111.268 161.352C111.161 161.208 111.076 161.059 111.012 160.904L111.82 160.392C111.863 160.515 111.913 160.629 111.972 160.736C112.036 160.843 112.111 160.936 112.196 161.016C112.287 161.091 112.393 161.152 112.516 161.2C112.639 161.243 112.783 161.264 112.948 161.264C113.145 161.264 113.319 161.227 113.468 161.152C113.623 161.077 113.7 160.968 113.7 160.824C113.7 160.669 113.617 160.557 113.452 160.488C113.287 160.413 113.039 160.355 112.708 160.312C112.265 160.253 111.913 160.12 111.652 159.912C111.396 159.699 111.268 159.432 111.268 159.112C111.268 158.915 111.308 158.744 111.388 158.6C111.468 158.451 111.577 158.325 111.716 158.224C111.855 158.123 112.017 158.048 112.204 158C112.396 157.947 112.601 157.92 112.82 157.92C113.273 157.92 113.636 158.005 113.908 158.176C114.18 158.347 114.393 158.605 114.548 158.952L113.828 159.352C113.737 159.144 113.607 158.976 113.436 158.848C113.265 158.72 113.057 158.656 112.812 158.656C112.641 158.656 112.489 158.691 112.356 158.76C112.228 158.824 112.164 158.925 112.164 159.064ZM117.769 156.4H118.729V157.032L118.625 158.368H117.873L117.769 157.032V156.4ZM116.409 156.4H117.368V157.032L117.265 158.368H116.513L116.409 157.032V156.4ZM121.909 158.032H123.157V159.28H121.909V158.032ZM121.909 160.752H123.157V162H121.909V160.752ZM130.478 159.392H130.702C130.894 159.392 131.041 159.349 131.142 159.264C131.249 159.179 131.302 159.011 131.302 158.76V157.896C131.302 157.624 131.334 157.392 131.398 157.2C131.462 157.008 131.555 156.853 131.678 156.736C131.801 156.619 131.95 156.533 132.126 156.48C132.302 156.427 132.505 156.4 132.734 156.4H133.398V157.344H132.918C132.715 157.344 132.563 157.397 132.462 157.504C132.361 157.611 132.31 157.789 132.31 158.04V158.896C132.31 159.173 132.262 159.376 132.166 159.504C132.075 159.632 131.942 159.731 131.766 159.8C131.942 159.869 132.075 159.968 132.166 160.096C132.262 160.224 132.31 160.427 132.31 160.704V161.56C132.31 161.811 132.361 161.989 132.462 162.096C132.563 162.203 132.715 162.256 132.918 162.256H133.398V163.2H132.734C132.505 163.2 132.302 163.173 132.126 163.12C131.95 163.067 131.801 162.981 131.678 162.864C131.555 162.747 131.462 162.592 131.398 162.4C131.334 162.208 131.302 161.976 131.302 161.704V160.84C131.302 160.589 131.249 160.421 131.142 160.336C131.041 160.251 130.894 160.208 130.702 160.208H130.478V159.392ZM93.706 165.4H94.666V166.032L94.562 167.368H93.81L93.706 166.032V165.4ZM92.346 165.4H93.306V166.032L93.202 167.368H92.45L92.346 166.032V165.4ZM96.8945 167.032H98.9745V170.168H100.247V171H96.6945V170.168H97.9665V167.848H96.8945V167.032ZM97.9185 165.4H99.0225V166.456H97.9185V165.4ZM105.291 171H104.283V170.512C104.144 170.693 103.984 170.84 103.803 170.952C103.622 171.059 103.374 171.112 103.059 171.112C102.798 171.112 102.555 171.067 102.331 170.976C102.107 170.88 101.912 170.741 101.747 170.56C101.582 170.379 101.451 170.16 101.355 169.904C101.259 169.643 101.211 169.347 101.211 169.016C101.211 168.685 101.259 168.392 101.355 168.136C101.451 167.875 101.582 167.653 101.747 167.472C101.918 167.291 102.115 167.155 102.339 167.064C102.568 166.968 102.816 166.92 103.083 166.92C103.6 166.92 104 167.104 104.283 167.472V165.4H105.291V171ZM103.291 170.168C103.616 170.168 103.872 170.061 104.059 169.848C104.251 169.629 104.347 169.352 104.347 169.016C104.347 168.68 104.251 168.405 104.059 168.192C103.872 167.973 103.616 167.864 103.291 167.864C102.966 167.864 102.707 167.973 102.515 168.192C102.328 168.405 102.235 168.68 102.235 169.016C102.235 169.352 102.328 169.629 102.515 169.848C102.707 170.061 102.966 170.168 103.291 170.168ZM108.144 165.4H109.104V166.032L109 167.368H108.248L108.144 166.032V165.4ZM106.784 165.4H107.743V166.032L107.64 167.368H106.888L106.784 166.032V165.4ZM112.284 167.032H113.532V168.28H112.284V167.032ZM112.284 169.752H113.532V171H112.284V169.752ZM122.581 165.4H123.541V166.032L123.437 167.368H122.685L122.581 166.032V165.4ZM121.221 165.4H122.181V166.032L122.077 167.368H121.325L121.221 166.032V165.4ZM129.194 171H128.186V168.712C128.186 168.451 128.122 168.245 127.994 168.096C127.866 167.941 127.668 167.864 127.402 167.864C127.119 167.864 126.89 167.968 126.714 168.176C126.543 168.379 126.458 168.648 126.458 168.984V171H125.45V165.4H126.458V167.656C126.612 167.416 126.796 167.235 127.01 167.112C127.228 166.984 127.484 166.92 127.778 166.92C127.991 166.92 128.186 166.955 128.362 167.024C128.538 167.088 128.687 167.179 128.81 167.296C128.932 167.413 129.026 167.555 129.09 167.72C129.159 167.885 129.194 168.067 129.194 168.264V171ZM133.15 171C133.118 170.957 133.078 170.885 133.03 170.784C132.982 170.677 132.958 170.539 132.958 170.368C132.803 170.635 132.611 170.827 132.382 170.944C132.153 171.056 131.894 171.112 131.606 171.112C131.409 171.112 131.227 171.083 131.062 171.024C130.897 170.965 130.753 170.883 130.63 170.776C130.507 170.669 130.411 170.539 130.342 170.384C130.273 170.229 130.238 170.059 130.238 169.872C130.238 169.669 130.275 169.493 130.35 169.344C130.425 169.195 130.526 169.067 130.654 168.96C130.782 168.853 130.931 168.768 131.102 168.704C131.273 168.64 131.457 168.592 131.654 168.56L132.902 168.376V168.224C132.902 168.032 132.835 167.885 132.702 167.784C132.574 167.677 132.387 167.624 132.142 167.624C131.907 167.624 131.726 167.669 131.598 167.76C131.47 167.845 131.406 167.949 131.406 168.072C131.406 168.088 131.406 168.101 131.406 168.112C131.406 168.123 131.411 168.141 131.422 168.168L130.518 168.472C130.47 168.371 130.446 168.259 130.446 168.136C130.446 167.981 130.483 167.832 130.558 167.688C130.633 167.539 130.742 167.408 130.886 167.296C131.03 167.184 131.206 167.093 131.414 167.024C131.627 166.955 131.87 166.92 132.142 166.92C132.702 166.92 133.137 167.04 133.446 167.28C133.755 167.515 133.91 167.875 133.91 168.36V170.016C133.91 170.245 133.929 170.432 133.966 170.576C134.009 170.72 134.078 170.861 134.174 171H133.15ZM131.838 170.296C131.977 170.296 132.11 170.272 132.238 170.224C132.366 170.176 132.478 170.104 132.574 170.008C132.675 169.912 132.755 169.792 132.814 169.648C132.873 169.504 132.902 169.336 132.902 169.144V169.072L131.91 169.232C131.691 169.269 131.521 169.336 131.398 169.432C131.281 169.528 131.222 169.656 131.222 169.816C131.222 169.976 131.281 170.096 131.398 170.176C131.515 170.256 131.662 170.296 131.838 170.296ZM136.227 168.064C136.227 168.187 136.301 168.293 136.451 168.384C136.605 168.475 136.859 168.541 137.211 168.584C138.197 168.696 138.691 169.099 138.691 169.792C138.691 170 138.648 170.187 138.562 170.352C138.483 170.512 138.368 170.651 138.219 170.768C138.075 170.88 137.899 170.965 137.691 171.024C137.483 171.083 137.251 171.112 136.995 171.112C136.728 171.112 136.491 171.077 136.283 171.008C136.075 170.939 135.891 170.848 135.731 170.736C135.576 170.624 135.443 170.496 135.331 170.352C135.224 170.208 135.139 170.059 135.075 169.904L135.883 169.392C135.925 169.515 135.976 169.629 136.035 169.736C136.099 169.843 136.173 169.936 136.259 170.016C136.349 170.091 136.456 170.152 136.579 170.2C136.701 170.243 136.845 170.264 137.011 170.264C137.208 170.264 137.381 170.227 137.531 170.152C137.685 170.077 137.763 169.968 137.763 169.824C137.763 169.669 137.68 169.557 137.515 169.488C137.349 169.413 137.101 169.355 136.771 169.312C136.328 169.253 135.976 169.12 135.715 168.912C135.459 168.699 135.331 168.432 135.331 168.112C135.331 167.915 135.371 167.744 135.451 167.6C135.531 167.451 135.64 167.325 135.779 167.224C135.917 167.123 136.08 167.048 136.267 167C136.459 166.947 136.664 166.92 136.883 166.92C137.336 166.92 137.699 167.005 137.971 167.176C138.243 167.347 138.456 167.605 138.611 167.952L137.891 168.352C137.8 168.144 137.669 167.976 137.499 167.848C137.328 167.72 137.12 167.656 136.875 167.656C136.704 167.656 136.552 167.691 136.419 167.76C136.291 167.824 136.227 167.925 136.227 168.064ZM143.631 171H142.623V168.712C142.623 168.451 142.559 168.245 142.431 168.096C142.303 167.941 142.106 167.864 141.839 167.864C141.556 167.864 141.327 167.968 141.151 168.176C140.98 168.379 140.895 168.648 140.895 168.984V171H139.887V165.4H140.895V167.656C141.05 167.416 141.234 167.235 141.447 167.112C141.666 166.984 141.922 166.92 142.215 166.92C142.428 166.92 142.623 166.955 142.799 167.024C142.975 167.088 143.124 167.179 143.247 167.296C143.37 167.413 143.463 167.555 143.527 167.72C143.596 167.885 143.631 168.067 143.631 168.264V171ZM145.54 169.256C145.572 169.56 145.684 169.803 145.876 169.984C146.073 170.16 146.324 170.248 146.628 170.248C146.905 170.248 147.132 170.181 147.308 170.048C147.484 169.909 147.622 169.733 147.724 169.52L148.476 169.952C148.268 170.352 148.017 170.645 147.724 170.832C147.43 171.019 147.06 171.112 146.612 171.112C146.334 171.112 146.073 171.061 145.828 170.96C145.582 170.859 145.366 170.717 145.18 170.536C144.993 170.349 144.844 170.128 144.732 169.872C144.625 169.616 144.572 169.331 144.572 169.016C144.572 168.701 144.625 168.416 144.732 168.16C144.844 167.904 144.993 167.685 145.18 167.504C145.372 167.317 145.593 167.173 145.844 167.072C146.1 166.971 146.372 166.92 146.66 166.92C146.942 166.92 147.201 166.971 147.436 167.072C147.676 167.168 147.881 167.304 148.052 167.48C148.222 167.656 148.356 167.867 148.452 168.112C148.548 168.352 148.595 168.616 148.595 168.904V169.256H145.54ZM146.628 167.688C146.356 167.688 146.124 167.768 145.932 167.928C145.745 168.088 145.614 168.285 145.54 168.52H147.668C147.62 168.264 147.505 168.061 147.324 167.912C147.148 167.763 146.916 167.688 146.628 167.688ZM153.416 171H152.408V170.512C152.269 170.693 152.109 170.84 151.928 170.952C151.747 171.059 151.499 171.112 151.184 171.112C150.923 171.112 150.68 171.067 150.456 170.976C150.232 170.88 150.037 170.741 149.872 170.56C149.707 170.379 149.576 170.16 149.48 169.904C149.384 169.643 149.336 169.347 149.336 169.016C149.336 168.685 149.384 168.392 149.48 168.136C149.576 167.875 149.707 167.653 149.872 167.472C150.043 167.291 150.24 167.155 150.464 167.064C150.693 166.968 150.941 166.92 151.208 166.92C151.725 166.92 152.125 167.104 152.408 167.472V165.4H153.416V171ZM151.416 170.168C151.741 170.168 151.997 170.061 152.184 169.848C152.376 169.629 152.472 169.352 152.472 169.016C152.472 168.68 152.376 168.405 152.184 168.192C151.997 167.973 151.741 167.864 151.416 167.864C151.091 167.864 150.832 167.973 150.64 168.192C150.453 168.405 150.36 168.68 150.36 169.016C150.36 169.352 150.453 169.629 150.64 169.848C150.832 170.061 151.091 170.168 151.416 170.168ZM154.389 171.056H158.053V171.872H154.389V171.056ZM159.225 167.032H160.233V169.32C160.233 169.592 160.292 169.803 160.409 169.952C160.526 170.096 160.721 170.168 160.993 170.168C161.26 170.168 161.473 170.067 161.633 169.864C161.798 169.656 161.881 169.384 161.881 169.048V167.032H162.889V171H161.881V170.408C161.737 170.632 161.569 170.805 161.377 170.928C161.185 171.051 160.934 171.112 160.625 171.112C160.412 171.112 160.22 171.077 160.049 171.008C159.878 170.944 159.732 170.853 159.609 170.736C159.486 170.613 159.39 170.469 159.321 170.304C159.257 170.133 159.225 169.944 159.225 169.736V167.032ZM165.102 168.064C165.102 168.187 165.176 168.293 165.326 168.384C165.48 168.475 165.734 168.541 166.086 168.584C167.072 168.696 167.566 169.099 167.566 169.792C167.566 170 167.523 170.187 167.438 170.352C167.358 170.512 167.243 170.651 167.094 170.768C166.95 170.88 166.774 170.965 166.566 171.024C166.358 171.083 166.126 171.112 165.87 171.112C165.603 171.112 165.366 171.077 165.158 171.008C164.95 170.939 164.766 170.848 164.606 170.736C164.451 170.624 164.318 170.496 164.206 170.352C164.099 170.208 164.014 170.059 163.95 169.904L164.758 169.392C164.8 169.515 164.851 169.629 164.91 169.736C164.974 169.843 165.048 169.936 165.134 170.016C165.224 170.091 165.331 170.152 165.454 170.2C165.576 170.243 165.72 170.264 165.886 170.264C166.083 170.264 166.256 170.227 166.406 170.152C166.56 170.077 166.638 169.968 166.638 169.824C166.638 169.669 166.555 169.557 166.39 169.488C166.224 169.413 165.976 169.355 165.646 169.312C165.203 169.253 164.851 169.12 164.59 168.912C164.334 168.699 164.206 168.432 164.206 168.112C164.206 167.915 164.246 167.744 164.326 167.6C164.406 167.451 164.515 167.325 164.654 167.224C164.792 167.123 164.955 167.048 165.142 167C165.334 166.947 165.539 166.92 165.758 166.92C166.211 166.92 166.574 167.005 166.846 167.176C167.118 167.347 167.331 167.605 167.486 167.952L166.766 168.352C166.675 168.144 166.544 167.976 166.374 167.848C166.203 167.72 165.995 167.656 165.75 167.656C165.579 167.656 165.427 167.691 165.294 167.76C165.166 167.824 165.102 167.925 165.102 168.064ZM169.602 169.256C169.634 169.56 169.746 169.803 169.938 169.984C170.135 170.16 170.386 170.248 170.69 170.248C170.967 170.248 171.194 170.181 171.37 170.048C171.546 169.909 171.685 169.733 171.786 169.52L172.538 169.952C172.33 170.352 172.079 170.645 171.786 170.832C171.493 171.019 171.122 171.112 170.674 171.112C170.397 171.112 170.135 171.061 169.89 170.96C169.645 170.859 169.429 170.717 169.242 170.536C169.055 170.349 168.906 170.128 168.794 169.872C168.687 169.616 168.634 169.331 168.634 169.016C168.634 168.701 168.687 168.416 168.794 168.16C168.906 167.904 169.055 167.685 169.242 167.504C169.434 167.317 169.655 167.173 169.906 167.072C170.162 166.971 170.434 166.92 170.722 166.92C171.005 166.92 171.263 166.971 171.498 167.072C171.738 167.168 171.943 167.304 172.114 167.48C172.285 167.656 172.418 167.867 172.514 168.112C172.61 168.352 172.658 168.616 172.658 168.904V169.256H169.602ZM170.69 167.688C170.418 167.688 170.186 167.768 169.994 167.928C169.807 168.088 169.677 168.285 169.602 168.52H171.73C171.682 168.264 171.567 168.061 171.386 167.912C171.21 167.763 170.978 167.688 170.69 167.688ZM176.287 168.416C176.292 168.389 176.295 168.368 176.295 168.352C176.295 168.336 176.295 168.32 176.295 168.304C176.295 168.149 176.239 168.027 176.127 167.936C176.02 167.845 175.881 167.8 175.711 167.8C175.417 167.8 175.193 167.904 175.039 168.112C174.889 168.32 174.815 168.6 174.815 168.952V171H173.807V167.032H174.815V167.576C174.937 167.379 175.103 167.221 175.311 167.104C175.519 166.981 175.759 166.92 176.031 166.92C176.265 166.92 176.465 166.955 176.631 167.024C176.796 167.088 176.929 167.176 177.031 167.288C177.132 167.4 177.204 167.528 177.247 167.672C177.295 167.811 177.319 167.955 177.319 168.104C177.319 168.232 177.305 168.349 177.279 168.456C177.257 168.563 177.225 168.659 177.183 168.744L176.287 168.416ZM178.451 171.056H182.115V171.872H178.451V171.056ZM183.52 167.032H185.6V170.168H186.872V171H183.32V170.168H184.592V167.848H183.52V167.032ZM184.544 165.4H185.648V166.456H184.544V165.4ZM191.916 171H190.908V170.512C190.769 170.693 190.609 170.84 190.428 170.952C190.247 171.059 189.999 171.112 189.684 171.112C189.423 171.112 189.18 171.067 188.956 170.976C188.732 170.88 188.537 170.741 188.372 170.56C188.207 170.379 188.076 170.16 187.98 169.904C187.884 169.643 187.836 169.347 187.836 169.016C187.836 168.685 187.884 168.392 187.98 168.136C188.076 167.875 188.207 167.653 188.372 167.472C188.543 167.291 188.74 167.155 188.964 167.064C189.193 166.968 189.441 166.92 189.708 166.92C190.225 166.92 190.625 167.104 190.908 167.472V165.4H191.916V171ZM189.916 170.168C190.241 170.168 190.497 170.061 190.684 169.848C190.876 169.629 190.972 169.352 190.972 169.016C190.972 168.68 190.876 168.405 190.684 168.192C190.497 167.973 190.241 167.864 189.916 167.864C189.591 167.864 189.332 167.973 189.14 168.192C188.953 168.405 188.86 168.68 188.86 169.016C188.86 169.352 188.953 169.629 189.14 169.848C189.332 170.061 189.591 170.168 189.916 170.168ZM194.769 165.4H195.729V166.032L195.625 167.368H194.873L194.769 166.032V165.4ZM193.409 165.4H194.368V166.032L194.265 167.368H193.513L193.409 166.032V165.4ZM198.909 169.752H200.157V171L199.133 172.296L198.853 172.12L199.381 171H198.909V169.752ZM93.706 183.4H94.666V184.032L94.562 185.368H93.81L93.706 184.032V183.4ZM92.346 183.4H93.306V184.032L93.202 185.368H92.45L92.346 184.032V183.4ZM96.7665 183.4H98.9745V188.168H100.335V189H96.6065V188.168H97.9665V184.232H96.7665V183.4ZM104.275 189C104.243 188.957 104.203 188.885 104.155 188.784C104.107 188.677 104.083 188.539 104.083 188.368C103.928 188.635 103.736 188.827 103.507 188.944C103.278 189.056 103.019 189.112 102.731 189.112C102.534 189.112 102.352 189.083 102.187 189.024C102.022 188.965 101.878 188.883 101.755 188.776C101.632 188.669 101.536 188.539 101.467 188.384C101.398 188.229 101.363 188.059 101.363 187.872C101.363 187.669 101.4 187.493 101.475 187.344C101.55 187.195 101.651 187.067 101.779 186.96C101.907 186.853 102.056 186.768 102.227 186.704C102.398 186.64 102.582 186.592 102.779 186.56L104.027 186.376V186.224C104.027 186.032 103.96 185.885 103.827 185.784C103.699 185.677 103.512 185.624 103.267 185.624C103.032 185.624 102.851 185.669 102.723 185.76C102.595 185.845 102.531 185.949 102.531 186.072C102.531 186.088 102.531 186.101 102.531 186.112C102.531 186.123 102.536 186.141 102.547 186.168L101.643 186.472C101.595 186.371 101.571 186.259 101.571 186.136C101.571 185.981 101.608 185.832 101.683 185.688C101.758 185.539 101.867 185.408 102.011 185.296C102.155 185.184 102.331 185.093 102.539 185.024C102.752 184.955 102.995 184.92 103.267 184.92C103.827 184.92 104.262 185.04 104.571 185.28C104.88 185.515 105.035 185.875 105.035 186.36V188.016C105.035 188.245 105.054 188.432 105.091 188.576C105.134 188.72 105.203 188.861 105.299 189H104.275ZM102.963 188.296C103.102 188.296 103.235 188.272 103.363 188.224C103.491 188.176 103.603 188.104 103.699 188.008C103.8 187.912 103.88 187.792 103.939 187.648C103.998 187.504 104.027 187.336 104.027 187.144V187.072L103.035 187.232C102.816 187.269 102.646 187.336 102.523 187.432C102.406 187.528 102.347 187.656 102.347 187.816C102.347 187.976 102.406 188.096 102.523 188.176C102.64 188.256 102.787 188.296 102.963 188.296ZM107.352 186.064C107.352 186.187 107.426 186.293 107.576 186.384C107.73 186.475 107.984 186.541 108.336 186.584C109.322 186.696 109.816 187.099 109.816 187.792C109.816 188 109.773 188.187 109.688 188.352C109.608 188.512 109.493 188.651 109.344 188.768C109.2 188.88 109.024 188.965 108.816 189.024C108.608 189.083 108.376 189.112 108.12 189.112C107.853 189.112 107.616 189.077 107.408 189.008C107.2 188.939 107.016 188.848 106.856 188.736C106.701 188.624 106.568 188.496 106.456 188.352C106.349 188.208 106.264 188.059 106.2 187.904L107.008 187.392C107.05 187.515 107.101 187.629 107.16 187.736C107.224 187.843 107.298 187.936 107.384 188.016C107.474 188.091 107.581 188.152 107.704 188.2C107.826 188.243 107.97 188.264 108.136 188.264C108.333 188.264 108.506 188.227 108.656 188.152C108.81 188.077 108.888 187.968 108.888 187.824C108.888 187.669 108.805 187.557 108.64 187.488C108.474 187.413 108.226 187.355 107.896 187.312C107.453 187.253 107.101 187.12 106.84 186.912C106.584 186.699 106.456 186.432 106.456 186.112C106.456 185.915 106.496 185.744 106.576 185.6C106.656 185.451 106.765 185.325 106.904 185.224C107.042 185.123 107.205 185.048 107.392 185C107.584 184.947 107.789 184.92 108.008 184.92C108.461 184.92 108.824 185.005 109.096 185.176C109.368 185.347 109.581 185.605 109.736 185.952L109.016 186.352C108.925 186.144 108.794 185.976 108.624 185.848C108.453 185.72 108.245 185.656 108 185.656C107.829 185.656 107.677 185.691 107.544 185.76C107.416 185.824 107.352 185.925 107.352 186.064ZM111.028 185.032H111.972V183.96H112.98V185.032H114.268V185.848H112.98V187.504C112.98 187.653 112.996 187.776 113.028 187.872C113.06 187.963 113.103 188.035 113.156 188.088C113.215 188.136 113.279 188.171 113.348 188.192C113.417 188.208 113.492 188.216 113.572 188.216C113.684 188.216 113.788 188.195 113.884 188.152C113.98 188.104 114.073 188.037 114.164 187.952L114.548 188.696C114.383 188.845 114.204 188.952 114.012 189.016C113.82 189.08 113.617 189.112 113.404 189.112C113.196 189.112 113.004 189.08 112.828 189.016C112.652 188.952 112.5 188.856 112.372 188.728C112.249 188.6 112.151 188.44 112.076 188.248C112.007 188.051 111.972 187.824 111.972 187.568V185.848H111.028V185.032ZM119.601 189H118.593V186.712C118.593 186.44 118.534 186.232 118.417 186.088C118.299 185.939 118.105 185.864 117.833 185.864C117.566 185.864 117.35 185.968 117.185 186.176C117.025 186.379 116.945 186.648 116.945 186.984V189H115.937V185.032H116.945V185.672C117.094 185.443 117.273 185.261 117.481 185.128C117.694 184.989 117.945 184.92 118.233 184.92C118.659 184.92 118.993 185.045 119.233 185.296C119.478 185.547 119.601 185.88 119.601 186.296V189ZM123.525 189C123.493 188.957 123.453 188.885 123.405 188.784C123.357 188.677 123.333 188.539 123.333 188.368C123.178 188.635 122.986 188.827 122.757 188.944C122.528 189.056 122.269 189.112 121.981 189.112C121.784 189.112 121.602 189.083 121.437 189.024C121.272 188.965 121.128 188.883 121.005 188.776C120.882 188.669 120.786 188.539 120.717 188.384C120.648 188.229 120.613 188.059 120.613 187.872C120.613 187.669 120.65 187.493 120.725 187.344C120.8 187.195 120.901 187.067 121.029 186.96C121.157 186.853 121.306 186.768 121.477 186.704C121.648 186.64 121.832 186.592 122.029 186.56L123.277 186.376V186.224C123.277 186.032 123.21 185.885 123.077 185.784C122.949 185.677 122.762 185.624 122.517 185.624C122.282 185.624 122.101 185.669 121.973 185.76C121.845 185.845 121.781 185.949 121.781 186.072C121.781 186.088 121.781 186.101 121.781 186.112C121.781 186.123 121.786 186.141 121.797 186.168L120.893 186.472C120.845 186.371 120.821 186.259 120.821 186.136C120.821 185.981 120.858 185.832 120.933 185.688C121.008 185.539 121.117 185.408 121.261 185.296C121.405 185.184 121.581 185.093 121.789 185.024C122.002 184.955 122.245 184.92 122.517 184.92C123.077 184.92 123.512 185.04 123.821 185.28C124.13 185.515 124.285 185.875 124.285 186.36V188.016C124.285 188.245 124.304 188.432 124.341 188.576C124.384 188.72 124.453 188.861 124.549 189H123.525ZM122.213 188.296C122.352 188.296 122.485 188.272 122.613 188.224C122.741 188.176 122.853 188.104 122.949 188.008C123.05 187.912 123.13 187.792 123.189 187.648C123.248 187.504 123.277 187.336 123.277 187.144V187.072L122.285 187.232C122.066 187.269 121.896 187.336 121.773 187.432C121.656 187.528 121.597 187.656 121.597 187.816C121.597 187.976 121.656 188.096 121.773 188.176C121.89 188.256 122.037 188.296 122.213 188.296ZM129.618 189H128.634V186.184C128.634 186.051 128.599 185.955 128.53 185.896C128.466 185.832 128.386 185.8 128.29 185.8C128.156 185.8 128.05 185.843 127.97 185.928C127.89 186.013 127.85 186.165 127.85 186.384V189H126.866V186.184C126.866 186.061 126.836 185.968 126.778 185.904C126.719 185.835 126.628 185.8 126.506 185.8C126.372 185.8 126.271 185.853 126.202 185.96C126.138 186.061 126.106 186.197 126.106 186.368V189H125.122V185.032H126.106V185.376C126.191 185.237 126.303 185.128 126.442 185.048C126.586 184.963 126.748 184.92 126.93 184.92C127.132 184.92 127.298 184.965 127.426 185.056C127.559 185.141 127.655 185.261 127.714 185.416C127.81 185.245 127.938 185.12 128.098 185.04C128.258 184.96 128.439 184.92 128.642 184.92C128.962 184.92 129.204 185.021 129.37 185.224C129.535 185.421 129.618 185.672 129.618 185.976V189ZM131.102 187.256C131.134 187.56 131.246 187.803 131.438 187.984C131.635 188.16 131.886 188.248 132.19 188.248C132.467 188.248 132.694 188.181 132.87 188.048C133.046 187.909 133.185 187.733 133.286 187.52L134.038 187.952C133.83 188.352 133.579 188.645 133.286 188.832C132.993 189.019 132.622 189.112 132.174 189.112C131.897 189.112 131.635 189.061 131.39 188.96C131.145 188.859 130.929 188.717 130.742 188.536C130.555 188.349 130.406 188.128 130.294 187.872C130.187 187.616 130.134 187.331 130.134 187.016C130.134 186.701 130.187 186.416 130.294 186.16C130.406 185.904 130.555 185.685 130.742 185.504C130.934 185.317 131.155 185.173 131.406 185.072C131.662 184.971 131.934 184.92 132.222 184.92C132.505 184.92 132.763 184.971 132.998 185.072C133.238 185.168 133.443 185.304 133.614 185.48C133.785 185.656 133.918 185.867 134.014 186.112C134.11 186.352 134.158 186.616 134.158 186.904V187.256H131.102ZM132.19 185.688C131.918 185.688 131.686 185.768 131.494 185.928C131.307 186.088 131.177 186.285 131.102 186.52H133.23C133.182 186.264 133.067 186.061 132.886 185.912C132.71 185.763 132.478 185.688 132.19 185.688ZM137.019 183.4H137.979V184.032L137.875 185.368H137.123L137.019 184.032V183.4ZM135.659 183.4H136.618V184.032L136.515 185.368H135.763L135.659 184.032V183.4ZM141.159 185.032H142.407V186.28H141.159V185.032ZM141.159 187.752H142.407V189H141.159V187.752ZM151.456 183.4H152.416V184.032L152.312 185.368H151.56L151.456 184.032V183.4ZM150.096 183.4H151.056V184.032L150.952 185.368H150.2L150.096 184.032V183.4ZM154.301 183.4H156.164C156.746 183.4 157.189 183.52 157.493 183.76C157.802 184 157.957 184.336 157.957 184.768C157.957 184.912 157.935 185.048 157.893 185.176C157.85 185.299 157.791 185.411 157.717 185.512C157.647 185.613 157.565 185.707 157.469 185.792C157.378 185.872 157.282 185.941 157.181 186C157.474 186.123 157.711 186.288 157.893 186.496C158.079 186.704 158.173 186.979 158.173 187.32C158.173 187.592 158.119 187.835 158.013 188.048C157.906 188.256 157.762 188.432 157.581 188.576C157.405 188.715 157.197 188.821 156.957 188.896C156.717 188.965 156.461 189 156.189 189H154.301V183.4ZM155.357 188.056H156.125C156.466 188.056 156.717 187.987 156.877 187.848C157.037 187.709 157.117 187.52 157.117 187.28C157.117 187.04 157.037 186.851 156.877 186.712C156.717 186.573 156.466 186.504 156.125 186.504H155.357V188.056ZM155.357 185.576H156.133C156.431 185.576 156.639 185.523 156.757 185.416C156.874 185.304 156.933 185.149 156.933 184.952C156.933 184.755 156.874 184.603 156.757 184.496C156.639 184.384 156.431 184.328 156.133 184.328H155.357V185.576ZM162.025 189C161.993 188.957 161.953 188.885 161.905 188.784C161.857 188.677 161.833 188.539 161.833 188.368C161.678 188.635 161.486 188.827 161.257 188.944C161.028 189.056 160.769 189.112 160.481 189.112C160.284 189.112 160.102 189.083 159.937 189.024C159.772 188.965 159.628 188.883 159.505 188.776C159.382 188.669 159.286 188.539 159.217 188.384C159.148 188.229 159.113 188.059 159.113 187.872C159.113 187.669 159.15 187.493 159.225 187.344C159.3 187.195 159.401 187.067 159.529 186.96C159.657 186.853 159.806 186.768 159.977 186.704C160.148 186.64 160.332 186.592 160.529 186.56L161.777 186.376V186.224C161.777 186.032 161.71 185.885 161.577 185.784C161.449 185.677 161.262 185.624 161.017 185.624C160.782 185.624 160.601 185.669 160.473 185.76C160.345 185.845 160.281 185.949 160.281 186.072C160.281 186.088 160.281 186.101 160.281 186.112C160.281 186.123 160.286 186.141 160.297 186.168L159.393 186.472C159.345 186.371 159.321 186.259 159.321 186.136C159.321 185.981 159.358 185.832 159.433 185.688C159.508 185.539 159.617 185.408 159.761 185.296C159.905 185.184 160.081 185.093 160.289 185.024C160.502 184.955 160.745 184.92 161.017 184.92C161.577 184.92 162.012 185.04 162.321 185.28C162.63 185.515 162.785 185.875 162.785 186.36V188.016C162.785 188.245 162.804 188.432 162.841 188.576C162.884 188.72 162.953 188.861 163.049 189H162.025ZM160.713 188.296C160.852 188.296 160.985 188.272 161.113 188.224C161.241 188.176 161.353 188.104 161.449 188.008C161.55 187.912 161.63 187.792 161.689 187.648C161.748 187.504 161.777 187.336 161.777 187.144V187.072L160.785 187.232C160.566 187.269 160.396 187.336 160.273 187.432C160.156 187.528 160.097 187.656 160.097 187.816C160.097 187.976 160.156 188.096 160.273 188.176C160.39 188.256 160.537 188.296 160.713 188.296ZM166.662 186.416C166.667 186.389 166.67 186.368 166.67 186.352C166.67 186.336 166.67 186.32 166.67 186.304C166.67 186.149 166.614 186.027 166.502 185.936C166.395 185.845 166.256 185.8 166.086 185.8C165.792 185.8 165.568 185.904 165.414 186.112C165.264 186.32 165.19 186.6 165.19 186.952V189H164.182V185.032H165.19V185.576C165.312 185.379 165.478 185.221 165.686 185.104C165.894 184.981 166.134 184.92 166.406 184.92C166.64 184.92 166.84 184.955 167.006 185.024C167.171 185.088 167.304 185.176 167.406 185.288C167.507 185.4 167.579 185.528 167.622 185.672C167.67 185.811 167.694 185.955 167.694 186.104C167.694 186.232 167.68 186.349 167.654 186.456C167.632 186.563 167.6 186.659 167.558 186.744L166.662 186.416ZM170.706 183.4H171.666V184.032L171.562 185.368H170.81L170.706 184.032V183.4ZM169.346 183.4H170.306V184.032L170.202 185.368H169.45L169.346 184.032V183.4ZM174.847 187.752H176.095V189L175.071 190.296L174.791 190.12L175.319 189H174.847V187.752ZM93.706 192.4H94.666V193.032L94.562 194.368H93.81L93.706 193.032V192.4ZM92.346 192.4H93.306V193.032L93.202 194.368H92.45L92.346 193.032V192.4ZM96.3585 194.032H96.8305V193.472C96.8305 193.211 96.8705 192.987 96.9505 192.8C97.0358 192.613 97.1452 192.461 97.2785 192.344C97.4118 192.227 97.5612 192.141 97.7265 192.088C97.8918 192.029 98.0598 192 98.2305 192C98.4225 192 98.5852 192.019 98.7185 192.056C98.8572 192.093 99.0038 192.157 99.1585 192.248L98.7825 193.096C98.7292 193.053 98.6625 193.016 98.5825 192.984C98.5078 192.947 98.4252 192.928 98.3345 192.928C98.1745 192.928 98.0518 192.979 97.9665 193.08C97.8812 193.181 97.8385 193.317 97.8385 193.488V194.032H100.407V198H99.3985V194.848H97.8385V198H96.8305V194.848H96.3585V194.032ZM99.3505 192.4H100.455V193.456H99.3505V192.4ZM104.099 195.416C104.104 195.389 104.107 195.368 104.107 195.352C104.107 195.336 104.107 195.32 104.107 195.304C104.107 195.149 104.051 195.027 103.939 194.936C103.832 194.845 103.694 194.8 103.523 194.8C103.23 194.8 103.006 194.904 102.851 195.112C102.702 195.32 102.627 195.6 102.627 195.952V198H101.619V194.032H102.627V194.576C102.75 194.379 102.915 194.221 103.123 194.104C103.331 193.981 103.571 193.92 103.843 193.92C104.078 193.92 104.278 193.955 104.443 194.024C104.608 194.088 104.742 194.176 104.843 194.288C104.944 194.4 105.016 194.528 105.059 194.672C105.107 194.811 105.131 194.955 105.131 195.104C105.131 195.232 105.118 195.349 105.091 195.456C105.07 195.563 105.038 195.659 104.995 195.744L104.099 195.416ZM107.352 195.064C107.352 195.187 107.426 195.293 107.576 195.384C107.73 195.475 107.984 195.541 108.336 195.584C109.322 195.696 109.816 196.099 109.816 196.792C109.816 197 109.773 197.187 109.688 197.352C109.608 197.512 109.493 197.651 109.344 197.768C109.2 197.88 109.024 197.965 108.816 198.024C108.608 198.083 108.376 198.112 108.12 198.112C107.853 198.112 107.616 198.077 107.408 198.008C107.2 197.939 107.016 197.848 106.856 197.736C106.701 197.624 106.568 197.496 106.456 197.352C106.349 197.208 106.264 197.059 106.2 196.904L107.008 196.392C107.05 196.515 107.101 196.629 107.16 196.736C107.224 196.843 107.298 196.936 107.384 197.016C107.474 197.091 107.581 197.152 107.704 197.2C107.826 197.243 107.97 197.264 108.136 197.264C108.333 197.264 108.506 197.227 108.656 197.152C108.81 197.077 108.888 196.968 108.888 196.824C108.888 196.669 108.805 196.557 108.64 196.488C108.474 196.413 108.226 196.355 107.896 196.312C107.453 196.253 107.101 196.12 106.84 195.912C106.584 195.699 106.456 195.432 106.456 195.112C106.456 194.915 106.496 194.744 106.576 194.6C106.656 194.451 106.765 194.325 106.904 194.224C107.042 194.123 107.205 194.048 107.392 194C107.584 193.947 107.789 193.92 108.008 193.92C108.461 193.92 108.824 194.005 109.096 194.176C109.368 194.347 109.581 194.605 109.736 194.952L109.016 195.352C108.925 195.144 108.794 194.976 108.624 194.848C108.453 194.72 108.245 194.656 108 194.656C107.829 194.656 107.677 194.691 107.544 194.76C107.416 194.824 107.352 194.925 107.352 195.064ZM111.028 194.032H111.972V192.96H112.98V194.032H114.268V194.848H112.98V196.504C112.98 196.653 112.996 196.776 113.028 196.872C113.06 196.963 113.103 197.035 113.156 197.088C113.215 197.136 113.279 197.171 113.348 197.192C113.417 197.208 113.492 197.216 113.572 197.216C113.684 197.216 113.788 197.195 113.884 197.152C113.98 197.104 114.073 197.037 114.164 196.952L114.548 197.696C114.383 197.845 114.204 197.952 114.012 198.016C113.82 198.08 113.617 198.112 113.404 198.112C113.196 198.112 113.004 198.08 112.828 198.016C112.652 197.952 112.5 197.856 112.372 197.728C112.249 197.6 112.151 197.44 112.076 197.248C112.007 197.051 111.972 196.824 111.972 196.568V194.848H111.028V194.032ZM119.601 198H118.593V195.712C118.593 195.44 118.534 195.232 118.417 195.088C118.299 194.939 118.105 194.864 117.833 194.864C117.566 194.864 117.35 194.968 117.185 195.176C117.025 195.379 116.945 195.648 116.945 195.984V198H115.937V194.032H116.945V194.672C117.094 194.443 117.273 194.261 117.481 194.128C117.694 193.989 117.945 193.92 118.233 193.92C118.659 193.92 118.993 194.045 119.233 194.296C119.478 194.547 119.601 194.88 119.601 195.296V198ZM123.525 198C123.493 197.957 123.453 197.885 123.405 197.784C123.357 197.677 123.333 197.539 123.333 197.368C123.178 197.635 122.986 197.827 122.757 197.944C122.528 198.056 122.269 198.112 121.981 198.112C121.784 198.112 121.602 198.083 121.437 198.024C121.272 197.965 121.128 197.883 121.005 197.776C120.882 197.669 120.786 197.539 120.717 197.384C120.648 197.229 120.613 197.059 120.613 196.872C120.613 196.669 120.65 196.493 120.725 196.344C120.8 196.195 120.901 196.067 121.029 195.96C121.157 195.853 121.306 195.768 121.477 195.704C121.648 195.64 121.832 195.592 122.029 195.56L123.277 195.376V195.224C123.277 195.032 123.21 194.885 123.077 194.784C122.949 194.677 122.762 194.624 122.517 194.624C122.282 194.624 122.101 194.669 121.973 194.76C121.845 194.845 121.781 194.949 121.781 195.072C121.781 195.088 121.781 195.101 121.781 195.112C121.781 195.123 121.786 195.141 121.797 195.168L120.893 195.472C120.845 195.371 120.821 195.259 120.821 195.136C120.821 194.981 120.858 194.832 120.933 194.688C121.008 194.539 121.117 194.408 121.261 194.296C121.405 194.184 121.581 194.093 121.789 194.024C122.002 193.955 122.245 193.92 122.517 193.92C123.077 193.92 123.512 194.04 123.821 194.28C124.13 194.515 124.285 194.875 124.285 195.36V197.016C124.285 197.245 124.304 197.432 124.341 197.576C124.384 197.72 124.453 197.861 124.549 198H123.525ZM122.213 197.296C122.352 197.296 122.485 197.272 122.613 197.224C122.741 197.176 122.853 197.104 122.949 197.008C123.05 196.912 123.13 196.792 123.189 196.648C123.248 196.504 123.277 196.336 123.277 196.144V196.072L122.285 196.232C122.066 196.269 121.896 196.336 121.773 196.432C121.656 196.528 121.597 196.656 121.597 196.816C121.597 196.976 121.656 197.096 121.773 197.176C121.89 197.256 122.037 197.296 122.213 197.296ZM129.618 198H128.634V195.184C128.634 195.051 128.599 194.955 128.53 194.896C128.466 194.832 128.386 194.8 128.29 194.8C128.156 194.8 128.05 194.843 127.97 194.928C127.89 195.013 127.85 195.165 127.85 195.384V198H126.866V195.184C126.866 195.061 126.836 194.968 126.778 194.904C126.719 194.835 126.628 194.8 126.506 194.8C126.372 194.8 126.271 194.853 126.202 194.96C126.138 195.061 126.106 195.197 126.106 195.368V198H125.122V194.032H126.106V194.376C126.191 194.237 126.303 194.128 126.442 194.048C126.586 193.963 126.748 193.92 126.93 193.92C127.132 193.92 127.298 193.965 127.426 194.056C127.559 194.141 127.655 194.261 127.714 194.416C127.81 194.245 127.938 194.12 128.098 194.04C128.258 193.96 128.439 193.92 128.642 193.92C128.962 193.92 129.204 194.021 129.37 194.224C129.535 194.421 129.618 194.672 129.618 194.976V198ZM131.102 196.256C131.134 196.56 131.246 196.803 131.438 196.984C131.635 197.16 131.886 197.248 132.19 197.248C132.467 197.248 132.694 197.181 132.87 197.048C133.046 196.909 133.185 196.733 133.286 196.52L134.038 196.952C133.83 197.352 133.579 197.645 133.286 197.832C132.993 198.019 132.622 198.112 132.174 198.112C131.897 198.112 131.635 198.061 131.39 197.96C131.145 197.859 130.929 197.717 130.742 197.536C130.555 197.349 130.406 197.128 130.294 196.872C130.187 196.616 130.134 196.331 130.134 196.016C130.134 195.701 130.187 195.416 130.294 195.16C130.406 194.904 130.555 194.685 130.742 194.504C130.934 194.317 131.155 194.173 131.406 194.072C131.662 193.971 131.934 193.92 132.222 193.92C132.505 193.92 132.763 193.971 132.998 194.072C133.238 194.168 133.443 194.304 133.614 194.48C133.785 194.656 133.918 194.867 134.014 195.112C134.11 195.352 134.158 195.616 134.158 195.904V196.256H131.102ZM132.19 194.688C131.918 194.688 131.686 194.768 131.494 194.928C131.307 195.088 131.177 195.285 131.102 195.52H133.23C133.182 195.264 133.067 195.061 132.886 194.912C132.71 194.763 132.478 194.688 132.19 194.688ZM137.019 192.4H137.979V193.032L137.875 194.368H137.123L137.019 193.032V192.4ZM135.659 192.4H136.618V193.032L136.515 194.368H135.763L135.659 193.032V192.4ZM141.159 194.032H142.407V195.28H141.159V194.032ZM141.159 196.752H142.407V198H141.159V196.752ZM151.456 192.4H152.416V193.032L152.312 194.368H151.56L151.456 193.032V192.4ZM150.096 192.4H151.056V193.032L150.952 194.368H150.2L150.096 193.032V192.4ZM154.381 192.4H158.165V193.344H155.437V194.792H157.924V195.736H155.437V198H154.381V192.4ZM163.153 196.016C163.153 196.363 163.092 196.667 162.969 196.928C162.852 197.189 162.694 197.408 162.497 197.584C162.305 197.76 162.081 197.893 161.825 197.984C161.569 198.069 161.305 198.112 161.033 198.112C160.761 198.112 160.497 198.069 160.241 197.984C159.985 197.893 159.758 197.76 159.561 197.584C159.369 197.408 159.212 197.189 159.089 196.928C158.972 196.667 158.913 196.363 158.913 196.016C158.913 195.669 158.972 195.365 159.089 195.104C159.212 194.843 159.369 194.624 159.561 194.448C159.758 194.272 159.985 194.141 160.241 194.056C160.497 193.965 160.761 193.92 161.033 193.92C161.305 193.92 161.569 193.965 161.825 194.056C162.081 194.141 162.305 194.272 162.497 194.448C162.694 194.624 162.852 194.843 162.969 195.104C163.092 195.365 163.153 195.669 163.153 196.016ZM161.033 197.168C161.188 197.168 161.332 197.144 161.465 197.096C161.598 197.048 161.713 196.976 161.809 196.88C161.91 196.784 161.988 196.664 162.041 196.52C162.1 196.376 162.129 196.208 162.129 196.016C162.129 195.824 162.1 195.656 162.041 195.512C161.988 195.368 161.91 195.248 161.809 195.152C161.713 195.056 161.598 194.984 161.465 194.936C161.332 194.888 161.188 194.864 161.033 194.864C160.878 194.864 160.734 194.888 160.601 194.936C160.468 194.984 160.35 195.056 160.249 195.152C160.153 195.248 160.076 195.368 160.017 195.512C159.964 195.656 159.937 195.824 159.937 196.016C159.937 196.208 159.964 196.376 160.017 196.52C160.076 196.664 160.153 196.784 160.249 196.88C160.35 196.976 160.468 197.048 160.601 197.096C160.734 197.144 160.878 197.168 161.033 197.168ZM167.966 196.016C167.966 196.363 167.904 196.667 167.782 196.928C167.664 197.189 167.507 197.408 167.31 197.584C167.118 197.76 166.894 197.893 166.638 197.984C166.382 198.069 166.118 198.112 165.846 198.112C165.574 198.112 165.31 198.069 165.054 197.984C164.798 197.893 164.571 197.76 164.374 197.584C164.182 197.408 164.024 197.189 163.902 196.928C163.784 196.667 163.726 196.363 163.726 196.016C163.726 195.669 163.784 195.365 163.902 195.104C164.024 194.843 164.182 194.624 164.374 194.448C164.571 194.272 164.798 194.141 165.054 194.056C165.31 193.965 165.574 193.92 165.846 193.92C166.118 193.92 166.382 193.965 166.638 194.056C166.894 194.141 167.118 194.272 167.31 194.448C167.507 194.624 167.664 194.843 167.782 195.104C167.904 195.365 167.966 195.669 167.966 196.016ZM165.846 197.168C166 197.168 166.144 197.144 166.278 197.096C166.411 197.048 166.526 196.976 166.622 196.88C166.723 196.784 166.8 196.664 166.854 196.52C166.912 196.376 166.942 196.208 166.942 196.016C166.942 195.824 166.912 195.656 166.854 195.512C166.8 195.368 166.723 195.248 166.622 195.152C166.526 195.056 166.411 194.984 166.278 194.936C166.144 194.888 166 194.864 165.846 194.864C165.691 194.864 165.547 194.888 165.414 194.936C165.28 194.984 165.163 195.056 165.062 195.152C164.966 195.248 164.888 195.368 164.83 195.512C164.776 195.656 164.75 195.824 164.75 196.016C164.75 196.208 164.776 196.376 164.83 196.52C164.888 196.664 164.966 196.784 165.062 196.88C165.163 196.976 165.28 197.048 165.414 197.096C165.547 197.144 165.691 197.168 165.846 197.168ZM170.706 192.4H171.666V193.032L171.562 194.368H170.81L170.706 193.032V192.4ZM169.346 192.4H170.306V193.032L170.202 194.368H169.45L169.346 193.032V192.4ZM85.713 205.208H85.489C85.297 205.208 85.1477 205.251 85.041 205.336C84.9397 205.421 84.889 205.589 84.889 205.84V206.704C84.889 207.253 84.7637 207.64 84.513 207.864C84.2623 208.088 83.9103 208.2 83.457 208.2H82.793V207.256H83.273C83.4757 207.256 83.6277 207.203 83.729 207.096C83.8303 206.989 83.881 206.811 83.881 206.56V205.704C83.881 205.427 83.9263 205.224 84.017 205.096C84.113 204.968 84.249 204.869 84.425 204.8C84.249 204.731 84.113 204.632 84.017 204.504C83.9263 204.376 83.881 204.173 83.881 203.896V203.04C83.881 202.789 83.8303 202.611 83.729 202.504C83.6277 202.397 83.4757 202.344 83.273 202.344H82.793V201.4H83.457C83.9103 201.4 84.2623 201.512 84.513 201.736C84.7637 201.96 84.889 202.347 84.889 202.896V203.76C84.889 204.011 84.9397 204.179 85.041 204.264C85.1477 204.349 85.297 204.392 85.489 204.392H85.713V205.208ZM88.2215 205.752H89.4695V207L88.4455 208.296L88.1655 208.12L88.6935 207H88.2215V205.752ZM76.088 223.208H75.864C75.672 223.208 75.5227 223.251 75.416 223.336C75.3147 223.421 75.264 223.589 75.264 223.84V224.704C75.264 225.253 75.1387 225.64 74.888 225.864C74.6373 226.088 74.2853 226.2 73.832 226.2H73.168V225.256H73.648C73.8507 225.256 74.0027 225.203 74.104 225.096C74.2053 224.989 74.256 224.811 74.256 224.56V223.704C74.256 223.427 74.3013 223.224 74.392 223.096C74.488 222.968 74.624 222.869 74.8 222.8C74.624 222.731 74.488 222.632 74.392 222.504C74.3013 222.376 74.256 222.173 74.256 221.896V221.04C74.256 220.789 74.2053 220.611 74.104 220.504C74.0027 220.397 73.8507 220.344 73.648 220.344H73.168V219.4H73.832C74.2853 219.4 74.6373 219.512 74.888 219.736C75.1387 219.96 75.264 220.347 75.264 220.896V221.76C75.264 222.011 75.3147 222.179 75.416 222.264C75.5227 222.349 75.672 222.392 75.864 222.392H76.088V223.208Z" fill="#493D8D"/>
<path d="M93.706 174.4H94.666V175.032L94.562 176.368H93.81L93.706 175.032V174.4ZM92.346 174.4H93.306V175.032L93.202 176.368H92.45L92.346 175.032V174.4ZM97.4145 178.256C97.4465 178.56 97.5585 178.803 97.7505 178.984C97.9478 179.16 98.1985 179.248 98.5025 179.248C98.7798 179.248 99.0065 179.181 99.1825 179.048C99.3585 178.909 99.4972 178.733 99.5985 178.52L100.351 178.952C100.143 179.352 99.8918 179.645 99.5985 179.832C99.3052 180.019 98.9345 180.112 98.4865 180.112C98.2092 180.112 97.9478 180.061 97.7025 179.96C97.4572 179.859 97.2412 179.717 97.0545 179.536C96.8678 179.349 96.7185 179.128 96.6065 178.872C96.4998 178.616 96.4465 178.331 96.4465 178.016C96.4465 177.701 96.4998 177.416 96.6065 177.16C96.7185 176.904 96.8678 176.685 97.0545 176.504C97.2465 176.317 97.4678 176.173 97.7185 176.072C97.9745 175.971 98.2465 175.92 98.5345 175.92C98.8172 175.92 99.0758 175.971 99.3105 176.072C99.5505 176.168 99.7558 176.304 99.9265 176.48C100.097 176.656 100.231 176.867 100.327 177.112C100.423 177.352 100.47 177.616 100.47 177.904V178.256H97.4145ZM98.5025 176.688C98.2305 176.688 97.9985 176.768 97.8065 176.928C97.6198 177.088 97.4892 177.285 97.4145 177.52H99.5425C99.4945 177.264 99.3798 177.061 99.1985 176.912C99.0225 176.763 98.7905 176.688 98.5025 176.688ZM105.555 180H104.571V177.184C104.571 177.051 104.536 176.955 104.467 176.896C104.403 176.832 104.323 176.8 104.227 176.8C104.094 176.8 103.987 176.843 103.907 176.928C103.827 177.013 103.787 177.165 103.787 177.384V180H102.803V177.184C102.803 177.061 102.774 176.968 102.715 176.904C102.656 176.835 102.566 176.8 102.443 176.8C102.31 176.8 102.208 176.853 102.139 176.96C102.075 177.061 102.043 177.197 102.043 177.368V180H101.059V176.032H102.043V176.376C102.128 176.237 102.24 176.128 102.379 176.048C102.523 175.963 102.686 175.92 102.867 175.92C103.07 175.92 103.235 175.965 103.363 176.056C103.496 176.141 103.592 176.261 103.651 176.416C103.747 176.245 103.875 176.12 104.035 176.04C104.195 175.96 104.376 175.92 104.579 175.92C104.899 175.92 105.142 176.021 105.307 176.224C105.472 176.421 105.555 176.672 105.555 176.976V180ZM109.088 180C109.056 179.957 109.016 179.885 108.968 179.784C108.92 179.677 108.896 179.539 108.896 179.368C108.741 179.635 108.549 179.827 108.32 179.944C108.09 180.056 107.832 180.112 107.544 180.112C107.346 180.112 107.165 180.083 107 180.024C106.834 179.965 106.69 179.883 106.568 179.776C106.445 179.669 106.349 179.539 106.28 179.384C106.21 179.229 106.176 179.059 106.176 178.872C106.176 178.669 106.213 178.493 106.288 178.344C106.362 178.195 106.464 178.067 106.592 177.96C106.72 177.853 106.869 177.768 107.04 177.704C107.21 177.64 107.394 177.592 107.592 177.56L108.84 177.376V177.224C108.84 177.032 108.773 176.885 108.64 176.784C108.512 176.677 108.325 176.624 108.08 176.624C107.845 176.624 107.664 176.669 107.536 176.76C107.408 176.845 107.344 176.949 107.344 177.072C107.344 177.088 107.344 177.101 107.344 177.112C107.344 177.123 107.349 177.141 107.36 177.168L106.456 177.472C106.408 177.371 106.384 177.259 106.384 177.136C106.384 176.981 106.421 176.832 106.496 176.688C106.57 176.539 106.68 176.408 106.824 176.296C106.968 176.184 107.144 176.093 107.352 176.024C107.565 175.955 107.808 175.92 108.08 175.92C108.64 175.92 109.074 176.04 109.384 176.28C109.693 176.515 109.848 176.875 109.848 177.36V179.016C109.848 179.245 109.866 179.432 109.904 179.576C109.946 179.72 110.016 179.861 110.112 180H109.088ZM107.776 179.296C107.914 179.296 108.048 179.272 108.176 179.224C108.304 179.176 108.416 179.104 108.512 179.008C108.613 178.912 108.693 178.792 108.752 178.648C108.81 178.504 108.84 178.336 108.84 178.144V178.072L107.848 178.232C107.629 178.269 107.458 178.336 107.336 178.432C107.218 178.528 107.16 178.656 107.16 178.816C107.16 178.976 107.218 179.096 107.336 179.176C107.453 179.256 107.6 179.296 107.776 179.296ZM111.332 176.032H113.412V179.168H114.684V180H111.132V179.168H112.404V176.848H111.332V176.032ZM112.356 174.4H113.46V175.456H112.356V174.4ZM116.017 174.4H118.225V179.168H119.585V180H115.857V179.168H117.217V175.232H116.017V174.4ZM122.581 174.4H123.541V175.032L123.437 176.368H122.685L122.581 175.032V174.4ZM121.221 174.4H122.181V175.032L122.077 176.368H121.325L121.221 175.032V174.4ZM126.722 176.032H127.97V177.28H126.722V176.032ZM126.722 178.752H127.97V180H126.722V178.752ZM137.019 174.4H137.979V175.032L137.875 176.368H137.123L137.019 175.032V174.4ZM135.659 174.4H136.618V175.032L136.515 176.368H135.763L135.659 175.032V174.4ZM141.039 177.064C141.039 177.187 141.114 177.293 141.263 177.384C141.418 177.475 141.671 177.541 142.023 177.584C143.01 177.696 143.503 178.099 143.503 178.792C143.503 179 143.46 179.187 143.375 179.352C143.295 179.512 143.18 179.651 143.031 179.768C142.887 179.88 142.711 179.965 142.503 180.024C142.295 180.083 142.063 180.112 141.807 180.112C141.54 180.112 141.303 180.077 141.095 180.008C140.887 179.939 140.703 179.848 140.543 179.736C140.388 179.624 140.255 179.496 140.143 179.352C140.036 179.208 139.951 179.059 139.887 178.904L140.695 178.392C140.738 178.515 140.788 178.629 140.847 178.736C140.911 178.843 140.986 178.936 141.071 179.016C141.162 179.091 141.268 179.152 141.391 179.2C141.514 179.243 141.658 179.264 141.823 179.264C142.02 179.264 142.194 179.227 142.343 179.152C142.498 179.077 142.575 178.968 142.575 178.824C142.575 178.669 142.492 178.557 142.327 178.488C142.162 178.413 141.914 178.355 141.583 178.312C141.14 178.253 140.788 178.12 140.527 177.912C140.271 177.699 140.143 177.432 140.143 177.112C140.143 176.915 140.183 176.744 140.263 176.6C140.343 176.451 140.452 176.325 140.591 176.224C140.73 176.123 140.892 176.048 141.079 176C141.271 175.947 141.476 175.92 141.695 175.92C142.148 175.92 142.511 176.005 142.783 176.176C143.055 176.347 143.268 176.605 143.423 176.952L142.703 177.352C142.612 177.144 142.482 176.976 142.311 176.848C142.14 176.72 141.932 176.656 141.687 176.656C141.516 176.656 141.364 176.691 141.231 176.76C141.103 176.824 141.039 176.925 141.039 177.064ZM147.588 180C147.556 179.957 147.516 179.885 147.468 179.784C147.42 179.677 147.396 179.539 147.396 179.368C147.241 179.635 147.049 179.827 146.82 179.944C146.59 180.056 146.332 180.112 146.044 180.112C145.846 180.112 145.665 180.083 145.5 180.024C145.334 179.965 145.19 179.883 145.068 179.776C144.945 179.669 144.849 179.539 144.78 179.384C144.71 179.229 144.676 179.059 144.676 178.872C144.676 178.669 144.713 178.493 144.788 178.344C144.862 178.195 144.964 178.067 145.092 177.96C145.22 177.853 145.369 177.768 145.54 177.704C145.71 177.64 145.894 177.592 146.092 177.56L147.34 177.376V177.224C147.34 177.032 147.273 176.885 147.14 176.784C147.012 176.677 146.825 176.624 146.58 176.624C146.345 176.624 146.164 176.669 146.036 176.76C145.908 176.845 145.844 176.949 145.844 177.072C145.844 177.088 145.844 177.101 145.844 177.112C145.844 177.123 145.849 177.141 145.86 177.168L144.956 177.472C144.908 177.371 144.884 177.259 144.884 177.136C144.884 176.981 144.921 176.832 144.996 176.688C145.07 176.539 145.18 176.408 145.324 176.296C145.468 176.184 145.644 176.093 145.852 176.024C146.065 175.955 146.308 175.92 146.58 175.92C147.14 175.92 147.574 176.04 147.884 176.28C148.193 176.515 148.348 176.875 148.348 177.36V179.016C148.348 179.245 148.366 179.432 148.404 179.576C148.446 179.72 148.516 179.861 148.612 180H147.588ZM146.276 179.296C146.414 179.296 146.548 179.272 146.676 179.224C146.804 179.176 146.916 179.104 147.012 179.008C147.113 178.912 147.193 178.792 147.252 178.648C147.31 178.504 147.34 178.336 147.34 178.144V178.072L146.348 178.232C146.129 178.269 145.958 178.336 145.836 178.432C145.718 178.528 145.66 178.656 145.66 178.816C145.66 178.976 145.718 179.096 145.836 179.176C145.953 179.256 146.1 179.296 146.276 179.296ZM153.68 180H152.696V177.184C152.696 177.051 152.661 176.955 152.592 176.896C152.528 176.832 152.448 176.8 152.352 176.8C152.219 176.8 152.112 176.843 152.032 176.928C151.952 177.013 151.912 177.165 151.912 177.384V180H150.928V177.184C150.928 177.061 150.899 176.968 150.84 176.904C150.781 176.835 150.691 176.8 150.568 176.8C150.435 176.8 150.333 176.853 150.264 176.96C150.2 177.061 150.168 177.197 150.168 177.368V180H149.184V176.032H150.168V176.376C150.253 176.237 150.365 176.128 150.504 176.048C150.648 175.963 150.811 175.92 150.992 175.92C151.195 175.92 151.36 175.965 151.488 176.056C151.621 176.141 151.717 176.261 151.776 176.416C151.872 176.245 152 176.12 152.16 176.04C152.32 175.96 152.501 175.92 152.704 175.92C153.024 175.92 153.267 176.021 153.432 176.224C153.597 176.421 153.68 176.672 153.68 176.976V180ZM154.197 176.032H155.205V176.52C155.327 176.371 155.495 176.235 155.709 176.112C155.922 175.984 156.189 175.92 156.509 175.92C156.77 175.92 157.01 175.968 157.229 176.064C157.447 176.155 157.637 176.291 157.797 176.472C157.957 176.653 158.082 176.875 158.173 177.136C158.263 177.392 158.309 177.685 158.309 178.016C158.309 178.347 158.258 178.643 158.157 178.904C158.061 179.16 157.927 179.379 157.757 179.56C157.591 179.741 157.397 179.88 157.173 179.976C156.949 180.067 156.711 180.112 156.461 180.112C156.178 180.112 155.933 180.064 155.725 179.968C155.517 179.872 155.343 179.736 155.205 179.56V181.632H154.197V176.032ZM156.213 176.864C155.887 176.864 155.626 176.973 155.429 177.192C155.237 177.405 155.141 177.68 155.141 178.016C155.141 178.352 155.237 178.629 155.429 178.848C155.626 179.061 155.887 179.168 156.213 179.168C156.538 179.168 156.797 179.061 156.989 178.848C157.186 178.629 157.285 178.352 157.285 178.016C157.285 177.68 157.186 177.405 156.989 177.192C156.797 176.973 156.538 176.864 156.213 176.864ZM159.329 174.4H161.537V179.168H162.897V180H159.169V179.168H160.529V175.232H159.329V174.4ZM164.79 178.256C164.822 178.56 164.934 178.803 165.126 178.984C165.323 179.16 165.574 179.248 165.878 179.248C166.155 179.248 166.382 179.181 166.558 179.048C166.734 178.909 166.872 178.733 166.974 178.52L167.726 178.952C167.518 179.352 167.267 179.645 166.974 179.832C166.68 180.019 166.31 180.112 165.862 180.112C165.584 180.112 165.323 180.061 165.078 179.96C164.832 179.859 164.616 179.717 164.43 179.536C164.243 179.349 164.094 179.128 163.982 178.872C163.875 178.616 163.822 178.331 163.822 178.016C163.822 177.701 163.875 177.416 163.982 177.16C164.094 176.904 164.243 176.685 164.43 176.504C164.622 176.317 164.843 176.173 165.094 176.072C165.35 175.971 165.622 175.92 165.91 175.92C166.192 175.92 166.451 175.971 166.686 176.072C166.926 176.168 167.131 176.304 167.302 176.48C167.472 176.656 167.606 176.867 167.702 177.112C167.798 177.352 167.845 177.616 167.845 177.904V178.256H164.79ZM165.878 176.688C165.606 176.688 165.374 176.768 165.182 176.928C164.995 177.088 164.864 177.285 164.79 177.52H166.918C166.87 177.264 166.755 177.061 166.574 176.912C166.398 176.763 166.166 176.688 165.878 176.688ZM172.386 180.768C172.119 180.891 171.866 180.981 171.626 181.04C171.386 181.104 171.13 181.136 170.858 181.136C170.485 181.136 170.146 181.067 169.842 180.928C169.538 180.795 169.277 180.587 169.058 180.304C168.845 180.027 168.679 179.675 168.562 179.248C168.445 178.821 168.386 178.315 168.386 177.728C168.386 177.147 168.45 176.64 168.578 176.208C168.706 175.776 168.879 175.419 169.098 175.136C169.322 174.848 169.583 174.635 169.882 174.496C170.186 174.357 170.511 174.288 170.858 174.288C171.13 174.288 171.386 174.325 171.626 174.4C171.866 174.475 172.074 174.589 172.25 174.744C172.431 174.893 172.573 175.083 172.674 175.312C172.781 175.541 172.834 175.811 172.834 176.12V179.664H172.082V179.256C171.986 179.411 171.847 179.536 171.666 179.632C171.49 179.728 171.301 179.776 171.098 179.776C170.847 179.776 170.621 179.728 170.418 179.632C170.215 179.531 170.042 179.392 169.898 179.216C169.759 179.035 169.653 178.819 169.578 178.568C169.503 178.312 169.466 178.032 169.466 177.728C169.466 177.424 169.506 177.147 169.586 176.896C169.666 176.64 169.778 176.424 169.922 176.248C170.066 176.067 170.237 175.928 170.434 175.832C170.637 175.731 170.858 175.68 171.098 175.68C171.333 175.68 171.533 175.728 171.698 175.824C171.869 175.915 171.997 176.029 172.082 176.168V176.008C172.082 175.699 171.975 175.451 171.762 175.264C171.549 175.072 171.253 174.976 170.874 174.976C170.682 174.976 170.485 175.019 170.282 175.104C170.079 175.184 169.893 175.328 169.722 175.536C169.557 175.744 169.421 176.027 169.314 176.384C169.207 176.736 169.154 177.184 169.154 177.728C169.154 178.272 169.205 178.72 169.306 179.072C169.413 179.419 169.549 179.693 169.714 179.896C169.885 180.099 170.077 180.237 170.29 180.312C170.503 180.392 170.722 180.432 170.946 180.432C171.053 180.432 171.151 180.427 171.242 180.416C171.338 180.405 171.431 180.387 171.522 180.36C171.618 180.339 171.714 180.309 171.81 180.272C171.911 180.235 172.023 180.187 172.146 180.128L172.386 180.768ZM171.186 179.056C171.49 179.056 171.722 178.941 171.882 178.712C172.047 178.483 172.13 178.155 172.13 177.728C172.13 177.301 172.047 176.973 171.882 176.744C171.717 176.515 171.485 176.4 171.186 176.4C170.887 176.4 170.653 176.515 170.482 176.744C170.317 176.973 170.234 177.301 170.234 177.728C170.234 178.155 170.317 178.483 170.482 178.712C170.647 178.941 170.882 179.056 171.186 179.056ZM174.415 178.256C174.447 178.56 174.559 178.803 174.751 178.984C174.948 179.16 175.199 179.248 175.503 179.248C175.78 179.248 176.007 179.181 176.183 179.048C176.359 178.909 176.497 178.733 176.599 178.52L177.351 178.952C177.143 179.352 176.892 179.645 176.599 179.832C176.305 180.019 175.935 180.112 175.487 180.112C175.209 180.112 174.948 180.061 174.703 179.96C174.457 179.859 174.241 179.717 174.055 179.536C173.868 179.349 173.719 179.128 173.607 178.872C173.5 178.616 173.447 178.331 173.447 178.016C173.447 177.701 173.5 177.416 173.607 177.16C173.719 176.904 173.868 176.685 174.055 176.504C174.247 176.317 174.468 176.173 174.719 176.072C174.975 175.971 175.247 175.92 175.535 175.92C175.817 175.92 176.076 175.971 176.311 176.072C176.551 176.168 176.756 176.304 176.927 176.48C177.097 176.656 177.231 176.867 177.327 177.112C177.423 177.352 177.47 177.616 177.47 177.904V178.256H174.415ZM175.503 176.688C175.231 176.688 174.999 176.768 174.807 176.928C174.62 177.088 174.489 177.285 174.415 177.52H176.543C176.495 177.264 176.38 177.061 176.199 176.912C176.023 176.763 175.791 176.688 175.503 176.688ZM180.283 177.104L180.995 176.032H182.187L180.883 177.88L182.315 180H181.139L180.283 178.688L179.419 180H178.259L179.747 177.904L178.411 176.032H179.587L180.283 177.104ZM186.088 180C186.056 179.957 186.016 179.885 185.968 179.784C185.92 179.677 185.896 179.539 185.896 179.368C185.741 179.635 185.549 179.827 185.32 179.944C185.09 180.056 184.832 180.112 184.544 180.112C184.346 180.112 184.165 180.083 184 180.024C183.834 179.965 183.69 179.883 183.568 179.776C183.445 179.669 183.349 179.539 183.28 179.384C183.21 179.229 183.176 179.059 183.176 178.872C183.176 178.669 183.213 178.493 183.288 178.344C183.362 178.195 183.464 178.067 183.592 177.96C183.72 177.853 183.869 177.768 184.04 177.704C184.21 177.64 184.394 177.592 184.592 177.56L185.84 177.376V177.224C185.84 177.032 185.773 176.885 185.64 176.784C185.512 176.677 185.325 176.624 185.08 176.624C184.845 176.624 184.664 176.669 184.536 176.76C184.408 176.845 184.344 176.949 184.344 177.072C184.344 177.088 184.344 177.101 184.344 177.112C184.344 177.123 184.349 177.141 184.36 177.168L183.456 177.472C183.408 177.371 183.384 177.259 183.384 177.136C183.384 176.981 183.421 176.832 183.496 176.688C183.57 176.539 183.68 176.408 183.824 176.296C183.968 176.184 184.144 176.093 184.352 176.024C184.565 175.955 184.808 175.92 185.08 175.92C185.64 175.92 186.074 176.04 186.384 176.28C186.693 176.515 186.848 176.875 186.848 177.36V179.016C186.848 179.245 186.866 179.432 186.904 179.576C186.946 179.72 187.016 179.861 187.112 180H186.088ZM184.776 179.296C184.914 179.296 185.048 179.272 185.176 179.224C185.304 179.176 185.416 179.104 185.512 179.008C185.613 178.912 185.693 178.792 185.752 178.648C185.81 178.504 185.84 178.336 185.84 178.144V178.072L184.848 178.232C184.629 178.269 184.458 178.336 184.336 178.432C184.218 178.528 184.16 178.656 184.16 178.816C184.16 178.976 184.218 179.096 184.336 179.176C184.453 179.256 184.6 179.296 184.776 179.296ZM192.18 180H191.196V177.184C191.196 177.051 191.161 176.955 191.092 176.896C191.028 176.832 190.948 176.8 190.852 176.8C190.719 176.8 190.612 176.843 190.532 176.928C190.452 177.013 190.412 177.165 190.412 177.384V180H189.428V177.184C189.428 177.061 189.399 176.968 189.34 176.904C189.281 176.835 189.191 176.8 189.068 176.8C188.935 176.8 188.833 176.853 188.764 176.96C188.7 177.061 188.668 177.197 188.668 177.368V180H187.684V176.032H188.668V176.376C188.753 176.237 188.865 176.128 189.004 176.048C189.148 175.963 189.311 175.92 189.492 175.92C189.695 175.92 189.86 175.965 189.988 176.056C190.121 176.141 190.217 176.261 190.276 176.416C190.372 176.245 190.5 176.12 190.66 176.04C190.82 175.96 191.001 175.92 191.204 175.92C191.524 175.92 191.767 176.021 191.932 176.224C192.097 176.421 192.18 176.672 192.18 176.976V180ZM192.697 176.032H193.705V176.52C193.827 176.371 193.995 176.235 194.209 176.112C194.422 175.984 194.689 175.92 195.009 175.92C195.27 175.92 195.51 175.968 195.729 176.064C195.947 176.155 196.137 176.291 196.297 176.472C196.457 176.653 196.582 176.875 196.673 177.136C196.763 177.392 196.809 177.685 196.809 178.016C196.809 178.347 196.758 178.643 196.657 178.904C196.561 179.16 196.427 179.379 196.257 179.56C196.091 179.741 195.897 179.88 195.673 179.976C195.449 180.067 195.211 180.112 194.961 180.112C194.678 180.112 194.433 180.064 194.225 179.968C194.017 179.872 193.843 179.736 193.705 179.56V181.632H192.697V176.032ZM194.713 176.864C194.387 176.864 194.126 176.973 193.929 177.192C193.737 177.405 193.641 177.68 193.641 178.016C193.641 178.352 193.737 178.629 193.929 178.848C194.126 179.061 194.387 179.168 194.713 179.168C195.038 179.168 195.297 179.061 195.489 178.848C195.686 178.629 195.785 178.352 195.785 178.016C195.785 177.68 195.686 177.405 195.489 177.192C195.297 176.973 195.038 176.864 194.713 176.864ZM197.829 174.4H200.037V179.168H201.397V180H197.669V179.168H199.029V175.232H197.829V174.4ZM203.29 178.256C203.322 178.56 203.434 178.803 203.626 178.984C203.823 179.16 204.074 179.248 204.378 179.248C204.655 179.248 204.882 179.181 205.058 179.048C205.234 178.909 205.372 178.733 205.474 178.52L206.226 178.952C206.018 179.352 205.767 179.645 205.474 179.832C205.18 180.019 204.81 180.112 204.362 180.112C204.084 180.112 203.823 180.061 203.578 179.96C203.332 179.859 203.116 179.717 202.93 179.536C202.743 179.349 202.594 179.128 202.482 178.872C202.375 178.616 202.322 178.331 202.322 178.016C202.322 177.701 202.375 177.416 202.482 177.16C202.594 176.904 202.743 176.685 202.93 176.504C203.122 176.317 203.343 176.173 203.594 176.072C203.85 175.971 204.122 175.92 204.41 175.92C204.692 175.92 204.951 175.971 205.186 176.072C205.426 176.168 205.631 176.304 205.802 176.48C205.972 176.656 206.106 176.867 206.202 177.112C206.298 177.352 206.345 177.616 206.345 177.904V178.256H203.29ZM204.378 176.688C204.106 176.688 203.874 176.768 203.682 176.928C203.495 177.088 203.364 177.285 203.29 177.52H205.418C205.37 177.264 205.255 177.061 205.074 176.912C204.898 176.763 204.666 176.688 204.378 176.688ZM208.534 178.752H209.782V180H208.534V178.752ZM216.003 178.936C215.805 179.304 215.549 179.592 215.235 179.8C214.925 180.008 214.552 180.112 214.115 180.112C213.821 180.112 213.547 180.064 213.291 179.968C213.035 179.867 212.811 179.725 212.618 179.544C212.427 179.357 212.275 179.136 212.163 178.88C212.056 178.619 212.003 178.331 212.003 178.016C212.003 177.701 212.059 177.416 212.171 177.16C212.288 176.899 212.443 176.677 212.635 176.496C212.827 176.309 213.051 176.168 213.307 176.072C213.563 175.971 213.832 175.92 214.115 175.92C214.557 175.92 214.931 176.011 215.235 176.192C215.544 176.373 215.792 176.656 215.979 177.04L215.123 177.544C215.005 177.288 214.859 177.112 214.683 177.016C214.507 176.915 214.315 176.864 214.107 176.864C213.957 176.864 213.816 176.891 213.683 176.944C213.555 176.997 213.44 177.075 213.339 177.176C213.243 177.277 213.165 177.4 213.107 177.544C213.053 177.683 213.027 177.84 213.027 178.016C213.027 178.192 213.053 178.352 213.107 178.496C213.165 178.64 213.243 178.763 213.339 178.864C213.435 178.96 213.547 179.035 213.674 179.088C213.808 179.141 213.952 179.168 214.107 179.168C214.373 179.168 214.587 179.107 214.747 178.984C214.907 178.861 215.048 178.68 215.171 178.44L216.003 178.936ZM220.903 178.016C220.903 178.363 220.842 178.667 220.719 178.928C220.602 179.189 220.444 179.408 220.247 179.584C220.055 179.76 219.831 179.893 219.575 179.984C219.319 180.069 219.055 180.112 218.783 180.112C218.511 180.112 218.247 180.069 217.991 179.984C217.735 179.893 217.508 179.76 217.311 179.584C217.119 179.408 216.962 179.189 216.839 178.928C216.722 178.667 216.663 178.363 216.663 178.016C216.663 177.669 216.722 177.365 216.839 177.104C216.962 176.843 217.119 176.624 217.311 176.448C217.508 176.272 217.735 176.141 217.991 176.056C218.247 175.965 218.511 175.92 218.783 175.92C219.055 175.92 219.319 175.965 219.575 176.056C219.831 176.141 220.055 176.272 220.247 176.448C220.444 176.624 220.602 176.843 220.719 177.104C220.842 177.365 220.903 177.669 220.903 178.016ZM218.783 179.168C218.938 179.168 219.082 179.144 219.215 179.096C219.348 179.048 219.463 178.976 219.559 178.88C219.66 178.784 219.738 178.664 219.791 178.52C219.85 178.376 219.879 178.208 219.879 178.016C219.879 177.824 219.85 177.656 219.791 177.512C219.738 177.368 219.66 177.248 219.559 177.152C219.463 177.056 219.348 176.984 219.215 176.936C219.082 176.888 218.938 176.864 218.783 176.864C218.628 176.864 218.484 176.888 218.351 176.936C218.218 176.984 218.1 177.056 217.999 177.152C217.903 177.248 217.826 177.368 217.767 177.512C217.714 177.656 217.687 177.824 217.687 178.016C217.687 178.208 217.714 178.376 217.767 178.52C217.826 178.664 217.903 178.784 217.999 178.88C218.1 178.976 218.218 179.048 218.351 179.096C218.484 179.144 218.628 179.168 218.783 179.168ZM225.868 180H224.884V177.184C224.884 177.051 224.849 176.955 224.78 176.896C224.716 176.832 224.636 176.8 224.54 176.8C224.406 176.8 224.3 176.843 224.22 176.928C224.14 177.013 224.1 177.165 224.1 177.384V180H223.116V177.184C223.116 177.061 223.086 176.968 223.028 176.904C222.969 176.835 222.878 176.8 222.756 176.8C222.622 176.8 222.521 176.853 222.452 176.96C222.388 177.061 222.356 177.197 222.356 177.368V180H221.372V176.032H222.356V176.376C222.441 176.237 222.553 176.128 222.692 176.048C222.836 175.963 222.998 175.92 223.18 175.92C223.382 175.92 223.548 175.965 223.676 176.056C223.809 176.141 223.905 176.261 223.964 176.416C224.06 176.245 224.188 176.12 224.348 176.04C224.508 175.96 224.689 175.92 224.892 175.92C225.212 175.92 225.454 176.021 225.62 176.224C225.785 176.421 225.868 176.672 225.868 176.976V180ZM228.456 174.4H229.416V175.032L229.312 176.368H228.56L228.456 175.032V174.4ZM227.096 174.4H228.056V175.032L227.952 176.368H227.2L227.096 175.032V174.4ZM232.597 178.752H233.845V180L232.821 181.296L232.541 181.12L233.069 180H232.597V178.752ZM84.081 210.4H85.041V211.032L84.937 212.368H84.185L84.081 211.032V210.4ZM82.721 210.4H83.681V211.032L83.577 212.368H82.825L82.721 211.032V210.4ZM87.0375 212.032H88.0455V214.32C88.0455 214.592 88.1042 214.803 88.2215 214.952C88.3388 215.096 88.5335 215.168 88.8055 215.168C89.0722 215.168 89.2855 215.067 89.4455 214.864C89.6108 214.656 89.6935 214.384 89.6935 214.048V212.032H90.7015V216H89.6935V215.408C89.5495 215.632 89.3815 215.805 89.1895 215.928C88.9975 216.051 88.7468 216.112 88.4375 216.112C88.2242 216.112 88.0322 216.077 87.8615 216.008C87.6908 215.944 87.5442 215.853 87.4215 215.736C87.2988 215.613 87.2028 215.469 87.1335 215.304C87.0695 215.133 87.0375 214.944 87.0375 214.736V212.032ZM92.914 213.064C92.914 213.187 92.9887 213.293 93.138 213.384C93.2927 213.475 93.546 213.541 93.898 213.584C94.8847 213.696 95.378 214.099 95.378 214.792C95.378 215 95.3353 215.187 95.25 215.352C95.17 215.512 95.0553 215.651 94.906 215.768C94.762 215.88 94.586 215.965 94.378 216.024C94.17 216.083 93.938 216.112 93.682 216.112C93.4153 216.112 93.178 216.077 92.97 216.008C92.762 215.939 92.578 215.848 92.418 215.736C92.2633 215.624 92.13 215.496 92.018 215.352C91.9113 215.208 91.826 215.059 91.762 214.904L92.57 214.392C92.6127 214.515 92.6633 214.629 92.722 214.736C92.786 214.843 92.8607 214.936 92.946 215.016C93.0367 215.091 93.1433 215.152 93.266 215.2C93.3887 215.243 93.5327 215.264 93.698 215.264C93.8953 215.264 94.0687 215.227 94.218 215.152C94.3727 215.077 94.45 214.968 94.45 214.824C94.45 214.669 94.3673 214.557 94.202 214.488C94.0367 214.413 93.7887 214.355 93.458 214.312C93.0153 214.253 92.6633 214.12 92.402 213.912C92.146 213.699 92.018 213.432 92.018 213.112C92.018 212.915 92.058 212.744 92.138 212.6C92.218 212.451 92.3273 212.325 92.466 212.224C92.6047 212.123 92.7673 212.048 92.954 212C93.146 211.947 93.3513 211.92 93.57 211.92C94.0233 211.92 94.386 212.005 94.658 212.176C94.93 212.347 95.1433 212.605 95.298 212.952L94.578 213.352C94.4873 213.144 94.3567 212.976 94.186 212.848C94.0153 212.72 93.8073 212.656 93.562 212.656C93.3913 212.656 93.2393 212.691 93.106 212.76C92.978 212.824 92.914 212.925 92.914 213.064ZM97.4145 214.256C97.4465 214.56 97.5585 214.803 97.7505 214.984C97.9478 215.16 98.1985 215.248 98.5025 215.248C98.7798 215.248 99.0065 215.181 99.1825 215.048C99.3585 214.909 99.4972 214.733 99.5985 214.52L100.351 214.952C100.143 215.352 99.8918 215.645 99.5985 215.832C99.3052 216.019 98.9345 216.112 98.4865 216.112C98.2092 216.112 97.9478 216.061 97.7025 215.96C97.4572 215.859 97.2412 215.717 97.0545 215.536C96.8678 215.349 96.7185 215.128 96.6065 214.872C96.4998 214.616 96.4465 214.331 96.4465 214.016C96.4465 213.701 96.4998 213.416 96.6065 213.16C96.7185 212.904 96.8678 212.685 97.0545 212.504C97.2465 212.317 97.4678 212.173 97.7185 212.072C97.9745 211.971 98.2465 211.92 98.5345 211.92C98.8172 211.92 99.0758 211.971 99.3105 212.072C99.5505 212.168 99.7558 212.304 99.9265 212.48C100.097 212.656 100.231 212.867 100.327 213.112C100.423 213.352 100.47 213.616 100.47 213.904V214.256H97.4145ZM98.5025 212.688C98.2305 212.688 97.9985 212.768 97.8065 212.928C97.6198 213.088 97.4892 213.285 97.4145 213.52H99.5425C99.4945 213.264 99.3798 213.061 99.1985 212.912C99.0225 212.763 98.7905 212.688 98.5025 212.688ZM104.099 213.416C104.104 213.389 104.107 213.368 104.107 213.352C104.107 213.336 104.107 213.32 104.107 213.304C104.107 213.149 104.051 213.027 103.939 212.936C103.832 212.845 103.694 212.8 103.523 212.8C103.23 212.8 103.006 212.904 102.851 213.112C102.702 213.32 102.627 213.6 102.627 213.952V216H101.619V212.032H102.627V212.576C102.75 212.379 102.915 212.221 103.123 212.104C103.331 211.981 103.571 211.92 103.843 211.92C104.078 211.92 104.278 211.955 104.443 212.024C104.608 212.088 104.742 212.176 104.843 212.288C104.944 212.4 105.016 212.528 105.059 212.672C105.107 212.811 105.131 212.955 105.131 213.104C105.131 213.232 105.118 213.349 105.091 213.456C105.07 213.563 105.038 213.659 104.995 213.744L104.099 213.416ZM106.384 210.4H109.808V211.328H108.624V215.072H109.856V216H106.336V215.072H107.568V211.328H106.384V210.4ZM114.916 216H113.908V215.512C113.769 215.693 113.609 215.84 113.428 215.952C113.247 216.059 112.999 216.112 112.684 216.112C112.423 216.112 112.18 216.067 111.956 215.976C111.732 215.88 111.537 215.741 111.372 215.56C111.207 215.379 111.076 215.16 110.98 214.904C110.884 214.643 110.836 214.347 110.836 214.016C110.836 213.685 110.884 213.392 110.98 213.136C111.076 212.875 111.207 212.653 111.372 212.472C111.543 212.291 111.74 212.155 111.964 212.064C112.193 211.968 112.441 211.92 112.708 211.92C113.225 211.92 113.625 212.104 113.908 212.472V210.4H114.916V216ZM112.916 215.168C113.241 215.168 113.497 215.061 113.684 214.848C113.876 214.629 113.972 214.352 113.972 214.016C113.972 213.68 113.876 213.405 113.684 213.192C113.497 212.973 113.241 212.864 112.916 212.864C112.591 212.864 112.332 212.973 112.14 213.192C111.953 213.405 111.86 213.68 111.86 214.016C111.86 214.352 111.953 214.629 112.14 214.848C112.332 215.061 112.591 215.168 112.916 215.168ZM117.769 210.4H118.729V211.032L118.625 212.368H117.873L117.769 211.032V210.4ZM116.409 210.4H117.368V211.032L117.265 212.368H116.513L116.409 211.032V210.4ZM121.909 212.032H123.157V213.28H121.909V212.032ZM121.909 214.752H123.157V216H121.909V214.752ZM132.206 210.4H133.166V211.032L133.062 212.368H132.31L132.206 211.032V210.4ZM130.846 210.4H131.806V211.032L131.702 212.368H130.95L130.846 211.032V210.4ZM138.819 216H137.811V213.712C137.811 213.451 137.747 213.245 137.619 213.096C137.491 212.941 137.293 212.864 137.027 212.864C136.744 212.864 136.515 212.968 136.339 213.176C136.168 213.379 136.083 213.648 136.083 213.984V216H135.075V210.4H136.083V212.656C136.237 212.416 136.421 212.235 136.635 212.112C136.853 211.984 137.109 211.92 137.403 211.92C137.616 211.92 137.811 211.955 137.987 212.024C138.163 212.088 138.312 212.179 138.435 212.296C138.557 212.413 138.651 212.555 138.715 212.72C138.784 212.885 138.819 213.067 138.819 213.264V216ZM142.775 216C142.743 215.957 142.703 215.885 142.655 215.784C142.607 215.677 142.583 215.539 142.583 215.368C142.428 215.635 142.236 215.827 142.007 215.944C141.778 216.056 141.519 216.112 141.231 216.112C141.034 216.112 140.852 216.083 140.687 216.024C140.522 215.965 140.378 215.883 140.255 215.776C140.132 215.669 140.036 215.539 139.967 215.384C139.898 215.229 139.863 215.059 139.863 214.872C139.863 214.669 139.9 214.493 139.975 214.344C140.05 214.195 140.151 214.067 140.279 213.96C140.407 213.853 140.556 213.768 140.727 213.704C140.898 213.64 141.082 213.592 141.279 213.56L142.527 213.376V213.224C142.527 213.032 142.46 212.885 142.327 212.784C142.199 212.677 142.012 212.624 141.767 212.624C141.532 212.624 141.351 212.669 141.223 212.76C141.095 212.845 141.031 212.949 141.031 213.072C141.031 213.088 141.031 213.101 141.031 213.112C141.031 213.123 141.036 213.141 141.047 213.168L140.143 213.472C140.095 213.371 140.071 213.259 140.071 213.136C140.071 212.981 140.108 212.832 140.183 212.688C140.258 212.539 140.367 212.408 140.511 212.296C140.655 212.184 140.831 212.093 141.039 212.024C141.252 211.955 141.495 211.92 141.767 211.92C142.327 211.92 142.762 212.04 143.071 212.28C143.38 212.515 143.535 212.875 143.535 213.36V215.016C143.535 215.245 143.554 215.432 143.591 215.576C143.634 215.72 143.703 215.861 143.799 216H142.775ZM141.463 215.296C141.602 215.296 141.735 215.272 141.863 215.224C141.991 215.176 142.103 215.104 142.199 215.008C142.3 214.912 142.38 214.792 142.439 214.648C142.498 214.504 142.527 214.336 142.527 214.144V214.072L141.535 214.232C141.316 214.269 141.146 214.336 141.023 214.432C140.906 214.528 140.847 214.656 140.847 214.816C140.847 214.976 140.906 215.096 141.023 215.176C141.14 215.256 141.287 215.296 141.463 215.296ZM145.852 213.064C145.852 213.187 145.926 213.293 146.076 213.384C146.23 213.475 146.484 213.541 146.836 213.584C147.822 213.696 148.316 214.099 148.316 214.792C148.316 215 148.273 215.187 148.188 215.352C148.108 215.512 147.993 215.651 147.844 215.768C147.7 215.88 147.524 215.965 147.316 216.024C147.108 216.083 146.876 216.112 146.62 216.112C146.353 216.112 146.116 216.077 145.908 216.008C145.7 215.939 145.516 215.848 145.356 215.736C145.201 215.624 145.068 215.496 144.956 215.352C144.849 215.208 144.764 215.059 144.7 214.904L145.508 214.392C145.55 214.515 145.601 214.629 145.66 214.736C145.724 214.843 145.798 214.936 145.884 215.016C145.974 215.091 146.081 215.152 146.204 215.2C146.326 215.243 146.47 215.264 146.636 215.264C146.833 215.264 147.006 215.227 147.156 215.152C147.31 215.077 147.388 214.968 147.388 214.824C147.388 214.669 147.305 214.557 147.14 214.488C146.974 214.413 146.726 214.355 146.396 214.312C145.953 214.253 145.601 214.12 145.34 213.912C145.084 213.699 144.956 213.432 144.956 213.112C144.956 212.915 144.996 212.744 145.076 212.6C145.156 212.451 145.265 212.325 145.404 212.224C145.542 212.123 145.705 212.048 145.892 212C146.084 211.947 146.289 211.92 146.508 211.92C146.961 211.92 147.324 212.005 147.596 212.176C147.868 212.347 148.081 212.605 148.236 212.952L147.516 213.352C147.425 213.144 147.294 212.976 147.124 212.848C146.953 212.72 146.745 212.656 146.5 212.656C146.329 212.656 146.177 212.691 146.044 212.76C145.916 212.824 145.852 212.925 145.852 213.064ZM153.256 216H152.248V213.712C152.248 213.451 152.184 213.245 152.056 213.096C151.928 212.941 151.731 212.864 151.464 212.864C151.181 212.864 150.952 212.968 150.776 213.176C150.605 213.379 150.52 213.648 150.52 213.984V216H149.512V210.4H150.52V212.656C150.675 212.416 150.859 212.235 151.072 212.112C151.291 211.984 151.547 211.92 151.84 211.92C152.053 211.92 152.248 211.955 152.424 212.024C152.6 212.088 152.749 212.179 152.872 212.296C152.995 212.413 153.088 212.555 153.152 212.72C153.221 212.885 153.256 213.067 153.256 213.264V216ZM155.165 214.256C155.197 214.56 155.309 214.803 155.501 214.984C155.698 215.16 155.949 215.248 156.253 215.248C156.53 215.248 156.757 215.181 156.933 215.048C157.109 214.909 157.247 214.733 157.349 214.52L158.101 214.952C157.893 215.352 157.642 215.645 157.349 215.832C157.055 216.019 156.685 216.112 156.237 216.112C155.959 216.112 155.698 216.061 155.453 215.96C155.207 215.859 154.991 215.717 154.805 215.536C154.618 215.349 154.469 215.128 154.357 214.872C154.25 214.616 154.197 214.331 154.197 214.016C154.197 213.701 154.25 213.416 154.357 213.16C154.469 212.904 154.618 212.685 154.805 212.504C154.997 212.317 155.218 212.173 155.469 212.072C155.725 211.971 155.997 211.92 156.285 211.92C156.567 211.92 156.826 211.971 157.061 212.072C157.301 212.168 157.506 212.304 157.677 212.48C157.847 212.656 157.981 212.867 158.077 213.112C158.173 213.352 158.22 213.616 158.22 213.904V214.256H155.165ZM156.253 212.688C155.981 212.688 155.749 212.768 155.557 212.928C155.37 213.088 155.239 213.285 155.165 213.52H157.293C157.245 213.264 157.13 213.061 156.949 212.912C156.773 212.763 156.541 212.688 156.253 212.688ZM163.041 216H162.033V215.512C161.894 215.693 161.734 215.84 161.553 215.952C161.372 216.059 161.124 216.112 160.809 216.112C160.548 216.112 160.305 216.067 160.081 215.976C159.857 215.88 159.662 215.741 159.497 215.56C159.332 215.379 159.201 215.16 159.105 214.904C159.009 214.643 158.961 214.347 158.961 214.016C158.961 213.685 159.009 213.392 159.105 213.136C159.201 212.875 159.332 212.653 159.497 212.472C159.668 212.291 159.865 212.155 160.089 212.064C160.318 211.968 160.566 211.92 160.833 211.92C161.35 211.92 161.75 212.104 162.033 212.472V210.4H163.041V216ZM161.041 215.168C161.366 215.168 161.622 215.061 161.809 214.848C162.001 214.629 162.097 214.352 162.097 214.016C162.097 213.68 162.001 213.405 161.809 213.192C161.622 212.973 161.366 212.864 161.041 212.864C160.716 212.864 160.457 212.973 160.265 213.192C160.078 213.405 159.985 213.68 159.985 214.016C159.985 214.352 160.078 214.629 160.265 214.848C160.457 215.061 160.716 215.168 161.041 215.168ZM164.014 216.056H167.678V216.872H164.014V216.056ZM168.85 212.032H169.858V214.32C169.858 214.592 169.917 214.803 170.034 214.952C170.151 215.096 170.346 215.168 170.618 215.168C170.885 215.168 171.098 215.067 171.258 214.864C171.423 214.656 171.506 214.384 171.506 214.048V212.032H172.514V216H171.506V215.408C171.362 215.632 171.194 215.805 171.002 215.928C170.81 216.051 170.559 216.112 170.25 216.112C170.037 216.112 169.845 216.077 169.674 216.008C169.503 215.944 169.357 215.853 169.234 215.736C169.111 215.613 169.015 215.469 168.946 215.304C168.882 215.133 168.85 214.944 168.85 214.736V212.032ZM174.727 213.064C174.727 213.187 174.801 213.293 174.951 213.384C175.105 213.475 175.359 213.541 175.711 213.584C176.697 213.696 177.191 214.099 177.191 214.792C177.191 215 177.148 215.187 177.062 215.352C176.983 215.512 176.868 215.651 176.719 215.768C176.575 215.88 176.399 215.965 176.191 216.024C175.983 216.083 175.751 216.112 175.495 216.112C175.228 216.112 174.991 216.077 174.783 216.008C174.575 215.939 174.391 215.848 174.231 215.736C174.076 215.624 173.943 215.496 173.831 215.352C173.724 215.208 173.639 215.059 173.575 214.904L174.383 214.392C174.425 214.515 174.476 214.629 174.535 214.736C174.599 214.843 174.673 214.936 174.759 215.016C174.849 215.091 174.956 215.152 175.079 215.2C175.201 215.243 175.345 215.264 175.511 215.264C175.708 215.264 175.881 215.227 176.031 215.152C176.185 215.077 176.263 214.968 176.263 214.824C176.263 214.669 176.18 214.557 176.015 214.488C175.849 214.413 175.601 214.355 175.271 214.312C174.828 214.253 174.476 214.12 174.215 213.912C173.959 213.699 173.831 213.432 173.831 213.112C173.831 212.915 173.871 212.744 173.951 212.6C174.031 212.451 174.14 212.325 174.279 212.224C174.417 212.123 174.58 212.048 174.767 212C174.959 211.947 175.164 211.92 175.383 211.92C175.836 211.92 176.199 212.005 176.471 212.176C176.743 212.347 176.956 212.605 177.111 212.952L176.391 213.352C176.3 213.144 176.169 212.976 175.999 212.848C175.828 212.72 175.62 212.656 175.375 212.656C175.204 212.656 175.052 212.691 174.919 212.76C174.791 212.824 174.727 212.925 174.727 213.064ZM179.227 214.256C179.259 214.56 179.371 214.803 179.563 214.984C179.76 215.16 180.011 215.248 180.315 215.248C180.592 215.248 180.819 215.181 180.995 215.048C181.171 214.909 181.31 214.733 181.411 214.52L182.163 214.952C181.955 215.352 181.704 215.645 181.411 215.832C181.118 216.019 180.747 216.112 180.299 216.112C180.022 216.112 179.76 216.061 179.515 215.96C179.27 215.859 179.054 215.717 178.867 215.536C178.68 215.349 178.531 215.128 178.419 214.872C178.312 214.616 178.259 214.331 178.259 214.016C178.259 213.701 178.312 213.416 178.419 213.16C178.531 212.904 178.68 212.685 178.867 212.504C179.059 212.317 179.28 212.173 179.531 212.072C179.787 211.971 180.059 211.92 180.347 211.92C180.63 211.92 180.888 211.971 181.123 212.072C181.363 212.168 181.568 212.304 181.739 212.48C181.91 212.656 182.043 212.867 182.139 213.112C182.235 213.352 182.283 213.616 182.283 213.904V214.256H179.227ZM180.315 212.688C180.043 212.688 179.811 212.768 179.619 212.928C179.432 213.088 179.302 213.285 179.227 213.52H181.355C181.307 213.264 181.192 213.061 181.011 212.912C180.835 212.763 180.603 212.688 180.315 212.688ZM185.912 213.416C185.917 213.389 185.92 213.368 185.92 213.352C185.92 213.336 185.92 213.32 185.92 213.304C185.92 213.149 185.864 213.027 185.752 212.936C185.645 212.845 185.506 212.8 185.336 212.8C185.042 212.8 184.818 212.904 184.664 213.112C184.514 213.32 184.44 213.6 184.44 213.952V216H183.432V212.032H184.44V212.576C184.562 212.379 184.728 212.221 184.936 212.104C185.144 211.981 185.384 211.92 185.656 211.92C185.89 211.92 186.09 211.955 186.256 212.024C186.421 212.088 186.554 212.176 186.656 212.288C186.757 212.4 186.829 212.528 186.872 212.672C186.92 212.811 186.944 212.955 186.944 213.104C186.944 213.232 186.93 213.349 186.904 213.456C186.882 213.563 186.85 213.659 186.808 213.744L185.912 213.416ZM188.076 216.056H191.74V216.872H188.076V216.056ZM193.145 212.032H195.225V215.168H196.497V216H192.945V215.168H194.217V212.848H193.145V212.032ZM194.169 210.4H195.273V211.456H194.169V210.4ZM201.541 216H200.533V215.512C200.394 215.693 200.234 215.84 200.053 215.952C199.872 216.059 199.624 216.112 199.309 216.112C199.048 216.112 198.805 216.067 198.581 215.976C198.357 215.88 198.162 215.741 197.997 215.56C197.832 215.379 197.701 215.16 197.605 214.904C197.509 214.643 197.461 214.347 197.461 214.016C197.461 213.685 197.509 213.392 197.605 213.136C197.701 212.875 197.832 212.653 197.997 212.472C198.168 212.291 198.365 212.155 198.589 212.064C198.818 211.968 199.066 211.92 199.333 211.92C199.85 211.92 200.25 212.104 200.533 212.472V210.4H201.541V216ZM199.541 215.168C199.866 215.168 200.122 215.061 200.309 214.848C200.501 214.629 200.597 214.352 200.597 214.016C200.597 213.68 200.501 213.405 200.309 213.192C200.122 212.973 199.866 212.864 199.541 212.864C199.216 212.864 198.957 212.973 198.765 213.192C198.578 213.405 198.485 213.68 198.485 214.016C198.485 214.352 198.578 214.629 198.765 214.848C198.957 215.061 199.216 215.168 199.541 215.168ZM204.394 210.4H205.354V211.032L205.25 212.368H204.498L204.394 211.032V210.4ZM203.034 210.4H203.993V211.032L203.89 212.368H203.138L203.034 211.032V210.4Z" fill="#010101"/>
<path d="M153 324V252.778C153 244.616 159.616 238 167.778 238H361" stroke="url(#paint0_linear)" stroke-width="8.31265"/>
<g filter="url(#filter1_d)">
<circle cx="269.478" cy="237.88" r="29.4779" fill="#493D8D"/>
</g>
<path d="M282 238.45V230.225H274C274 234.767 277.581 238.45 282 238.45Z" fill="white"/>
<path d="M258 253.772H269.837C276.554 253.772 282 248.173 282 241.266H258V253.772Z" fill="white"/>
<path d="M274 222C274 226.542 277.581 230.225 282 230.225V222H274Z" fill="white"/>
<path d="M266 222C266 226.542 269.581 230.225 274 230.225H266C266 234.767 269.581 238.45 274 238.45V230.225V222H266Z" fill="white"/>
<path d="M266 238.45V230.225H258C258 234.767 261.581 238.45 266 238.45Z" fill="white"/>
<circle cx="153" cy="279" r="10" fill="#00CBCC"/>
<circle cx="153" cy="279" r="14.1563" stroke="#00CBCC" stroke-opacity="0.15" stroke-width="8.31265"/>
<rect x="68" y="112" width="169" height="19" rx="9.5" fill="white"/>
<path d="M97.74 126H99.06V123.16H100.18L101.8 126H103.31L101.62 123.04C102.57 122.7 103.22 122.06 103.22 120.98C103.22 119.77 102.27 119 100.73 119H97.74V126ZM99.06 122V120.16H100.73C101.54 120.16 101.9 120.52 101.9 121.08C101.9 121.64 101.54 122 100.73 122H99.06ZM107.131 126.14C108.771 126.14 110.001 125.14 110.001 123.35V119H108.681V123.22C108.681 124.31 108.081 124.92 107.131 124.92C106.181 124.92 105.581 124.31 105.581 123.22V119H104.261V123.35C104.261 125.14 105.491 126.14 107.131 126.14ZM111.304 126H113.414C115.604 126 117.224 124.85 117.224 122.5C117.224 120.15 115.604 119 113.414 119H111.304V126ZM112.624 124.78V120.22H113.504C114.924 120.22 115.884 120.98 115.884 122.5C115.884 124.02 114.924 124.78 113.504 124.78H112.624ZM118.297 126H120.407C122.597 126 124.217 124.85 124.217 122.5C124.217 120.15 122.597 119 120.407 119H118.297V126ZM119.617 124.78V120.22H120.497C121.917 120.22 122.877 120.98 122.877 122.5C122.877 124.02 121.917 124.78 120.497 124.78H119.617ZM125.289 126H130.149V124.82H126.609V122.97H129.839V121.79H126.609V120.18H130.119V119H125.289V126ZM131.285 126H132.605V123.16H133.725L135.345 126H136.855L135.165 123.04C136.115 122.7 136.765 122.06 136.765 120.98C136.765 119.77 135.815 119 134.275 119H131.285V126ZM132.605 122V120.16H134.275C135.085 120.16 135.445 120.52 135.445 121.08C135.445 121.64 135.085 122 134.275 122H132.605ZM140.224 126.14C141.854 126.14 142.834 125.13 142.834 123.99C142.834 122.81 142.074 122.16 140.544 121.84C139.374 121.6 138.854 121.29 138.854 120.75C138.854 120.25 139.404 120.02 140.024 120.02C140.844 120.02 141.404 120.46 141.674 121.26L142.714 120.66C142.274 119.46 141.364 118.86 140.054 118.86C138.594 118.86 137.594 119.62 137.594 120.78C137.594 121.97 138.514 122.63 139.784 122.88C140.914 123.1 141.514 123.39 141.514 124.04C141.514 124.6 141.004 124.98 140.214 124.98C139.154 124.98 138.634 124.35 138.444 123.31L137.284 123.9C137.544 125.18 138.484 126.14 140.224 126.14ZM145.345 126H146.665V120.22H148.805V119H143.205V120.22H145.345V126ZM148.202 126H149.612L150.312 124.17H153.012L153.712 126H155.122L152.292 119H151.032L148.202 126ZM150.762 122.99L151.402 121.31C151.402 121.31 151.532 120.97 151.662 120.55C151.792 120.97 151.922 121.31 151.922 121.31L152.562 122.99H150.762ZM158.794 126.14C160.304 126.14 161.104 125.55 161.954 124.26L160.924 123.52C160.434 124.44 159.714 124.92 158.804 124.92C157.554 124.92 156.554 123.94 156.554 122.5C156.554 121.01 157.574 120.08 158.804 120.08C159.784 120.08 160.424 120.57 160.844 121.46L161.914 120.69C161.444 119.63 160.314 118.86 158.844 118.86C156.794 118.86 155.214 120.32 155.214 122.5C155.214 124.68 156.734 126.14 158.794 126.14ZM162.945 126H164.265V123.37L165.015 122.58L167.065 126H168.605L165.965 121.6L168.445 119H166.775L164.815 121.08L164.265 121.7V119H162.945V126ZM174.931 126.14C176.561 126.14 177.541 125.13 177.541 123.99C177.541 122.81 176.781 122.16 175.251 121.84C174.081 121.6 173.561 121.29 173.561 120.75C173.561 120.25 174.111 120.02 174.731 120.02C175.551 120.02 176.111 120.46 176.381 121.26L177.421 120.66C176.981 119.46 176.071 118.86 174.761 118.86C173.301 118.86 172.301 119.62 172.301 120.78C172.301 121.97 173.221 122.63 174.491 122.88C175.621 123.1 176.221 123.39 176.221 124.04C176.221 124.6 175.711 124.98 174.921 124.98C173.861 124.98 173.341 124.35 173.151 123.31L171.991 123.9C172.251 125.18 173.191 126.14 174.931 126.14ZM178.678 126H180.788C182.978 126 184.598 124.85 184.598 122.5C184.598 120.15 182.978 119 180.788 119H178.678V126ZM179.998 124.78V120.22H180.877C182.298 120.22 183.258 120.98 183.258 122.5C183.258 124.02 182.298 124.78 180.877 124.78H179.998ZM185.67 126H186.99V123.37L187.74 122.58L189.79 126H191.33L188.69 121.6L191.17 119H189.5L187.54 121.08L186.99 121.7V119H185.67V126Z" fill="#493D8D"/>
<path d="M89.18 121.607V118.803H86.4533C86.4533 120.351 87.6739 121.607 89.18 121.607Z" fill="#493D8D"/>
<path d="M81 126.829H85.0345C87.3238 126.829 89.18 124.92 89.18 122.567H81V126.829Z" fill="#493D8D"/>
<path d="M86.4533 116C86.4533 117.548 87.6739 118.803 89.18 118.803V116H86.4533Z" fill="#493D8D"/>
<path d="M83.7267 116C83.7267 117.548 84.9472 118.803 86.4533 118.803H83.7267C83.7267 120.351 84.9472 121.607 86.4533 121.607V118.803V116H83.7267Z" fill="#493D8D"/>
<path d="M83.7267 121.607V118.803H81C81 120.351 82.2205 121.607 83.7267 121.607Z" fill="#493D8D"/>
<defs>
<filter id="filter0_d" x="0.749404" y="0.443915" width="302.722" height="444.454" filterUnits="userSpaceOnUse" color-interpolation-filters="sRGB">
<feFlood flood-opacity="0" result="BackgroundImageFix"/>
<feColorMatrix in="SourceAlpha" type="matrix" values="0 0 0 0 0 0 0 0 0 0 0 0 0 0 0 0 0 0 127 0" result="hardAlpha"/>
<feMorphology radius="5.54177" operator="dilate" in="SourceAlpha" result="effect1_dropShadow"/>
<feOffset dy="3.69451"/>
<feGaussianBlur stdDeviation="13.8544"/>
<feColorMatrix type="matrix" values="0 0 0 0 0 0 0 0 0 0 0 0 0 0 0 0 0 0 0.05 0"/>
<feBlend mode="normal" in2="BackgroundImageFix" result="effect1_dropShadow"/>
<feBlend mode="normal" in="SourceGraphic" in2="effect1_dropShadow" result="shape"/>
</filter>
<filter id="filter1_d" x="219.756" y="200.155" width="99.4433" height="99.4433" filterUnits="userSpaceOnUse" color-interpolation-filters="sRGB">
<feFlood flood-opacity="0" result="BackgroundImageFix"/>
<feColorMatrix in="SourceAlpha" type="matrix" values="0 0 0 0 0 0 0 0 0 0 0 0 0 0 0 0 0 0 127 0" result="hardAlpha"/>
<feMorphology radius="2.24931" operator="erode" in="SourceAlpha" result="effect1_dropShadow"/>
<feOffset dy="11.9963"/>
<feGaussianBlur stdDeviation="11.2465"/>
<feColorMatrix type="matrix" values="0 0 0 0 0 0 0 0 0 0 0 0 0 0 0 0 0 0 0.07 0"/>
<feBlend mode="normal" in2="BackgroundImageFix" result="effect1_dropShadow"/>
<feBlend mode="normal" in="SourceGraphic" in2="effect1_dropShadow" result="shape"/>
</filter>
<linearGradient id="paint0_linear" x1="138.465" y1="328.41" x2="502.074" y2="104.643" gradientUnits="userSpaceOnUse">
<stop stop-color="#96F2F4"/>
<stop offset="1" stop-color="#95F1F3"/>
</linearGradient>
</defs>
</svg>
