<svg width="553" height="143" viewBox="0 0 553 143" fill="none" xmlns="http://www.w3.org/2000/svg">
<g opacity="0.5">
<path d="M0 12.1428C0 5.51542 5.37258 0.142822 12 0.142822H541C547.627 0.142822 553 5.51541 553 12.1428V113.186C553 119.814 547.627 125.186 541 125.186H188.289C186.311 125.186 184.364 125.675 182.621 126.61L154.695 141.577C152.952 142.511 151.005 143 149.027 143H17.8906C16.3497 143 14.8231 142.703 13.3944 142.126L7.50382 139.745C2.9688 137.913 0 133.511 0 128.619V12.1428Z" fill="url(#paint0_radial_198_2316)" fill-opacity="0.35"/>
<path d="M0.5 12.1428C0.5 5.79157 5.64873 0.642822 12 0.642822H541C547.351 0.642822 552.5 5.79155 552.5 12.1428V113.186C552.5 119.538 547.351 124.686 541 124.686H188.289C186.229 124.686 184.2 125.196 182.384 126.169L154.459 141.136C152.788 142.031 150.922 142.5 149.027 142.5H17.8906C16.4139 142.5 14.9509 142.216 13.5818 141.662L7.69116 139.282C3.3451 137.525 0.5 133.307 0.5 128.619V12.1428Z" stroke="white" stroke-opacity="0.1"/>
</g>
<defs>
<radialGradient id="paint0_radial_198_2316" cx="0" cy="0" r="1" gradientUnits="userSpaceOnUse" gradientTransform="translate(24.823 0.14257) rotate(14.8208) scale(558.479 9956.4)">
<stop stop-color="white" stop-opacity="0.6"/>
<stop offset="1" stop-color="white" stop-opacity="0.1"/>
</radialGradient>
</defs>
</svg>
