<svg width="391" height="249" viewBox="0 0 391 249" fill="none" xmlns="http://www.w3.org/2000/svg">
<g opacity="0.5">
<path d="M0 12.5C0 5.87258 5.37258 0.5 12 0.5H379C385.627 0.5 391 5.87258 391 12.5V211.5C391 218.127 385.627 223.5 379 223.5H136.26C132.907 223.5 129.708 224.902 127.436 227.368L111.064 245.132C108.792 247.598 105.593 249 102.24 249H15.2836C12.5135 249 9.82865 248.042 7.68471 246.287L4.40114 243.601C1.61552 241.322 0 237.913 0 234.313V12.5Z" fill="url(#paint0_radial_38_1329)" fill-opacity="0.35"/>
<path d="M0.5 12.5C0.5 6.14872 5.64873 1 12 1H379C385.351 1 390.5 6.14873 390.5 12.5V211.5C390.5 217.851 385.351 223 379 223H136.26C132.768 223 129.434 224.461 127.068 227.029L110.697 244.793C108.519 247.156 105.453 248.5 102.24 248.5H15.2836C12.6289 248.5 10.0559 247.582 8.00133 245.901L4.71776 243.214C2.04821 241.03 0.5 237.763 0.5 234.313V12.5Z" stroke="white" stroke-opacity="0.1"/>
</g>
<defs>
<radialGradient id="paint0_radial_38_1329" cx="0" cy="0" r="1" gradientUnits="userSpaceOnUse" gradientTransform="translate(17.5512 0.499562) rotate(33.063) scale(455.495 15014.2)">
<stop stop-color="white" stop-opacity="0.6"/>
<stop offset="1" stop-color="white" stop-opacity="0.1"/>
</radialGradient>
</defs>
</svg>
