<svg width="53" height="36" viewBox="0 0 53 36" fill="none" xmlns="http://www.w3.org/2000/svg">
<path d="M42.3564 30.6715C44.5698 27.5946 45.4797 23.8195 45.4797 19.7399C45.4797 9.39013 37.0896 1 26.7399 1C16.3901 1 8 9.39013 8 19.7399C8 24.3534 8.74901 27.4063 11.5137 30.6715" stroke="#D692F6" stroke-width="2" stroke-linecap="round" stroke-linejoin="round" stroke-dasharray="8 8"/>
<path d="M9.04486 28.12L2.02899 34.12C1.67599 34.4219 1.88948 35 2.35396 35H51.4618C51.9461 35 52.1475 34.3803 51.7558 34.0956L43.5018 28.0956C43.4164 28.0335 43.3135 28 43.2078 28H9.36983C9.25067 28 9.13542 28.0426 9.04486 28.12Z" fill="#D692F6" stroke="#D692F6" stroke-width="2" stroke-linecap="round"/>
<circle cx="27.1508" cy="19.7396" r="9.15076" fill="#161D2D" stroke="#D692F6" stroke-width="2"/>
<circle r="1.26885" transform="matrix(1 0 0 -1 27.2688 15.2985)" fill="#D692F6"/>
<rect x="26" y="18.4707" width="2.53769" height="6.97865" fill="#D692F6"/>
</svg>
