<svg width="27" height="27" viewBox="0 0 27 27" fill="none" xmlns="http://www.w3.org/2000/svg">
<path d="M18.8256 10.2139C19.3215 9.75178 19.3488 8.97519 18.8867 8.47936C18.4245 7.98352 17.648 7.9562 17.1521 8.41833L13.561 11.7654L10.2139 8.17423C9.75178 7.67839 8.97519 7.65107 8.47936 8.1132C7.98352 8.57533 7.9562 9.35192 8.41833 9.84776L11.7654 13.4389L8.17423 16.786C7.67839 17.2481 7.65107 18.0247 8.1132 18.5205C8.57533 19.0164 9.35192 19.0437 9.84776 18.5815L13.4389 15.2345L16.786 18.8256C17.2481 19.3215 18.0247 19.3488 18.5205 18.8867C19.0164 18.4245 19.0437 17.648 18.5815 17.1521L15.2345 13.561L18.8256 10.2139Z" fill="black"/>
<path fill-rule="evenodd" clip-rule="evenodd" d="M0 13.5C0 6.04416 6.04416 0 13.5 0C20.9558 0 27 6.04416 27 13.5C27 20.9558 20.9558 27 13.5 27C6.04416 27 0 20.9558 0 13.5ZM13.5 24.5455C7.39976 24.5455 2.45455 19.6002 2.45455 13.5C2.45455 7.39976 7.39976 2.45455 13.5 2.45455C19.6002 2.45455 24.5455 7.39976 24.5455 13.5C24.5455 19.6002 19.6002 24.5455 13.5 24.5455Z" fill="black"/>
</svg>
