<svg width="99" height="51" viewBox="0 0 99 51" fill="none" xmlns="http://www.w3.org/2000/svg">
<circle cx="50" cy="25" r="7" fill="#020202"/>
<circle cx="50" cy="25" r="9.73913" stroke="#010101" stroke-opacity="0.07" stroke-width="5.47826"/>
<path d="M71.802 48.8153C72.977 50.0151 74.908 50.0167 76.085 48.8189L96.9337 27.6027C98.0807 26.4355 98.0807 24.5645 96.9337 23.3973L76.085 2.18113C74.908 0.983338 72.977 0.984946 71.802 2.1847L70.0593 3.96397C68.9157 5.13168 68.9172 7.00002 70.0628 8.16582L87.0968 25.5L70.0628 42.8342C68.9172 44 68.9157 45.8683 70.0593 47.036L71.802 48.8153Z" fill="#C6C6C6"/>
<path d="M28.9407 47.036C30.0843 45.8683 30.0828 44 28.9372 42.8342L11.9032 25.5L28.9372 8.16582C30.0828 7.00002 30.0843 5.13168 28.9407 3.96397L27.198 2.1847C26.023 0.984946 24.092 0.983335 22.915 2.18112L2.06629 23.3973C0.919319 24.5645 0.919316 26.4355 2.06629 27.6027L22.915 48.8189C24.092 50.0167 26.023 50.0151 27.198 48.8153L28.9407 47.036Z" fill="#0066FF"/>
</svg>
