<svg width="55" height="29" viewBox="0 0 55 29" fill="none" xmlns="http://www.w3.org/2000/svg">
<circle cx="27.7778" cy="13.8889" r="3.88888" fill="#020202"/>
<circle cx="27.7778" cy="13.8889" r="6.62801" stroke="#010101" stroke-opacity="0.07" stroke-width="5.47826"/>
<path d="M39.3967 26.6159C40.3204 27.559 41.8384 27.5603 42.7637 26.6187L52.9337 16.2694C54.0807 15.1022 54.0807 13.2311 52.9337 12.0639L42.7637 1.71461C41.8384 0.77301 40.3204 0.77428 39.3967 1.71742C38.4977 2.63537 38.4989 4.1041 39.3995 5.02055L48.3871 14.1666L39.3995 23.3127C38.4989 24.2292 38.4977 25.6979 39.3967 26.6159Z" fill="#C6C6C6"/>
<path d="M15.6033 26.6159C16.5024 25.6979 16.5011 24.2292 15.6006 23.3127L6.61289 14.1666L15.6006 5.02055C16.5011 4.1041 16.5024 2.63537 15.6033 1.71742C14.6796 0.77428 13.1617 0.773013 12.2364 1.71461L2.06629 12.0639C0.919315 13.2311 0.919317 15.1022 2.06629 16.2694L12.2364 26.6187C13.1617 27.5603 14.6796 27.559 15.6033 26.6159Z" fill="#0066FF"/>
</svg>
