<svg width="36" height="46" viewBox="0 0 36 46" fill="none" xmlns="http://www.w3.org/2000/svg">
<circle cx="18" cy="18" r="17" stroke="#D692F6" stroke-width="2"/>
<path d="M27.659 32.2949V42.4598C27.659 43.9753 26.039 44.9402 24.7064 44.2183L19.3019 41.2909C18.728 40.98 18.0386 40.9687 17.4549 41.2606L11.2352 44.3704C9.90544 45.0353 8.34082 44.0683 8.34082 42.5816V32.2949" stroke="#D692F6" stroke-width="2" stroke-linecap="round"/>
<path d="M16.507 14.2436L18.0011 9.64525L19.4952 14.2436C19.7228 14.9441 20.3755 15.4183 21.112 15.4183H25.947L22.0354 18.2603C21.4395 18.6932 21.1902 19.4605 21.4178 20.1609L22.9119 24.7593L19.0003 21.9173C18.4045 21.4844 17.5977 21.4845 17.0018 21.9173L17.5896 22.7264L17.0018 21.9173L13.0902 24.7593L14.5843 20.1609C14.8119 19.4605 14.5626 18.6932 13.9668 18.2603L10.0551 15.4183H14.8902C15.6266 15.4183 16.2794 14.9441 16.507 14.2436Z" fill="#D692F6" stroke="#D692F6" stroke-width="2"/>
</svg>
