<svg width="618" height="175" viewBox="0 0 618 175" fill="none" xmlns="http://www.w3.org/2000/svg">
<path d="M551.8 80.4C551.8 77.6 551.1 73.5 547.7 69.4C541.1 63.1 530.6 63.4 524.3 70C524.3 70 524.3 70 524.3 70.1C521.5 73.5 520.9 77 520.2 81.1H551.9V80.4H551.8ZM574.5 110.1C572 114.4 569 118.3 565.5 121.8C558.6 128.7 548.3 133.5 535.8 133.5C512.4 133.5 495.8 118.3 495.8 92.1C495.8 72.8 505.5 48.7 536.5 48.7C540.6 48.7 554.4 48.7 564.1 59.7C574.4 70.7 575.1 86.6 575.8 95.6H519.2C519.2 105.3 524.7 114.9 537.1 114.9C550.2 114.9 554.3 106.6 557.8 101.1C558 101.1 574.5 110.1 574.5 110.1ZM440.7 58.3C442.8 55.5 444.8 54.2 449 51.4C452.4 50.7 457.3 49.3 462.8 49.3C467.6 49.3 473.1 49.3 476.6 52.1C485.6 56.9 487.6 63.8 487.6 76.2V130H464.2V85.9V73.5C462.1 69.4 458 68 453.9 68C441.5 68 441.5 77.7 441.5 87.3V130.1H418.1V51.5H441.5V58.4H440.7V58.3ZM402.8 30.7C402.8 37.6 397.3 43.8 390.4 43.8C383.5 43.8 378 38.3 378 30.7C378 23.8 383.5 18.3 390.4 18.3C397.3 18.3 402.8 23.9 402.8 30.7ZM379.3 51.4H402.1V130H379.3V50.7V51.4ZM363.5 17V130.1H340.1V17C340 17 363.5 17 363.5 17ZM305.6 80.4C305.6 77 304.9 72.1 301.5 68.7C294.9 62.4 284.4 62.7 278.1 69.3C278.1 69.3 278.1 69.3 278.1 69.4C275.3 72.8 274.7 76.3 274 80.4C273.8 80.4 305.6 80.4 305.6 80.4ZM329 109.4C326.3 113.9 323.1 118.1 319.3 121.8C312.4 128.7 302.1 133.5 289.6 133.5C266.2 133.5 249.6 118.3 249.6 92.1C250.3 73.5 259.9 48.7 291.7 48.7C295.8 48.7 309.6 48.7 319.3 59.7C330.3 70.7 330.3 86.6 331 95.6H274.5C274.5 105.3 280 114.9 292.4 114.9C305.5 114.9 309.6 106.6 313.1 101.1L330.3 110.1L329 109.4ZM238 105.2L235.9 108C231.1 113.5 225.6 113.5 224.2 113.5C211.8 113.5 207 100.4 207 90.1C207 80.4 211.1 66 223.6 66C227 66 230.5 67.4 231.9 68.8C235.3 70.9 236.7 73.6 238.1 75.7C240.9 69.5 243.6 63.3 248.4 58.5C241.4 52.2 232.3 48.8 222.9 48.8C196.7 48.8 183.6 68.8 183.6 91.6C183.6 124 207.7 133 222.9 133C232.3 133 241.4 129.6 248.4 123.3C243.7 118.5 240.3 112.6 238.7 106.1L238 105.2ZM174.5 30.7C174.5 37.6 169 43.8 162.1 43.8C155.2 43.8 149.7 38.3 149.7 30.7C149.7 23.8 155.2 18.3 162.1 18.3C169 18.3 174.5 23.9 174.5 30.7ZM150.4 51.4H173.2V130H150.4V50.7V51.4ZM118 59C122.8 54.9 128.3 51.4 140.8 50V70.7L133.2 72.1C122.2 74.2 118.7 75.5 118.7 85.9V130H95.3V50.7H118.1V59.7V59H118ZM47.6 66.6C42.9 66.5 38.5 68.9 35.9 72.8C32.5 76.9 31.1 83.8 31.1 91.4C31.1 101.7 33.9 108 36.6 111.4C39.4 114.2 43.5 115.5 46.9 115.5C58.6 114.8 64.1 102.4 64.1 90C63.4 80.3 60.7 68.6 50.3 66.6H46.9H47.6V66.6ZM29.7 59C29.7 57.6 31.1 56.9 31.8 56.2C35.9 52.1 42.8 49.3 51.8 49.3C71.1 49.3 86.3 63.8 86.3 90.7C86.3 106.6 78.7 132.1 51.8 132.1C42.8 132.1 38 128.7 32.5 125.2V157.6H9V51.4H29.7V58.3V59Z" fill="white"/>
<path d="M591.8 25.2003C598 25.0003 603.8 28.2003 607 33.5003C608.4 36.3003 609.1 39.0003 609.1 42.5003C609.1 45.3003 608.4 48.7003 607 50.8003C602.5 59.2003 592 62.3003 583.6 57.8003C580.6 56.2003 578.2 53.8003 576.6 50.8003C575.2 48.7003 574.5 46.0003 574.5 42.5003C574.5 39.7003 575.2 36.3003 576.6 34.2003C579.6 28.7003 585.4 25.2003 591.8 25.2003ZM591.8 55.6003C593.9 55.6003 596.6 54.9003 598.7 53.5003C602.4 51.0003 604.7 46.9003 604.9 42.5003C604.9 37.8003 602.2 33.5003 598 31.5003C596.6 30.1003 594.6 29.4003 591.8 29.4003C587.1 29.4003 582.8 32.1003 580.8 36.3003C579.4 37.7003 578.7 40.4003 578.7 43.2003C579 50.1003 584.8 55.6003 591.8 55.6003ZM598.7 39.7003V42.5003C598 43.9003 597.3 44.6003 595.9 44.6003L599.3 50.1003H595.2L593.1 45.3003H588.3V50.1003H584.9V34.2003H591.8C593.9 34.2003 595.2 34.2003 596.6 35.6003C598 36.3003 598.7 37.6003 598.7 39.7003ZM589 42.5003H592.4L594.5 41.8003V39.0003V36.9003H588.3V41.7003L589 42.5003Z" fill="white"/>
</svg>
