<svg width="68" height="70" viewBox="0 0 68 70" fill="none" xmlns="http://www.w3.org/2000/svg">
<path d="M38.7062 29.3835C46.8202 29.3835 53.3979 22.8058 53.3979 14.6917C53.3979 6.57771 46.8202 0 38.7062 0C30.5922 0 24.0145 6.57771 24.0145 14.6917C24.0145 22.8058 30.5922 29.3835 38.7062 29.3835Z" fill="#2F2F2F"/>
<path d="M37.7726 21.18C37.1606 21.108 36.6086 20.958 36.1166 20.73C35.6366 20.502 35.2166 20.22 34.8566 19.884C34.4966 19.536 34.2026 19.14 33.9746 18.696C33.7466 18.252 33.5906 17.778 33.5066 17.274L35.2166 16.392C35.5046 18.12 36.3566 19.14 37.7726 19.452V15.204C37.2326 15.084 36.7346 14.916 36.2786 14.7C35.8346 14.484 35.4506 14.226 35.1266 13.926C34.8026 13.614 34.5506 13.26 34.3706 12.864C34.1906 12.468 34.1006 12.018 34.1006 11.514C34.1006 11.058 34.1906 10.638 34.3706 10.254C34.5506 9.87 34.8026 9.534 35.1266 9.246C35.4506 8.958 35.8346 8.724 36.2786 8.544C36.7346 8.364 37.2326 8.244 37.7726 8.184V6.6H39.3746V8.22C40.2746 8.352 41.0426 8.682 41.6786 9.21C42.3146 9.726 42.7886 10.416 43.1006 11.28L41.5526 12.18C41.3486 11.592 41.0666 11.106 40.7066 10.722C40.3466 10.326 39.9026 10.056 39.3746 9.912V13.782C40.6946 14.046 41.6786 14.466 42.3266 15.042C42.9866 15.606 43.3166 16.41 43.3166 17.454C43.3166 17.922 43.2266 18.372 43.0466 18.804C42.8666 19.224 42.6026 19.602 42.2546 19.938C41.9186 20.274 41.5046 20.556 41.0126 20.784C40.5326 21.012 39.9866 21.156 39.3746 21.216V22.8H37.7726V21.18ZM41.3726 17.526C41.3726 16.998 41.2046 16.584 40.8686 16.284C40.5446 15.984 40.0466 15.738 39.3746 15.546V19.488C40.0106 19.392 40.5026 19.164 40.8506 18.804C41.1986 18.432 41.3726 18.006 41.3726 17.526ZM35.9366 11.478C35.9366 12.306 36.5486 12.936 37.7726 13.368V9.876C37.2446 9.96 36.8066 10.134 36.4586 10.398C36.1106 10.662 35.9366 11.022 35.9366 11.478Z" fill="white"/>
<line x1="38.5045" y1="33.5" x2="38.5045" y2="50.5" stroke="#C6C6C6" stroke-width="3" stroke-linecap="round"/>
<path d="M32.9279 50.7195C31.6102 47.5365 29.6593 44.5417 27.0581 41.9576C21.753 36.6354 14.788 34 7.84003 34C7.25819 34 6.67634 34.0171 6.09449 34.0513C2.91145 34.2567 0.293142 36.8579 0.0706716 40.0409C-0.476949 47.6392 2.15847 55.4085 7.95983 61.227C13.1451 66.4123 19.9048 69.0306 26.6987 69.1504C26.8527 69.1504 27.0239 69.1675 27.1779 69.1675C28.6496 69.1675 30.1213 69.0306 31.576 68.791C31.6957 68.7739 31.8155 68.7568 31.9353 68.7397C32.0209 68.7225 32.1065 68.7054 32.192 68.7054L32.0893 68.6028L29.6764 66.1898L28.9234 65.4368L11.5022 47.9985C10.8348 47.3311 10.8348 46.253 11.5022 45.5856C12.1697 44.9182 13.2478 44.9182 13.9152 45.5856L28.9063 60.5767L32.0893 63.7597L34.5023 66.1727L34.5365 66.2069C34.5365 66.1898 34.5365 66.1556 34.5536 66.1385C34.8788 64.3929 35.0157 62.6303 34.9986 60.8505C34.9644 57.3937 34.2627 53.9539 32.9279 50.7195Z" fill="#0066FF"/>
<path d="M54.2074 68.359C56.6588 67.3441 58.9652 65.8417 60.9553 63.8384C65.0541 59.7528 67.0837 54.3887 67.0837 49.0379C67.0837 48.5898 67.0706 48.1417 67.0442 47.6936C66.886 45.2422 64.8828 43.2258 62.4314 43.0544C56.5797 42.6327 50.5963 44.6623 46.1153 49.1301C42.1219 53.1235 40.1054 58.3294 40.0132 63.5616C40.0132 63.6803 40 63.812 40 63.9307C40 65.0641 40.1054 66.1975 40.2899 67.3178C40.3031 67.41 40.3163 67.5023 40.3295 67.5945C40.3427 67.6604 40.3558 67.7263 40.3558 67.7922L40.4349 67.7132L42.2932 65.8549L42.8731 65.275L56.303 51.8583C56.817 51.3443 57.6473 51.3443 58.1613 51.8583C58.6753 52.3723 58.6753 53.2026 58.1613 53.7166L46.6161 65.2618L44.1647 67.7132L42.3064 69.5715L42.28 69.5978C42.2932 69.5978 42.3196 69.5978 42.3328 69.611C43.6771 69.8614 45.0345 69.9668 46.4052 69.9537C49.0674 69.9273 51.7165 69.3869 54.2074 68.359Z" fill="#0066FF"/>
</svg>
