<svg width="39" height="51" viewBox="0 0 39 51" fill="none" xmlns="http://www.w3.org/2000/svg">
<g clip-path="url(#clip0)">
<path d="M5.14893 21.6278V14.4245C5.14893 12.4347 5.50663 10.5657 6.22651 8.81744C6.9464 7.06915 7.93903 5.53996 9.20888 4.22987C10.4787 2.92424 11.9766 1.89137 13.6981 1.13571C15.424 0.380062 17.2886 0 19.2962 0C21.3038 0 23.1683 0.380062 24.8898 1.13124C26.6112 1.8869 28.1091 2.91977 29.379 4.22539C30.6488 5.53549 31.6459 7.06468 32.3614 8.81296C33.0812 10.5612 33.4389 12.4303 33.4389 14.42V21.6233L5.14893 21.6278ZM8.68574 21.6278H29.9066V14.4245C29.9066 12.931 29.6383 11.5271 29.1062 10.2125C28.5697 8.89792 27.8274 7.73985 26.8795 6.74275C25.9316 5.75011 24.8048 4.96316 23.5082 4.3953C22.207 3.82298 20.803 3.53681 19.2917 3.53681C17.7804 3.53681 16.3764 3.82298 15.0752 4.3953C13.7786 4.96763 12.6518 5.75011 11.7039 6.74275C10.756 7.73538 10.0137 8.89345 9.47716 10.2125C8.94507 11.5315 8.67679 12.9355 8.67679 14.4245V21.6278H8.68574Z" fill="#2F2F2F"/>
</g>
<path d="M35.4972 50.0189H3.48804C1.56376 50.0189 0 48.6792 0 47.0223V26.5349C0 24.8817 1.55941 23.5383 3.48804 23.5383H35.4972C37.4215 23.5383 38.9853 24.878 38.9853 26.5349V47.0223C38.9853 48.6792 37.4259 50.0189 35.4972 50.0189Z" fill="#C6C6C6"/>
<circle cx="19.4926" cy="37.1463" r="6.25236" fill="white"/>
<circle cx="19.4927" cy="37.1464" r="4.04564" fill="#0066FF"/>
<defs>
<clipPath id="clip0">
<rect width="28.2945" height="21.6278" fill="white" transform="translate(5.14893)"/>
</clipPath>
</defs>
</svg>
