<svg width="77" height="35" viewBox="0 0 77 35" fill="none" xmlns="http://www.w3.org/2000/svg">
<path d="M37.7158 20.9693C38.0765 21.2644 38.5933 21.2713 38.9617 20.9858C40.3529 19.9075 41.5599 19.6473 42.4926 19.7791C43.4322 19.9118 44.2391 20.462 44.7976 21.2821C45.9277 22.9415 45.9396 25.5508 43.9081 27.3448L38.1101 32.4651L32.3861 26.6638C30.5256 24.7781 30.7187 22.3568 31.9013 20.9058C32.4902 20.1832 33.3144 19.7122 34.2655 19.642C35.2123 19.5721 36.3997 19.8923 37.7158 20.9693Z" fill="#D692F6" stroke="#D692F6" stroke-width="2" stroke-linejoin="round"/>
<path d="M31.9209 12.6953L34.0638 16.4453" stroke="#D692F6" stroke-width="2" stroke-linecap="round"/>
<path d="M44.7783 12.6953L42.6355 16.4453" stroke="#D692F6" stroke-width="2" stroke-linecap="round"/>
<path d="M38.3496 15.3736V11.0879" stroke="#D692F6" stroke-width="2" stroke-linecap="round"/>
<path d="M12.8679 18.1884C17.1024 18.1884 20.5236 14.3278 20.5236 9.57942C20.5236 6.09549 18.6814 3.10927 16.0258 1.75067C15.0689 1.25296 14.0043 0.957031 12.8679 0.957031C11.7315 0.957031 10.6668 1.25296 9.69792 1.75067C7.05431 3.10927 5.2002 6.08204 5.2002 9.56597C5.2002 14.3278 8.6333 18.1884 12.8679 18.1884Z" fill="#D692F6"/>
<path d="M12.5065 20.4277C5.59604 20.4277 0 26.7206 0 34.4916H25C25 26.7206 19.404 20.4277 12.5065 20.4277Z" fill="#D692F6"/>
<path d="M64.8679 18.1884C69.1024 18.1884 72.5236 14.3278 72.5236 9.57942C72.5236 6.09549 70.6814 3.10927 68.0258 1.75067C67.0689 1.25296 66.0043 0.957031 64.8679 0.957031C63.7315 0.957031 62.6668 1.25296 61.6979 1.75067C59.0543 3.10927 57.2002 6.08204 57.2002 9.56597C57.2002 14.3278 60.6333 18.1884 64.8679 18.1884Z" fill="#D692F6"/>
<path d="M64.5065 20.4277C57.596 20.4277 52 26.7206 52 34.4916H77C77 26.7206 71.404 20.4277 64.5065 20.4277Z" fill="#D692F6"/>
</svg>
