<svg width="199" height="22" viewBox="0 0 199 22" fill="none" xmlns="http://www.w3.org/2000/svg">
<path d="M194.418 0.986321H193.831V0.56454H195.582V0.986321H194.998V2.39539H194.419L194.418 0.986321Z" fill="white"/>
<path d="M197.446 1.77822C197.446 1.48795 197.452 1.13568 197.465 0.921504H197.459C197.373 1.27565 197.26 1.74816 197.082 2.39539H196.606C196.466 1.79325 196.35 1.28786 196.263 0.917747H196.259C196.27 1.13099 196.29 1.48419 196.29 1.79889V2.39539H195.773V0.56454H196.601C196.716 0.976927 196.829 1.42689 196.879 1.73501H196.883C196.951 1.41092 197.064 0.983503 197.184 0.56454H198.01V2.39539H197.445L197.446 1.77822Z" fill="white"/>
<path d="M33.6828 5.84349H39.0478V8.84856H39.2077C39.7678 6.62505 41.0496 5.63776 42.6915 5.63776C43.172 5.63776 43.6526 5.72043 44.093 5.85382V10.701C43.5421 10.5056 42.622 10.4126 42.051 10.4126C40.4192 10.4126 39.2086 11.6066 39.2086 13.4177V21.6514H33.6828V5.84349Z" fill="white"/>
<path d="M55.4424 5.84372H60.9682V21.6516H55.7229V18.6465H55.563C54.8924 20.6634 53.1309 21.8573 50.8385 21.8573C47.6051 21.8573 45.4836 19.3877 45.4735 15.9289V5.84372H50.9993V14.7359C51.0094 16.3 51.8097 17.2469 53.2012 17.2469C54.5726 17.2469 55.4534 16.3 55.4433 14.7359L55.4424 5.84372Z" fill="white"/>
<path d="M62.8686 13.7476C62.8686 8.02585 65.8316 5.63794 68.875 5.63794C71.1573 5.63794 72.599 6.99629 73.1993 8.60169H73.2797V0.573747H78.8055V21.6516H73.3199V19.0579H73.2002C72.5598 20.6633 71.0778 21.8573 68.9161 21.8573C65.6306 21.8573 62.8686 19.2223 62.8686 13.7476ZM73.3985 13.7476C73.3985 11.401 72.4775 10.0014 70.9563 10.0014C69.4351 10.0014 68.5543 11.401 68.5543 13.7476C68.5543 16.0942 69.4351 17.4939 70.9563 17.4939C72.4775 17.4939 73.3985 16.0529 73.3985 13.7476Z" fill="white"/>
<path d="M80.6246 13.7476C80.6246 8.02585 83.5876 5.63794 86.631 5.63794C88.9133 5.63794 90.355 6.99629 90.9553 8.60169H91.0357V0.573747H96.5615V21.6516H91.0759V19.0579H90.9562C90.3157 20.6633 88.8338 21.8573 86.6721 21.8573C83.3866 21.8573 80.6246 19.2223 80.6246 13.7476ZM91.1545 13.7476C91.1545 11.401 90.2335 10.0014 88.7123 10.0014C87.191 10.0014 86.3103 11.401 86.3103 13.7476C86.3103 16.0942 87.191 17.4939 88.7123 17.4939C90.2335 17.4939 91.1545 16.0529 91.1545 13.7476Z" fill="white"/>
<path d="M98.3001 13.7888C98.3001 8.8899 101.344 5.63776 106.108 5.63776C110.752 5.63776 113.756 8.71517 113.756 13.7474V15.0644H103.746V15.3115C103.746 16.8342 104.707 17.9465 106.349 17.9465C107.48 17.9465 108.391 17.442 108.711 16.5468H113.756C113.236 19.8403 110.493 21.9398 106.229 21.9398C101.303 21.9398 98.3001 18.9037 98.3001 13.7888ZM108.67 11.9363C108.64 10.578 107.599 9.63107 106.228 9.63107C104.877 9.63107 103.776 10.5676 103.746 11.9363H108.67Z" fill="white"/>
<path d="M115.576 5.84349H120.941V8.84856H121.1C121.66 6.62505 122.942 5.63776 124.584 5.63776C125.065 5.63776 125.545 5.72043 125.986 5.85382V10.701C125.435 10.5056 124.515 10.4126 123.944 10.4126C122.312 10.4126 121.101 11.6066 121.101 13.4177V21.6514H115.576V5.84349Z" fill="white"/>
<path d="M136.785 10.1968C136.435 9.13715 135.574 8.07659 133.713 8.07659C132.011 8.07659 130.729 8.94082 130.739 10.1554C130.729 11.2254 131.46 11.8125 133.152 12.224L135.594 12.8007C138.417 13.4696 139.797 14.8486 139.797 17.0824C139.797 19.9438 137.225 21.971 133.512 21.971C130.058 21.971 127.796 20.3966 127.295 17.5972L130.188 17.1444C130.548 18.6982 131.699 19.491 133.49 19.491C135.452 19.491 136.724 18.5338 136.724 17.3088C136.724 16.3206 136.033 15.6414 134.552 15.3023L131.949 14.7161C129.067 14.0576 127.745 12.5649 127.745 10.3217C127.745 7.52235 130.208 5.6389 133.681 5.6389C137.004 5.6389 138.876 7.2443 139.497 9.70453L136.785 10.1968Z" fill="white"/>
<path d="M149.836 8.31341H146.683V17.0102C146.683 18.7903 147.553 19.12 148.525 19.12C149.005 19.12 149.375 19.027 149.575 18.9867L150.116 21.5286C149.766 21.662 149.125 21.848 148.175 21.8583C145.812 21.91 143.68 20.5207 143.691 17.649V8.31341H141.438V5.84378H143.691V2.0562H146.684V5.84378H149.837L149.836 8.31341Z" fill="white"/>
<path d="M151.996 17.1847C151.996 13.5925 154.979 12.811 157.891 12.4606C160.654 12.1309 161.775 12.1515 161.775 11.0299V10.9576C161.775 9.16713 160.784 8.12724 158.853 8.12724C156.841 8.12724 155.72 9.20752 155.279 10.3301L152.466 9.67158C153.468 6.78956 156.029 5.63694 158.812 5.63694C161.255 5.63694 164.779 6.55283 164.779 11.153V21.6506H161.856V19.489H161.736C161.165 20.6727 159.734 22 157.192 22C154.268 22.0009 151.996 20.2931 151.996 17.1847ZM161.785 15.9495V13.9119C161.355 14.3544 159.053 14.6221 158.082 14.7555C156.35 14.9922 154.928 15.5784 154.928 17.2251C154.928 18.7479 156.15 19.5304 157.841 19.5304C160.334 19.5313 161.785 17.8226 161.785 15.9495Z" fill="white"/>
<path d="M167.649 13.8189C167.649 8.99241 170.452 5.63694 174.786 5.63694C178.28 5.63694 180.811 7.75712 181.132 10.9473H178.219C177.899 9.46491 176.738 8.23057 174.836 8.23057C172.334 8.23057 170.672 10.3611 170.672 13.7466C170.672 17.1941 172.303 19.366 174.836 19.366C176.547 19.366 177.839 18.3571 178.219 16.6493H181.132C180.801 19.7267 178.45 21.9699 174.816 21.9699C170.352 21.9709 167.649 18.5844 167.649 13.8189Z" fill="white"/>
<path d="M183.924 0.573747H186.917V12.533H187.178L193.304 5.84367H196.887L190.661 12.626L197.307 21.6516H193.634L188.408 14.5095L186.917 16.0425V21.6516H183.924V0.573747Z" fill="white"/>
<path d="M16.3553 11.2107V5.6054H10.9036C10.9036 8.70066 13.3439 11.2107 16.3553 11.2107Z" fill="white"/>
<path d="M0 21.6518H8.06666C12.6441 21.6518 16.3553 17.8361 16.3553 13.1298H0V21.6518Z" fill="white"/>
<path d="M10.9036 0C10.9036 3.09526 13.3439 5.6054 16.3553 5.6054V0H10.9036Z" fill="white"/>
<path d="M5.45178 0C5.45178 3.09526 7.89216 5.6054 10.9036 5.6054L5.45178 5.60528C5.45178 8.70054 7.89215 11.2106 10.9036 11.2106L10.9036 5.6054V0H5.45178Z" fill="white"/>
<path d="M5.45178 11.2107L5.45178 5.60528L0 5.6054C0 8.70066 2.44037 11.2107 5.45178 11.2107Z" fill="white"/>
</svg>
