<svg width="602" height="774" viewBox="0 0 602 774" fill="none" xmlns="http://www.w3.org/2000/svg">
<path d="M599.5 400.61V201.3H400.19C400.19 311.38 489.43 400.61 599.5 400.61Z" fill="#00006F"/>
<path d="M1.57001 771.89H296.47C463.83 771.89 599.47 636.22 599.47 468.89H1.57001V771.89Z" fill="#00006F"/>
<path d="M400.19 2C400.19 112.08 489.43 201.31 599.5 201.31V2H400.19Z" fill="#00006F"/>
<path d="M200.88 2C200.88 112.08 290.12 201.31 400.19 201.31H200.88C200.88 311.39 290.12 400.62 400.19 400.62V2H200.88Z" fill="#00006F"/>
<path d="M200.88 400.61V201.3H1.57001C1.57001 311.38 90.81 400.61 200.88 400.61Z" fill="#00006F"/>
</svg>
