<svg width="13" height="13" viewBox="0 0 13 13" fill="none" xmlns="http://www.w3.org/2000/svg">
<path d="M2.71747 8.10425C2.71747 8.86776 2.12671 9.45508 1.35873 9.45508C0.590754 9.45508 0 8.86776 0 8.10425C0 7.34073 0.590754 6.75342 1.35873 6.75342H2.71747V8.10425Z" fill="#E01E5A"/>
<path d="M3.42725 8.10399C3.42725 7.34062 4.018 6.75342 4.78598 6.75342C5.55396 6.75342 6.14471 7.34062 6.14471 8.10399V11.5098C6.14471 12.2731 5.55396 12.8604 4.78598 12.8604C4.018 12.8604 3.42725 12.2731 3.42725 11.5098V8.10399Z" fill="#E01E5A"/>
<path d="M4.78598 2.70166C4.018 2.70166 3.42725 2.11434 3.42725 1.35083C3.42725 0.587317 4.018 0 4.78598 0C5.55396 0 6.14471 0.587317 6.14471 1.35083V2.70166H4.78598Z" fill="#36C5F0"/>
<path d="M4.78512 3.34717C5.5531 3.34717 6.14386 3.93449 6.14386 4.698C6.14386 5.46151 5.5531 6.04883 4.78512 6.04883H1.35874C0.590756 6.04883 0 5.46151 0 4.698C0 3.93449 0.590756 3.34717 1.35874 3.34717H4.78512Z" fill="#36C5F0"/>
<path d="M10.2823 4.75684C10.2823 3.99319 10.8731 3.40576 11.6411 3.40576C12.4091 3.40576 12.9998 3.99319 12.9998 4.75684C12.9998 5.52049 12.4091 6.10791 11.6411 6.10791H10.2823V4.75684Z" fill="#2EB67D"/>
<path d="M9.57245 4.75712C9.57245 5.52061 8.98169 6.10791 8.21371 6.10791C7.44573 6.10791 6.85498 5.52061 6.85498 4.75712V1.35079C6.85498 0.587299 7.44573 0 8.21371 0C8.98169 0 9.57245 0.587299 9.57245 1.35079V4.75712Z" fill="#2EB67D"/>
<path d="M8.21371 10.1606C8.98169 10.1606 9.57245 10.7476 9.57245 11.5107C9.57245 12.2738 8.98169 12.8608 8.21371 12.8608C7.44573 12.8608 6.85498 12.2738 6.85498 11.5107V10.1606H8.21371Z" fill="#ECB22E"/>
<path d="M8.21372 9.51367C7.44574 9.51367 6.85498 8.92657 6.85498 8.16333C6.85498 7.40009 7.44574 6.81299 8.21372 6.81299H11.6401C12.4081 6.81299 12.9988 7.40009 12.9988 8.16333C12.9988 8.92657 12.4081 9.51367 11.6401 9.51367H8.21372Z" fill="#ECB22E"/>
</svg>
