<svg width="169" height="25" viewBox="0 0 169 25" fill="none" xmlns="http://www.w3.org/2000/svg">
<path d="M76.2444 4.04773C74.7429 4.0513 73.2834 4.5439 72.0868 5.45098C70.8903 6.35806 70.0218 7.63024 69.6128 9.07498C69.4341 9.65593 69.3355 10.2585 69.3196 10.8661V13.9891C69.3357 14.5815 69.4294 15.1693 69.5982 15.7374C69.9903 17.1919 70.8508 18.4766 72.0466 19.3927C73.2423 20.3088 74.7067 20.8053 76.2131 20.8053C77.7195 20.8053 79.1838 20.3088 80.3796 19.3927C81.5753 18.4766 82.4359 17.1919 82.828 15.7374C82.9854 15.1679 83.066 14.58 83.0679 13.9891V10.8661C83.0681 10.2607 82.9856 9.65809 82.8228 9.07498C82.4238 7.63367 81.5646 6.36231 80.376 5.45469C79.1874 4.54708 77.7347 4.05299 76.2392 4.04773H76.2444ZM78.8368 13.9891C78.8366 14.5951 78.6165 15.1804 78.2172 15.6363C77.9747 15.9259 77.6723 16.1596 77.3308 16.3213C76.9894 16.483 76.6169 16.5689 76.2392 16.573C75.8516 16.5689 75.4693 16.4835 75.1168 16.3221C74.7644 16.1607 74.4498 15.9271 74.1935 15.6363C73.7778 15.186 73.5375 14.6015 73.5164 13.9891V11.0058C73.5395 10.3108 73.8366 9.65307 74.3427 9.17611C74.8432 8.69009 75.5132 8.41806 76.2109 8.41765C76.8942 8.42533 77.5481 8.69713 78.0355 9.17611C78.2847 9.41146 78.4834 9.69504 78.6195 10.0096C78.7556 10.3241 78.8263 10.6631 78.8274 11.0058C78.8274 11.5629 78.8368 13.4355 78.8368 13.9883" fill="white"/>
<path d="M140.062 4.04773C138.561 4.05143 137.102 4.54417 135.907 5.45132C134.711 6.35846 133.843 7.63058 133.436 9.07498C133.26 9.65638 133.165 10.259 133.152 10.8661V13.9891C133.164 14.5816 133.256 15.1697 133.426 15.7374C133.818 17.1913 134.678 18.4754 135.873 19.3911C137.069 20.3068 138.533 20.8031 140.038 20.8031C141.544 20.8031 143.008 20.3068 144.203 19.3911C145.399 18.4754 146.259 17.1913 146.651 15.7374C146.807 15.1677 146.886 14.5798 146.886 13.9891V10.8661C146.887 10.2607 146.804 9.6581 146.641 9.07498C146.242 7.63367 145.383 6.36231 144.195 5.45469C143.006 4.54708 141.553 4.05299 140.058 4.04773H140.062ZM142.655 13.9891C142.655 14.5951 142.435 15.1804 142.036 15.6363C141.793 15.926 141.49 16.1597 141.149 16.3214C140.807 16.4831 140.435 16.5689 140.057 16.573C139.67 16.5691 139.288 16.4837 138.937 16.3223C138.585 16.1609 138.271 15.9271 138.016 15.6363C137.602 15.1856 137.364 14.601 137.344 13.9891V11.0058C137.354 10.6618 137.431 10.323 137.572 10.009C137.713 9.69496 137.915 9.41191 138.165 9.17611C138.666 8.6897 139.336 8.41761 140.034 8.41765C140.717 8.42542 141.371 8.6972 141.858 9.17611C142.108 9.41138 142.306 9.69493 142.443 10.0095C142.579 10.324 142.65 10.663 142.651 11.0058C142.651 11.5629 142.661 13.4355 142.661 13.9883" fill="white"/>
<path d="M67.3125 4.42737H63.2983V11.8748L59.4906 5.23382C59.3482 5.00403 59.1535 4.81119 58.9223 4.67103C58.6912 4.53087 58.4301 4.44738 58.1605 4.42737H54.1557V20.3936H56.629C56.8344 20.3921 57.0372 20.3488 57.2252 20.2663C57.4133 20.1838 57.5826 20.0639 57.7228 19.9139C57.863 19.7639 57.9711 19.5868 58.0406 19.3936C58.1101 19.2004 58.1395 18.9951 58.127 18.7901V11.448L63.3231 20.3936H65.8154C66.0185 20.3938 66.2196 20.3528 66.4065 20.2731C66.5933 20.1934 66.7622 20.0767 66.9027 19.9299C67.0431 19.7832 67.1524 19.6095 67.2239 19.4193C67.2954 19.2292 67.3276 19.0265 67.3186 18.8235L67.3125 4.42737Z" fill="white"/>
<path d="M126.195 16.4256V4.42737H122.223V20.3936H129.844C130.051 20.3876 130.254 20.3396 130.442 20.2526C130.63 20.1655 130.798 20.0412 130.937 19.8871C131.075 19.7331 131.18 19.5525 131.247 19.3564C131.313 19.1603 131.339 18.9528 131.323 18.7464V16.4256H126.195Z" fill="white"/>
<path d="M114.583 4.42737H106.881V20.3936H109.354C109.56 20.3921 109.763 20.3488 109.951 20.2663C110.139 20.1838 110.308 20.0639 110.448 19.9139C110.588 19.7639 110.696 19.5868 110.766 19.3936C110.835 19.2004 110.865 18.9951 110.852 18.7901V15.7117H114.584C116.068 15.6934 117.486 15.0909 118.529 14.0348C119.572 12.9787 120.157 11.554 120.157 10.0695C120.157 8.58507 119.572 7.1604 118.529 6.10428C117.486 5.04816 116.068 4.44566 114.584 4.42737H114.583ZM114.593 11.6546H110.852V8.48362H114.573C114.994 8.48112 115.398 8.64577 115.697 8.94133C115.996 9.2369 116.166 9.63918 116.168 10.0597C116.171 10.4802 116.006 10.8844 115.711 11.1835C115.415 11.4826 115.013 11.6521 114.592 11.6546" fill="white"/>
<path d="M90.2806 20.3936C90.648 20.4091 91.0098 20.2998 91.3072 20.0835C91.6046 19.8672 91.82 19.5566 91.9184 19.2023C91.9715 19.0678 93.095 15.2746 94.1705 11.6152L96.3131 18.8038L96.8033 20.3936H98.873C99.1785 20.3873 99.4756 20.2929 99.7286 20.1217C99.9816 19.9505 100.18 19.7098 100.299 19.4286C100.362 19.305 100.415 19.1766 100.458 19.0446C100.543 18.7755 104.784 4.42737 104.784 4.42737H100.53L98.417 11.664C97.5429 8.75015 96.703 5.94 96.6071 5.61348C96.5283 5.28616 96.345 4.99339 96.0851 4.7794C95.8252 4.56541 95.5027 4.44184 95.1664 4.42737H92.0263L89.9232 11.6263C89.0448 8.73044 88.1895 5.94086 88.0986 5.6092C88.0118 5.26588 87.8112 4.96215 87.5294 4.74764C87.2477 4.53314 86.9014 4.42053 86.5474 4.42822H83.5341L88.3025 20.3901L90.2806 20.3936Z" fill="white"/>
<path d="M154.089 20.3936C154.456 20.4091 154.818 20.2998 155.115 20.0835C155.413 19.8672 155.628 19.5566 155.726 19.2023C155.78 19.0678 156.903 15.2746 157.979 11.6152L160.121 18.8038L160.611 20.3936H162.68C162.986 20.3873 163.283 20.2929 163.536 20.1217C163.789 19.9505 163.987 19.7098 164.106 19.4286C164.169 19.305 164.222 19.1766 164.265 19.0446C164.351 18.7755 168.592 4.42737 168.592 4.42737H164.338L162.225 11.664C161.351 8.75015 160.511 5.94 160.415 5.61348C160.337 5.28616 160.153 4.99339 159.893 4.7794C159.633 4.56541 159.311 4.44184 158.975 4.42737H155.835L153.731 11.6263C152.853 8.73044 151.998 5.94086 151.907 5.6092C151.82 5.26588 151.619 4.96215 151.338 4.74764C151.056 4.53314 150.71 4.42053 150.356 4.42822H147.343L152.112 20.3901L154.089 20.3936Z" fill="white"/>
<path d="M51.414 13.1912C50.8922 12.5017 50.2007 11.959 49.4069 11.616C48.4215 11.1838 47.4015 10.8352 46.3577 10.5739C45.5924 10.3712 44.8391 10.126 44.1012 9.83942C43.6015 9.63288 43.1884 9.49662 43.1884 9.09982C43.1702 8.96998 43.1916 8.83766 43.2498 8.72021C43.3081 8.60275 43.4005 8.50566 43.5149 8.44163C44.0256 8.17805 44.5979 8.05696 45.1715 8.09111C45.7281 8.06823 46.2797 8.2047 46.7613 8.48448C46.9721 8.60275 47.1491 8.77298 47.2755 8.97898H51.6789V8.74244C51.6199 7.91246 51.3156 7.1187 50.8047 6.46192C50.2159 5.69381 49.4406 5.08878 48.5525 4.70419C47.4886 4.23441 46.3342 4.00499 45.1715 4.03229C44.0575 4.00552 42.9496 4.20494 41.9149 4.61848C41.0067 4.97993 40.2146 5.5827 39.6241 6.36166C39.0789 7.11022 38.7892 8.01441 38.7979 8.94041C38.7713 9.81005 39.0053 10.6678 39.4698 11.4035C39.949 12.1012 40.603 12.6609 41.3664 13.0267C42.281 13.4736 43.2401 13.8229 44.2279 14.0688C45.3369 14.3807 46.1725 14.6404 46.7133 14.847C47.0417 14.9506 47.3445 15.1223 47.602 15.3509C47.722 15.4709 47.722 15.5043 47.722 15.7203C47.7339 15.8738 47.7023 16.0275 47.631 16.1639C47.5596 16.3003 47.4513 16.4139 47.3184 16.4916C46.6983 16.7678 46.0275 16.9117 45.3488 16.9142C44.67 16.9167 43.9982 16.7777 43.3761 16.5061C43.1139 16.3493 42.9036 16.119 42.7711 15.8437H38.3771C38.372 15.8786 38.3703 15.9139 38.372 15.9491V15.9825C38.4151 16.8819 38.7455 17.7437 39.3147 18.4413C39.963 19.2284 40.808 19.8298 41.764 20.1845C42.8836 20.6181 44.0776 20.8269 45.2778 20.7989C46.9836 20.8752 48.6721 20.4298 50.1183 19.522C50.7513 19.1006 51.2677 18.5262 51.6194 17.852C51.9712 17.1778 52.147 16.4257 52.1305 15.6654C52.1596 14.786 51.9091 13.92 51.4149 13.1921" fill="white"/>
<path d="M27.7784 11.2895L21.9541 1.20073C21.7262 0.84889 21.4174 0.556753 21.0534 0.348755C20.6895 0.140758 20.281 0.0229502 19.8622 0.00518847H15.5197C15.4799 -0.000590167 15.4395 -0.000590167 15.3997 0.00518847H8.20675C7.78786 0.0227633 7.37937 0.140974 7.01582 0.349819C6.65228 0.558665 6.34439 0.852001 6.1182 1.20501L0.292212 11.2895C0.100497 11.6624 0.000488281 12.0756 0.000488281 12.4949C0.000488281 12.9142 0.100497 13.3274 0.292212 13.7003L6.11992 23.7942C6.34605 24.1473 6.65357 24.441 7.01668 24.6507C7.3798 24.8603 7.7879 24.9799 8.20675 24.9992H19.8622C20.2813 24.9801 20.6898 24.8607 21.0532 24.6511C21.4166 24.4414 21.7244 24.1475 21.9507 23.7942L27.7784 13.7003C27.9701 13.3274 28.0701 12.9142 28.0701 12.4949C28.0701 12.0756 27.9701 11.6624 27.7784 11.2895ZM21.2291 1.62066L23.3562 5.30583L19.6299 11.6829L17.1908 7.50579C17.1541 7.44296 17.1015 7.39084 17.0384 7.35461C16.9752 7.31838 16.9037 7.29929 16.8309 7.29925H11.9896L15.6971 0.840779H19.8622C20.1335 0.859058 20.3971 0.938573 20.6332 1.07335C20.8694 1.20813 21.0719 1.39466 21.2257 1.61895L21.2291 1.62066ZM14.3001 12.1105L11.9776 8.13398H16.5926L18.9169 12.1097L14.3001 12.1105ZM13.5417 12.5142L11.2457 16.447L8.94121 12.4953L11.2363 8.56249L13.5417 12.5142ZM14.2761 12.9513H18.8672L16.5866 16.8601H11.9776L14.2761 12.9513ZM6.84752 1.62066C7.0009 1.39757 7.20293 1.21223 7.43839 1.07861C7.67385 0.944998 7.93657 0.866605 8.20675 0.849349H14.7278L11.0246 7.29925H3.56858L6.84752 1.62066ZM1.01982 11.7094L3.08265 8.13398H10.5164L8.09105 12.2828C8.05346 12.3468 8.03364 12.4198 8.03364 12.494C8.03364 12.5683 8.05346 12.6412 8.09105 12.7053L10.5164 16.8593H3.08265L1.01725 13.2872C0.898679 13.0416 0.837098 12.7724 0.837098 12.4996C0.837098 12.2269 0.898679 11.9576 1.01725 11.712L1.01982 11.7094ZM8.20675 24.1602C7.93465 24.1408 7.6705 24.0598 7.43429 23.9234C7.19807 23.787 6.99596 23.5986 6.84324 23.3726L3.56258 17.6948H10.9963L14.7364 24.1602H8.20675ZM21.2248 23.3726C21.0722 23.5985 20.8702 23.7868 20.6341 23.9232C20.3981 24.0597 20.1341 24.1407 19.8622 24.1602H15.7065L11.9656 17.6923H16.8249C16.8977 17.6922 16.9692 17.6731 17.0324 17.6369C17.0955 17.6007 17.1481 17.5486 17.1848 17.4857L19.6051 13.3446L23.3262 19.7363L21.2248 23.3726ZM27.0525 13.2786L23.8113 18.8972L20.1038 12.5253L23.8413 6.13713L27.0585 11.7077C27.1771 11.9534 27.2387 12.2226 27.2387 12.4953C27.2387 12.7681 27.1771 13.0373 27.0585 13.2829" fill="white"/>
</svg>
