<svg width="59" height="60" viewBox="0 0 59 60" fill="none" xmlns="http://www.w3.org/2000/svg">
<path d="M26.5132 11.5995C25.598 11.5995 24.8561 10.8577 24.8561 9.94244V0H4.97122C2.22569 0 0 2.22569 0 4.97122V41.4269C0 44.1724 2.22569 46.3981 4.97122 46.3981H31.4844C34.23 46.3981 36.4557 44.1724 36.4557 41.4269V11.5995H26.5132Z" fill="#4E3B97"/>
<path d="M28.1709 0.971069V8.28537H35.4853L28.1709 0.971069Z" fill="#020202"/>
<rect x="4.87109" y="18.2783" width="14.06" height="4.21801" rx="2.109" fill="white"/>
<rect x="4.87109" y="25.3085" width="9.84202" height="4.21801" rx="2.109" fill="white"/>
<circle cx="39.8736" cy="40.6329" r="14.8101" fill="white"/>
<path d="M55.7948 59.9998C55.0538 59.8632 54.5175 59.404 54.0034 58.8845C51.4219 56.2888 48.8293 53.7066 46.2478 51.1109C46.0631 50.9251 45.9363 50.8982 45.7026 51.0281C43.5929 52.2061 41.323 52.6764 38.9351 52.3808C35.5926 51.9664 32.902 50.3786 30.9459 47.606C29.2568 45.2142 28.6003 42.5289 28.9542 39.6287C29.3058 36.7486 30.5898 34.3321 32.7685 32.4128C34.3997 30.975 36.2891 30.0545 38.4322 29.7567C42.8385 29.143 46.477 30.601 49.2432 34.0992C50.89 36.182 51.6289 38.6276 51.5777 41.286C51.5354 43.5233 50.8678 45.5814 49.6238 47.4425C49.5859 47.4985 49.5526 47.559 49.448 47.7001C49.5481 47.7628 49.6661 47.8098 49.7484 47.8927C52.3966 50.5331 55.0427 53.1736 57.6864 55.8185C58.5588 56.6897 58.7235 57.8252 58.1204 58.8486C57.8133 59.3705 57.3593 59.7198 56.7762 59.89C56.665 59.9236 56.5537 59.9639 56.4424 59.9998C56.2288 59.9998 56.0107 59.9998 55.7948 59.9998ZM40.2192 33.6781C36.1867 33.6647 32.9154 36.9412 32.8887 41.0194C32.8597 45.0731 36.1534 48.4055 40.2014 48.4167C44.2249 48.4302 47.5096 45.138 47.5341 41.0665C47.5586 37.0061 44.2783 33.6893 40.2192 33.6781Z" fill="#00FFFF"/>
</svg>
