<svg width="85" height="55" viewBox="0 0 85 55" fill="none" xmlns="http://www.w3.org/2000/svg">
<path d="M84.8142 53.0617C84.6814 52.3159 84.4956 51.7716 84.2568 51.429L75.2742 39.2407C74.8972 38.7292 74.2996 38.4272 73.6642 38.4272H11.7958C11.1603 38.4272 10.5627 38.7292 10.1858 39.2407L1.20317 51.429C0.964281 51.7716 0.751936 52.3159 0.645763 53.0617C0.467149 54.0655 1.28646 54.8961 2.306 54.8961H83.1539C84.1735 54.8961 84.9928 54.0655 84.8142 53.0617Z" fill="#4E3B97"/>
<rect x="10.3408" width="64.7774" height="35.1335" rx="4.39169" fill="#7F66C8"/>
<rect x="15.8311" y="4.39172" width="53.7982" height="26.3501" rx="2.19584" fill="white"/>
<line x1="42.2797" y1="11.5282" x2="42.2797" y2="24.6377" stroke="#00FFFF" stroke-width="3.29377" stroke-linecap="round" stroke-linejoin="round"/>
<line x1="48.8287" y1="18.0894" x2="35.7192" y2="18.0894" stroke="#00FFFF" stroke-width="3.29377" stroke-linecap="round" stroke-linejoin="round"/>
</svg>
