<svg width="74" height="55" viewBox="0 0 74 55" fill="none" xmlns="http://www.w3.org/2000/svg">
<path d="M60.4262 23.1206L54.7642 21.7311C54.4522 20.7386 54.0552 19.7744 53.5732 18.8387L56.4656 14.0179C56.8059 13.4508 56.7208 12.7419 56.2671 12.2881L52.2404 8.26141C51.7867 7.8077 51.0777 7.72263 50.5106 8.06291L45.6899 10.9553C44.7541 10.4733 43.7899 10.0763 42.7974 9.76435L41.4363 4.10235C41.2661 3.4785 40.699 3.02478 40.0468 3.02478H34.3753C33.7231 3.02478 33.156 3.4785 32.9858 4.10235L31.6247 9.76435C30.6322 10.0763 29.668 10.4733 28.7322 10.9553L23.9115 8.06291C23.3444 7.72263 22.6354 7.8077 22.1817 8.26141L18.155 12.2881C17.7013 12.7419 17.6162 13.4508 17.9565 14.0179L20.8489 18.8387C20.3669 19.7744 19.9699 20.7386 19.6579 21.7311L14.185 23.1206C13.5611 23.2624 13.1074 23.8295 13.1074 24.4817V30.1532C13.1074 30.8054 13.5611 31.3725 14.185 31.5143L19.6579 32.9038C19.9699 33.8963 20.3669 34.8605 20.8489 35.7963L17.9565 40.617C17.6162 41.1841 17.7013 41.8931 18.155 42.3468L22.1817 46.3735C22.6354 46.8272 23.3444 46.9123 23.9115 46.572L28.7322 43.6796C29.668 44.1617 30.6322 44.5587 31.6247 44.8706L32.9858 50.3435C33.156 50.9674 33.7231 51.4211 34.3753 51.4211H40.0468C40.699 51.4211 41.2661 50.9674 41.4363 50.3435L42.7974 44.8706C43.7899 44.5587 44.7541 44.1617 45.6899 43.6796L50.5106 46.572C51.0777 46.9123 51.7867 46.8272 52.2404 46.3735L56.2671 42.3468C56.7208 41.8931 56.8059 41.1841 56.4656 40.617L53.5732 35.7963C54.0552 34.8605 54.4522 33.8963 54.7642 32.9038L60.4262 31.5143C61.05 31.3725 61.5037 30.8054 61.5037 30.1532V24.4817C61.5037 23.8295 61.05 23.2624 60.4262 23.1206ZM37.2111 34.4068C33.2978 34.4068 30.1218 31.2308 30.1218 27.3175C30.1218 23.4042 33.2978 20.2282 37.2111 20.2282C41.1244 20.2282 44.3004 23.4042 44.3004 27.3175C44.3004 31.2308 41.1244 34.4068 37.2111 34.4068Z" fill="#00FFFF"/>
<circle cx="61" cy="4.53715" r="4.53715" fill="#4E3B97"/>
<circle cx="13.6123" cy="49.9087" r="4.53715" transform="rotate(-180 13.6123 49.9087)" fill="#4E3B97"/>
<circle cx="69.0665" cy="26.7188" r="4.53715" fill="#7F66C8"/>
<circle cx="4.53706" cy="26.7188" r="4.53715" transform="rotate(-180 4.53706 26.7188)" fill="#7F66C8"/>
<circle cx="59.9913" cy="49.9087" r="4.53715" fill="#4E3B97"/>
<circle cx="13.6123" cy="4.53719" r="4.53715" transform="rotate(-180 13.6123 4.53719)" fill="#4E3B97"/>
</svg>
