<svg width="60" height="62" viewBox="0 0 60 62" fill="none" xmlns="http://www.w3.org/2000/svg">
<path d="M34.2801 26.0232C41.4663 26.0232 47.2917 20.1977 47.2917 13.0116C47.2917 5.82549 41.4663 0 34.2801 0C27.094 0 21.2686 5.82549 21.2686 13.0116C21.2686 20.1977 27.094 26.0232 34.2801 26.0232Z" fill="#7F66C8"/>
<path d="M33.4534 18.9307C32.9114 18.8669 32.4225 18.734 31.9867 18.5321C31.5616 18.3302 31.1897 18.0804 30.8708 17.7829C30.552 17.4747 30.2916 17.1239 30.0897 16.7307C29.8878 16.3375 29.7496 15.9177 29.6752 15.4713L31.1897 14.6902C31.4447 16.2206 32.1993 17.1239 33.4534 17.4003V13.6381C32.9751 13.5318 32.5341 13.383 32.1302 13.1917C31.737 13.0004 31.3969 12.7719 31.11 12.5062C30.823 12.2299 30.5998 11.9164 30.4404 11.5657C30.281 11.215 30.2013 10.8164 30.2013 10.3701C30.2013 9.9662 30.281 9.59423 30.4404 9.25415C30.5998 8.91406 30.823 8.61649 31.11 8.36142C31.3969 8.10636 31.737 7.89912 32.1302 7.7397C32.5341 7.58029 32.9751 7.47401 33.4534 7.42087V6.01802H34.8722V7.45276C35.6692 7.56966 36.3494 7.86192 36.9127 8.32954C37.4759 8.78653 37.8957 9.39762 38.1721 10.1628L36.8011 10.9599C36.6204 10.4391 36.3707 10.0087 36.0518 9.66863C35.733 9.31791 35.3398 9.07879 34.8722 8.95126V12.3787C36.0412 12.6125 36.9127 12.9845 37.4866 13.4946C38.0711 13.9941 38.3634 14.7062 38.3634 15.6308C38.3634 16.0452 38.2836 16.4438 38.1242 16.8264C37.9648 17.1983 37.731 17.5331 37.4228 17.8307C37.1252 18.1283 36.7586 18.378 36.3228 18.5799C35.8977 18.7819 35.4142 18.9094 34.8722 18.9625V20.3654H33.4534V18.9307ZM36.6417 15.6945C36.6417 15.2269 36.4929 14.8603 36.1953 14.5946C35.9084 14.3289 35.4673 14.111 34.8722 13.941V17.4322C35.4354 17.3471 35.8712 17.1452 36.1794 16.8264C36.4876 16.4969 36.6417 16.1196 36.6417 15.6945ZM31.8273 10.3382C31.8273 11.0715 32.3693 11.6294 33.4534 12.012V8.91938C32.9857 8.99377 32.5978 9.14787 32.2896 9.38168C31.9814 9.61549 31.8273 9.93432 31.8273 10.3382Z" fill="white"/>
<line x1="34.1019" y1="29.6689" x2="34.1019" y2="44.7248" stroke="#4E3B97" stroke-width="2.65692" stroke-linecap="round"/>
<path d="M29.1623 44.9193C27.9953 42.1003 26.2675 39.448 23.9637 37.1594C19.2653 32.4459 13.0968 30.1118 6.94345 30.1118C6.42814 30.1118 5.91284 30.127 5.39753 30.1573C2.5785 30.3392 0.259619 32.6429 0.0625896 35.4619C-0.422405 42.1912 1.91163 49.0721 7.04954 54.2251C11.6418 58.8174 17.6285 61.1363 23.6455 61.2424C23.7819 61.2424 23.9334 61.2576 24.0698 61.2576C25.3732 61.2576 26.6767 61.1363 27.9649 60.9241C28.071 60.909 28.1771 60.8938 28.2832 60.8787C28.359 60.8635 28.4348 60.8484 28.5106 60.8484L28.4196 60.7574L26.2826 58.6204L25.6157 57.9535L10.1869 42.5095C9.59577 41.9184 9.59577 40.9636 10.1869 40.3725C10.7779 39.7814 11.7328 39.7814 12.3239 40.3725L25.6006 53.6492L28.4196 56.4682L30.5566 58.6052L30.5869 58.6356C30.5869 58.6204 30.5869 58.5901 30.6021 58.5749C30.8901 57.029 31.0113 55.4679 30.9962 53.8917C30.9658 50.8302 30.3444 47.7838 29.1623 44.9193Z" fill="#00FFFF"/>
<path d="M48.0083 60.5414C50.1794 59.6427 52.222 58.312 53.9845 56.5379C57.6146 52.9195 59.4121 48.1689 59.4121 43.4299C59.4121 43.0331 59.4004 42.6362 59.3771 42.2394C59.237 40.0683 57.4628 38.2825 55.2918 38.1307C50.1093 37.7572 44.8101 39.5547 40.8416 43.5116C37.3049 47.0483 35.519 51.6589 35.4373 56.2927C35.4373 56.3978 35.4256 56.5145 35.4256 56.6196C35.4256 57.6234 35.519 58.6272 35.6824 59.6193C35.6941 59.701 35.7058 59.7827 35.7175 59.8644C35.7291 59.9228 35.7408 59.9812 35.7408 60.0395L35.8108 59.9695L37.4566 58.3237L37.9702 57.8101L49.8642 45.9278C50.3194 45.4726 51.0548 45.4726 51.51 45.9278C51.9652 46.383 51.9652 47.1183 51.51 47.5736L41.2851 57.7985L39.1141 59.9695L37.4683 61.6153L37.4449 61.6386C37.4566 61.6386 37.48 61.6386 37.4916 61.6503C38.6822 61.8721 39.8844 61.9654 41.0984 61.9538C43.4562 61.9304 45.8023 61.4519 48.0083 60.5414Z" fill="#00FFFF"/>
</svg>
