<svg width="46" height="60" viewBox="0 0 46 60" fill="none" xmlns="http://www.w3.org/2000/svg">
<g clip-path="url(#clip0)">
<path d="M6.0752 25.5193V17.0199C6.0752 14.6721 6.49726 12.4668 7.34668 10.404C8.19609 8.34112 9.36733 6.53678 10.8657 4.99095C12.364 3.45041 14.1314 2.23168 16.1626 1.34007C18.1991 0.448447 20.3991 0 22.768 0C25.1368 0 27.3369 0.448447 29.3681 1.33479C31.3993 2.22641 33.1667 3.44513 34.665 4.98568C36.1634 6.5315 37.3399 8.33584 38.184 10.3987C39.0334 12.4616 39.4555 14.6669 39.4555 17.0146V25.514L6.0752 25.5193ZM10.2484 25.5193H35.2876V17.0199C35.2876 15.2578 34.971 13.6011 34.3432 12.05C33.7101 10.4989 32.8343 9.1325 31.7158 7.95598C30.5973 6.78474 29.2678 5.85619 27.7378 5.18616C26.2026 4.51085 24.5459 4.1732 22.7627 4.1732C20.9795 4.1732 19.3229 4.51085 17.7876 5.18616C16.2576 5.86147 14.9281 6.78474 13.8096 7.95598C12.6911 9.12722 11.8153 10.4937 11.1822 12.05C10.5544 13.6064 10.2378 15.263 10.2378 17.0199V25.5193H10.2484Z" fill="#7F66C8"/>
</g>
<path d="M41.8843 59.0188H4.11565C1.84513 59.0188 0 57.4381 0 55.4831V31.3093C0 29.3587 1.84 27.7736 4.11565 27.7736H41.8843C44.1549 27.7736 46 29.3543 46 31.3093V55.4831C46 57.4381 44.16 59.0188 41.8843 59.0188Z" fill="#4E3B97"/>
<circle cx="23.0004" cy="43.8302" r="7.37736" fill="white"/>
<circle cx="23.0001" cy="43.8302" r="4.77358" fill="#00FFFF"/>
<defs>
<clipPath id="clip0">
<rect width="33.3856" height="25.5193" fill="white" transform="translate(6.0752)"/>
</clipPath>
</defs>
</svg>
