<svg width="81" height="42" viewBox="0 0 81 42" fill="none" xmlns="http://www.w3.org/2000/svg">
<circle cx="40.9089" cy="20.4546" r="5.72727" fill="#7F66C8"/>
<circle cx="40.9089" cy="20.4546" r="8.4664" stroke="#7F66C8" stroke-opacity="0.07" stroke-width="5.47826"/>
<path d="M58.3584 39.5426C59.5334 40.7423 61.4644 40.7439 62.6414 39.5462L78.9341 22.9663C80.081 21.7992 80.081 19.9281 78.9341 18.7609L62.6414 2.18112C61.4644 0.983336 59.5334 0.984946 58.3584 2.1847L57.6961 2.86095C56.5524 4.02866 56.554 5.89699 57.6996 7.06279L71.2614 20.8636L57.6996 34.6645C56.554 35.8303 56.5524 37.6986 57.6961 38.8663L58.3584 39.5426Z" fill="#4E3B97"/>
<path d="M23.3043 38.8663C24.448 37.6986 24.4464 35.8303 23.3008 34.6645L9.73899 20.8636L23.3008 7.06279C24.4464 5.89699 24.448 4.02866 23.3043 2.86095L22.642 2.1847C21.4669 0.984948 19.536 0.983334 18.3589 2.18112L2.06629 18.7609C0.919317 19.9281 0.919316 21.7992 2.06629 22.9663L18.3589 39.5461C19.536 40.7439 21.4669 40.7423 22.642 39.5426L23.3043 38.8663Z" fill="#00FFFF"/>
</svg>
