<svg width="67" height="64" viewBox="0 0 67 64" fill="none" xmlns="http://www.w3.org/2000/svg">
<path d="M35.2177 14.9566L31.0037 13.9225C30.7715 13.1838 30.476 12.4662 30.1172 11.7697L32.27 8.18182C32.5232 7.75971 32.4599 7.23208 32.1222 6.89439L29.1253 3.89744C28.7876 3.55976 28.26 3.49644 27.8379 3.74971L24.25 5.90244C23.5535 5.54366 22.8359 5.24818 22.0972 5.01602L21.0842 0.802001C20.9576 0.337685 20.5354 0 20.05 0H15.829C15.3435 0 14.9214 0.337685 14.7948 0.802001L13.7818 5.01602C13.0431 5.24818 12.3255 5.54366 11.629 5.90244L8.04111 3.74971C7.61901 3.49644 7.09138 3.55976 6.75369 3.89744L3.75674 6.89439C3.41906 7.23208 3.35574 7.75971 3.609 8.18182L5.76174 11.7697C5.40295 12.4662 5.10748 13.1838 4.87532 13.9225L0.802001 14.9566C0.337685 15.0621 0 15.4842 0 15.9697V20.1907C0 20.6761 0.337685 21.0982 0.802001 21.2038L4.87532 22.2379C5.10748 22.9766 5.40295 23.6942 5.76174 24.3907L3.609 27.9786C3.35574 28.4007 3.41906 28.9283 3.75674 29.266L6.75369 32.2629C7.09138 32.6006 7.61901 32.6639 8.04111 32.4107L11.629 30.2579C12.3255 30.6167 13.0431 30.9122 13.7818 31.1444L14.7948 35.2177C14.9214 35.682 15.3435 36.0197 15.829 36.0197H20.05C20.5354 36.0197 20.9576 35.682 21.0842 35.2177L22.0972 31.1444C22.8359 30.9122 23.5535 30.6167 24.25 30.2579L27.8379 32.4107C28.26 32.6639 28.7876 32.6006 29.1253 32.2629L32.1222 29.266C32.4599 28.9283 32.5232 28.4007 32.27 27.9786L30.1172 24.3907C30.476 23.6942 30.7715 22.9766 31.0037 22.2379L35.2177 21.2038C35.682 21.0982 36.0197 20.6761 36.0197 20.1907V15.9697C36.0197 15.4842 35.682 15.0621 35.2177 14.9566ZM17.9395 23.3565C15.027 23.3565 12.6632 20.9927 12.6632 18.0802C12.6632 15.1677 15.027 12.8039 17.9395 12.8039C20.852 12.8039 23.2158 15.1677 23.2158 18.0802C23.2158 20.9927 20.852 23.3565 17.9395 23.3565Z" fill="#7F66C8"/>
<path d="M38.0205 18.0099H46.0271C48.2362 18.0099 50.0271 19.8008 50.0271 22.0099V29.016" stroke="#4E3B97" stroke-width="2.90909" stroke-linejoin="round"/>
<path d="M31.0166 51.028L23.01 51.028C20.8009 51.028 19.01 49.2371 19.01 47.028L19.01 40.0219" stroke="#4E3B97" stroke-width="2.90909" stroke-linejoin="round"/>
<circle cx="50.0273" cy="47.0258" r="16.0088" fill="#00FFFF"/>
<path d="M49 39H52.072V44.6553L51.6996 50.4502H49.3724L49 44.6553V39ZM49 52.0793H52.072V55.2909H49V52.0793Z" fill="white"/>
</svg>
