<svg width="1440" height="666" viewBox="0 0 1440 666" fill="none" xmlns="http://www.w3.org/2000/svg">
<mask id="mask0" mask-type="alpha" maskUnits="userSpaceOnUse" x="0" y="0" width="1440" height="666">
<path d="M0 66.8416C0 66.8416 333 0 711.5 0C1090 0 1440 66.8416 1440 66.8416V666H0V66.8416Z" fill="#B5AADD"/>
</mask>
<g mask="url(#mask0)">
<g filter="url(#filter0_f)">
<path fill-rule="evenodd" clip-rule="evenodd" d="M142.206 1156.97C-29.9751 1154.34 -184.295 937.968 -243.585 590.581C-310.957 195.846 -304.102 -283.557 -145.859 -530.82C12.5206 -778.297 225.531 -640.976 381.2 -385.682C524.258 -151.071 602.144 235.744 545.299 602.663C489.591 962.249 318.562 1159.67 142.206 1156.97Z" fill="url(#paint0_radial)"/>
<path fill-rule="evenodd" clip-rule="evenodd" d="M-289.956 247.78C-285.735 -8.25745 60.5954 -237.735 616.645 -325.902C1248.48 -426.085 2015.84 -415.892 2411.63 -180.58C2807.75 54.9344 2587.95 371.686 2179.31 603.171C1803.78 815.902 1184.62 931.721 597.306 847.192C21.731 764.351 -294.279 510.027 -289.956 247.78Z" fill="url(#paint1_radial)"/>
<path fill-rule="evenodd" clip-rule="evenodd" d="M685.467 96.4435C442.19 90.6168 250.397 -227.175 178.776 -621.72C110.702 -996.724 182.086 -1409.2 371.118 -1635.23C552.476 -1852.08 790.687 -1787.23 971.92 -1570.08C1162.36 -1341.9 1303.46 -976.113 1238.18 -596.347C1167.28 -183.838 938.677 102.508 685.467 96.4435Z" fill="url(#paint2_radial)"/>
<path fill-rule="evenodd" clip-rule="evenodd" d="M684.968 97.495C441.691 91.6683 249.899 -226.124 178.277 -620.669C110.203 -995.672 181.588 -1408.15 370.62 -1634.18C551.977 -1851.02 790.188 -1786.18 971.422 -1569.03C1161.86 -1340.85 1302.96 -975.061 1237.68 -595.295C1166.78 -182.787 938.178 103.56 684.968 97.495Z" fill="url(#paint3_radial)"/>
</g>
</g>
<defs>
<filter id="filter0_f" x="-790" y="-2269" width="3910" height="3926" filterUnits="userSpaceOnUse" color-interpolation-filters="sRGB">
<feFlood flood-opacity="0" result="BackgroundImageFix"/>
<feBlend mode="normal" in="SourceGraphic" in2="BackgroundImageFix" result="shape"/>
<feGaussianBlur stdDeviation="250" result="effect1_foregroundBlur"/>
</filter>
<radialGradient id="paint0_radial" cx="0" cy="0" r="1" gradientUnits="userSpaceOnUse" gradientTransform="translate(443.401 934.72) rotate(-81.0999) scale(1959.9 993.488)">
<stop offset="0.412854" stop-color="#621985"/>
<stop offset="0.593051" stop-color="#00FAFF"/>
</radialGradient>
<radialGradient id="paint1_radial" cx="0" cy="0" r="1" gradientUnits="userSpaceOnUse" gradientTransform="translate(65.7946 695.665) rotate(8.27736) scale(3131.99 1479.77)">
<stop offset="0.409321" stop-color="#621985"/>
<stop offset="0.764554" stop-color="#00FAFF"/>
</radialGradient>
<radialGradient id="paint2_radial" cx="0" cy="0" r="1" gradientUnits="userSpaceOnUse" gradientTransform="translate(442.933 -478.002) rotate(-26.0204) scale(816.522 1213)">
<stop stop-color="#493D8D"/>
<stop offset="1" stop-color="#9AFAFC"/>
</radialGradient>
<radialGradient id="paint3_radial" cx="0" cy="0" r="1" gradientUnits="userSpaceOnUse" gradientTransform="translate(442.434 -476.95) rotate(-26.0204) scale(816.522 1213)">
<stop stop-color="#493D8D"/>
<stop offset="1" stop-color="#9AFAFC"/>
</radialGradient>
</defs>
</svg>
