<svg width="1440" height="854" viewBox="0 0 1440 854" fill="none" xmlns="http://www.w3.org/2000/svg">
<path fill-rule="evenodd" clip-rule="evenodd" d="M743.03 575.423C923.606 556.961 1021.9 414.712 1122.66 268.893C1125.56 264.693 1128.46 260.49 1131.37 256.288C1235.33 106.045 1344.53 -44.409 1551.29 -65.5481L1551.13 -67.0403C1343.61 -45.8224 1234.05 105.256 1130.14 255.434L1128.68 257.542C1127.56 259.158 1126.45 260.773 1125.33 262.389C1124.08 264.203 1122.82 266.017 1121.57 267.831C1020.67 413.84 922.753 555.54 742.878 573.931C557.695 592.865 409.338 541.063 262.203 489.057L258.831 487.865L258.83 487.865C112.856 436.265 -32.1922 384.992 -210.876 403.261L-210.723 404.754C-32.3757 386.519 112.398 437.694 258.429 489.314L261.703 490.471C408.825 542.472 557.475 594.395 743.03 575.423ZM744.126 586.138C924.699 567.676 1023.12 426.659 1124.01 282.101C1126.91 277.938 1129.82 273.773 1132.73 269.607C1236.82 120.667 1346.16 -28.4902 1552.91 -49.6295L1552.76 -51.1217C1345.24 -29.9042 1235.55 119.869 1131.5 268.748C1130.09 270.776 1128.67 272.804 1127.25 274.831C1125.81 276.901 1124.36 278.97 1122.92 281.038C1021.9 425.781 923.85 566.255 743.973 584.646C558.792 603.579 410.374 551.166 263.176 498.548L259.802 497.342C113.766 445.134 -31.3455 393.257 -210.031 411.527L-209.878 413.019C-31.532 394.784 113.303 446.562 259.396 498.79L262.671 499.96C409.855 552.573 558.568 605.11 744.126 586.138ZM1125.36 295.323C1024.35 438.768 925.824 578.696 745.253 597.158C559.694 616.131 410.916 562.981 263.67 509.755L260.394 508.571L260.394 508.571C114.238 455.736 -30.6572 403.356 -209.002 421.59L-209.154 420.098C-30.4677 401.829 114.706 454.31 260.804 507.124L264.18 508.345C411.441 561.575 559.921 614.6 745.1 595.666C924.979 577.275 1023.14 437.884 1124.27 294.259L1124.37 294.121C1127.2 290.103 1130.03 286.083 1132.87 282.062C1237.03 134.329 1346.84 -14.292 1554.36 -35.5093L1554.51 -34.0171C1347.75 -12.8775 1238.3 135.136 1134.09 282.926L1133.54 283.71C1132.93 284.58 1132.31 285.449 1131.7 286.319L1130.03 288.695C1128.47 290.904 1126.91 293.114 1125.36 295.323ZM746.379 608.179C926.949 589.717 1025.59 450.876 1126.71 308.544L1126.94 308.222L1127.32 307.678L1130.18 303.665L1131.59 301.676C1132.88 299.866 1134.16 298.055 1135.45 296.245C1239.78 149.605 1349.35 2.73517 1556.11 -18.4047L1555.95 -19.8969C1348.44 1.32005 1238.52 148.79 1134.23 295.375L1133.07 297.002L1132 298.504L1130.89 300.078C1129.49 302.045 1128.09 304.011 1126.69 305.977L1126.04 306.902L1125.82 307.211L1125.63 307.479C1024.38 449.987 926.108 588.295 746.227 606.687C561.049 625.62 412.508 571.984 265.184 518.142L261.806 516.907C115.647 463.485 -29.5898 410.4 -208.278 428.67L-208.126 430.162C-29.782 411.927 115.174 464.909 261.393 518.353L264.669 519.55C411.978 573.388 560.819 627.151 746.379 608.179ZM1128.03 321.447C1026.78 462.518 928.011 600.125 747.444 618.587C561.881 637.56 412.985 583.26 265.621 528.886L262.344 527.677C116.071 473.702 -28.9382 420.193 -207.281 438.427L-207.433 436.935C-28.7436 418.665 116.548 472.279 262.761 526.232L266.14 527.479C413.519 581.858 562.115 636.028 747.291 617.095C927.174 598.703 1025.57 461.622 1126.95 320.381C1129.82 316.384 1132.69 312.384 1135.56 308.383C1239.98 163.096 1350.04 16.9321 1557.55 -4.28456L1557.7 -2.79234C1350.94 18.3479 1241.24 163.921 1136.78 309.258C1133.86 313.322 1130.94 317.386 1128.03 321.447ZM748.57 629.608C929.135 611.146 1028.01 474.626 1129.38 334.668C1132.3 330.64 1135.22 326.609 1138.14 322.577C1242.71 178.389 1352.53 33.9605 1559.3 12.8201L1559.15 11.3278C1351.64 32.5442 1241.46 177.557 1136.93 321.697C1134.05 325.666 1131.17 329.635 1128.3 333.601C1026.81 473.725 928.303 609.723 748.418 628.115C563.243 647.048 414.586 592.267 267.145 537.276L263.763 536.015C117.488 481.454 -27.8658 427.237 -206.557 445.506L-206.404 446.999C-28.0631 428.764 117.007 482.875 263.343 537.459L266.62 538.681C414.046 593.667 563.007 648.58 748.57 629.608ZM1130.73 347.889C1029.25 486.735 930.26 622.167 749.697 640.628C564.132 659.601 415.107 604.074 267.62 548.477L264.341 547.241C117.942 492.049 -27.188 437.336 -205.528 455.57L-205.68 454.078C-26.9881 435.808 118.429 490.629 264.765 545.797L268.149 547.073C415.653 602.677 564.371 658.069 749.545 639.136C929.432 620.744 1028.05 485.827 1129.65 346.821C1132.53 342.887 1135.41 338.949 1138.29 335.01C1242.95 192.017 1353.24 48.1563 1560.74 26.9402L1560.9 28.4324C1354.13 49.5732 1244.19 192.858 1139.5 335.896C1138.62 337.092 1137.75 338.288 1136.87 339.484C1134.82 342.286 1132.78 345.089 1130.73 347.889ZM750.824 651.649C931.385 633.188 1030.48 498.843 1132.08 361.111C1135 357.148 1137.93 353.182 1140.86 349.216C1245.66 207.326 1355.72 65.1859 1562.49 44.0449L1562.34 42.5527C1354.84 63.7685 1244.43 206.477 1139.65 348.324C1136.77 352.232 1133.88 356.138 1131 360.042C1029.29 497.93 930.561 631.764 750.671 650.157C565.5 669.089 416.72 613.086 269.153 556.87L265.767 555.58C119.369 499.805 -26.1103 444.379 -204.804 462.65L-204.651 464.142C-26.3132 445.908 118.878 501.223 265.339 557.022L268.619 558.272C416.169 614.481 565.257 670.622 750.824 651.649ZM1133.41 374.173C1031.69 510.718 932.478 643.902 751.919 662.363C566.351 681.336 417.199 624.582 269.586 567.761L266.306 566.498C119.782 510.091 -25.4695 454.173 -203.806 472.407L-203.959 470.915C-25.2638 452.645 120.279 508.674 266.738 565.057L270.125 566.361C417.756 623.189 566.597 679.803 751.767 660.871C931.658 642.478 1030.5 509.799 1132.34 373.103C1134.2 370.611 1136.06 368.117 1137.91 365.623C1138.94 364.244 1139.97 362.864 1141 361.485C1245.9 220.861 1356.44 79.3805 1563.94 58.165L1564.09 59.6572C1357.31 80.7985 1247.13 221.719 1142.2 362.382C1139.27 366.313 1136.34 370.245 1133.41 374.173ZM753.015 673.078C933.571 654.617 1032.91 522.593 1134.75 387.236C1137.68 383.342 1140.61 379.445 1143.55 375.548C1248.6 236.111 1358.91 96.4113 1565.68 75.2696L1565.53 73.7774C1358.03 94.9927 1247.38 235.244 1142.35 374.645C1139.45 378.486 1136.56 382.326 1133.68 386.163C1031.72 521.668 932.756 653.192 752.862 671.585C567.694 690.518 418.799 633.369 271.113 576.005L267.724 574.688C121.211 517.774 -24.3862 461.216 -203.082 479.486L-202.93 480.979C-24.5942 462.745 120.71 519.189 267.29 576.129L270.57 577.403C418.237 634.76 567.445 692.051 753.015 673.078ZM1136.1 400.457C1034.14 534.702 934.696 665.637 754.142 684.098C568.57 703.071 419.299 645.167 271.569 587.198L268.288 585.91C121.646 528.363 -23.7192 471.317 -202.053 489.55L-202.206 488.058C-23.5085 469.787 122.151 526.949 268.726 584.47L272.117 585.802C419.866 643.778 568.822 701.538 753.989 682.606C933.885 664.213 1032.96 533.771 1135.03 399.384C1137.92 395.578 1140.81 391.769 1143.71 387.959C1248.86 249.704 1359.63 110.605 1567.13 89.3898L1567.28 90.882C1360.5 112.024 1250.08 250.579 1144.91 388.867C1142.04 392.637 1139.18 396.406 1136.31 400.173L1136.1 400.457ZM755.237 694.812C935.789 676.352 1035.36 546.649 1137.45 413.666C1140.38 409.842 1143.32 406.014 1146.26 402.187C1251.57 265.202 1362.12 127.943 1568.91 106.801L1568.76 105.308C1361.26 126.523 1250.36 264.317 1145.08 401.273L1142.76 404.288C1140.77 406.882 1138.78 409.475 1136.79 412.066L1136.38 412.591C1034.18 545.712 934.983 674.927 755.085 693.32C569.919 712.252 420.902 653.882 273.09 595.292L269.696 593.947C123.06 535.819 -22.6621 478.053 -201.361 496.323L-201.208 497.816C-22.8757 479.582 122.55 537.231 269.255 595.386L272.537 596.687C420.329 655.268 569.664 713.786 755.237 694.812ZM1138.8 426.888C1036.6 558.758 936.914 687.373 756.364 705.833C570.789 724.807 421.39 665.675 273.536 606.482L270.254 605.167C123.486 546.404 -22.0006 488.154 -200.332 506.387L-200.485 504.895C-21.7843 486.624 124.001 544.994 270.698 603.73L274.094 605.089C421.969 664.291 571.048 723.273 756.211 704.341C936.112 685.947 1035.42 557.814 1137.74 425.811C1140.63 422.072 1143.53 418.329 1146.44 414.586C1251.84 278.778 1362.86 142.135 1570.35 120.921L1570.5 122.413C1363.72 143.555 1253.04 279.67 1147.62 415.506C1144.68 419.301 1141.74 423.096 1138.8 426.888ZM757.491 716.854C938.039 698.394 1037.83 570.866 1140.15 440.11L1140.21 440.035C1143.13 436.3 1146.06 432.563 1148.98 428.825C1254.52 294.139 1365.31 159.168 1572.1 138.025L1571.95 136.533C1364.46 157.747 1253.32 293.238 1147.8 427.9C1144.89 431.612 1141.99 435.323 1139.09 439.031C1036.66 569.917 937.241 696.967 757.338 715.361C572.176 734.293 423.036 674.7 275.098 614.886L271.7 613.512C124.941 554.17 -20.9065 495.195 -199.608 513.466L-199.456 514.959C-21.1254 496.726 124.422 555.578 271.252 614.949L274.536 616.277C422.452 676.082 571.914 735.828 757.491 716.854ZM1141.47 453.012C1039.02 582.508 939.1 708.802 758.555 727.262C572.977 746.236 423.458 685.954 275.488 625.613L272.204 624.274C125.319 564.37 -20.2816 504.991 -198.611 523.224L-198.763 521.732C-20.0603 503.461 125.842 562.963 272.655 622.837L276.055 624.224C424.047 684.574 573.242 744.701 758.402 725.77C938.307 707.375 1037.86 581.552 1140.41 451.932C1143.31 448.259 1146.22 444.584 1149.14 440.907C1254.79 307.545 1366.06 173.359 1573.54 152.145L1573.7 153.638C1366.9 174.781 1255.98 308.455 1150.31 441.839C1147.45 445.451 1144.59 449.063 1141.74 452.673L1141.47 453.012ZM759.682 738.282C940.225 719.823 1040.25 594.617 1142.82 466.235C1145.77 462.544 1148.72 458.851 1151.67 455.158C1257.45 322.923 1368.5 190.393 1575.29 169.25L1575.14 167.758C1367.66 188.971 1256.27 322.005 1150.5 454.221C1147.58 457.866 1144.67 461.51 1141.76 465.152C1039.1 593.654 939.436 718.396 759.529 736.79C574.37 755.721 425.114 694.983 277.059 634.021L273.657 632.62C126.782 572.139 -19.1826 512.032 -197.887 530.303L-197.734 531.796C-19.4067 513.563 126.255 573.544 273.202 634.055L276.487 635.408C424.52 696.361 574.102 757.256 759.682 738.282ZM1144.17 479.457C1041.49 606.725 941.349 730.844 760.808 749.303C575.227 768.277 425.581 706.768 277.487 645.203L274.201 643.837C127.19 582.718 -18.5315 522.134 -196.858 540.367L-197.01 538.875C-18.3048 520.603 127.723 581.314 274.658 642.403L278.062 643.818C426.181 705.393 575.499 766.742 760.656 747.811C940.565 729.416 1040.34 605.757 1143.12 478.372C1146.03 474.762 1148.94 471.149 1151.86 467.535C1257.75 336.465 1369.26 204.584 1576.74 183.37L1576.89 184.863C1370.09 206.006 1258.93 337.392 1153.03 468.477C1150.07 472.138 1147.12 475.799 1144.17 479.457ZM761.935 760.323C942.474 741.864 1042.72 618.834 1145.52 492.678C1148.47 489.053 1151.43 485.425 1154.39 481.796C1260.41 351.86 1371.69 221.619 1578.49 200.475L1578.33 198.983C1370.86 220.196 1259.23 350.926 1153.23 480.848C1150.3 484.431 1147.39 488.013 1144.47 491.592C1041.58 617.86 941.694 740.436 761.783 758.831C576.627 777.762 427.248 715.802 279.066 653.615L275.66 652.185C128.663 590.49 -17.4271 529.175 -196.134 547.446L-195.981 548.939C-17.6565 530.706 128.126 591.892 275.2 653.619L278.486 654.998C426.643 717.175 576.352 779.298 761.935 760.323ZM1146.85 505.741C1043.93 630.709 943.567 752.579 763.031 771.038C577.446 790.013 427.673 727.276 279.454 664.487L276.167 663.094C129.031 600.759 -16.8128 538.972 -195.136 557.204L-195.289 555.712C-16.5807 537.44 129.572 599.359 276.631 661.662L280.039 663.106C428.284 725.906 577.724 788.476 762.878 769.546C942.792 751.15 1042.79 629.728 1145.81 504.652L1147.54 502.549L1149.53 500.127C1151.21 498.088 1152.89 496.048 1154.58 494.008C1260.71 365.309 1372.46 235.808 1579.93 214.595L1580.08 216.087C1373.28 237.232 1261.87 366.252 1155.73 494.963C1154.88 495.993 1154.03 497.024 1153.18 498.054L1151.36 500.265L1147.39 505.093L1147.16 505.364L1147.04 505.516L1146.85 505.741ZM764.126 781.752C944.66 763.294 1045.15 642.584 1148.19 518.804L1148.43 518.514C1149.7 516.989 1150.97 515.464 1152.24 513.939C1153.85 512.003 1155.46 510.066 1157.08 508.129C1263.34 380.645 1374.87 252.844 1581.68 231.7L1581.53 230.208C1374.06 251.42 1262.18 379.693 1155.92 507.169C1152.99 510.685 1150.07 514.2 1147.14 517.713C1044.01 641.597 943.89 761.865 763.974 780.26C578.821 799.191 429.327 736.085 281.027 672.75L277.617 671.293C130.505 608.459 -15.7031 546.011 -194.413 564.283L-194.26 565.776C-15.9377 547.543 129.959 609.858 277.15 672.725L280.438 674.129C428.711 737.453 578.54 800.727 764.126 781.752ZM1149.54 532.026C1046.38 654.693 945.785 774.314 765.253 792.772C579.665 811.748 429.773 747.86 281.437 683.924L278.149 682.507C130.895 619.031 -15.0625 556.115 -193.384 574.347L-193.536 572.855C-14.8253 554.583 131.445 617.635 278.619 681.076L282.031 682.547C430.394 746.495 579.949 810.211 765.1 791.28C945.019 772.885 1045.25 653.699 1148.5 530.932L1148.7 530.684C1150.44 528.618 1152.18 526.551 1153.92 524.483L1155.55 522.544L1157.29 520.482C1263.66 394.153 1375.66 267.032 1583.12 245.82L1583.27 247.312C1376.46 268.457 1264.82 395.113 1158.44 521.448C1155.47 524.975 1152.5 528.502 1149.54 532.026ZM766.348 803.487C946.878 785.029 1047.59 666.568 1150.87 545.089L1151.24 544.656C1154.08 541.311 1156.93 537.963 1159.78 534.615C1266.28 409.505 1378.06 284.07 1584.87 262.925L1584.72 261.432C1377.26 282.644 1265.14 408.537 1158.64 533.643C1155.79 536.989 1152.94 540.335 1150.1 543.679L1149.83 543.993C1046.47 665.568 946.117 783.599 766.196 801.995C581.047 820.925 431.429 756.598 283.003 692.038L279.589 690.552C132.354 626.504 -13.979 562.848 -192.691 581.12L-192.538 582.612C-14.2188 564.38 131.799 627.899 279.116 691.982L282.405 693.413C430.803 757.961 580.759 822.462 766.348 803.487ZM1152.24 558.458C1048.83 678.749 948.002 796.05 767.475 814.507C581.885 833.483 431.865 768.368 283.404 703.208L280.115 701.764C132.735 637.073 -13.3436 572.952 -191.662 591.184L-191.815 589.692C-13.1013 571.419 133.294 635.679 280.591 700.335L284.007 701.834C432.496 767.007 582.175 831.945 767.323 813.015C947.246 794.619 1047.72 677.743 1151.2 557.359C1152.84 555.453 1154.48 553.547 1156.12 551.64C1157.42 550.13 1158.72 548.62 1160.02 547.109C1266.64 423.226 1378.89 298.562 1586.35 277.351L1586.5 278.843C1379.68 299.989 1267.78 424.204 1161.15 548.088C1158.28 551.42 1155.42 554.752 1152.56 558.082L1152.24 558.458ZM768.602 825.528C949.127 807.07 1050.07 690.858 1153.59 571.679C1156.56 568.257 1159.53 564.832 1162.51 561.407C1269.26 438.672 1381.28 315.601 1588.09 294.455L1587.94 292.963C1380.49 314.174 1268.13 437.687 1161.38 560.422C1158.43 563.809 1155.49 567.195 1152.55 570.578C1048.96 689.845 948.375 805.639 768.449 824.036C583.303 842.966 433.563 777.417 285.011 711.631L281.593 710.117C134.234 644.855 -12.2235 579.991 -190.938 598.263L-190.786 599.755C-12.4686 581.524 133.671 646.246 281.113 711.546L284.404 713.003C432.926 778.775 583.01 844.504 768.602 825.528ZM1154.92 584.742C1051.28 702.733 950.22 817.785 769.697 836.242C584.104 855.218 433.964 788.953 285.388 722.645L282.097 721.176C134.599 655.344 -11.5934 590.095 -189.909 608.327L-190.062 606.835C-11.346 588.562 135.167 653.955 282.579 719.749L285.999 721.275C434.606 787.597 584.4 853.68 769.545 834.75C949.473 816.354 1050.17 701.714 1153.89 583.639L1157.11 579.974L1159.07 577.74C1160.29 576.354 1161.51 574.969 1162.73 573.583C1269.6 452.07 1382.09 329.786 1589.54 308.576L1589.69 310.068C1382.87 331.214 1270.73 453.064 1163.86 574.573C1160.87 577.964 1157.89 581.354 1154.92 584.742ZM770.793 846.957C951.313 828.5 1052.49 714.608 1156.25 597.805C1159.23 594.452 1162.21 591.096 1165.2 587.74C1272.19 467.456 1384.46 346.827 1591.29 325.68L1591.13 324.188C1383.68 345.398 1271.08 466.454 1164.08 586.743C1161.12 590.063 1158.18 593.382 1155.23 596.699C1051.39 713.582 950.571 827.068 770.64 845.464C585.497 864.394 435.642 797.7 286.971 730.766L283.549 729.225C136.076 662.824 -10.4997 596.827 -189.217 615.1L-189.064 616.592C-10.7497 598.361 135.504 664.212 283.064 730.652L286.356 732.134C434.995 799.054 585.198 865.932 770.793 846.957ZM1157.6 611.027C1053.72 726.717 952.437 839.52 771.92 857.977C586.323 876.953 436.056 809.461 287.355 741.929L284.063 740.434C136.44 673.386 -9.87451 606.932 -188.188 625.164L-188.34 623.672C-9.62184 605.399 137.016 672 284.551 739.008L287.975 740.563C436.708 808.11 586.626 875.414 771.767 856.485C951.7 838.088 1052.63 725.685 1156.58 609.918C1158.41 607.885 1160.23 605.852 1162.06 603.817C1163.19 602.564 1164.31 601.31 1165.44 600.057C1272.56 480.915 1385.28 361.01 1592.73 339.8L1592.88 341.293C1386.06 362.439 1273.67 481.925 1166.56 601.059C1163.57 604.383 1160.58 607.706 1157.6 611.027ZM773.046 868.998C953.561 850.541 1054.97 738.898 1158.97 624.397L1159.41 623.905L1159.9 623.366C1162.58 620.422 1165.25 617.477 1167.93 614.532C1275.17 496.623 1387.68 378.358 1594.51 357.211L1594.36 355.719C1386.92 376.929 1274.07 495.604 1166.82 613.523C1165.06 615.458 1163.3 617.393 1161.55 619.327L1157.95 623.284C1053.88 737.859 952.829 849.108 772.894 867.505C587.754 886.435 437.775 818.519 288.979 750.36L285.552 748.79C137.956 681.175 -8.74422 613.97 -187.464 632.243L-187.312 633.735C-8.99956 615.504 137.375 682.559 285.061 750.215L288.354 751.724C437.118 819.868 587.448 887.974 773.046 868.998ZM1160.29 637.313C1056.17 750.701 954.655 861.256 774.142 879.712C588.542 898.688 438.148 829.969 289.323 761.213L286.029 759.691C138.28 691.427 -8.15578 623.769 -186.466 642.001L-186.619 640.508C-7.89784 622.235 138.865 690.044 286.523 758.267L289.952 759.851C438.811 828.623 588.851 897.149 773.989 878.22C953.927 859.822 1055.09 749.656 1159.27 636.197L1159.6 635.841L1160.2 635.189L1160.51 634.849C1163.06 632.078 1165.6 629.304 1168.15 626.53C1275.52 509.759 1388.48 392.234 1595.92 371.025L1596.08 372.517C1389.24 393.665 1276.61 510.785 1169.26 627.545C1168.4 628.477 1167.55 629.409 1166.69 630.34C1165.58 631.545 1164.48 632.75 1163.37 633.955L1160.29 637.313ZM775.237 890.427C955.747 871.97 1057.38 762.576 1161.62 650.376C1164.61 647.156 1167.6 643.934 1170.6 640.712C1278.08 525.177 1390.83 409.277 1597.67 388.13L1597.52 386.637C1390.08 407.847 1276.99 524.142 1169.5 639.69C1168.53 640.74 1167.55 641.79 1166.57 642.84L1164.31 645.279L1160.61 649.257C1056.31 761.525 955.025 870.536 775.085 888.934C589.948 907.863 439.854 838.802 290.939 769.495L287.509 767.898C139.797 699.144 -7.02032 630.807 -185.743 649.08L-185.59 650.572C-7.28052 632.341 139.209 700.525 287.012 769.321L290.306 770.855C439.186 840.146 589.636 909.403 775.237 890.427ZM1162.97 663.599C1058.61 774.685 956.872 882.991 776.364 901.447C590.761 920.424 440.248 850.553 291.306 780.65L288.011 779.103C140.145 709.699 -6.40536 640.913 -184.714 659.144L-184.866 657.651C-6.14259 639.378 140.737 708.32 288.51 777.681L291.943 779.292C440.921 849.212 591.076 918.884 776.212 899.955C956.155 881.557 1057.55 773.627 1161.96 662.477L1162.17 662.258C1165.07 659.175 1167.97 656.09 1170.87 653.004C1278.47 538.603 1391.68 423.459 1599.12 402.25L1599.27 403.742C1392.43 424.89 1279.55 539.646 1171.96 654.031C1168.99 657.191 1166.02 660.35 1163.06 663.506L1162.97 663.599ZM777.491 912.468C957.996 894.012 1059.86 786.867 1164.33 676.968L1164.61 676.678L1164.78 676.496C1166.35 674.846 1167.92 673.195 1169.49 671.544C1170.77 670.198 1172.05 668.851 1173.33 667.504C1281.05 554.344 1394.05 440.809 1600.9 419.661L1600.74 418.168C1393.31 439.377 1279.98 553.293 1172.25 666.47C1169.27 669.596 1166.3 672.72 1163.33 675.843C1058.8 785.802 957.284 892.577 777.338 910.975C592.204 929.904 441.987 859.622 292.947 789.089L289.512 787.463C141.678 717.495 -5.26501 647.949 -183.99 666.223L-183.837 667.715C-5.53033 649.484 141.08 718.873 289.01 788.885L292.305 790.445C441.309 860.96 591.886 931.444 777.491 912.468ZM1165.65 689.884C1061.06 798.669 959.089 904.727 778.586 923.182C592.98 942.159 442.34 871.061 293.273 799.934L289.977 798.361C141.985 727.74 -4.68649 657.75 -182.992 675.981L-183.145 674.488C-4.41859 656.215 142.586 726.365 290.482 796.94L293.919 798.58C443.023 869.725 593.302 940.618 778.434 921.69C958.382 903.291 1060.01 797.598 1164.66 688.756L1164.71 688.698C1167.67 685.626 1170.62 682.552 1173.58 679.477C1281.43 567.447 1394.88 454.683 1602.31 433.475L1602.46 434.967C1395.61 456.116 1282.49 568.506 1174.66 680.518C1171.66 683.641 1168.65 686.764 1165.65 689.884ZM779.713 934.202C960.213 915.747 1062.3 810.851 1167.02 703.254C1170.02 700.167 1173.03 697.079 1176.04 693.99C1283.99 583.204 1397.24 472.034 1604.09 450.885L1603.94 449.393C1396.51 470.601 1282.94 582.137 1174.96 692.944C1173.77 694.162 1172.59 695.381 1171.4 696.599C1169.61 698.441 1167.82 700.282 1166.03 702.122C1061.25 809.773 959.511 914.311 779.561 932.71C594.43 951.639 444.09 880.135 294.923 808.377L291.484 806.722C143.527 735.54 -3.54083 664.786 -182.268 683.06L-182.116 684.552C-3.81143 666.322 142.921 736.914 290.976 808.142L294.273 809.729C443.401 881.468 594.105 953.18 779.713 934.202ZM1168.35 716.317C1063.51 822.726 961.306 926.462 780.809 944.917C595.2 963.894 444.44 891.646 295.257 819.371L291.959 817.773C143.849 746.012 -2.93617 674.893 -181.239 693.124L-181.392 691.631C-2.66339 673.358 144.459 744.64 292.47 816.354L295.911 818.021C445.133 890.314 595.527 962.353 780.656 943.425C960.609 925.026 1062.47 821.641 1167.36 715.181L1167.42 715.124L1168.01 714.528C1170.77 711.721 1173.54 708.913 1176.31 706.104C1284.41 596.521 1398.11 486.213 1605.53 465.006L1605.68 466.498C1398.83 487.647 1285.46 597.596 1177.38 707.157L1175.16 709.409L1173.3 711.29C1171.84 712.777 1170.37 714.264 1168.91 715.75L1168.35 716.317ZM781.904 955.631C962.399 937.177 1064.71 834.529 1169.67 729.234L1169.79 729.114C1171.3 727.594 1172.82 726.073 1174.33 724.553L1175.49 723.396C1176.56 722.321 1177.63 721.246 1178.71 720.171C1286.9 611.758 1400.39 502.954 1607.25 481.804L1607.1 480.312C1399.68 501.519 1285.87 610.675 1177.64 719.111C1176.7 720.056 1175.76 721.001 1174.82 721.946L1172.1 724.669C1170.96 725.811 1169.82 726.953 1168.69 728.094C1063.68 833.437 961.707 935.74 781.752 954.139C596.624 973.067 446.168 900.418 296.883 827.512L293.44 825.83C145.368 753.51 -1.81706 681.623 -180.547 699.897L-180.394 701.389C-2.09239 683.159 144.754 754.88 292.927 827.249L296.225 828.86C445.47 901.746 596.293 974.609 781.904 955.631ZM1171.03 742.603C1065.96 846.71 963.523 948.198 783.031 966.652C597.419 985.629 446.531 912.153 297.224 838.655L293.925 837.03C145.69 764.053 -1.21732 691.73 -179.518 709.96L-179.671 708.468C-0.939438 690.194 146.308 762.685 294.441 835.613L297.887 837.309C447.235 910.827 597.752 984.087 782.878 965.159C962.837 946.76 1064.93 845.612 1170.05 741.46L1170.39 741.132L1170.97 740.552L1171.17 740.356C1173.78 737.765 1176.4 735.171 1179.02 732.577C1287.37 625.365 1401.31 517.437 1608.72 496.23L1608.88 497.723C1402.02 518.873 1288.4 626.456 1180.08 733.643C1178.28 735.426 1176.48 737.208 1174.68 738.989L1171.03 742.603ZM784.158 977.672C964.647 959.218 1067.19 858.819 1172.38 755.826L1172.62 755.59C1175.56 752.716 1178.5 749.839 1181.44 746.963C1289.88 640.925 1403.61 534.485 1610.47 513.335L1610.32 511.843C1402.91 533.049 1288.85 639.826 1180.39 745.891C1177.39 748.821 1174.4 751.751 1171.41 754.679C1066.17 857.714 963.966 957.78 784.005 976.18C598.88 995.108 448.302 921.237 298.891 847.106L295.443 845.395C147.248 771.861 -0.0617065 698.766 -178.794 717.04L-178.642 718.532C-0.342102 700.302 146.626 773.227 294.924 846.812L298.224 848.45C447.593 922.56 598.544 996.65 784.158 977.672ZM1173.75 769.195C1068.43 871 965.771 970.239 785.284 988.693C599.669 1007.67 448.655 932.967 299.224 858.245L295.923 856.594C147.562 782.401 0.532913 708.874 -177.765 727.104L-177.918 725.611C0.815887 707.337 148.188 781.036 296.444 855.178L299.894 856.903C449.368 931.647 600.009 1006.13 785.132 987.201C965.096 968.8 1067.42 869.889 1172.78 768.045C1175.77 765.151 1178.77 762.254 1181.77 759.357C1290.36 654.516 1404.54 548.968 1611.95 527.761L1612.1 529.254C1405.23 550.404 1291.37 655.623 1182.81 760.436C1179.79 763.357 1176.77 766.277 1173.75 769.195ZM786.349 999.101C966.832 980.648 1069.61 882.57 1175.05 781.953C1176.7 780.379 1178.35 778.805 1180 777.23C1180.88 776.386 1181.77 775.542 1182.65 774.698L1184.12 773.297C1292.81 669.708 1406.8 565.711 1613.67 544.56L1613.51 543.068C1406.11 564.273 1291.81 668.594 1183.09 772.211C1180.08 775.074 1177.08 777.938 1174.08 780.798C1068.61 881.452 966.163 979.208 786.196 997.609C601.074 1016.54 450.38 941.521 300.851 866.241L297.399 864.503C149.089 789.83 1.66211 715.602 -177.073 733.877L-176.92 735.369C1.37694 717.139 148.459 791.193 296.875 865.919L300.176 867.581C449.662 942.839 600.732 1018.08 786.349 999.101ZM1176.4 795.176C1070.84 894.678 967.957 991.668 787.475 1010.12C601.857 1029.1 450.724 953.245 301.176 877.375L297.874 875.7C149.395 800.367 2.25197 725.711 -176.044 743.941L-176.196 742.448C2.53975 724.174 150.029 799.006 298.401 874.285L301.854 876.038C451.447 951.93 602.203 1027.56 787.323 1008.63C967.292 990.229 1069.85 893.554 1175.44 794.017C1177.07 792.475 1178.71 790.933 1180.35 789.39C1181.72 788.102 1183.08 786.813 1184.45 785.524C1293.29 683.054 1407.71 579.886 1615.11 558.68L1615.26 560.172C1408.39 581.324 1294.28 684.177 1185.48 786.616C1182.45 789.47 1179.42 792.324 1176.4 795.176ZM-175.167 752.512C3.12721 734.283 150.331 809.54 298.873 885.482L302.175 887.17C451.785 963.652 602.982 1040.12 788.602 1021.14C969.081 1002.69 1072.09 906.86 1177.76 808.545L1177.84 808.476L1177.91 808.407L1178.7 807.671C1179.91 806.543 1181.13 805.415 1182.34 804.286C1183.84 802.887 1185.35 801.488 1186.85 800.089C1295.78 698.875 1410.01 597.243 1616.89 576.091L1616.74 574.599C1409.34 595.804 1294.8 697.745 1185.83 798.99C1182.82 801.789 1179.81 804.587 1176.81 807.383C1071.1 905.729 968.422 1001.25 788.45 1019.65C603.331 1038.58 452.513 962.34 302.858 885.835L299.402 884.068C150.969 808.181 3.41748 732.745 -175.32 751.02L-175.167 752.512ZM299.841 894.958C151.236 818.408 3.97107 742.548 -174.322 760.777L-174.475 759.285C4.26373 741.01 151.878 817.051 300.372 893.544L303.831 895.326C453.549 972.443 604.428 1049.29 789.545 1030.36C969.52 1011.96 1072.31 917.525 1178.13 820.295L1178.17 820.257L1178.21 820.22C1181.2 817.48 1184.18 814.739 1187.17 811.997C1296.25 711.899 1410.91 611.109 1618.3 589.905L1618.45 591.397C1411.58 612.549 1297.23 713.036 1188.18 813.102C1186.54 814.604 1184.91 816.106 1183.27 817.607C1181.88 818.893 1180.48 820.177 1179.08 821.462C1073.29 918.662 970.173 1013.4 789.698 1031.86C604.076 1050.83 452.816 973.753 303.144 896.659L299.841 894.958ZM-173.446 769.349C4.84605 751.12 152.172 827.581 300.839 904.74L304.143 906.454C453.877 984.16 605.201 1061.86 790.824 1042.88C971.297 1024.42 1074.53 930.844 1180.44 834.832C1183.48 832.081 1186.51 829.328 1189.55 826.575C1298.72 727.734 1413.2 628.468 1620.08 607.316L1619.93 605.823C1412.54 627.028 1297.75 726.589 1188.55 825.463C1185.53 828.197 1182.51 830.93 1179.5 833.661C1073.56 929.699 970.649 1022.98 790.672 1041.38C605.556 1060.31 454.615 982.853 304.834 905.123L301.374 903.327C152.818 826.226 5.14133 749.582 -173.598 767.857L-173.446 769.349ZM301.838 914.521C153.108 836.755 5.72127 759.691 -172.569 777.92L-172.722 776.428C6.01898 758.153 153.758 835.402 302.375 913.109L305.838 914.92C455.682 993.263 606.685 1071.33 791.799 1052.41C971.779 1034 1074.8 941.802 1180.86 846.88L1181.05 846.703L1184.67 843.465L1186.9 841.469L1188.02 840.47L1189.91 838.777C1299.24 741.05 1414.14 642.64 1621.53 621.436L1621.68 622.928C1414.79 644.081 1300.2 742.203 1190.91 839.895C1188 842.502 1185.08 845.108 1182.17 847.713L1181.79 848.055C1075.76 942.953 972.421 1035.45 791.951 1053.9C606.327 1072.88 454.939 994.567 305.143 916.249L301.838 914.521ZM-171.724 786.186C6.56525 767.957 154.005 845.547 302.791 923.846L306.096 925.585C455.946 1004.44 607.39 1083.28 793.015 1064.31C973.483 1045.85 1076.94 954.522 1183.09 860.812L1183.29 860.639C1186.27 858.012 1189.24 855.384 1192.22 852.756C1301.63 756.288 1416.35 659.387 1623.24 638.234L1623.09 636.742C1415.71 657.946 1300.68 755.128 1191.23 851.63C1189.78 852.914 1188.32 854.198 1186.87 855.481L1182.4 859.428L1182.28 859.53L1182.16 859.633C1075.98 953.364 972.846 1044.41 792.863 1062.81C607.75 1081.74 456.694 1003.14 306.794 924.258L303.329 922.434C154.659 844.196 6.86514 766.418 -171.877 784.694L-171.724 786.186ZM303.79 933.628C154.941 854.721 7.44043 776.528 -170.848 794.757L-171.001 793.265C7.74284 774.99 155.599 853.371 304.331 932.217L307.798 934.055C457.76 1013.55 608.879 1092.76 793.99 1073.83C973.976 1055.43 1077.23 965.539 1183.53 872.998L1187.44 869.594C1189.17 868.095 1190.89 866.596 1192.61 865.097C1302.19 769.818 1417.34 673.864 1624.72 652.661L1624.87 654.153C1417.98 675.306 1303.13 770.986 1193.6 866.229C1190.55 868.881 1187.5 871.532 1184.46 874.182C1078.18 966.703 974.607 1056.87 794.142 1075.33C608.515 1094.31 457.008 1014.84 307.095 935.38L303.79 933.628ZM-169.972 803.329C8.31555 785.1 155.877 863.894 304.789 943.41L308.095 945.175C458.069 1025.25 609.64 1105.33 795.269 1086.35C975.731 1067.9 1079.42 978.812 1185.81 887.405C1187.8 885.695 1189.79 883.984 1191.78 882.273C1192.84 881.365 1193.9 880.456 1194.95 879.548C1304.61 785.454 1419.57 690.919 1626.47 669.765L1626.31 668.273C1418.94 689.476 1303.67 784.279 1193.98 878.41C1192.17 879.962 1190.36 881.514 1188.56 883.066L1184.89 886.217C1078.47 977.641 975.105 1066.45 795.116 1084.85C610.007 1103.78 458.827 1023.96 308.801 943.852L305.332 941.999C156.539 862.547 8.62035 783.561 -170.124 801.837L-169.972 803.329ZM305.788 953.192C156.813 873.068 9.19073 793.672 -169.095 811.9L-169.248 810.408C9.49803 792.132 157.479 871.722 306.334 951.782L309.805 953.649C459.894 1034.37 611.135 1114.8 796.243 1095.88C976.235 1077.47 1079.72 989.816 1186.26 899.582L1186.28 899.564L1186.3 899.546L1186.32 899.528L1186.34 899.51C1189.34 896.967 1192.35 894.422 1195.36 891.876C1305.18 798.969 1420.57 705.394 1627.94 684.192L1628.09 685.684C1421.2 706.838 1306.1 800.152 1196.33 893.021C1193.47 895.439 1190.61 897.857 1187.76 900.273L1187.43 900.557L1187.17 900.776C1080.66 990.993 976.854 1078.92 796.396 1097.37C610.765 1116.35 459.131 1035.66 309.094 954.97L305.788 953.192ZM-168.25 820.166C10.0345 801.937 157.718 881.936 306.755 962.667L310.063 964.459C460.162 1045.76 611.859 1127.06 797.491 1108.08C977.947 1089.63 1081.86 1002.8 1188.49 913.693C1191.54 911.141 1194.59 908.588 1197.65 906.035C1307.55 814.314 1422.76 722.144 1629.66 700.99L1629.51 699.498C1422.14 720.7 1306.63 813.124 1196.69 904.883C1194.84 906.431 1192.99 907.978 1191.14 909.524L1188.55 911.683L1187.68 912.412L1187.58 912.495C1080.93 1001.61 977.333 1088.19 797.339 1106.59C612.232 1125.52 460.929 1044.47 310.777 963.14L307.304 961.258C158.388 880.592 10.3443 800.398 -168.403 818.673L-168.25 820.166ZM307.739 972.298C158.647 891.034 10.9099 810.509 -167.374 828.737L-167.526 827.245C11.2219 808.969 159.32 889.692 308.29 970.89L311.765 972.784C461.972 1054.65 613.329 1136.23 798.434 1117.3C978.432 1098.9 1082.15 1013.48 1188.92 925.553C1191.96 923.052 1195 920.548 1198.04 918.043C1308.11 827.508 1423.74 736.312 1631.1 715.11L1631.26 716.602C1424.35 737.757 1309.01 828.705 1199 919.202C1195.93 921.721 1192.87 924.239 1189.82 926.756C1083.07 1014.67 979.04 1100.35 798.587 1118.8C612.953 1137.78 461.2 1055.94 311.047 974.101L307.739 972.298ZM-166.497 837.309C11.785 819.08 159.583 900.208 308.738 982.08L312.046 983.896C462.262 1066.34 614.079 1148.8 799.714 1129.82C980.164 1111.37 1084.31 1026.85 1191.18 940.126L1195.86 936.328L1197.66 934.869L1200.37 932.674C1310.51 843.403 1425.97 753.676 1632.88 732.521L1632.73 731.029C1425.37 752.23 1309.61 842.198 1199.42 931.509C1197.89 932.75 1196.36 933.99 1194.83 935.231C1193.32 936.46 1191.8 937.69 1190.29 938.919C1083.4 1025.66 979.562 1109.92 799.561 1128.32C614.457 1147.25 463.039 1065.06 312.768 982.581L309.291 980.672C160.26 898.867 12.0994 817.54 -166.65 835.816L-166.497 837.309ZM309.706 991.555C160.487 909.075 12.6288 827.346 -165.652 845.574L-165.805 844.082C12.9457 825.806 161.168 907.737 310.261 990.148L313.74 992.072C464.074 1075.16 615.554 1157.96 800.656 1139.04C980.66 1120.63 1084.61 1037.45 1191.61 951.831C1193.43 950.374 1195.26 948.916 1197.08 947.458L1198.47 946.349C1199.23 945.738 1199.99 945.127 1200.76 944.516C1311.07 856.353 1426.93 767.536 1634.3 746.335L1634.45 747.827C1427.54 768.983 1311.95 857.564 1201.69 945.688C1198.63 948.141 1195.56 950.593 1192.5 953.044C1085.51 1038.66 981.256 1122.08 800.809 1140.53C615.172 1159.51 463.292 1076.44 313.015 993.384L309.706 991.555ZM-164.776 854.146C13.5041 835.918 161.424 918.249 310.705 1001.34L314.014 1003.18C464.354 1086.85 616.298 1170.53 801.936 1151.55C982.38 1133.1 1086.75 1050.84 1193.86 966.413C1196.93 963.997 1200 961.579 1203.07 959.161C1313.45 872.262 1429.16 784.901 1636.08 763.746L1635.92 762.253C1428.57 783.454 1312.57 871.044 1202.14 957.982C1200.6 959.193 1199.07 960.403 1197.53 961.613L1192.98 965.196C1085.86 1049.63 981.79 1131.65 801.783 1150.06C616.683 1168.98 465.141 1085.57 314.744 1001.87L311.262 999.931C162.108 916.912 13.8233 834.377 -164.929 852.653L-164.776 854.146ZM311.704 1011.12C162.36 927.422 14.3793 844.489 -163.899 862.717L-164.052 861.225C14.7009 842.949 163.048 926.088 312.263 1009.71L315.747 1011.67C466.207 1095.98 617.811 1180.01 802.91 1161.08C982.919 1142.67 1087.1 1061.73 1194.34 978.415L1194.6 978.211C1197.57 975.907 1200.53 973.602 1203.51 971.296C1314.06 885.505 1430.17 799.067 1637.52 777.866L1637.67 779.358C1430.75 800.514 1314.93 886.73 1204.43 972.481C1201.47 974.772 1198.52 977.062 1195.58 979.352L1195.21 979.637C1087.99 1062.95 983.504 1144.12 803.063 1162.57C617.423 1181.55 465.416 1097.26 315.014 1012.97L311.704 1011.12ZM-163.023 871.289C15.2545 853.061 163.288 936.521 312.687 1020.75L315.998 1022.62C466.454 1107.44 618.517 1192.27 804.158 1173.29C984.596 1154.84 1089.2 1074.82 1196.54 992.701L1196.63 992.634L1196.72 992.568C1199.73 990.262 1202.75 987.955 1205.77 985.647C1316.39 901.121 1432.35 816.127 1639.27 794.97L1639.12 793.478C1431.76 814.678 1315.53 899.889 1204.86 984.456C1203.35 985.606 1201.84 986.757 1200.34 987.907C1198.79 989.096 1197.23 990.285 1195.68 991.474C1088.32 1073.6 984.018 1153.39 804.005 1171.79C618.908 1190.72 467.25 1106.16 316.735 1021.31L313.249 1019.34C163.98 935.188 15.5783 851.52 -163.176 869.796L-163.023 871.289ZM313.655 1030.23C164.193 945.388 16.0984 861.326 -162.178 879.554L-162.331 878.062C16.4246 859.785 164.889 944.057 314.219 1028.82L317.707 1030.8C468.285 1116.27 620.005 1201.43 805.101 1182.51C985.116 1164.1 1089.53 1085.39 1197 1004.39C1200.06 1002.08 1203.12 999.771 1206.19 997.463C1316.99 914.044 1433.33 829.984 1640.68 808.784L1640.83 810.277C1433.91 831.433 1317.83 915.283 1207.09 998.661C1204.01 1000.98 1200.93 1003.3 1197.86 1005.62C1090.4 1086.62 985.689 1165.55 805.254 1184C619.611 1202.98 467.485 1117.54 316.967 1032.11L313.655 1030.23ZM-161.302 888.125C16.9736 869.898 165.129 954.562 314.654 1040.01L317.966 1041.9C468.547 1127.94 620.736 1214 806.38 1195.02C986.812 1176.57 1091.64 1098.8 1199.22 1018.99C1202.3 1016.7 1205.38 1014.42 1208.47 1012.13C1319.33 929.98 1435.53 847.352 1642.46 826.195L1642.31 824.703C1434.96 845.903 1318.49 928.735 1207.57 1010.93C1205.72 1012.3 1203.88 1013.67 1202.03 1015.04L1198.37 1017.75C1090.78 1097.57 986.246 1175.12 806.228 1193.53C621.133 1212.45 469.352 1126.68 318.711 1040.6L315.22 1038.6C165.829 953.233 17.3022 868.357 -161.454 886.633L-161.302 888.125ZM315.653 1049.79C166.066 963.735 17.8488 878.469 -160.425 896.697L-160.578 895.205C18.1797 876.928 166.769 962.408 316.221 1048.39L319.714 1050.39C470.418 1137.08 622.261 1223.47 807.354 1204.55C987.376 1186.14 1092.03 1109.74 1199.74 1031.12C1202.81 1028.88 1205.88 1026.64 1208.95 1024.39C1320 943.425 1436.6 861.821 1643.94 840.621L1644.09 842.114C1437.16 863.271 1320.83 944.678 1209.84 1025.61C1208.88 1026.3 1207.93 1027 1206.97 1027.7C1205.86 1028.51 1204.75 1029.32 1203.65 1030.12L1200.64 1032.32L1200.59 1032.36C1092.88 1110.99 987.936 1187.59 807.507 1206.04C621.862 1225.02 469.608 1138.35 318.966 1051.7L315.653 1049.79ZM-159.58 904.962C18.6927 886.735 166.97 972.603 316.621 1059.27L319.935 1061.18C470.639 1148.45 622.956 1235.74 808.603 1216.76C989.028 1198.31 1094.08 1122.79 1201.9 1045.28C1204.99 1043.06 1208.07 1040.84 1211.16 1038.62C1322.27 958.839 1438.72 878.578 1645.65 857.42L1645.5 855.928C1438.16 877.127 1321.45 957.58 1210.29 1037.4C1207.21 1039.61 1204.14 1041.82 1201.07 1044.03C1093.24 1121.54 988.474 1196.86 808.45 1215.26C623.358 1234.19 471.454 1147.19 320.686 1059.89L317.191 1057.86C167.677 971.278 19.026 885.193 -159.733 903.47L-159.58 904.962ZM317.605 1068.9C167.899 981.701 19.568 895.307 -158.704 913.534L-158.856 912.042C19.9035 893.765 168.609 980.378 318.177 1067.49L321.674 1069.53C472.497 1157.37 624.455 1244.9 809.545 1225.98C989.573 1207.57 1094.46 1133.41 1202.41 1057.09L1204.37 1055.7C1206.79 1053.99 1209.21 1052.28 1211.64 1050.56C1322.93 971.965 1439.76 892.739 1647.1 871.54L1647.25 873.032C1440.31 894.191 1323.74 973.231 1212.5 1051.79C1209.41 1053.97 1206.32 1056.16 1203.23 1058.34C1095.29 1134.66 990.121 1209.02 809.698 1227.47C624.05 1246.45 471.677 1158.63 320.919 1070.83L317.605 1068.9ZM-157.827 922.105C20.4432 903.878 168.835 990.874 318.604 1078.68L321.919 1080.62C472.739 1169.03 625.175 1257.47 810.825 1238.49C991.245 1220.04 1096.52 1146.77 1204.58 1071.56L1204.91 1071.33C1207.89 1069.26 1210.88 1067.18 1213.86 1065.11C1325.21 987.698 1441.9 909.803 1648.85 888.645L1648.69 887.152C1441.36 908.351 1324.41 986.426 1213.01 1063.88C1211.5 1064.92 1209.99 1065.97 1208.48 1067.02C1206.91 1068.11 1205.34 1069.21 1203.76 1070.31C1095.71 1145.51 990.703 1218.59 810.672 1237C625.583 1255.92 473.563 1167.78 322.677 1079.33L319.178 1077.28C169.549 989.553 20.7811 902.336 -157.98 920.613L-157.827 922.105Z" fill="url(#paint0_linear)"/>
<defs>
<linearGradient id="paint0_linear" x1="26.0139" y1="711.343" x2="1434.48" y2="246.038" gradientUnits="userSpaceOnUse">
<stop stop-color="#96F2F4"/>
<stop offset="1" stop-color="#8F38DE" stop-opacity="0.79"/>
</linearGradient>
</defs>
</svg>
