<svg width="1440" height="566" viewBox="0 0 1440 566" fill="none" xmlns="http://www.w3.org/2000/svg">
<path fill-rule="evenodd" clip-rule="evenodd" d="M759.22 165.986C850.533 158.447 918.435 115.938 975.268 55.9626C1028.92 -0.65863 1072.75 -72.8896 1117.11 -146.002L1117.11 -146.003L1117.12 -146.01C1119.73 -150.312 1122.34 -154.616 1124.95 -158.921C1219.16 -313.957 1318.53 -469.045 1521.69 -485.817L1521.47 -487.301C1317.49 -470.46 1217.8 -314.686 1123.64 -159.745C1121.3 -155.89 1118.96 -152.035 1116.62 -148.183L1116 -147.161L1115.82 -146.865C1071.44 -73.715 1027.68 -1.60187 974.132 54.9098C917.46 114.716 849.858 157.001 758.997 164.502C577.024 179.526 427.416 121.253 278.989 62.7916L275.581 61.4493C128.333 3.44727 -17.9973 -54.1935 -193.616 -39.6943L-193.393 -38.2108C-18.1353 -52.6802 127.896 4.84235 275.212 62.8708L278.508 64.1691C426.916 122.623 576.845 181.043 759.22 165.986ZM760.18 176.557C851.505 169.016 919.469 126.831 976.389 67.3401C1030.13 11.1758 1074.06 -60.4541 1118.52 -132.958C1121.14 -137.226 1123.76 -141.497 1126.38 -145.768C1220.82 -299.511 1320.41 -453.311 1523.6 -470.088L1523.37 -471.571C1319.37 -454.728 1219.45 -300.249 1125.08 -146.597C1122.52 -142.441 1119.97 -138.285 1117.43 -134.132L1117.24 -133.825C1072.75 -61.2845 1028.89 10.2276 975.258 66.2826C918.499 125.605 850.834 167.57 759.957 175.073C577.957 190.1 428.23 131.149 279.682 72.0082L276.271 70.65C128.905 11.9743 -17.5452 -46.3367 -193.194 -31.8342L-192.971 -30.3506C-17.6863 -44.8231 128.462 13.3675 275.898 72.0705L279.196 73.3836C427.723 132.517 577.774 191.617 760.18 176.557ZM977.539 78.9277C920.542 137.992 852.523 179.891 761.187 187.432C578.753 202.496 428.584 142.718 279.939 82.9086L276.64 81.5809C129.087 22.2063 -17.1761 -36.6494 -192.484 -22.1743L-192.707 -23.6578C-17.0319 -38.1632 129.535 20.815 277.017 80.1616L280.432 81.5355C429.097 141.353 578.94 200.979 760.964 185.949C851.856 178.444 919.577 136.762 976.412 77.866C1030.12 22.2141 1074.07 -48.7675 1118.65 -120.77C1121.26 -124.994 1123.88 -129.22 1126.5 -133.448C1221.07 -285.962 1321.19 -439.297 1525.22 -456.144L1525.44 -454.66C1322.22 -437.88 1222.43 -285.215 1127.81 -132.613C1125.26 -128.516 1122.73 -124.419 1120.19 -120.324L1119.93 -119.898C1075.37 -47.9318 1031.35 23.1671 977.539 78.9277ZM762.194 198.307C853.541 190.764 921.614 149.15 978.688 90.5139C1032.57 35.157 1076.68 -35.4106 1121.33 -106.838C1123.96 -111.043 1126.59 -115.252 1129.23 -119.46C1224.05 -270.92 1324.03 -422.45 1527.29 -439.233L1527.06 -440.717C1323 -423.867 1222.7 -271.676 1127.93 -120.299C1125.3 -116.104 1122.68 -111.909 1120.06 -107.718C1075.38 -36.2523 1031.34 34.199 977.565 89.448C920.654 147.917 852.878 189.317 761.971 196.823C579.923 211.856 429.964 151.554 281.181 91.0591L277.763 89.6693C130.165 29.651 -16.5186 -29.9956 -192.22 -15.4872L-191.997 -14.0036C-16.6661 -28.4815 129.711 31.0402 277.381 91.0875L280.683 92.4301C429.444 152.916 579.733 213.373 762.194 198.307ZM979.778 101.589C922.617 159.741 854.481 201.031 763.122 208.575C580.63 223.645 430.232 162.585 281.363 101.496L278.06 100.141C130.282 39.4954 -16.2007 -20.6187 -191.558 -6.13766L-191.781 -7.62125C-16.0504 -22.1331 130.741 38.1079 278.445 98.7236L281.866 100.127C430.758 161.225 580.824 222.127 762.899 207.092C853.823 199.583 921.662 158.504 978.659 100.518C1032.52 45.7265 1076.66 -24.1232 1121.44 -94.9786L1121.62 -95.2552C1124.18 -99.3191 1126.75 -103.386 1129.33 -107.454C1224.32 -257.541 1324.85 -408.436 1528.94 -425.289L1529.16 -423.806C1325.87 -407.018 1225.67 -256.776 1130.63 -106.609C1127.99 -102.437 1125.35 -98.265 1122.71 -94.096C1077.96 -23.2772 1033.74 46.6891 979.778 101.589ZM764.129 219.449C855.499 211.903 923.689 170.9 980.927 113.175C1034.96 58.679 1079.27 -10.7562 1124.12 -81.0369L1124.19 -81.1554L1124.82 -82.1376L1124.94 -82.3266C1127.31 -86.0348 1129.68 -89.7451 1132.05 -93.4554C1227.29 -242.481 1327.69 -391.587 1531.01 -408.379L1530.79 -409.862C1326.67 -393.005 1225.94 -243.254 1130.75 -94.3055C1130.2 -93.4314 1129.64 -92.5573 1129.08 -91.6832L1127.2 -88.7486C1125.75 -86.4733 1124.3 -84.1986 1122.85 -81.9249L1122.85 -81.9233L1122.85 -81.9219C1077.98 -11.6057 1033.74 57.7122 979.813 112.1C922.74 169.659 854.845 210.456 763.906 217.966C581.807 233.004 431.624 171.424 282.615 109.646L279.19 108.226C131.37 46.9366 -15.5377 -13.9749 -191.294 0.539978L-191.072 2.02356C-15.6911 -12.4603 130.906 48.3221 278.801 109.643L282.107 111.013C431.093 172.781 581.609 234.523 764.129 219.449ZM982.077 124.761C924.762 182.058 856.517 222.776 765.135 230.324C582.589 245.4 431.953 182.976 282.85 120.527L279.543 119.142C131.53 57.1455 -15.1816 -4.30658 -190.586 10.1801L-190.808 8.69653C-15.0251 -5.82147 132 55.7619 279.936 117.727L283.364 119.163C432.491 181.622 582.79 243.882 764.913 228.84C855.866 221.328 923.817 180.814 980.967 123.682C1034.97 69.6964 1079.29 0.907745 1124.26 -68.8718L1124.31 -68.9504L1124.93 -69.9175C1127.35 -73.6621 1129.76 -77.4093 1132.18 -81.1571C1227.57 -228.968 1328.49 -377.575 1532.63 -394.435L1532.85 -392.952C1329.5 -376.157 1228.9 -228.186 1133.47 -80.302C1130.82 -76.1934 1128.17 -72.0847 1125.53 -67.979L1125.52 -67.9767C1080.58 1.76575 1036.19 70.6692 982.077 124.761ZM766.142 241.198C943.797 226.524 1034.2 87.5842 1126.87 -54.8327C1129.54 -58.936 1132.22 -63.0421 1134.89 -67.1483C1230.52 -213.89 1331.32 -360.725 1534.7 -377.524L1534.48 -379.008C1330.31 -362.144 1229.19 -214.681 1133.6 -68.0084C1130.97 -63.9727 1128.35 -59.9376 1125.73 -55.9059C1032.92 86.7065 942.865 225.099 765.919 239.714C583.772 254.759 433.357 191.818 284.112 128.677L280.68 127.225C132.628 64.5837 -14.5131 2.3273 -190.323 16.8484L-190.1 18.3321C-14.6727 3.84247 132.154 65.9653 280.284 128.639L283.593 130.039C432.813 193.17 583.568 256.278 766.142 241.198ZM1128.27 -41.9344C1035.39 99.3035 944.788 237.091 767.109 251.768C584.505 266.851 433.63 203.056 284.291 139.24L280.981 137.825C132.732 74.4698 -14.2104 11.6726 -189.663 26.1654L-189.885 24.6818C-14.0475 10.1572 133.212 73.0903 281.381 136.412L284.816 137.88C434.181 201.707 584.714 265.332 766.887 250.284C943.861 235.666 1034.12 98.4198 1127.12 -43.0085C1129.75 -47.0074 1132.38 -51.0095 1135.02 -55.0124C1230.81 -200.47 1332.14 -346.714 1536.34 -363.581L1536.56 -362.097C1333.14 -345.294 1232.14 -199.671 1136.3 -54.1468C1133.64 -50.1115 1130.99 -46.0762 1128.34 -42.0436L1128.27 -41.9344ZM768.076 262.338C945.78 247.658 1036.58 111.023 1129.66 -29.0365L1129.77 -29.1949C1132.41 -33.1765 1135.06 -37.1608 1137.71 -41.1451C1233.76 -185.451 1334.97 -329.863 1538.42 -346.67L1538.2 -348.153C1333.98 -331.283 1232.44 -186.26 1136.43 -42.0161C1133.79 -38.0461 1131.15 -34.0768 1128.52 -30.1107C1035.31 110.133 944.857 246.232 767.854 260.854C585.655 275.906 435.016 211.676 285.544 147.242L282.106 145.76C133.832 81.8367 -13.5341 18.3054 -189.399 32.8334L-189.177 34.317C-13.6996 19.821 133.347 83.2145 281.702 147.172L285.015 148.6C434.46 213.022 585.443 277.425 768.076 262.338ZM1131.07 -15.9804C1037.8 122.973 946.809 258.528 769.082 273.211C586.422 288.302 435.319 223.211 285.757 158.103L282.443 156.66C133.97 92.0215 -13.1912 27.9536 -188.692 42.4527L-188.914 40.969C-13.0225 26.4376 134.46 90.6459 282.851 155.249L286.292 156.748C435.882 221.868 586.637 286.782 768.86 271.727C945.89 257.102 1036.53 122.078 1129.93 -17.0556C1131.14 -18.8592 1132.35 -20.6635 1133.56 -22.4682C1134.99 -24.6011 1136.42 -26.7346 1137.86 -28.8682C1234.06 -171.973 1335.8 -315.852 1540.05 -332.726L1540.27 -331.243C1336.79 -314.432 1235.38 -171.156 1139.14 -27.992C1136.44 -23.9872 1133.75 -19.9824 1131.07 -15.9804ZM770.04 283.779C947.794 269.092 1038.99 134.762 1132.48 -2.93839C1135.17 -6.90369 1137.87 -10.8718 1140.56 -14.8399C1237.03 -156.71 1338.66 -298.698 1542.18 -315.513L1541.96 -316.997C1337.68 -300.118 1235.72 -157.536 1139.29 -15.722C1136.64 -11.8181 1133.99 -7.91483 1131.34 -4.01477C1037.73 133.861 946.88 267.666 769.819 282.295C587.568 297.353 436.694 231.748 286.983 165.935L283.538 164.421C135.029 99.1304 -12.5732 34.2386 -188.495 48.7738L-188.273 50.2575C-12.745 35.7548 134.534 100.504 283.126 165.831L286.443 167.289C436.125 233.089 587.349 298.874 770.04 283.779ZM1133.89 10.118C1040.21 146.713 948.823 279.962 771.047 294.652C588.327 309.75 436.984 243.275 287.185 176.786L283.867 175.313C135.157 109.302 -12.2368 43.8758 -187.788 58.3817L-188.01 56.8979C-12.0618 42.3593 135.657 107.931 284.282 173.904L287.731 175.435C437.56 241.937 588.551 308.23 770.825 293.168C947.913 278.535 1038.95 145.806 1132.75 9.04041L1132.79 8.97604C1135.43 5.12827 1138.07 1.27734 1140.72 -2.57422C1237.34 -143.25 1339.5 -284.687 1543.8 -301.569L1544.03 -300.086C1340.48 -283.266 1238.64 -142.415 1141.99 -1.68686C1139.39 2.09003 1136.8 5.86691 1134.21 9.64133L1133.89 10.118ZM772.052 305.524C949.852 290.831 1041.42 158.663 1135.29 23.1731L1135.44 22.9604C1138.09 19.1306 1140.75 15.2983 1143.41 11.4659C1240.26 -128.12 1342.29 -267.835 1545.87 -284.658L1545.65 -286.142C1341.32 -269.256 1238.96 -128.963 1142.14 10.5732C1139.48 14.4155 1136.82 18.257 1134.16 22.0954C1040.17 157.75 948.946 289.404 771.831 304.04C589.532 319.105 438.425 252.124 288.478 184.931L285.026 183.384C136.285 116.727 -11.5513 50.4741 -187.526 65.0162L-187.304 66.4999C-11.7293 51.9908 135.779 118.096 284.607 184.792L287.927 186.28C437.843 253.459 589.305 320.626 772.052 305.524ZM1136.67 35.9124C1042.59 170.149 950.805 301.092 772.979 315.789C590.201 330.895 438.629 263.11 288.605 195.315L285.284 193.814L285.283 193.814C136.347 126.505 -11.2667 59.7943 -186.868 74.3071L-187.09 72.8234C-11.0856 58.2773 136.858 125.138 285.706 192.407L289.161 193.968C439.217 261.778 590.432 329.374 772.758 314.305C949.904 299.664 1041.33 169.229 1135.54 34.833C1138.21 31.0298 1140.87 27.2234 1143.55 23.4164C1240.59 -114.829 1343.17 -253.825 1547.53 -270.715L1547.75 -269.231C1344.13 -252.403 1241.88 -113.976 1144.81 24.315L1143.67 25.9308C1142.96 26.9517 1142.24 27.9726 1141.53 28.9933C1139.91 31.3003 1138.29 33.6068 1136.67 35.9124ZM773.985 326.66C951.834 311.96 1043.8 182.098 1138.08 48.9674C1140.8 45.1358 1143.51 41.3015 1146.23 37.4672C1243.5 -99.6818 1345.95 -236.971 1549.6 -253.804L1549.38 -255.288C1344.99 -238.394 1242.21 -100.543 1144.97 36.5632C1142.53 40.0042 1140.1 43.4447 1137.66 46.8828L1136.96 47.8662L1136.95 47.8871C1042.55 181.172 950.937 310.532 773.764 325.176C591.413 340.248 440.082 271.961 289.908 203.458L286.449 201.88C137.486 133.924 -10.575 66.3791 -186.605 80.9289L-186.384 82.4127C-10.759 67.8964 136.97 135.289 286.023 203.286L289.347 204.802C439.488 273.29 591.179 341.77 773.985 326.66ZM1139.49 62.0232C1045.02 194.047 952.863 322.828 774.991 337.531C592.157 352.645 440.347 283.469 290.088 214.287L286.763 212.756C137.592 144.069 -10.2518 75.9927 -185.9 90.5125L-186.122 89.0287C-10.0648 74.4752 138.113 142.705 287.192 211.351L290.655 212.945C440.947 282.143 592.395 351.123 774.769 336.048C951.971 321.4 1043.77 193.116 1138.36 60.9411C1141.04 57.1998 1143.72 53.4554 1146.4 49.7103C1243.84 -86.2562 1346.81 -222.963 1551.23 -239.86L1551.45 -238.376C1347.77 -221.539 1245.12 -85.3867 1147.65 50.6198C1144.96 54.3788 1142.27 58.1378 1139.58 61.8943L1139.49 62.0232ZM1140.89 75.0792L1140.9 75.0785C1143.62 71.3115 1146.34 67.5417 1149.07 63.772C1246.74 -71.0919 1349.58 -206.108 1553.29 -222.949L1553.07 -224.433C1348.63 -207.531 1245.46 -71.9697 1147.83 62.8572C1145.17 66.5176 1142.53 70.1774 1139.88 73.8343L1139.77 73.9951C1044.99 205.059 953.003 332.267 775.775 346.919C593.376 361.998 441.812 292.323 291.401 222.428L287.936 220.818C138.74 151.482 -9.55469 82.5646 -185.638 97.1219L-185.417 98.6057C-9.74487 84.0824 138.214 152.843 287.503 222.222L290.83 223.768C441.205 293.646 593.135 363.52 775.996 348.403C953.891 333.695 1046.23 205.996 1140.89 75.0792ZM1142.29 87.9752C1047.42 217.712 954.882 344.258 776.962 358.969C594.071 374.091 442.021 303.514 291.527 232.935L288.198 231.374C138.79 161.299 -9.28513 91.8488 -184.982 106.376L-185.204 104.892C-9.09183 90.3307 139.321 159.94 288.634 229.971L292.104 231.598C442.634 302.194 594.316 372.569 776.741 357.485C953.999 342.829 1046.18 216.769 1141.16 86.8903C1143.85 83.2128 1146.54 79.5324 1149.24 75.8514C1247.09 -57.7598 1350.47 -192.1 1554.94 -209.006L1555.16 -207.522C1351.41 -190.676 1248.36 -56.873 1150.49 76.772C1148.95 78.869 1147.41 80.966 1145.88 83.0626L1142.31 87.9452L1142.29 87.9752ZM777.928 369.536C955.872 354.821 1048.61 229.429 1143.68 100.872L1143.75 100.778L1143.82 100.686C1145.81 97.9909 1147.81 95.2944 1149.8 92.5977C1150.5 91.6559 1151.2 90.7141 1151.9 89.7722C1249.98 -42.6539 1353.24 -175.243 1557.02 -192.095L1556.8 -193.579C1352.31 -176.668 1248.71 -43.5495 1150.66 88.8457C1147.95 92.4937 1145.26 96.141 1142.56 99.7853C1047.38 228.479 954.994 353.391 777.707 368.052C595.256 383.139 443.467 312.145 292.83 240.927L289.357 239.285C139.939 168.638 -8.58052 98.4154 -184.72 112.981L-184.499 114.465C-8.77663 99.9337 139.403 169.995 288.918 240.687L292.248 242.262C442.849 313.462 595.008 384.662 777.928 369.536ZM1145.09 113.926C1049.82 241.377 956.901 365.687 778.933 380.405C595.985 395.536 443.707 323.633 292.989 251.732L289.657 250.142C140.024 178.753 -8.27034 108.002 -184.017 122.537L-184.237 121.053C-8.07108 106.484 140.566 177.398 290.1 248.741L293.576 250.399C444.332 322.319 596.237 394.013 778.712 378.921C956.027 364.257 1048.6 240.421 1143.97 112.839L1144.05 112.731C1146.72 109.153 1149.4 105.573 1152.08 101.992C1250.34 -29.2633 1354.13 -161.237 1558.65 -178.151L1558.87 -176.667C1355.06 -159.811 1251.59 -28.3593 1153.32 102.924C1151.37 105.531 1149.42 108.138 1147.47 110.744L1145.09 113.926ZM779.899 390.971C957.891 376.248 1051.01 253.092 1146.48 126.823C1149.23 123.192 1151.98 119.558 1154.73 115.924C1253.21 -14.1402 1356.89 -144.379 1560.74 -161.24L1560.52 -162.724C1355.97 -145.805 1251.96 -15.0531 1153.5 114.986C1150.81 118.536 1148.12 122.086 1145.44 125.634L1145.4 125.683L1145.37 125.733C1049.79 252.13 957.022 374.818 779.678 389.487C597.177 404.583 445.153 332.184 294.278 259.557L290.798 257.882C141.147 185.839 -7.60857 114.228 -183.803 128.802L-183.583 130.285C-7.81102 115.747 140.6 187.192 290.351 259.283L293.686 260.888C444.522 333.495 596.921 406.106 779.899 390.971ZM1147.91 140.021C1052.23 265.11 958.912 387.112 780.896 401.838C597.888 416.978 445.369 343.657 294.414 270.341L291.078 268.721C141.207 195.927 -7.32016 123.785 -183.117 138.328L-183.338 136.844C-7.11472 122.266 141.759 194.576 291.528 267.322L295.011 269.014C446.006 342.349 598.148 415.454 780.675 400.354C958.048 385.681 1051.02 264.141 1146.79 138.93C1149.51 135.382 1152.22 131.832 1154.94 128.282C1253.62 -0.54071 1357.84 -130.07 1562.41 -146.994L1562.63 -145.51C1358.75 -128.644 1254.86 0.381012 1156.17 129.226C1153.41 132.825 1150.66 136.424 1147.91 140.021ZM781.9 412.706C959.941 397.976 1053.44 277.056 1149.32 153.075L1149.61 152.695C1152.27 149.257 1154.93 145.816 1157.59 142.376C1256.48 14.6749 1360.57 -113.212 1564.48 -130.084L1564.26 -131.567C1359.66 -114.639 1255.25 13.7449 1156.37 141.427C1153.74 144.824 1151.11 148.22 1148.49 151.615L1148.2 151.982C1052.24 276.082 959.081 396.544 781.68 411.222C599.129 426.326 446.87 352.516 295.756 278.474L292.27 276.765C142.384 203.319 -6.60612 130.311 -182.856 144.893L-182.635 146.377C-6.81479 131.83 141.827 204.667 291.816 278.163L295.154 279.799C446.226 353.821 598.865 427.85 781.9 412.706ZM1150.71 165.971C1054.63 288.77 960.931 408.535 782.866 423.27C599.801 438.419 447.053 363.757 295.874 289.105L292.535 287.456C142.439 213.333 -6.30754 139.876 -182.154 154.427L-182.374 152.943C-6.0961 138.356 143.001 211.987 292.992 286.059L296.482 287.782C447.703 362.455 600.068 436.895 782.645 421.786C960.076 407.104 1053.43 287.79 1149.6 164.875L1149.65 164.818C1152.36 161.354 1155.07 157.887 1157.79 154.42C1256.87 27.9547 1361.5 -99.2069 1566.13 -116.14L1566.35 -114.656C1362.4 -97.7795 1258.1 28.8936 1159 155.375C1156.24 158.908 1153.47 162.44 1150.71 165.971ZM783.831 433.834C961.92 419.094 1055.82 300.484 1152.1 178.866C1154.1 176.344 1156.1 173.82 1158.1 171.296C1158.87 170.322 1159.64 169.348 1160.41 168.374C1259.72 43.1124 1364.23 -82.3464 1568.21 -99.2289L1567.99 -100.713C1363.33 -83.7744 1258.5 42.1648 1159.2 167.412C1157.46 169.603 1155.73 171.794 1154 173.984L1151 177.768C1054.62 299.497 961.071 417.662 783.61 432.35C601.007 447.463 448.524 372.311 297.183 296.923L293.689 295.182C143.581 220.402 -5.63423 146.067 -181.94 160.659L-181.72 162.143C-5.84877 147.587 143.015 221.746 293.23 296.579L296.57 298.243C447.868 373.61 600.736 448.987 783.831 433.834ZM1153.51 191.919C1057.04 312.43 962.948 429.957 784.836 444.701C601.713 459.859 448.726 383.767 297.311 307.688L293.968 306.008C143.635 230.468 -5.34351 155.607 -181.239 170.168L-181.459 168.684C-5.12582 154.087 144.207 229.126 294.431 304.613L297.928 306.37C449.388 382.471 601.988 458.334 784.615 443.217C962.103 428.525 1055.84 311.436 1152.41 190.82L1152.52 190.685L1152.62 190.551L1156.12 186.182C1157.62 184.307 1159.13 182.432 1160.63 180.557C1260.12 56.4504 1365.16 -68.3425 1569.84 -85.2858L1570.06 -83.8018C1366.05 -66.914 1261.34 57.4063 1161.84 181.524C1159.13 184.903 1156.42 188.282 1153.72 191.659L1153.62 191.788L1153.51 191.919ZM785.832 455.566C963.969 440.817 1058.26 324.445 1154.94 205.117L1155.09 204.924C1157.82 201.56 1160.55 198.192 1163.28 194.825C1262.99 71.9274 1367.91 -51.1784 1571.96 -68.0721L1571.74 -69.556C1367.03 -52.6074 1261.78 70.9628 1162.08 193.852C1161.27 194.839 1160.47 195.827 1159.67 196.814L1158.59 198.15L1156.64 200.556L1154.23 203.526L1153.84 204.015C1057.07 323.445 963.13 439.385 785.612 454.082C602.958 469.204 450.24 392.624 298.66 315.804L295.16 314.029C144.818 237.83 -4.63319 162.082 -180.995 176.683L-180.775 178.167C-4.85399 163.602 144.241 239.169 294.693 315.424L298.038 317.119C449.571 393.916 602.679 470.729 785.832 455.566ZM1156.31 217.868C1059.44 336.088 964.966 451.377 786.805 466.129C603.624 481.298 450.397 403.766 298.746 326.253L295.4 324.542C144.83 247.575 -4.38054 171.303 -180.325 185.873L-180.545 184.389C-4.1566 169.783 145.412 246.238 295.869 323.148L299.374 324.939C451.072 402.477 603.907 479.772 786.585 464.645C964.13 449.943 1058.26 335.082 1155.22 216.763L1155.82 216.02L1158.96 212.192C1160.46 210.359 1161.97 208.526 1163.47 206.693C1263.38 84.946 1368.82 -37.4777 1573.56 -54.4314L1573.78 -52.9474C1369.7 -36.0481 1264.58 85.9189 1164.67 207.673C1161.88 211.072 1159.1 214.471 1156.31 217.868ZM787.769 476.691C965.954 461.933 1060.63 347.8 1157.71 230.762L1157.75 230.707L1157.8 230.652L1157.84 230.597L1157.89 230.543L1157.93 230.489C1160.65 227.218 1163.36 223.944 1166.08 220.671C1266.2 100.137 1371.53 -20.6149 1575.65 -37.5202L1575.43 -39.0042C1370.66 -22.045 1265.01 99.1556 1164.89 219.685C1162.13 223.01 1159.37 226.334 1156.61 229.655C1059.45 346.787 965.125 460.5 787.549 475.207C604.845 490.339 451.904 412.404 300.098 334.225L296.59 332.418C146.027 254.872 -3.64757 177.784 -180.064 192.395L-179.844 193.879C-3.87427 179.305 145.44 256.207 296.118 333.811L299.466 335.535C451.223 413.69 604.559 491.865 787.769 476.691ZM1159.11 243.815C1061.84 359.743 966.982 472.793 788.774 487.555C605.535 502.734 452.08 423.837 300.205 344.961L296.856 343.222C146.061 264.901 -3.3696 187.29 -179.364 201.868L-179.583 200.384C-3.13976 185.768 146.652 263.568 297.332 341.829L300.843 343.653C452.767 422.554 605.825 501.208 788.554 486.071C966.157 471.359 1060.67 358.725 1158.02 242.706L1158.39 242.272C1161.03 239.126 1163.67 235.978 1166.32 232.829C1266.63 113.441 1372.48 -6.61221 1577.28 -23.5768L1577.5 -22.0927C1373.35 -5.18161 1267.82 114.431 1167.5 233.82C1164.7 237.153 1161.91 240.485 1159.11 243.815ZM789.77 498.418C968.003 483.651 1063.06 371.757 1160.54 257.011L1164.06 252.865C1165.69 250.951 1167.32 249.035 1168.95 247.12C1269.47 128.952 1375.21 10.5546 1579.4 -6.36292L1579.18 -7.84695C1374.35 9.12344 1268.29 127.953 1167.76 246.122C1164.99 249.383 1162.22 252.642 1159.45 255.899C1061.9 370.732 967.183 482.217 789.55 496.934C606.795 512.076 453.618 432.696 301.574 353.066L298.059 351.225C147.262 272.242 -2.64786 193.724 -179.12 208.345L-178.9 209.83C-2.88103 195.246 146.665 273.573 297.58 352.617L297.58 352.617L300.932 354.372C452.925 433.975 606.501 513.603 789.77 498.418ZM1161.91 269.761C1064.24 383.397 968.999 494.207 790.742 508.98C607.445 524.169 453.75 443.814 301.639 363.485L298.286 361.714C147.254 281.949 -2.40794 202.908 -178.451 217.497L-178.67 216.013C-2.17183 201.386 147.855 280.621 298.768 360.324L302.287 362.182C454.449 442.538 607.743 522.643 790.523 507.495C968.184 492.773 1063.08 382.366 1160.83 268.647L1160.92 268.543L1161.01 268.441C1163.72 265.284 1166.44 262.124 1169.16 258.963C1269.89 141.937 1376.15 24.2538 1580.99 7.2778L1581.21 8.76187C1377 25.6854 1271.06 142.943 1170.34 259.966C1168.91 261.618 1167.49 263.271 1166.07 264.922C1164.69 266.535 1163.3 268.148 1161.91 269.761ZM791.737 519.841C970.019 505.063 1065.46 395.41 1163.34 282.957L1163.47 282.804C1166.24 279.626 1169.01 276.446 1171.78 273.266C1272.71 157.463 1378.86 41.4216 1583.11 24.4915L1582.89 23.0074C1378.02 39.9894 1271.55 156.448 1170.61 272.255C1167.83 275.436 1165.07 278.616 1162.3 281.794L1162.26 281.839C1064.31 394.371 969.209 503.628 791.519 518.357C608.712 533.509 455.301 452.674 303.018 371.584L299.496 369.708C148.466 289.279 -1.68018 209.32 -178.207 223.952L-177.988 225.436C-1.91939 210.842 147.859 290.604 299.011 371.098L302.366 372.884C454.595 453.946 608.411 535.037 791.737 519.841ZM1164.73 295.85C1066.65 407.119 971.008 515.616 792.702 530.399C609.345 545.601 455.421 463.855 303.085 382.14L299.728 380.34C148.469 299.197 -1.41399 218.792 -177.509 233.392L-177.728 231.907C-1.172 217.269 149.08 297.873 300.216 378.951L303.742 380.842C456.132 462.586 609.65 544.073 792.483 528.915C970.204 514.18 1065.5 406.074 1163.66 294.729C1166.44 291.57 1169.23 288.408 1172.02 285.245C1273.17 170.658 1379.86 55.4229 1584.76 38.4346L1584.98 39.9187C1380.7 56.8557 1274.33 171.681 1173.19 286.262L1171.55 288.117L1170.66 289.133L1168.91 291.114C1167.58 292.62 1166.25 294.126 1164.93 295.632L1164.73 295.85ZM793.674 540.958C972.003 526.17 1067.83 418.758 1166.11 308.599C1168.93 305.437 1171.75 302.272 1174.58 299.108C1275.92 185.672 1382.48 71.9874 1586.8 55.0439L1586.58 53.5598C1381.65 70.5541 1274.77 184.641 1173.42 298.085C1170.99 300.808 1168.56 303.53 1166.13 306.251L1165.8 306.625L1165.23 307.265L1165.04 307.476C1066.69 417.707 971.204 524.734 793.455 539.474C610.598 554.638 456.963 472.419 304.454 389.941L300.925 388.032C149.673 306.227 -0.696213 224.9 -177.279 239.543L-177.06 241.028C-0.941376 226.422 149.057 307.549 300.434 389.421L303.792 391.237C456.246 473.685 610.29 556.166 793.674 540.958ZM1167.53 321.793C1069.05 430.768 973.023 537.023 794.669 551.817C611.255 567.031 457.09 483.806 304.518 400.617L301.158 398.785C149.662 316.177 -0.453369 234.321 -176.598 248.932L-176.816 247.448C-0.205032 232.798 150.283 314.858 301.652 397.398L305.185 399.324C457.814 482.544 611.567 565.503 794.451 550.333C972.23 535.586 1067.92 429.71 1166.47 320.667L1169.92 316.846C1171.57 315.023 1173.22 313.2 1174.87 311.376C1276.43 199.152 1383.52 86.2896 1588.48 69.2887L1588.7 70.7729C1384.35 87.7235 1277.57 200.192 1176.02 312.405C1173.21 315.51 1170.41 318.615 1167.6 321.718L1167.53 321.793ZM795.672 562.678C974.049 547.878 1070.26 442.709 1168.94 334.844L1169.18 334.58L1169.21 334.546L1169.25 334.511L1169.28 334.477L1169.65 334.073C1171.06 332.528 1172.47 330.982 1173.89 329.437C1175.07 328.142 1176.26 326.848 1177.44 325.553C1279.19 214.485 1386.17 103.158 1590.55 86.2004L1590.33 84.7162C1385.35 101.723 1278.06 213.437 1176.3 324.518C1173.78 327.266 1171.26 330.014 1168.75 332.759L1168.08 333.495L1167.88 333.715C1069.14 441.644 973.261 546.441 795.454 561.194C612.546 576.369 458.676 492.673 305.928 408.714L302.392 406.77C150.906 323.497 0.301407 240.708 -176.336 255.364L-176.118 256.848C0.0499268 242.231 150.28 324.813 301.895 408.156L305.256 410.004C457.946 493.932 612.229 577.898 795.672 562.678ZM1170.37 348.039C1071.48 454.718 975.07 558.73 796.668 573.536C613.195 588.762 458.79 504.047 305.982 419.372L302.619 417.509C150.885 333.423 0.537781 250.106 -175.656 264.729L-175.874 263.244C0.792374 248.583 151.516 332.109 303.119 416.123L306.659 418.084C459.526 502.792 613.515 587.233 796.449 572.052C974.287 557.293 1070.36 453.647 1169.31 346.906C1172.12 343.876 1174.93 340.843 1177.74 337.809C1279.72 227.949 1387.22 117.46 1592.23 100.446L1592.45 101.93C1388.03 118.895 1280.85 229.005 1178.89 338.851C1176.04 341.914 1173.2 344.977 1170.37 348.039ZM797.6 583.787C976.026 568.975 1072.64 466.122 1171.73 360.627C1174.57 357.6 1177.42 354.572 1180.27 351.542C1282.44 242.92 1389.84 134.027 1594.29 117.055L1594.07 115.57C1389.03 132.592 1281.32 241.855 1179.13 350.494C1176.31 353.494 1173.49 356.494 1170.68 359.491C1071.53 465.043 975.249 567.537 797.382 582.303C614.421 597.491 460.326 512.384 307.351 427.008L303.807 425.03C152.099 340.354 1.2688 256.169 -175.426 270.837L-175.209 272.321C1.01131 257.692 151.463 341.666 303.304 426.415L306.669 428.293C459.584 513.635 614.097 599.02 797.6 583.787ZM1173.14 373.677C1073.85 478.06 977.053 579.828 798.603 594.646C615.072 609.885 460.44 523.75 307.407 437.66L304.041 435.767C152.082 350.274 1.51463 265.565 -174.729 280.2L-174.947 278.716C1.77525 264.041 152.722 348.965 304.547 434.382L308.094 436.378C461.188 522.502 615.4 608.356 798.385 593.161C976.281 578.389 1072.75 476.975 1172.09 372.537C1174.91 369.572 1177.73 366.604 1180.56 363.635C1282.94 256.14 1390.86 148.026 1595.93 130.998L1596.14 132.482C1391.66 149.462 1284.06 257.213 1181.69 364.689C1179.95 366.518 1178.21 368.346 1176.47 370.175L1173.14 373.677ZM-173.887 288.587C2.34515 273.955 152.999 359.281 305.047 445.397L308.414 447.304C461.535 534.021 616.257 620.785 799.779 605.548C978.216 590.733 1075.19 490.256 1174.66 387.196C1177.51 384.24 1180.37 381.282 1183.23 378.323C1285.78 272.211 1393.57 165.819 1598.05 148.841L1597.83 147.357C1392.78 164.382 1284.68 271.129 1182.1 377.262C1180.73 378.682 1179.36 380.102 1177.99 381.522C1176.64 382.914 1175.3 384.306 1173.96 385.697L1173.62 386.052C1074.09 489.164 977.45 589.294 799.561 604.063C616.588 619.255 462.288 532.776 309.105 446.024L305.555 444.013C153.643 357.974 2.60823 272.431 -174.105 287.103L-173.887 288.587ZM306.048 454.753C153.913 368.025 3.17537 282.093 -173.042 296.722L-173.26 295.238C3.4408 280.569 154.561 366.719 306.558 453.369L310.111 455.394C463.38 542.763 617.765 629.856 800.723 614.668C978.6 599.901 1075.41 500.989 1175.1 399.133L1175.42 398.804L1178.41 395.749L1179.67 394.457C1180.98 393.121 1182.29 391.784 1183.6 390.448C1286.35 285.605 1394.62 180.153 1599.66 163.132L1599.87 164.617C1395.41 181.591 1287.45 286.695 1184.72 391.516C1181.85 394.438 1179 397.36 1176.14 400.28C1076.5 502.088 979.36 601.341 800.94 616.152C617.431 631.386 462.622 544.005 309.416 456.673L306.048 454.753ZM-172.166 305.16C4.03682 290.534 154.858 377.071 307.079 464.411L310.449 466.344C463.74 554.291 618.636 642.29 802.133 627.059C980.536 612.251 1077.85 514.299 1177.67 413.822C1180.53 410.94 1183.4 408.057 1186.27 405.174C1289.18 301.725 1397.32 197.988 1601.78 181.018L1601.56 179.533C1396.55 196.55 1288.09 300.626 1185.16 404.098C1183.33 405.932 1181.51 407.766 1179.69 409.6L1176.64 412.67C1076.77 513.192 979.782 610.811 801.915 625.575C618.973 640.76 464.504 553.052 311.147 465.068L307.592 463.028C155.511 375.768 4.30466 289.01 -172.384 303.676L-172.166 305.16ZM308.111 474.068C155.804 386.117 4.89835 298.975 -171.29 313.597L-171.508 312.113C5.16859 297.45 156.46 384.816 308.626 472.685L312.184 474.74C465.627 563.341 620.181 651.662 803.108 636.48C980.964 621.72 1078.11 525.314 1178.15 426.045L1178.19 426.005C1181.02 423.198 1183.85 420.388 1186.68 417.578C1289.79 315.393 1398.42 212.609 1603.42 195.596L1603.64 197.08C1399.19 214.047 1290.87 316.501 1187.79 418.66C1184.92 421.508 1182.05 424.355 1179.18 427.2C1079.19 526.428 981.713 623.16 803.326 637.965C619.841 653.192 464.859 564.576 311.482 476.014L308.111 474.068ZM-170.444 321.737C5.7305 307.118 156.71 394.789 309.092 483.275L312.464 485.232C465.915 574.333 620.974 663.489 804.448 648.264C982.819 633.462 1080.47 538.021 1180.64 440.116C1183.52 437.309 1186.39 434.5 1189.27 431.691C1292.54 330.895 1401.04 229.8 1605.48 212.836L1605.26 211.351C1400.28 228.361 1291.47 329.778 1188.17 430.601C1185.41 433.302 1182.64 436.002 1179.88 438.7L1179.62 438.956C1079.4 536.9 982.077 632.021 804.229 646.779C621.317 661.958 466.688 573.1 313.169 483.961L309.608 481.893C157.369 393.49 6.00275 305.593 -170.663 320.253L-170.444 321.737ZM310.125 492.933C157.656 403.836 6.59247 315.56 -169.568 330.176L-169.786 328.692C6.86705 314.035 158.319 402.539 310.643 491.552L314.207 493.634C467.812 583.389 622.525 672.86 805.423 657.685C983.259 642.93 1080.76 549.098 1181.16 452.483C1184.01 449.737 1186.87 446.989 1189.73 444.24C1293.21 344.783 1402.21 244.736 1607.17 227.731L1607.38 229.215C1402.96 246.176 1294.27 345.908 1190.81 445.337C1187.93 448.108 1185.05 450.878 1182.18 453.647C1081.82 550.226 983.995 644.371 805.641 659.17C622.18 674.391 467.034 584.619 313.497 494.904L310.125 492.933ZM-168.691 338.615C7.45396 324.003 158.601 412.883 311.156 502.591L314.53 504.575C468.152 594.904 623.385 685.294 806.833 670.075C985.171 655.28 1083.16 562.35 1183.69 467.016L1184.04 466.676C1186.8 464.057 1189.57 461.436 1192.34 458.814C1295.96 360.668 1404.83 262.215 1609.24 245.257L1609.02 243.773C1404.08 260.774 1294.91 359.535 1191.26 457.71C1188.39 460.424 1185.53 463.136 1182.67 465.847C1082.11 561.215 984.441 653.839 806.615 668.591C623.733 683.763 468.935 593.678 315.243 503.308L311.677 501.211C159.268 411.588 7.73096 322.477 -168.91 337.131L-168.691 338.615ZM312.188 512.249C159.546 421.93 8.31554 332.445 -167.815 347.055L-168.033 345.571C8.59488 330.92 160.218 420.637 312.71 510.869L316.28 512.982C470.058 603.967 624.942 694.665 807.807 679.496C985.623 664.747 1083.47 573.408 1184.21 479.366C1187.07 476.693 1189.94 474.018 1192.81 471.341C1296.65 374.529 1406.01 277.136 1610.93 260.138L1611.15 261.622C1406.75 278.577 1297.69 375.671 1193.88 472.453L1191.68 474.505L1189.53 476.517L1187.21 478.683L1185.22 480.54C1084.51 574.551 986.347 666.189 808.026 680.981C624.59 696.196 469.27 605.19 315.562 514.246L312.188 512.249ZM-166.97 355.193C9.14603 340.586 160.461 430.675 313.189 521.606L316.564 523.615C470.357 615.173 625.764 706.796 809.187 691.583C987.491 676.795 1085.82 586.37 1186.69 493.599C1189.58 490.941 1192.48 488.281 1195.37 485.621C1299.36 390.118 1408.59 294.299 1612.97 277.348L1612.75 275.864C1407.85 292.858 1298.33 388.968 1194.31 484.502C1191.43 487.143 1188.56 489.784 1185.69 492.422C1084.78 585.22 986.773 675.352 808.968 690.099C626.118 705.265 471.15 613.954 317.285 522.353L313.713 520.226C161.136 429.385 9.42764 339.06 -167.188 353.709L-166.97 355.193ZM314.201 531.116L314.2 531.115C161.397 439.651 10.0092 349.033 -166.093 363.637L-166.312 362.153C10.293 347.507 162.076 438.362 314.727 529.737L318.302 531.876C472.242 624.016 627.285 715.863 810.121 700.7C987.917 685.956 1086.11 597.1 1187.19 505.62L1187.41 505.424L1187.73 505.135C1190.43 502.695 1193.12 500.254 1195.83 497.812C1300.03 403.632 1409.75 308.881 1614.63 291.89L1614.85 293.374C1410.47 310.323 1301.05 404.79 1196.88 498.937C1194.04 501.507 1191.2 504.076 1188.37 506.643L1188.19 506.802C1087.13 598.258 988.629 687.399 810.34 702.184C626.928 717.395 471.445 625.232 317.577 533.137L314.201 531.116ZM-165.217 372.078C10.871 357.476 162.343 448.699 315.233 540.774L318.61 542.808C472.564 635.518 628.133 728.297 811.533 713.089C989.805 698.307 1088.48 610.453 1189.72 520.316C1192.62 517.734 1195.52 515.15 1198.43 512.566C1302.79 419.778 1412.39 326.664 1616.75 309.719L1616.53 308.235C1411.67 325.222 1301.77 418.61 1197.38 511.432C1195.48 513.12 1193.59 514.807 1191.69 516.494L1188.73 519.129L1188.73 519.129C1087.46 609.289 989.099 696.863 811.314 711.605C628.493 726.765 473.366 634.304 319.338 541.55L315.761 539.396C163.025 447.412 11.157 355.95 -165.436 370.593L-165.217 372.078ZM316.233 550.13C163.258 457.444 11.7013 365.617 -164.372 380.216L-164.591 378.731C11.9896 364.091 163.943 456.159 316.763 548.752L320.343 550.921C474.457 644.29 629.669 737.363 812.475 722.207C990.249 707.467 1088.78 621.094 1190.21 532.174C1193.1 529.645 1195.99 527.114 1198.88 524.583C1303.45 433.035 1413.51 340.924 1618.36 323.941L1618.58 325.425C1414.22 342.367 1304.45 434.209 1199.92 525.723C1197.01 528.271 1194.1 530.82 1191.2 533.366C1089.79 622.266 990.949 708.912 812.693 723.691C629.306 738.895 473.65 645.5 319.612 552.177L316.233 550.13ZM-163.495 388.657C12.5631 374.062 164.203 466.492 317.265 559.788L320.645 561.848C474.769 655.786 630.512 749.797 813.886 734.595C992.125 719.819 1091.14 634.458 1192.73 546.874C1195.64 544.365 1198.55 541.855 1201.47 539.344C1306.18 449.187 1416.14 358.696 1620.48 341.756L1620.26 340.272C1415.44 357.252 1305.19 448.004 1200.43 538.197C1199.16 539.293 1197.89 540.389 1196.62 541.485L1194.39 543.402L1191.75 545.676C1090.14 633.279 991.432 718.374 813.667 733.111C630.878 748.264 475.581 654.579 321.38 560.595L317.797 558.411C164.893 465.209 12.8537 372.535 -163.714 387.173L-163.495 388.657ZM318.297 569.448C165.149 475.541 13.425 382.507 -162.619 397.099L-162.838 395.615C13.7179 380.981 165.842 474.261 318.831 568.071L322.417 570.27C476.704 664.869 632.086 759.167 814.86 744.016C992.614 729.282 1091.49 645.385 1193.27 559.02C1196.16 556.562 1199.06 554.104 1201.96 551.644C1306.89 462.722 1417.32 373.246 1622.12 356.269L1622.34 357.753C1418.01 374.69 1307.87 463.913 1202.99 552.799C1200.07 555.274 1197.15 557.748 1194.24 560.221C1092.48 646.571 993.301 730.728 815.079 745.5C631.717 760.699 475.887 666.072 321.678 571.521L318.297 569.448ZM-161.742 405.545C14.2884 390.955 166.086 484.517 319.309 578.958L322.691 581.043C476.975 676.131 632.88 771.297 816.231 756.1C994.438 741.33 1093.79 658.451 1195.73 573.409L1199.18 570.53C1200.95 569.053 1202.73 567.577 1204.5 566.1C1309.57 478.562 1419.9 390.684 1624.21 373.75L1623.99 372.266C1419.21 389.239 1308.6 477.363 1203.48 564.938C1200.57 567.36 1197.67 569.782 1194.77 572.203L1194.77 572.203C1092.81 657.259 993.757 739.884 816.012 754.616C633.252 769.764 477.796 674.93 323.433 579.794L319.845 577.582C166.782 483.239 14.5834 389.428 -161.961 404.061L-161.742 405.545ZM320.31 588.315C167 493.264 15.1187 399.098 -160.897 413.685L-161.117 412.201C15.4159 397.571 167.7 491.987 320.847 586.938L324.438 589.165C478.888 684.916 634.429 780.362 817.174 765.218C994.908 750.488 1094.12 669.058 1196.25 585.236L1196.45 585.071C1199.29 582.741 1202.14 580.409 1204.98 578.076C1310.27 491.77 1421.05 404.917 1625.82 387.947L1626.04 389.431C1421.73 406.363 1311.23 492.976 1205.99 579.245C1203.09 581.625 1200.19 584.005 1197.29 586.383L1197.21 586.447C1095.1 670.258 995.582 751.935 817.393 766.702C634.054 781.896 478.062 686.114 323.692 590.412L320.31 588.315ZM-160.021 422.127C15.9803 407.543 167.946 502.312 321.341 597.974L324.725 600.084C479.18 696.399 635.259 792.796 818.585 777.605C996.757 762.841 1096.44 682.443 1198.74 599.943C1201.67 597.581 1204.6 595.217 1207.53 592.854C1312.96 507.934 1423.65 422.667 1627.94 405.738L1627.72 404.254C1422.98 421.22 1312.01 506.72 1206.54 591.677C1204.86 593.026 1203.19 594.375 1201.52 595.723L1199.09 597.676L1197.79 598.726C1095.48 681.236 996.09 761.394 818.366 776.121C635.636 791.263 480.01 695.205 325.475 598.839L321.88 596.598C168.649 501.038 16.2798 406.016 -160.24 420.643L-160.021 422.127ZM322.373 607.633C168.892 511.361 16.8422 415.988 -159.145 430.57L-159.364 429.086C17.144 414.461 169.599 510.089 322.914 606.257L326.511 608.514C481.133 705.493 636.844 802.163 819.558 787.025C997.271 772.3 1096.84 693.413 1199.33 612.214L1199.33 612.213C1202.25 609.902 1205.17 607.589 1208.09 605.275C1313.75 521.666 1424.9 437.518 1629.63 420.555L1629.85 422.039C1425.57 438.965 1314.69 522.888 1209.08 606.459C1206.14 608.785 1203.2 611.111 1200.27 613.435C1097.79 694.627 997.933 773.748 819.777 788.509C636.464 803.697 480.298 706.684 325.758 609.756L322.373 607.633ZM-158.299 438.711C17.6727 424.132 169.806 520.109 323.374 616.99L326.76 619.126C481.385 716.667 637.637 814.296 820.938 799.11C999.077 784.352 1099.1 706.43 1201.75 626.465L1202.48 625.899C1203.7 624.947 1204.92 623.995 1206.14 623.043C1207.11 622.291 1208.07 621.538 1209.04 620.786L1210.57 619.596C1316.36 537.289 1427.4 454.627 1631.67 437.704L1631.45 436.22C1426.75 453.179 1315.43 536.059 1209.59 618.405C1207.57 619.973 1205.56 621.54 1203.55 623.107L1200.81 625.238C1098.16 705.209 998.423 782.904 820.719 797.626C638.021 812.762 482.225 715.48 327.517 617.886L323.916 615.615C170.517 518.839 17.9767 422.605 -158.519 437.227L-158.299 438.711ZM324.386 626.501C170.743 529.086 18.5359 432.582 -157.423 447.158L-157.643 445.674C18.842 431.054 171.457 527.818 324.93 625.126L328.533 627.41C483.317 725.542 639.187 823.359 821.871 808.225C999.567 793.505 1099.48 717.074 1202.32 638.407C1205.24 636.168 1208.17 633.927 1211.11 631.685C1317.13 550.681 1428.64 469.145 1633.33 452.189L1633.55 453.673C1429.29 470.593 1318.05 551.918 1212.08 632.883C1209.22 635.067 1206.37 637.251 1203.51 639.433L1203.24 639.64C1100.41 718.303 1000.21 794.954 822.091 809.709C638.801 824.893 482.472 726.726 327.773 628.648L324.386 626.501ZM-156.547 455.602C19.398 441.028 171.689 538.135 325.418 636.16L328.806 638.32C483.591 737.011 640.005 835.793 823.283 820.612C1001.39 805.859 1101.75 730.404 1204.75 652.966C1207.7 650.751 1210.65 648.533 1213.6 646.315C1319.75 566.612 1431.16 486.546 1635.4 469.628L1635.18 468.144C1430.51 485.097 1318.84 565.368 1212.64 645.11C1209.7 647.317 1206.76 649.524 1203.83 651.728C1100.83 729.169 1000.75 804.41 823.063 819.128C640.394 834.259 484.44 735.83 329.569 637.084L325.964 634.785C172.406 536.87 19.7063 439.501 -156.766 454.118L-156.547 455.602Z" fill="url(#paint0_linear_3:1417)" fill-opacity="0.2"/>
<defs>
<linearGradient id="paint0_linear_3:1417" x1="39.3626" y1="291.879" x2="1429.33" y2="-159.271" gradientUnits="userSpaceOnUse">
<stop stop-color="#96F2F4"/>
<stop offset="1" stop-color="#8F38DE" stop-opacity="0.79"/>
</linearGradient>
</defs>
</svg>
