<svg width="583" height="669" viewBox="0 0 583 669" fill="none" xmlns="http://www.w3.org/2000/svg">
<path d="M453.712 321.175C398.363 302.299 339.479 332.32 322.19 388.229C304.902 444.138 335.756 504.763 391.105 523.639C446.454 542.515 505.338 512.494 522.627 456.585C539.915 400.676 509.061 340.051 453.712 321.175Z" stroke="#2B3F6D" stroke-opacity="0.24" stroke-width="6" stroke-miterlimit="10"/>
<path d="M475.886 249.463C381.328 217.216 280.731 268.503 251.195 364.018C221.66 459.532 274.371 563.103 368.929 595.351C463.487 627.599 564.085 576.311 593.62 480.797C623.155 385.282 570.444 281.711 475.886 249.463Z" stroke="#2B3F6D" stroke-opacity="0.3" stroke-width="6" stroke-miterlimit="10"/>
<path d="M498.492 176.354C363.962 130.475 220.839 203.443 178.818 339.334C136.797 475.225 211.791 622.58 346.321 668.459C480.852 714.339 623.975 641.371 665.996 505.479C708.016 369.588 633.022 222.234 498.492 176.354Z" stroke="#2B3F6D" stroke-opacity="0.6" stroke-width="6" stroke-miterlimit="10"/>
<path d="M520.058 106.617C347.398 47.7343 163.711 141.384 109.78 315.79C55.8497 490.195 152.099 679.314 324.758 738.197C497.418 797.08 681.105 703.43 735.036 529.024C788.966 354.619 692.717 165.501 520.058 106.617Z" stroke="#2B3F6D" stroke-opacity="0.8" stroke-width="6" stroke-miterlimit="10"/>
<path opacity="0.07" d="M360.095 668.889C365.273 652.144 382.909 643.153 399.485 648.807C416.062 654.46 425.303 672.617 420.125 689.362C414.947 706.106 397.311 715.097 380.735 709.444C364.158 703.791 354.917 685.634 360.095 668.889Z" fill="#B9BDCF" stroke="#080F20"/>
<path d="M377.43 674.801C379.763 667.256 387.709 663.205 395.178 665.752C402.647 668.3 406.811 676.481 404.478 684.026C402.145 691.571 394.198 695.622 386.729 693.075C379.261 690.528 375.097 682.347 377.43 674.801Z" fill="#3E35D1" stroke="#080F20"/>
<path opacity="0.07" d="M278.252 183.435C264.753 178.996 250.414 185.955 246.225 198.98C242.035 212.005 249.581 226.162 263.079 230.602C276.577 235.041 290.916 228.081 295.106 215.057C299.296 202.032 291.75 187.874 278.252 183.435Z" fill="#B9BDCF"/>
<path d="M274.586 196.023C268.389 193.985 261.805 197.18 259.882 203.16C257.958 209.139 261.423 215.639 267.62 217.677C273.817 219.716 280.4 216.52 282.324 210.541C284.247 204.561 280.783 198.061 274.586 196.023Z" fill="#3E35D1"/>
<path opacity="0.07" d="M131.599 535.648C120.621 531.904 108.942 537.858 105.513 548.947C102.084 560.037 108.203 572.061 119.182 575.805C130.16 579.549 141.839 573.595 145.268 562.506C148.698 551.416 142.578 539.392 131.599 535.648Z" fill="#86F8E0"/>
<path d="M127.964 546.323C122.923 544.604 117.561 547.338 115.987 552.429C114.413 557.52 117.222 563.041 122.263 564.76C127.303 566.479 132.665 563.745 134.239 558.654C135.814 553.562 133.004 548.042 127.964 546.323Z" fill="#86F8E0"/>
<path opacity="0.07" d="M556.932 270.225C542.602 265.338 527.357 273.11 522.881 287.585C518.405 302.059 526.393 317.755 540.723 322.642C555.053 327.529 570.297 319.756 574.773 305.282C579.249 290.807 571.261 275.112 556.932 270.225Z" fill="#D692F6" fill-opacity="0.15"/>
<path d="M553.013 284.213C546.434 281.969 539.435 285.537 537.38 292.183C535.325 298.828 538.993 306.034 545.571 308.278C552.15 310.521 559.149 306.953 561.204 300.308C563.259 293.662 559.592 286.456 553.013 284.213Z" fill="#D692F6"/>
<path d="M377.666 407.148C380.43 398.208 385.756 390.364 392.971 384.607C400.186 378.851 408.966 375.44 418.201 374.808C427.435 374.176 436.709 376.35 444.849 381.055C452.99 385.76 459.631 392.785 463.933 401.241C468.235 409.697 470.004 419.205 469.018 428.562C468.031 437.918 464.332 446.703 458.389 453.805C452.446 460.908 444.526 466.008 435.63 468.462C426.735 470.916 417.264 470.612 408.415 467.59C396.554 463.539 386.653 454.897 380.887 443.563C375.121 432.229 373.962 419.131 377.666 407.148Z" fill="white" fill-opacity="0.05"/>
</svg>
