<svg width="375" height="270" viewBox="0 0 375 270" fill="none" xmlns="http://www.w3.org/2000/svg">
<g clip-path="url(#clip0_198_1467)">
<path d="M261.044 278.096C272.435 237.853 248.77 196.932 208.187 186.696C167.605 176.46 125.472 200.786 114.081 241.029C102.69 281.271 126.355 322.192 166.938 332.428C207.521 342.664 249.654 318.338 261.044 278.096Z" stroke="#2B3F6D" stroke-opacity="0.24" stroke-width="4" stroke-miterlimit="10"/>
<path d="M313.099 291.224C332.559 222.474 292.13 152.564 222.799 135.078C153.467 117.591 81.4873 159.148 62.0273 227.899C42.5674 296.649 82.9963 366.559 152.328 384.045C221.659 401.532 293.639 359.975 313.099 291.224Z" stroke="#2B3F6D" stroke-opacity="0.3" stroke-width="4" stroke-miterlimit="10"/>
<path d="M366.167 304.608C393.853 206.795 336.333 107.333 237.693 82.4541C139.053 57.5752 36.6457 116.7 8.95948 214.514C-18.7268 312.327 38.7926 411.789 137.433 436.668C236.073 461.547 338.48 402.422 366.167 304.608Z" stroke="#2B3F6D" stroke-opacity="0.6" stroke-width="4" stroke-miterlimit="10"/>
<path d="M416.787 317.377C452.32 191.841 378.498 64.1894 251.901 32.2592C125.304 0.328913 -6.12831 76.2115 -41.6615 201.748C-77.1947 327.284 -3.37294 454.935 123.224 486.866C249.821 518.796 381.253 442.913 416.787 317.377Z" stroke="#2B3F6D" stroke-opacity="0.8" stroke-width="4" stroke-miterlimit="10"/>
<path opacity="0.07" d="M64.7598 216.482C73.6262 218.587 78.9018 227.428 76.5433 236.23C74.1847 245.033 65.0851 250.462 56.2187 248.358C47.3524 246.253 42.0767 237.412 44.4352 228.61C46.7938 219.808 55.8934 214.378 64.7598 216.482Z" fill="#B9BDCF" stroke="#080F20"/>
<path d="M67.0399 233.606C68.0928 229.886 65.9054 226.104 62.1541 225.157C58.4028 224.211 54.5082 226.46 53.4553 230.18C52.4024 233.9 54.5899 237.682 58.3411 238.628C62.0924 239.574 65.987 237.326 67.0399 233.606Z" fill="#D692F6"/>
<path opacity="0.07" d="M352.626 148.211C355.287 138.403 349.775 128.425 340.314 125.925C330.854 123.424 321.028 129.348 318.367 139.156C315.706 148.964 321.218 158.942 330.679 161.443C340.139 163.943 349.965 158.019 352.626 148.211Z" fill="#B9BDCF"/>
<path d="M342.884 144.992C343.896 141.261 341.47 137.378 337.465 136.32C333.461 135.261 329.394 137.428 328.382 141.159C327.369 144.89 329.795 148.773 333.8 149.832C337.804 150.89 341.871 148.723 342.884 144.992Z" fill="#3E35D1"/>
<path opacity="0.07" d="M95.7892 55.8145C98.0486 47.8325 93.3547 39.716 85.3053 37.6857C77.2559 35.6555 68.899 40.4804 66.6397 48.4624C64.3804 56.4444 69.0742 64.5609 77.1236 66.5911C85.173 68.6213 93.5299 63.7965 95.7892 55.8145Z" fill="#86F8E0"/>
<path d="M88.0302 53.6035C89.0831 49.8836 86.8978 46.1017 83.1492 45.1562C79.4006 44.2107 75.5082 46.4598 74.4553 50.1796C73.4024 53.8995 75.5877 57.6815 79.3363 58.627C83.0849 59.5724 86.9773 57.3233 88.0302 53.6035Z" fill="#86F8E0"/>
<path d="M196.771 227.032C203.26 228.668 209.064 232.176 213.448 237.112C217.831 242.047 220.598 248.189 221.399 254.761C222.199 261.332 220.997 268.037 217.944 274.029C214.891 280.02 210.125 285.029 204.248 288.421C198.371 291.812 191.647 293.435 184.928 293.084C178.208 292.732 171.794 290.422 166.497 286.446C161.2 282.47 157.258 277.006 155.17 270.746C153.081 264.485 152.94 257.71 154.765 251.276C157.21 242.652 163.008 235.254 170.885 230.708C178.762 226.162 188.073 224.84 196.771 227.032Z" fill="white" fill-opacity="0.05"/>
</g>
<defs>
<clipPath id="clip0_198_1467">
<rect width="377" height="270" fill="white" transform="translate(-1)"/>
</clipPath>
</defs>
</svg>
