<svg width="52" height="52" viewBox="0 0 52 52" fill="none" xmlns="http://www.w3.org/2000/svg">
<path d="M47.1969 18.2092H4.38221C1.96585 18.2092 0 20.1751 0 22.5914V28.9885C0 31.4048 1.96585 33.3707 4.38221 33.3707H47.1969C49.6133 33.3707 51.5792 31.4048 51.5792 28.9885V22.5914C51.5792 20.1751 49.6133 18.2092 47.1969 18.2092ZM45.5095 25.79C45.5095 26.6245 44.833 27.3011 43.9984 27.3011H31.8592C31.0247 27.3011 30.3481 26.6245 30.3481 25.79C30.3481 24.9554 31.0247 24.2788 31.8592 24.2788H43.9984C44.833 24.2788 45.5095 24.9554 45.5095 25.79ZM27.3007 25.79C27.3373 26.6061 26.58 27.3011 25.7896 27.3011C24.9425 27.3011 24.3151 26.6087 24.2785 25.79C24.2419 24.9739 24.9992 24.2788 25.7896 24.2788C26.6367 24.2788 27.264 24.9712 27.3007 25.79Z" fill="#020202"/>
<path d="M47.1969 36.2751H4.38221C1.96585 36.2751 0 38.241 0 40.6574V47.0544C0 49.4707 1.96585 51.4366 4.38221 51.4366H47.1969C49.6133 51.4366 51.5792 49.4707 51.5792 47.0544V40.6574C51.5792 38.241 49.6133 36.2751 47.1969 36.2751ZM45.5095 43.8559C45.5095 44.6904 44.833 45.367 43.9984 45.367H31.8592C31.0247 45.367 30.3481 44.6904 30.3481 43.8559C30.3481 43.0213 31.0247 42.3448 31.8592 42.3448H43.9984C44.833 42.3448 45.5095 43.0213 45.5095 43.8559ZM27.3007 43.8559C27.3373 44.672 26.58 45.367 25.7896 45.367C24.9425 45.367 24.3151 44.6746 24.2785 43.8559C24.2419 43.0398 24.9992 42.3448 25.7896 42.3448C26.6367 42.3448 27.264 43.0372 27.3007 43.8559Z" fill="#C6C6C6"/>
<path d="M47.1969 0H4.38221C1.96585 0 0 1.96585 0 4.38221V10.7792C0 13.1956 1.96585 15.1615 4.38221 15.1615H47.1969C49.6133 15.1615 51.5792 13.1956 51.5792 10.7792V4.38221C51.5792 1.96585 49.6133 0 47.1969 0ZM45.5095 7.58073C45.5095 8.41526 44.833 9.09184 43.9984 9.09184H31.8592C31.0247 9.09184 30.3481 8.41526 30.3481 7.58073C30.3481 6.74619 31.0247 6.06962 31.8592 6.06962H43.9984C44.833 6.06962 45.5095 6.74619 45.5095 7.58073ZM27.3007 7.58073C27.3373 8.39683 26.58 9.09184 25.7896 9.09184C24.9425 9.09184 24.3151 8.39944 24.2785 7.58073C24.2419 6.76463 24.9992 6.06962 25.7896 6.06962C26.6367 6.06962 27.264 6.76201 27.3007 7.58073Z" fill="#0066FF"/>
</svg>
